<svg width="207" height="79" viewBox="0 0 207 79" fill="none" xmlns="http://www.w3.org/2000/svg">
<path d="M75.7281 53.4984L75.2991 52.3414L74.8801 52.0984L75.3091 53.2554C75.3626 53.422 75.474 53.5639 75.6231 53.6554L76.0421 53.8984C75.8928 53.8072 75.7813 53.6652 75.7281 53.4984Z" fill="#A4A4A4"/>
<path d="M78.6881 50.3873L78.2671 52.0353C78.0826 52.7638 77.6302 53.3958 77.0001 53.8053C76.4281 54.1353 75.9151 54.0173 75.7281 53.5053L75.2991 52.3483L78.6881 50.3873Z" fill="#EEEEEE"/>
<path d="M79.0892 51.8133L78.9122 51.7133C78.6449 51.5621 78.342 51.4853 78.0349 51.4907C77.7279 51.4962 77.4279 51.5838 77.1662 51.7443C75.8382 52.5203 75.0402 54.7893 76.5662 55.7443L76.7442 55.8443C77.1069 56.054 77.5353 56.1197 77.9442 56.0283C79.5082 55.6803 80.8652 52.9243 79.0892 51.8133Z" fill="#383534"/>
<path d="M79.0891 51.8134C80.8651 52.9244 79.5081 55.6803 77.9401 56.0293C77.537 56.119 77.115 56.0555 76.7561 55.8514C76.5844 55.7345 76.4474 55.5735 76.3594 55.3854C76.2714 55.1973 76.2358 54.989 76.2561 54.7824C76.2868 54.2104 76.4522 53.6538 76.739 53.158C77.0257 52.6621 77.4257 52.2412 77.9061 51.9294C78.095 52.0347 78.2572 52.182 78.3803 52.3599C78.5034 52.5377 78.5841 52.7414 78.6161 52.9554C78.2912 53.1662 78.0206 53.4508 77.8265 53.786C77.6324 54.1212 77.5202 54.4976 77.4991 54.8843C77.4991 55.5953 78.0051 55.8843 78.6231 55.5253C78.9489 55.314 79.22 55.0284 79.4142 54.6921C79.6083 54.3557 79.72 53.9782 79.7401 53.5903C79.7401 52.8903 79.2401 52.5974 78.6161 52.9554C78.5841 52.7414 78.5034 52.5377 78.3803 52.3599C78.2572 52.182 78.095 52.0347 77.9061 51.9294C78.0745 51.8067 78.2725 51.7313 78.4798 51.7109C78.6871 51.6905 78.8961 51.7259 79.0851 51.8134H79.0891Z" fill="#464442"/>
<path opacity="0.5" d="M78.9121 51.7113C78.7233 51.6234 78.5143 51.5877 78.3069 51.6079C78.0996 51.6282 77.9015 51.7036 77.7331 51.8263C77.2527 52.1381 76.8527 52.5591 76.566 53.0549C76.2792 53.5507 76.1138 54.1074 76.0831 54.6793C76.0623 54.8831 76.096 55.0888 76.1807 55.2754C76.2654 55.462 76.398 55.6227 76.5651 55.7413L76.7431 55.8413C76.5758 55.7229 76.443 55.5621 76.3581 55.3756C76.2733 55.189 76.2394 54.9832 76.2601 54.7793C76.2908 54.2073 76.4562 53.6507 76.743 53.1549C77.0297 52.6591 77.4297 52.2381 77.9101 51.9263C78.0785 51.8037 78.2766 51.7283 78.4839 51.7079C78.6911 51.6875 78.9001 51.7228 79.0891 51.8103L78.9121 51.7113Z" fill="#464442"/>
<path d="M77.7362 54.6804L77.3072 53.5234L76.8892 53.2804L77.3172 54.4374C77.372 54.6042 77.4844 54.7459 77.6342 54.8374L78.0522 55.0804C77.9027 54.9888 77.7906 54.847 77.7362 54.6804Z" fill="#A4A4A4"/>
<path d="M80.6961 51.5664L80.2761 53.2144C80.0922 53.9441 79.6397 54.5777 79.0091 54.9884C78.4361 55.3194 77.9231 55.1964 77.7361 54.6804L77.3071 53.5234L80.6961 51.5664Z" fill="#EEEEEE"/>
<path d="M40.2592 73.9793L39.8302 72.8223L39.4122 72.5793L39.8402 73.7363C39.894 73.903 40.0057 74.0449 40.1552 74.1364L40.5732 74.3793C40.4241 74.2878 40.3127 74.1459 40.2592 73.9793Z" fill="#A4A4A4"/>
<path d="M43.2192 70.8654L42.7992 72.5134C42.614 73.2415 42.1617 73.8733 41.5322 74.2834C40.9592 74.6134 40.4462 74.4954 40.2592 73.9834L39.8302 72.8264L43.2192 70.8654Z" fill="#B2B2B2"/>
<path d="M43.6201 72.2913L43.4431 72.1913C43.176 72.0402 42.8732 71.9634 42.5663 71.969C42.2594 71.9747 41.9596 72.0625 41.6982 72.2233C40.3702 72.9993 39.5721 75.2683 41.0981 76.2233L41.2751 76.3233C41.6376 76.5339 42.066 76.6003 42.4751 76.5093C44.0401 76.1583 45.3961 73.3983 43.6201 72.2913Z" fill="#383534"/>
<path d="M43.6201 72.2914C45.3961 73.4024 44.0401 76.1584 42.4711 76.5074C42.068 76.597 41.646 76.5336 41.2871 76.3294C41.1155 76.2122 40.9786 76.0511 40.8906 75.8628C40.8026 75.6746 40.7669 75.4662 40.7871 75.2594C40.8181 74.6876 40.9837 74.1313 41.2704 73.6357C41.5571 73.1401 41.9569 72.7192 42.4371 72.4074C42.626 72.5128 42.7882 72.66 42.9113 72.8379C43.0344 73.0158 43.1151 73.2195 43.1471 73.4334C42.8222 73.6442 42.5516 73.9288 42.3575 74.264C42.1634 74.5993 42.0512 74.9756 42.0301 75.3624C42.0301 76.0734 42.5361 76.3624 43.1541 76.0034C43.4799 75.7919 43.7511 75.5064 43.9454 75.1701C44.1397 74.8338 44.2517 74.4562 44.2721 74.0684C44.2721 73.3684 43.7661 73.0754 43.1471 73.4334C43.1151 73.2195 43.0344 73.0158 42.9113 72.8379C42.7882 72.66 42.626 72.5128 42.4371 72.4074C42.6055 72.2848 42.8035 72.2094 43.0108 72.189C43.2181 72.1686 43.4271 72.2039 43.6161 72.2914H43.6201Z" fill="#464442"/>
<path opacity="0.5" d="M43.4431 72.1884C43.2541 72.1009 43.0451 72.0655 42.8378 72.0859C42.6305 72.1063 42.4325 72.1817 42.2641 72.3044C41.7837 72.6162 41.3837 73.0371 41.097 73.533C40.8102 74.0288 40.6448 74.5854 40.6141 75.1574C40.5933 75.3613 40.6271 75.5671 40.712 75.7537C40.7968 75.9403 40.9298 76.101 41.0971 76.2193L41.2741 76.3193C41.1068 76.2009 40.974 76.0402 40.8891 75.8536C40.8042 75.667 40.7704 75.4613 40.7911 75.2574C40.8221 74.6856 40.9877 74.1293 41.2744 73.6337C41.5611 73.1381 41.9609 72.7172 42.4411 72.4053C42.6095 72.2827 42.8076 72.2073 43.0148 72.1869C43.2221 72.1665 43.4311 72.2019 43.6201 72.2893L43.4431 72.1884Z" fill="#464442"/>
<path d="M42.2672 75.1583L41.8382 74.0013L41.4202 73.7583L41.8482 74.9153C41.9034 75.0819 42.0156 75.2235 42.1652 75.3153L42.5832 75.5583C42.4337 75.4668 42.3216 75.3249 42.2672 75.1583Z" fill="#A4A4A4"/>
<path d="M45.2271 72.0443L44.8071 73.6923C44.6232 74.4221 44.1707 75.0556 43.5401 75.4663C42.9671 75.7973 42.4541 75.6743 42.2671 75.1583L41.8381 74.0013L45.2271 72.0443Z" fill="#EEEEEE"/>
<path d="M60.7161 44.8353L60.2871 43.6773L59.8691 43.4343L60.2971 44.5913C60.351 44.758 60.4628 44.8999 60.6121 44.9913L61.0301 45.2343C60.8813 45.143 60.7699 45.0015 60.7161 44.8353Z" fill="#A4A4A4"/>
<path d="M63.6772 41.7203L63.2571 43.3683C63.0722 44.0966 62.6199 44.7285 61.9901 45.1383C61.4171 45.4693 60.9041 45.3503 60.7171 44.8383L60.2881 43.6803L63.6772 41.7203Z" fill="#EEEEEE"/>
<path d="M64.0771 43.1464L63.9001 43.0464C63.633 42.8949 63.3302 42.818 63.0232 42.8237C62.7163 42.8293 62.4165 42.9173 62.1551 43.0784C60.8271 43.8534 60.0291 46.1224 61.5551 47.0784L61.7321 47.1784C62.0949 47.3881 62.5231 47.4541 62.9321 47.3634C64.4971 47.0134 65.8531 44.2574 64.0771 43.1464Z" fill="#383534"/>
<path d="M64.0772 43.1464C65.8532 44.2574 64.4972 47.0134 62.9282 47.3624C62.5251 47.452 62.1031 47.3885 61.7442 47.1844C61.5727 47.0674 61.4357 46.9064 61.3478 46.7184C61.2598 46.5303 61.224 46.322 61.2442 46.1154C61.275 45.5434 61.4405 44.9869 61.7273 44.4911C62.014 43.9953 62.4138 43.5743 62.8942 43.2624C63.0831 43.3677 63.2453 43.515 63.3684 43.6929C63.4914 43.8708 63.5721 44.0745 63.6042 44.2884C63.2793 44.4993 63.0088 44.784 62.8147 45.1191C62.6207 45.4543 62.5084 45.8306 62.4872 46.2174C62.4872 46.9284 62.9932 47.2174 63.6122 46.8584C63.9377 46.6467 64.2086 46.3611 64.4027 46.0248C64.5968 45.6885 64.7087 45.3111 64.7292 44.9234C64.7292 44.2234 64.2232 43.9304 63.6042 44.2884C63.5721 44.0745 63.4914 43.8708 63.3684 43.6929C63.2453 43.515 63.0831 43.3677 62.8942 43.2624C63.0625 43.1397 63.2606 43.0643 63.4679 43.0439C63.6752 43.0236 63.8841 43.0589 64.0732 43.1464H64.0772Z" fill="#464442"/>
<path opacity="0.5" d="M63.9002 43.0443C63.7113 42.9564 63.5023 42.9207 63.295 42.9409C63.0876 42.9612 62.8895 43.0366 62.7212 43.1593C62.2408 43.4712 61.841 43.8923 61.5542 44.3881C61.2675 44.8839 61.102 45.4404 61.0712 46.0123C61.0506 46.2162 61.0844 46.422 61.1693 46.6085C61.2541 46.7951 61.3869 46.9558 61.5542 47.0743L61.7312 47.1743C61.564 47.0558 61.4311 46.8951 61.3463 46.7085C61.2614 46.522 61.2276 46.3162 61.2482 46.1123C61.279 45.5404 61.4445 44.9839 61.7312 44.4881C62.018 43.9923 62.4178 43.5713 62.8982 43.2593C63.0665 43.1367 63.2646 43.0613 63.4719 43.0409C63.6792 43.0205 63.8881 43.0559 64.0772 43.1433L63.9002 43.0443Z" fill="#464442"/>
<path d="M62.7241 46.0143L62.2951 44.8563L61.8771 44.6133L62.3061 45.7703C62.3606 45.9369 62.4726 46.0787 62.6221 46.1703L63.0401 46.4133C62.8912 46.3216 62.7793 46.1803 62.7241 46.0143Z" fill="#A4A4A4"/>
<path d="M65.6852 42.8983L65.2642 44.5463C65.0802 45.276 64.6278 45.9096 63.9972 46.3203C63.4252 46.6513 62.9122 46.5283 62.7242 46.0133L62.2952 44.8553L65.6852 42.8983Z" fill="#EEEEEE"/>
<path d="M25.2471 65.3123L24.8192 64.1553L24.4001 63.9124L24.8291 65.0693C24.8826 65.2359 24.994 65.3778 25.1431 65.4693L25.5611 65.7123C25.412 65.6208 25.3006 65.4789 25.2471 65.3123Z" fill="#A4A4A4"/>
<path d="M28.2081 62.1984L27.7872 63.8464C27.6019 64.5745 27.1497 65.2063 26.5201 65.6164C25.9481 65.9464 25.4351 65.8284 25.2471 65.3164L24.8192 64.1594L28.2081 62.1984Z" fill="#B2B2B2"/>
<path d="M28.6091 63.6243L28.4321 63.5243C28.1648 63.3731 27.8618 63.2963 27.5548 63.3019C27.2477 63.3076 26.9477 63.3954 26.6861 63.5563C25.3581 64.3323 24.5601 66.6013 26.0861 67.5563L26.2631 67.6563C26.6256 67.8669 27.0541 67.933 27.4631 67.8413C29.0281 67.4913 30.3841 64.7353 28.6091 63.6243Z" fill="#383534"/>
<path d="M28.6091 63.6244C30.3841 64.7354 29.0281 67.4914 27.4591 67.8394C27.0562 67.9297 26.634 67.8666 26.2751 67.6624C26.1037 67.5451 25.9668 67.3839 25.8789 67.1957C25.7909 67.0075 25.7551 66.7992 25.7751 66.5924C25.8061 66.0206 25.9717 65.4643 26.2584 64.9687C26.5452 64.4731 26.9449 64.0522 27.4251 63.7404C27.6143 63.8454 27.7767 63.9926 27.8999 64.1705C28.023 64.3484 28.1035 64.5523 28.1351 64.7664C27.8105 64.9775 27.5402 65.2623 27.3461 65.5974C27.152 65.9326 27.0397 66.3087 27.0181 66.6954C27.0181 67.4064 27.5241 67.6954 28.1431 67.3364C28.4686 67.1247 28.7395 66.8391 28.9337 66.5028C29.1278 66.1665 29.2396 65.7891 29.2601 65.4014C29.2601 64.7014 28.7541 64.4084 28.1351 64.7664C28.1035 64.5523 28.023 64.3484 27.8999 64.1705C27.7767 63.9926 27.6143 63.8454 27.4251 63.7404C27.5937 63.6178 27.7919 63.5424 27.9993 63.522C28.2068 63.5016 28.4159 63.5369 28.6051 63.6244H28.6091Z" fill="#464442"/>
<path opacity="0.5" d="M28.4321 63.5213C28.2429 63.4339 28.0338 63.3986 27.8264 63.4189C27.6189 63.4393 27.4207 63.5147 27.2521 63.6373C26.7718 63.9493 26.3719 64.3703 26.0852 64.8661C25.7985 65.3619 25.6329 65.9184 25.6021 66.4903C25.5818 66.6942 25.6157 66.8999 25.7005 67.0864C25.7854 67.273 25.9181 67.4337 26.0851 67.5523L26.2621 67.6523C26.0949 67.5338 25.9621 67.3731 25.8773 67.1866C25.7924 67 25.7585 66.7943 25.7791 66.5903C25.8101 66.0186 25.9757 65.4623 26.2624 64.9666C26.5492 64.471 26.9489 64.0502 27.4291 63.7383C27.5977 63.6157 27.7959 63.5404 28.0034 63.52C28.2108 63.4996 28.4199 63.5349 28.6091 63.6223L28.4321 63.5213Z" fill="#464442"/>
<path d="M27.2551 66.4913L26.8271 65.3343L26.4081 65.0913L26.8371 66.2483C26.8916 66.415 27.0037 66.5567 27.1532 66.6483L27.5721 66.8913C27.4223 66.7998 27.31 66.6581 27.2551 66.4913Z" fill="#A4A4A4"/>
<path d="M30.2162 63.3773L29.7952 65.0253C29.6113 65.7549 29.1588 66.3881 28.5282 66.7983C27.9562 67.1293 27.4431 67.0063 27.2551 66.4903L26.8271 65.3333L30.2162 63.3773Z" fill="#EEEEEE"/>
<path d="M27.5811 65.9903L23.8911 63.8604V59.8403L27.5811 61.9713V65.9903Z" fill="#A4A4A4"/>
<path d="M42.5541 53.3264L27.5811 61.9714V65.9904L42.5541 57.3464V53.3264Z" fill="#C9C9C9"/>
<path d="M49.7301 49.1834V53.2034L66.6451 43.4374V39.4174L49.7301 49.1834Z" fill="#EEEEEE"/>
<path d="M44.1051 69.8084L32.5361 63.1294V59.1094L44.1051 65.7884V69.8084Z" fill="#A4A4A4"/>
<path d="M72.1331 53.6263L44.1051 69.8083V65.7883L72.1331 49.6063V53.6263Z" fill="#EEEEEE"/>
<path d="M42.4671 74.5844L38.7771 72.4543V68.4343L42.4671 70.5653V74.5844Z" fill="#C9C9C9"/>
<path d="M81.5311 52.0313L42.4671 74.5844V70.5653L81.5311 48.0114V52.0313Z" fill="#EEEEEE"/>
<path d="M77.8401 45.8814L71.7611 49.3914L60.5651 42.9274L66.6451 39.4174L62.9551 37.2864L23.8911 59.8404L27.5811 61.9714L32.5371 59.1094L43.7321 65.5734L38.7771 68.4344L42.4671 70.5654L81.5311 48.0114L77.8401 45.8814Z" fill="#C9C9C9"/>
<path opacity="0.6" d="M51.2861 52.5573C50.8325 50.0347 50.2026 47.5469 49.4011 45.1123L23.8911 59.8403L27.5811 61.9713L32.5371 59.1093L37.8931 62.2023H50.9141C51.3791 62.2023 52.1431 58.2303 52.6411 56.8823C51.9922 55.51 51.5362 54.0546 51.2861 52.5573Z" fill="#C9C9C9"/>
<path d="M64.0571 43.7263L50.9142 36.1383L37.7701 43.7263L50.9142 51.3143L64.0571 43.7263Z" fill="#C9C9C9"/>
<path opacity="0.6" d="M50.9142 49.7853L53.3091 44.7023L50.9142 36.1383L37.7701 43.7263L48.2661 49.7853H50.9142Z" fill="#C9C9C9"/>
<path d="M50.9142 62.1333L37.7701 54.5453V43.7263L50.9142 51.3143V62.1333Z" fill="#C9C9C9"/>
<path d="M64.0572 54.5453L50.9142 62.1333V51.3143L64.0572 43.7263V54.5453Z" fill="#EEEEEE"/>
<path d="M61.6631 30.9853L50.9141 24.7793L40.1641 30.9853L50.9141 37.1913L61.6631 30.9853Z" fill="#C9C9C9"/>
<path d="M50.9141 49.8413L40.1641 43.6353V30.9854L50.9141 37.1913V49.8413Z" fill="#383534"/>
<path d="M61.6631 43.6353L50.9141 49.8413V37.1913L61.6631 30.9854V43.6353Z" fill="#464442"/>
<path d="M3.15717 46.3053L23.5382 58.1503C23.7086 58.2369 23.897 58.282 24.0882 58.282C24.2793 58.282 24.4677 58.2369 24.6382 58.1503L94.1472 18.0193C94.2102 17.9913 94.2646 17.9467 94.3045 17.8904C94.3444 17.8341 94.3685 17.7681 94.3742 17.6993V21.0523C94.3685 21.1211 94.3444 21.1871 94.3045 21.2434C94.2646 21.2997 94.2102 21.3443 94.1472 21.3723L24.6422 61.4984C24.4718 61.585 24.2833 61.6302 24.0922 61.6302C23.901 61.6302 23.7125 61.585 23.5422 61.4984L3.16216 49.6583C3.10046 49.6306 3.04721 49.5871 3.00786 49.5321C2.9685 49.4771 2.94446 49.4127 2.93816 49.3453L2.93317 45.9913C2.93949 46.0588 2.96354 46.1234 3.00288 46.1785C3.04222 46.2336 3.09545 46.2774 3.15717 46.3053Z" fill="#EEEEEE"/>
<g style="mix-blend-mode:multiply" opacity="0.4">
<path d="M3.15717 46.3053L23.5382 58.1503C23.7004 58.231 23.8786 58.2745 24.0597 58.2774C24.2409 58.2804 24.4204 58.2427 24.5852 58.1673V61.5223C24.421 61.5967 24.2423 61.6336 24.062 61.6303C23.8818 61.6271 23.7045 61.5837 23.5432 61.5033L3.16216 49.6583C3.10046 49.6306 3.04721 49.5871 3.00786 49.5321C2.9685 49.4771 2.94446 49.4127 2.93816 49.3453L2.93317 45.9913C2.93949 46.0588 2.96354 46.1234 3.00288 46.1785C3.04222 46.2336 3.09545 46.2774 3.15717 46.3053Z" fill="#C9C9C9"/>
</g>
<path d="M3.15717 46.3053L23.5382 58.1503C23.5572 58.1573 23.5572 61.5083 23.5572 61.5083L3.16216 49.6583C3.10046 49.6306 3.04721 49.5871 3.00786 49.5321C2.9685 49.4771 2.94446 49.4127 2.93816 49.3453L2.93317 45.9913C2.93949 46.0588 2.96354 46.1234 3.00288 46.1785C3.04222 46.2336 3.09545 46.2774 3.15717 46.3053Z" fill="#C9C9C9"/>
<path d="M3.16511 45.6683L72.6771 5.53735C72.8469 5.45158 73.0344 5.40686 73.2246 5.40686C73.4148 5.40686 73.6024 5.45158 73.7721 5.53735L94.1531 17.3813C94.2191 17.4042 94.2764 17.4471 94.3169 17.504C94.3574 17.5609 94.3792 17.629 94.3792 17.6989C94.3792 17.7687 94.3574 17.8368 94.3169 17.8937C94.2764 17.9506 94.2191 17.9935 94.1531 18.0163L24.6441 58.1473C24.4737 58.2339 24.2852 58.279 24.0941 58.279C23.903 58.279 23.7145 58.2339 23.5441 58.1473L3.15711 46.3053C2.85711 46.1313 2.85811 45.8463 3.16511 45.6683Z" fill="#C9C9C9"/>
<path d="M0.00312467 45.0403V46.9333C0.00712256 47.0231 0.0305611 47.1108 0.0718274 47.1906C0.113094 47.2704 0.171201 47.3402 0.242123 47.3953C0.299352 47.4452 0.36131 47.4895 0.427121 47.5273L21.1511 59.5703C21.4723 59.734 21.8276 59.8193 22.1881 59.8193C22.5486 59.8193 22.9039 59.734 23.2251 59.5703L39.3251 50.2703C39.4438 50.2175 39.5463 50.1341 39.6222 50.0287C39.6981 49.9233 39.7446 49.7996 39.7571 49.6703V48.3753L40.1511 48.6043C40.4724 48.7675 40.8277 48.8526 41.1881 48.8526C41.5485 48.8526 41.9038 48.7675 42.2251 48.6043L81.8121 25.7493C81.9307 25.6963 82.0331 25.6129 82.1089 25.5075C82.1848 25.4021 82.2315 25.2786 82.2441 25.1494V23.8893L82.6081 24.1013C82.9286 24.2645 83.2831 24.3495 83.6426 24.3495C84.0022 24.3495 84.3567 24.2645 84.6771 24.1013L98.0301 16.3913C98.1501 16.3379 98.2538 16.2536 98.3304 16.1469C98.407 16.0402 98.4539 15.9151 98.4661 15.7843L98.4601 13.8913C98.4485 13.7637 98.4031 13.6415 98.3286 13.5373C98.2541 13.4331 98.1531 13.3506 98.0361 13.2983L77.3121 1.25433C76.9912 1.09044 76.636 1.005 76.2756 1.005C75.9153 1.005 75.5601 1.09044 75.2391 1.25433L61.8861 8.96335C61.7519 9.01908 61.639 9.1163 61.5639 9.24081C61.4889 9.36533 61.4557 9.51059 61.4691 9.65533C61.4618 9.62645 61.4568 9.59704 61.4541 9.56735V10.8273L61.0901 10.6153C60.7697 10.4522 60.4152 10.3671 60.0556 10.3671C59.696 10.3671 59.3416 10.4522 59.0211 10.6153L19.4341 33.4713C19.2984 33.5276 19.1843 33.6261 19.1087 33.7521C19.033 33.8781 18.9999 34.025 19.0141 34.1713C19.0071 34.142 19.0021 34.1123 18.9991 34.0823V35.3824L18.5991 35.1523C18.2787 34.9892 17.9242 34.9041 17.5646 34.9041C17.205 34.9041 16.8506 34.9892 16.5301 35.1523L0.430119 44.4523C0.293991 44.5083 0.17948 44.6066 0.103489 44.7326C0.0274987 44.8587 -0.0059388 45.0058 0.00812192 45.1523C0.00251519 45.1153 0.000841964 45.0778 0.00312467 45.0403ZM98.4301 14.0493C98.4371 14.0263 98.4371 14.0023 98.4421 13.9793C98.4421 14.0013 98.4421 14.0253 98.4311 14.0473L98.4301 14.0493ZM98.3481 14.2073C98.3608 14.1864 98.3722 14.1647 98.3821 14.1423C98.3723 14.1643 98.3613 14.1856 98.3491 14.2063L98.3481 14.2073Z" fill="#00407E"/>
<path d="M75.2361 1.24933C75.5571 1.08544 75.9123 1 76.2726 1C76.633 1 76.9882 1.08544 77.3091 1.24933L98.0331 13.2933C98.6021 13.6243 98.5991 14.1603 98.0211 14.4933L84.6691 22.1983C84.3487 22.3615 83.9942 22.4465 83.6346 22.4465C83.2751 22.4465 82.9206 22.3615 82.6001 22.1983L61.8771 10.1573C61.7522 10.1139 61.644 10.0324 61.5676 9.92438C61.4913 9.81634 61.4507 9.68713 61.4515 9.55484C61.4522 9.42255 61.4944 9.29382 61.5719 9.18668C61.6495 9.07953 61.7587 8.99934 61.8842 8.95734L75.2361 1.24933ZM19.4361 33.4663C19.311 33.5083 19.202 33.5882 19.1244 33.695C19.0467 33.8017 19.0043 33.9301 19.003 34.0621C19.0017 34.1941 19.0415 34.3232 19.117 34.4315C19.1925 34.5398 19.2998 34.6219 19.4241 34.6664L40.1481 46.7094C40.4693 46.8725 40.8244 46.9576 41.1846 46.9576C41.5449 46.9576 41.9 46.8725 42.2211 46.7094L81.8081 23.8543C81.9341 23.8128 82.0438 23.7328 82.1218 23.6256C82.1998 23.5184 82.2422 23.3894 82.2429 23.2569C82.2437 23.1243 82.2029 22.9948 82.1261 22.8867C82.0493 22.7786 81.9406 22.6973 81.8151 22.6543L61.0921 10.6113C60.7717 10.4482 60.4172 10.3631 60.0576 10.3631C59.6981 10.3631 59.3436 10.4482 59.0231 10.6113L19.4361 33.4663ZM0.436144 44.4333C-0.141856 44.7673 -0.144857 45.3033 0.424143 45.6333L21.1481 57.6773C21.4692 57.8408 21.8244 57.9259 22.1846 57.9259C22.5449 57.9259 22.9001 57.8408 23.2211 57.6773L39.3211 48.3773C39.447 48.3357 39.5567 48.2556 39.6346 48.1484C39.7125 48.0411 39.7548 47.9121 39.7554 47.7795C39.7561 47.6469 39.7151 47.5175 39.6383 47.4094C39.5614 47.3014 39.4526 47.2202 39.3271 47.1773L18.6081 35.1383C18.2877 34.9752 17.9332 34.8901 17.5736 34.8901C17.2141 34.8901 16.8596 34.9752 16.5391 35.1383L0.436144 44.4333Z" fill="#005CB5"/>
<path d="M177.68 76.7944L177.969 76.0134L178.251 75.8494L177.962 76.6304C177.925 76.7422 177.85 76.8375 177.75 76.8994L177.468 77.0634C177.568 77.0015 177.643 76.9062 177.68 76.7944Z" fill="#EEEEEE"/>
<path d="M175.684 74.6954L175.967 75.8054C176.092 76.2965 176.397 76.7226 176.822 76.9984C177.207 77.2214 177.553 77.1414 177.68 76.7984L177.969 76.0174L175.684 74.6954Z" fill="#A4A4A4"/>
<path d="M175.414 75.6564L175.533 75.5864C175.714 75.4847 175.918 75.4331 176.125 75.437C176.332 75.4408 176.534 75.5 176.71 75.6084C177.605 76.1314 178.143 77.6604 177.11 78.3034L176.99 78.3734C176.746 78.5144 176.458 78.5586 176.183 78.4974C175.131 78.2644 174.217 76.4044 175.414 75.6564Z" fill="#353433"/>
<path d="M175.725 78.1583C175.506 78.0163 175.324 77.8245 175.193 77.5986C175.062 77.3726 174.986 77.119 174.972 76.8583C174.972 76.3823 175.313 76.1883 175.73 76.4293C175.949 76.5716 176.131 76.7634 176.262 76.9893C176.393 77.2152 176.469 77.4687 176.483 77.7293C176.482 78.2053 176.142 78.3993 175.725 78.1583Z" fill="#282726"/>
<g style="mix-blend-mode:screen" opacity="0.2">
<path d="M175.533 75.5864C175.661 75.5265 175.803 75.5022 175.944 75.5159C176.085 75.5297 176.219 75.5809 176.333 75.6644C176.657 75.8748 176.926 76.1586 177.119 76.4928C177.313 76.827 177.424 77.202 177.445 77.5874C177.459 77.7249 177.436 77.8635 177.379 77.9893C177.322 78.1151 177.233 78.2235 177.12 78.3034L177 78.3734C177.113 78.2936 177.203 78.1853 177.26 78.0595C177.317 77.9337 177.34 77.795 177.326 77.6574C177.305 77.272 177.194 76.8969 177.001 76.5627C176.807 76.2285 176.538 75.9448 176.214 75.7344C176.101 75.6517 175.967 75.6008 175.827 75.5871C175.688 75.5734 175.547 75.5973 175.419 75.6564L175.533 75.5864Z" fill="#353433"/>
</g>
<path d="M176.326 77.5894L176.615 76.8084L176.897 76.6444L176.608 77.4254C176.572 77.5381 176.496 77.634 176.395 77.6954L176.113 77.8594C176.214 77.7974 176.289 77.7018 176.326 77.5894Z" fill="#EEEEEE"/>
<path d="M174.33 75.4894L174.614 76.6004C174.737 77.0938 175.042 77.5225 175.468 77.8004C175.854 78.0234 176.199 77.9404 176.326 77.5934L176.615 76.8124L174.33 75.4894Z" fill="#A4A4A4"/>
<path d="M174.217 75.5054L174.218 75.8144L176.6 77.1984L176.599 76.8904L174.217 75.5054Z" fill="#A4A4A4"/>
<path d="M176.599 76.8904L176.6 77.1984L178.395 76.1624L178.394 75.8544L176.599 76.8904Z" fill="#EEEEEE"/>
<path d="M199.289 64.3184L199.578 63.5374L199.86 63.3734L199.571 64.1544C199.535 64.2661 199.46 64.3611 199.359 64.4224L199.077 64.5864C199.178 64.5251 199.253 64.4301 199.289 64.3184Z" fill="#EEEEEE"/>
<path d="M197.293 62.2184L197.577 63.3294C197.701 63.8204 198.006 64.2464 198.431 64.5224C198.817 64.7454 199.162 64.6654 199.289 64.3224L199.578 63.5414L197.293 62.2184Z" fill="#A4A4A4"/>
<path d="M197.023 63.1804L197.142 63.1104C197.322 63.0087 197.527 62.9571 197.734 62.961C197.941 62.9649 198.143 63.0241 198.319 63.1324C199.214 63.6554 199.752 65.1844 198.724 65.8274L198.605 65.8964C198.361 66.0378 198.073 66.0824 197.797 66.0214C196.74 65.7864 195.826 63.9284 197.023 63.1804Z" fill="#353433"/>
<path d="M197.334 65.6824C197.115 65.5397 196.932 65.3471 196.801 65.1203C196.67 64.8935 196.595 64.6389 196.581 64.3774C196.581 63.9024 196.922 63.7084 197.339 63.9494C197.558 64.0916 197.74 64.2834 197.871 64.5093C198.002 64.7352 198.078 64.9887 198.092 65.2494C198.091 65.7294 197.751 65.9234 197.334 65.6824Z" fill="#282726"/>
<g style="mix-blend-mode:screen" opacity="0.2">
<path d="M197.142 63.1104C197.27 63.0515 197.411 63.0277 197.55 63.0414C197.69 63.0551 197.824 63.1059 197.937 63.1884C198.261 63.3986 198.531 63.6824 198.724 64.0166C198.918 64.3507 199.029 64.7259 199.05 65.1114C199.064 65.2489 199.041 65.3876 198.984 65.5134C198.927 65.6392 198.837 65.7475 198.724 65.8274L198.605 65.8964C198.718 65.8166 198.807 65.7084 198.864 65.5828C198.921 65.4572 198.944 65.3187 198.93 65.1814C198.91 64.7959 198.798 64.4208 198.605 64.0866C198.412 63.7524 198.142 63.4686 197.818 63.2584C197.704 63.1747 197.57 63.1233 197.429 63.1096C197.288 63.0958 197.146 63.1203 197.018 63.1804L197.142 63.1104Z" fill="#353433"/>
</g>
<path d="M197.935 65.1135L198.224 64.3325L198.506 64.1685L198.217 64.9495C198.18 65.0618 198.105 65.1575 198.004 65.2195L197.722 65.3835C197.823 65.3215 197.898 65.2258 197.935 65.1135Z" fill="#EEEEEE"/>
<path d="M195.939 63.0134L196.223 64.1244C196.346 64.6179 196.651 65.0465 197.077 65.3244C197.463 65.5474 197.809 65.4644 197.935 65.1174L198.224 64.3364L195.939 63.0134Z" fill="#A4A4A4"/>
<path d="M195.826 63.0294L195.827 63.3384L198.209 64.7224L198.208 64.4144L195.826 63.0294Z" fill="#A4A4A4"/>
<path d="M198.208 64.4144L198.209 64.7224L200.004 63.6864L200.003 63.3784L198.208 64.4144Z" fill="#EEEEEE"/>
<path d="M176.399 77.0945L174.095 75.7645V73.1045L176.399 74.4345V77.0945Z" fill="#C9C9C9"/>
<path d="M200.167 63.3724L176.399 77.0944V74.4344L200.167 60.7124V63.3724Z" fill="#EEEEEE"/>
<path d="M176.399 74.4344L174.095 73.1044L197.863 59.3824L200.167 60.7124L176.399 74.4344Z" fill="#C9C9C9"/>
<path d="M184.343 56.4134L182.039 55.0834L179.735 56.4134L182.039 57.7434L184.343 56.4134Z" fill="#C9C9C9"/>
<path d="M182.039 71.1783L179.735 69.8484V56.4133L182.039 57.7433V71.1783Z" fill="#A4A4A4"/>
<path d="M184.343 69.8484L182.039 71.1783V57.7433L184.343 56.4133V69.8484Z" fill="#EEEEEE"/>
<path d="M194.534 50.5294L192.23 49.1993L189.926 50.5294L192.23 51.8593L194.534 50.5294Z" fill="#C9C9C9"/>
<path d="M192.23 65.2943L189.926 63.9643V50.5293L192.23 51.8593V65.2943Z" fill="#A4A4A4"/>
<path d="M194.534 63.9643L192.23 65.2943V51.8593L194.534 50.5293V63.9643Z" fill="#EEEEEE"/>
<path d="M122.52 44.9474L122.809 44.1674L123.091 44.0034L122.802 44.7834C122.766 44.8955 122.691 44.9909 122.59 45.0524L122.308 45.2164C122.409 45.155 122.484 45.0595 122.52 44.9474Z" fill="#EEEEEE"/>
<path d="M120.524 42.8484L120.808 43.9594C120.933 44.4503 121.238 44.8762 121.662 45.1524C122.048 45.3754 122.393 45.2954 122.52 44.9524L122.809 44.1724L120.524 42.8484Z" fill="#A4A4A4"/>
<path d="M120.258 43.8094L120.377 43.7404C120.557 43.6386 120.762 43.5868 120.969 43.5905C121.176 43.5942 121.378 43.6532 121.554 43.7614C122.454 44.2854 122.987 45.8144 121.959 46.4614L121.84 46.5304C121.596 46.6713 121.308 46.7158 121.032 46.6554C119.971 46.4164 119.058 44.5584 120.258 43.8094Z" fill="#353433"/>
<path d="M120.565 46.3124C120.346 46.1696 120.163 45.977 120.032 45.7502C119.901 45.5234 119.826 45.2689 119.812 45.0074C119.812 44.5324 120.153 44.3384 120.57 44.5794C120.789 44.7215 120.972 44.9133 121.102 45.1392C121.233 45.3651 121.309 45.6187 121.323 45.8794C121.322 46.3644 120.982 46.5534 120.565 46.3124Z" fill="#282726"/>
<g style="mix-blend-mode:screen" opacity="0.2">
<path d="M120.373 43.7404C120.501 43.6812 120.641 43.6573 120.781 43.671C120.921 43.6847 121.055 43.7356 121.168 43.8183C121.492 44.0285 121.762 44.3123 121.955 44.6465C122.148 44.9807 122.26 45.3558 122.28 45.7413C122.294 45.8788 122.272 46.0175 122.214 46.1433C122.157 46.2691 122.068 46.3775 121.955 46.4573L121.836 46.5263C121.949 46.4464 122.038 46.338 122.095 46.2122C122.152 46.0864 122.175 45.9478 122.161 45.8103C122.14 45.4249 122.029 45.0499 121.835 44.7157C121.642 44.3815 121.373 44.0977 121.049 43.8873C120.935 43.8038 120.801 43.7526 120.66 43.7388C120.519 43.7251 120.377 43.7495 120.249 43.8094L120.373 43.7404Z" fill="#353433"/>
</g>
<path d="M121.166 45.7425L121.455 44.9625L121.737 44.7985L121.448 45.5785C121.411 45.6912 121.336 45.7872 121.235 45.8495L120.953 46.0125C121.054 45.951 121.13 45.8552 121.166 45.7425Z" fill="#EEEEEE"/>
<path d="M119.17 43.6434L119.454 44.7534C119.577 45.2469 119.882 45.6755 120.308 45.9534C120.694 46.1754 121.04 46.0934 121.166 45.7454L121.455 44.9654L119.17 43.6434Z" fill="#A4A4A4"/>
<path d="M119.057 43.6594L119.058 43.9674L121.44 45.3524L121.439 45.0444L119.057 43.6594Z" fill="#A4A4A4"/>
<path d="M121.439 45.0444L121.44 45.3524L123.235 44.3164L123.234 44.0074L121.439 45.0444Z" fill="#EEEEEE"/>
<path d="M144.129 32.4715L144.418 31.6915L144.7 31.5275L144.411 32.3075C144.375 32.4196 144.3 32.515 144.199 32.5765L143.917 32.7405C144.018 32.679 144.093 32.5836 144.129 32.4715Z" fill="#EEEEEE"/>
<path d="M142.133 30.3724L142.417 31.4834C142.542 31.9743 142.847 32.4003 143.271 32.6764C143.657 32.8994 144.003 32.8194 144.129 32.4764L144.418 31.6964L142.133 30.3724Z" fill="#A4A4A4"/>
<path d="M141.863 31.3333L141.982 31.2643C142.162 31.1625 142.367 31.1107 142.574 31.1144C142.78 31.1181 142.983 31.1771 143.159 31.2853C144.054 31.8083 144.592 33.3384 143.559 33.9854L143.44 34.0544C143.196 34.1951 142.908 34.2396 142.633 34.1794C141.58 33.9404 140.666 32.0823 141.863 31.3333Z" fill="#353433"/>
<path d="M142.174 33.8354C141.955 33.6931 141.773 33.5013 141.642 33.2754C141.511 33.0495 141.436 32.796 141.421 32.5353C141.421 32.0603 141.762 31.8663 142.179 32.1073C142.398 32.2494 142.581 32.4413 142.711 32.6672C142.842 32.8931 142.918 33.1467 142.932 33.4074C142.931 33.8834 142.591 34.0764 142.174 33.8354Z" fill="#282726"/>
<g style="mix-blend-mode:screen" opacity="0.2">
<path d="M141.982 31.2644C142.11 31.2043 142.252 31.1798 142.393 31.1935C142.534 31.2073 142.668 31.2587 142.782 31.3424C143.106 31.5524 143.376 31.8361 143.569 32.1703C143.763 32.5045 143.874 32.8798 143.895 33.2654C143.909 33.4029 143.886 33.5416 143.829 33.6674C143.772 33.7932 143.682 33.9016 143.569 33.9814L143.45 34.0504C143.563 33.9703 143.652 33.8619 143.709 33.7361C143.766 33.6104 143.789 33.4718 143.775 33.3344C143.754 32.9489 143.643 32.5738 143.45 32.2396C143.256 31.9055 142.987 31.6217 142.663 31.4114C142.549 31.3279 142.415 31.2766 142.274 31.2628C142.133 31.2491 141.991 31.2735 141.863 31.3334L141.982 31.2644Z" fill="#353433"/>
</g>
<path d="M142.775 33.2644L143.064 32.4844L143.346 32.3204L143.057 33.1004C143.02 33.2132 142.945 33.3092 142.844 33.3714L142.562 33.5344C142.663 33.473 142.739 33.3771 142.775 33.2644Z" fill="#EEEEEE"/>
<path d="M140.78 31.1644L141.063 32.2744C141.186 32.7679 141.491 33.1965 141.917 33.4744C142.303 33.6964 142.649 33.6144 142.775 33.2664L143.064 32.4864L140.78 31.1644Z" fill="#A4A4A4"/>
<path d="M140.667 31.1833L140.668 31.4913L143.049 32.8763V32.5674L140.667 31.1833Z" fill="#A4A4A4"/>
<path d="M143.049 32.5674V32.8764L144.844 31.8404L144.843 31.5314L143.049 32.5674Z" fill="#EEEEEE"/>
<path d="M121.239 45.2484L118.935 43.9184V41.2574L121.239 42.5884V45.2484Z" fill="#C9C9C9"/>
<path d="M145.007 31.5255L121.239 45.2485V42.5885L145.007 28.8655V31.5255Z" fill="#EEEEEE"/>
<path d="M121.239 42.5884L118.935 41.2574L142.703 27.5354L145.007 28.8654L121.239 42.5884Z" fill="#C9C9C9"/>
<path d="M129.183 24.5663L126.879 23.2363L124.575 24.5663L126.879 25.8973L129.183 24.5663Z" fill="#C9C9C9"/>
<path d="M126.879 39.3314L124.575 38.0014V24.5664L126.879 25.8974V39.3314Z" fill="#A4A4A4"/>
<path d="M129.183 38.0014L126.879 39.3314V25.8974L129.183 24.5664V38.0014Z" fill="#EEEEEE"/>
<path d="M139.374 18.6824L137.07 17.3524L134.767 18.6824L137.07 20.0134L139.374 18.6824Z" fill="#C9C9C9"/>
<path d="M137.07 33.4474L134.767 32.1174V18.6824L137.07 20.0134V33.4474Z" fill="#A4A4A4"/>
<path d="M139.374 32.1174L137.07 33.4474V20.0134L139.374 18.6824V32.1174Z" fill="#EEEEEE"/>
<path d="M115.156 33.4474L112.466 31.8944V28.2914L115.156 29.8434V33.4474Z" fill="#C9C9C9"/>
<path d="M145.688 15.8193L115.156 33.4473V29.8433L145.688 12.2163V15.8193Z" fill="#EEEEEE"/>
<path d="M115.156 29.8434L112.466 28.2914L142.998 10.6633L145.688 12.2163L115.156 29.8434Z" fill="#C9C9C9"/>
<path d="M142.296 2.61336C142.295 2.50131 142.267 2.39118 142.214 2.29254C142.161 2.1939 142.084 2.10974 141.991 2.04736L140.853 1.38635C140.946 1.44863 141.022 1.53265 141.076 1.6311C141.129 1.72956 141.157 1.83948 141.158 1.95135L141.329 3.70436C141.33 3.82767 141.3 3.9492 141.241 4.05762C141.182 4.16603 141.097 4.2578 140.993 4.32436L138.616 5.69737C138.581 5.72231 138.541 5.73755 138.498 5.74159C138.456 5.74563 138.413 5.73831 138.374 5.72035L139.512 6.38136C139.551 6.39933 139.593 6.40668 139.636 6.40263C139.678 6.39859 139.719 6.3833 139.753 6.35835L142.131 4.98634C142.235 4.91965 142.32 4.8277 142.379 4.71909C142.437 4.61047 142.467 4.48876 142.466 4.36536L142.296 2.61336Z" fill="#A4A4A4"/>
<path d="M134.131 4.68834L132.994 4.02734C133.348 4.23334 133.169 5.16533 132.552 5.56033C132.006 5.90733 130.24 6.94236 128.474 7.96036C126.708 8.97836 124.942 9.98333 124.396 10.2673C124.333 10.3102 124.26 10.336 124.183 10.3423C124.107 10.3487 124.031 10.3352 123.961 10.3033L125.099 10.9644C125.169 10.9962 125.245 11.0096 125.321 11.0033C125.398 10.997 125.471 10.9712 125.534 10.9283C126.08 10.6443 127.846 9.64134 129.612 8.62134C131.378 7.60134 133.144 6.56634 133.69 6.22134C134.306 5.82634 134.486 4.89434 134.131 4.68834Z" fill="#A4A4A4"/>
<path d="M119.917 14.2194L118.779 13.5574C118.863 13.6202 118.926 13.7059 118.961 13.8041C118.997 13.9023 119.003 14.0087 118.979 14.1104L118.691 16.8624C118.677 16.969 118.64 17.0714 118.584 17.1628C118.527 17.2542 118.451 17.3324 118.362 17.3924L115.975 18.7644C115.941 18.7897 115.9 18.8053 115.858 18.8095C115.816 18.8137 115.773 18.8064 115.734 18.7884L116.872 19.4494C116.911 19.4673 116.953 19.4747 116.996 19.4706C117.038 19.4666 117.079 19.4513 117.113 19.4264L119.497 18.0494C119.587 17.9895 119.662 17.9113 119.719 17.8199C119.776 17.7285 119.812 17.626 119.826 17.5194L120.114 14.7674C120.138 14.6668 120.132 14.5615 120.097 14.4643C120.062 14.3671 119.999 14.282 119.917 14.2194Z" fill="#A4A4A4"/>
<path d="M114.746 17.0824L114 28.2294L115.137 28.8904L115.883 17.7434L114.746 17.0824Z" fill="#C9C9C9"/>
<path d="M143.347 1.88737C143.339 -0.974629 136.469 1.55837 129.603 5.52237C122.737 9.48637 115.875 14.8814 115.883 17.7434L115.137 28.8904L144.158 12.1374L143.347 1.88737ZM119.826 17.5234C119.812 17.63 119.776 17.7325 119.719 17.8239C119.662 17.9153 119.587 17.9935 119.497 18.0534L117.113 19.4304C116.913 19.5454 116.755 19.4384 116.775 19.1984L116.935 17.2554C117.005 16.6695 117.284 16.1287 117.722 15.7334L119.246 14.3944C119.301 14.346 119.361 14.3031 119.424 14.2664C119.831 14.0314 120.167 14.2494 120.114 14.7664L119.826 17.5234ZM133.69 6.22338C133.144 6.57038 131.378 7.60638 129.612 8.62338C127.846 9.64038 126.08 10.6464 125.534 10.9304C124.778 11.3194 124.671 10.1474 125.406 9.53036C126.734 8.51907 128.138 7.61235 129.606 6.81836C130.94 5.9819 132.346 5.26576 133.806 4.67837C134.545 4.44637 134.445 5.73837 133.69 6.22137V6.22338ZM142.131 4.98837L139.753 6.36038C139.582 6.46038 139.437 6.39336 139.416 6.21536L139.116 3.80436C139.11 3.54704 139.17 3.29246 139.29 3.06489C139.411 2.83732 139.587 2.64436 139.803 2.50438C139.859 2.4721 139.918 2.44689 139.979 2.42936L141.506 2.00637C141.939 1.89037 142.256 2.13438 142.299 2.61638L142.469 4.36837C142.47 4.49155 142.439 4.61283 142.38 4.7209C142.321 4.82897 142.235 4.92029 142.131 4.98635V4.98837Z" fill="#EEEEEE"/>
<path d="M141.684 0.237402C139.953 -0.768598 134.208 1.54538 128.465 4.86138C121.599 8.82538 114.738 14.2204 114.746 17.0824L115.883 17.7434C115.875 14.8814 122.737 9.48639 129.603 5.52239C135.346 2.20739 141.091 -0.107602 142.822 0.898398L141.684 0.237402Z" fill="#C9C9C9"/>
<path d="M141.263 7.55237L118.305 20.8064L118.016 25.5974L141.545 12.0124L141.263 7.55237Z" fill="#00407E"/>
<path d="M173.005 32.3075L155.21 22.0345V17.3855L173.005 27.6585V32.3075Z" fill="#C9C9C9"/>
<path d="M174.442 31.4784L173.005 32.3074V27.6584L174.442 26.8284V31.4784Z" fill="#EEEEEE"/>
<path d="M173.005 27.6584L155.21 17.3854L156.648 16.5554L174.442 26.8284L173.005 27.6584Z" fill="#C9C9C9"/>
<path d="M173.171 27.1714C173.035 27.1714 172.905 27.1175 172.809 27.0215C172.713 26.9256 172.658 26.7953 172.658 26.6594V23.1594C172.592 22.6198 172.404 22.1022 172.11 21.645C171.816 21.1879 171.422 20.8032 170.958 20.5194L158.358 13.2434C158.142 13.1053 157.895 13.0244 157.639 13.0084C157.553 13.0057 157.468 13.0254 157.391 13.0654C157.311 13.1334 157.249 13.2201 157.211 13.3178C157.173 13.4155 157.159 13.5212 157.172 13.6254V17.1254C157.175 17.1946 157.164 17.2637 157.14 17.3286C157.116 17.3934 157.078 17.4527 157.03 17.5027C156.982 17.5528 156.925 17.5926 156.861 17.6198C156.798 17.6471 156.729 17.6611 156.66 17.6611C156.59 17.6611 156.522 17.6471 156.458 17.6198C156.394 17.5926 156.337 17.5528 156.289 17.5027C156.241 17.4527 156.204 17.3934 156.18 17.3286C156.155 17.2637 156.144 17.1946 156.147 17.1254V13.6254C156.127 13.3405 156.184 13.0553 156.313 12.8005C156.442 12.5456 156.638 12.3306 156.88 12.1784C157.11 12.0483 157.371 11.9819 157.635 11.9864C158.072 12.0004 158.497 12.1276 158.87 12.3554L171.477 19.6354C172.1 20.005 172.625 20.5178 173.01 21.1312C173.395 21.7446 173.628 22.441 173.689 23.1624V26.6624C173.689 26.7299 173.675 26.7966 173.649 26.8587C173.622 26.9208 173.584 26.9771 173.536 27.0244C173.488 27.0717 173.431 27.109 173.368 27.1342C173.306 27.1595 173.239 27.1721 173.171 27.1714Z" fill="#C9C9C9"/>
<path d="M143.794 14.1824L145.188 13.3724L204.396 47.5554L203.002 48.3654L143.794 14.1824Z" fill="#C9C9C9"/>
<path d="M143.794 14.1824L143.789 15.9724L202.997 50.1174L203.002 48.3654L143.794 14.1824Z" fill="#C9C9C9"/>
<path d="M203.002 48.3654L204.396 47.5554L204.391 49.3064L202.997 50.1174L203.002 48.3654Z" fill="#EEEEEE"/>
<path d="M119.43 31.5803L118.507 31.0473V29.6223L119.43 30.1553V31.5803Z" fill="#EEEEEE"/>
<path d="M145.28 16.6553L119.43 31.5804V30.1553L145.28 15.2303V16.6553Z" fill="#EEEEEE"/>
<path d="M119.43 30.1554L118.507 29.6224L144.357 14.6974L145.28 15.2304L119.43 30.1554Z" fill="#C9C9C9"/>
<path d="M125.385 13.3725C125.364 13.3328 125.334 13.2984 125.298 13.2718C125.261 13.2453 125.219 13.2272 125.175 13.2191C125.131 13.2109 125.085 13.2128 125.042 13.2247C124.998 13.2365 124.958 13.258 124.924 13.2875C123.975 14.1675 121.124 17.2685 123.524 20.9395L137.507 40.2915L176.663 62.8985L176.671 60.2645L138.258 38.0875L125.385 13.3725Z" fill="#00407E"/>
<path d="M138.258 38.0874L163.564 23.3934L148.864 2.98339C148.349 2.26679 147.586 1.76747 146.723 1.58262C145.86 1.39777 144.96 1.54063 144.196 1.98339L125.533 12.8204C125.045 13.1038 124.622 13.4863 124.291 13.9432C123.959 14.4 123.727 14.9212 123.609 15.4732C123.491 16.0252 123.49 16.5957 123.606 17.148C123.722 17.7004 123.953 18.2224 124.282 18.6804L138.258 38.0874Z" fill="#0159AF"/>
<path d="M176.674 60.2644L201.98 45.5704L163.568 23.3934L138.262 38.0874L176.674 60.2644Z" fill="#0052A2"/>
<path d="M176.666 62.8984L201.973 48.2044L201.98 45.5704L176.674 60.2644L176.666 62.8984Z" fill="#00407E"/>
<path d="M177.04 64.8413L176.117 64.3083V62.8833L177.04 63.4163V64.8413Z" fill="#EEEEEE"/>
<path d="M202.89 49.9164L177.04 64.8413V63.4164L202.89 48.4913V49.9164Z" fill="#EEEEEE"/>
<path d="M177.04 63.4164L176.117 62.8834L201.967 47.9584L202.89 48.4914L177.04 63.4164Z" fill="#C9C9C9"/>
<path d="M116.865 29.7304L118.259 28.9204L177.466 63.1034L176.072 63.9134L116.865 29.7304Z" fill="#C9C9C9"/>
<path d="M116.865 29.7305L116.86 31.5195L176.067 65.6645L176.072 63.9135L116.865 29.7305Z" fill="#C9C9C9"/>
<path d="M176.072 63.9134L177.466 63.1034L177.462 64.8544L176.067 65.6644L176.072 63.9134Z" fill="#EEEEEE"/>
<path d="M176.064 68.6123L173.374 67.0593V63.4563L176.064 65.0093V68.6123Z" fill="#C9C9C9"/>
<path d="M206.597 50.9843L176.064 68.6123V65.0093L206.597 47.3813V50.9843Z" fill="#EEEEEE"/>
<path d="M176.064 65.0094L173.374 63.4564L203.907 45.8284L206.597 47.3814L176.064 65.0094Z" fill="#C9C9C9"/>
<path d="M203.204 37.7784C203.204 37.667 203.176 37.5573 203.124 37.4589C203.072 37.3605 202.996 37.2763 202.904 37.2134L201.766 36.5514C201.859 36.6139 201.936 36.6981 201.989 36.7967C202.042 36.8953 202.07 37.0054 202.071 37.1174L202.241 38.8694C202.242 38.9929 202.212 39.1147 202.153 39.2233C202.095 39.3319 202.009 39.4238 201.905 39.4904L199.528 40.8634C199.493 40.8883 199.453 40.9034 199.41 40.9073C199.368 40.9112 199.325 40.9036 199.286 40.8854L200.424 41.5474C200.463 41.5653 200.506 41.5727 200.548 41.5687C200.591 41.5646 200.632 41.5493 200.666 41.5244L203.043 40.1514C203.147 40.0847 203.232 39.9927 203.291 39.8842C203.35 39.7756 203.38 39.6539 203.379 39.5304L203.204 37.7784Z" fill="#A4A4A4"/>
<path d="M195.04 39.8534L193.902 39.1924C194.257 39.3984 194.077 40.3314 193.46 40.7264C192.914 41.0724 191.148 42.1084 189.382 43.1264C187.616 44.1444 185.851 45.1504 185.304 45.4344C185.241 45.477 185.168 45.5026 185.091 45.5089C185.015 45.5152 184.939 45.502 184.869 45.4704L186.007 46.1314C186.077 46.1633 186.153 46.1767 186.229 46.1704C186.306 46.1641 186.379 46.1382 186.442 46.0954C186.988 45.8114 188.754 44.8074 190.52 43.7884C192.286 42.7694 194.052 41.7334 194.598 41.3884C195.215 40.9924 195.395 40.0644 195.04 39.8534Z" fill="#A4A4A4"/>
<path d="M180.825 49.3844L179.688 48.7234C179.771 48.7861 179.835 48.8717 179.87 48.9697C179.906 49.0677 179.912 49.1739 179.888 49.2754L179.6 52.0274C179.586 52.134 179.55 52.2365 179.493 52.3279C179.436 52.4193 179.361 52.4975 179.271 52.5574L176.887 53.9344C176.853 53.9596 176.812 53.975 176.769 53.9791C176.727 53.9831 176.684 53.9756 176.645 53.9574L177.783 54.6194C177.822 54.6372 177.865 54.6444 177.907 54.6401C177.95 54.6359 177.991 54.6205 178.025 54.5954L180.409 53.2184C180.498 53.1586 180.574 53.0806 180.631 52.9893C180.687 52.8981 180.724 52.7958 180.738 52.6894L181.026 49.9364C181.05 49.8348 181.044 49.7285 181.008 49.6305C180.972 49.5324 180.909 49.4469 180.825 49.3844Z" fill="#A4A4A4"/>
<path d="M175.654 52.2484L174.908 63.3944L176.046 64.0554L176.792 52.9094L175.654 52.2484Z" fill="#C9C9C9"/>
<path d="M204.258 37.0534C204.25 34.1914 197.38 36.7244 190.514 40.6884C183.648 44.6524 176.787 50.0474 176.795 52.9094L176.049 64.0554L205.058 47.3034L204.258 37.0534ZM180.738 52.6894C180.724 52.7959 180.687 52.8981 180.631 52.9894C180.574 53.0806 180.498 53.1587 180.409 53.2184L178.025 54.5954C177.825 54.7104 177.667 54.6044 177.687 54.3634L177.846 52.4204C177.916 51.8345 178.195 51.2937 178.633 50.8984L180.158 49.5644C180.213 49.5157 180.272 49.4725 180.335 49.4354C180.742 49.2004 181.079 49.4184 181.026 49.9404L180.738 52.6894ZM194.601 41.3894C194.055 41.7364 192.289 42.7714 190.523 43.7894C188.757 44.8074 186.991 45.8124 186.445 46.0964C185.689 46.4854 185.583 45.3124 186.317 44.6964C187.645 43.685 189.049 42.7782 190.517 41.9844C191.85 41.1469 193.256 40.4307 194.717 39.8444C195.458 39.6124 195.358 40.9034 194.598 41.3874L194.601 41.3894ZM203.042 40.1534L200.658 41.5244C200.486 41.6244 200.341 41.5564 200.32 41.3794L200.02 38.9674C200.014 38.71 200.074 38.4553 200.195 38.2277C200.315 38.0001 200.492 37.8072 200.708 37.6674C200.763 37.6345 200.822 37.6089 200.884 37.5914L202.41 37.1684C202.504 37.1363 202.604 37.1279 202.702 37.1439C202.8 37.16 202.892 37.2 202.971 37.2604C203.049 37.3208 203.111 37.3997 203.152 37.4901C203.193 37.5805 203.21 37.6796 203.203 37.7784L203.374 39.5304C203.375 39.6537 203.345 39.7754 203.287 39.884C203.228 39.9926 203.143 40.0845 203.039 40.1514L203.042 40.1534Z" fill="#EEEEEE"/>
<path d="M202.593 35.4034C200.862 34.3974 195.116 36.7114 189.374 40.0274C182.508 43.9914 175.646 49.3864 175.654 52.2484L176.792 52.9094C176.784 50.0474 183.645 44.6524 190.511 40.6884C196.254 37.3724 201.999 35.0584 203.73 36.0644L202.593 35.4034Z" fill="#C9C9C9"/>
<path d="M202.171 42.7174L179.213 55.9724L178.924 60.7624L202.454 47.1774L202.171 42.7174Z" fill="#00407E"/>
<path d="M144.184 48.9474L126.389 38.6744V34.0244L144.184 44.2984V48.9474Z" fill="#C9C9C9"/>
<path d="M145.621 48.1185L144.184 48.9475V44.2985L145.621 43.4685V48.1185Z" fill="#EEEEEE"/>
<path d="M144.184 44.2984L126.389 34.0244L127.826 33.1954L145.621 43.4684L144.184 44.2984Z" fill="#C9C9C9"/>
<path d="M144.35 43.8114C144.214 43.8112 144.084 43.7572 143.988 43.6613C143.892 43.5653 143.838 43.4352 143.837 43.2994V39.7994C143.771 39.2598 143.584 38.742 143.289 38.2849C142.995 37.8277 142.601 37.443 142.137 37.1594L129.529 29.8804C129.313 29.7426 129.066 29.6617 128.81 29.6455C128.724 29.6425 128.638 29.6621 128.562 29.7024C128.482 29.7704 128.42 29.8571 128.382 29.9548C128.344 30.0526 128.331 30.1583 128.343 30.2624V33.7644C128.343 33.9005 128.289 34.031 128.193 34.1272C128.097 34.2234 127.966 34.2774 127.83 34.2774C127.694 34.2774 127.564 34.2234 127.467 34.1272C127.371 34.031 127.317 33.9005 127.317 33.7644V30.2644C127.297 29.9792 127.354 29.6938 127.484 29.4387C127.613 29.1837 127.809 28.9686 128.051 28.8164C128.282 28.6871 128.542 28.6212 128.806 28.6254C129.243 28.6394 129.669 28.7669 130.041 28.9954L142.648 36.2745C143.271 36.644 143.796 37.1568 144.181 37.7703C144.565 38.3837 144.798 39.08 144.859 39.8014V43.3014C144.858 43.4363 144.805 43.5654 144.709 43.6608C144.614 43.7563 144.485 43.8104 144.35 43.8114Z" fill="#C9C9C9"/>
<path d="M188.065 73.8424C188.718 73.8537 189.362 73.6974 189.937 73.3884L196.698 69.4884C196.976 69.3746 197.214 69.1806 197.381 68.9313C197.548 68.682 197.637 68.3886 197.637 68.0884C197.637 67.7882 197.548 67.4948 197.381 67.2455C197.214 66.9962 196.976 66.8023 196.698 66.6884L193.905 65.0754C193.426 64.7984 192.898 65.7704 193.353 66.0324L196.145 67.6454C196.383 67.7824 196.53 67.9514 196.53 68.0874C196.53 68.2234 196.383 68.3934 196.145 68.5304L189.384 72.4304C188.974 72.6344 188.523 72.7405 188.065 72.7405C187.607 72.7405 187.156 72.6344 186.746 72.4304L183.958 70.8184C183.507 70.5574 182.943 71.5084 183.406 71.7754L186.198 73.3884C186.772 73.6966 187.414 73.8529 188.065 73.8424Z" fill="#C9C9C9"/>
</svg>
