<svg width="448" height="408" viewBox="0 0 448 408" fill="none" xmlns="http://www.w3.org/2000/svg">
<path d="M18.7293 272.79C25.2806 253.509 43.1093 240.359 63.3434 234.186C68.6075 232.58 74.2574 231.85 78.9892 229.11C90.3085 222.556 93.756 208.004 94.0774 195.256C95.8724 123.943 166.758 114.3 180.368 115.563C234.348 120.571 227.082 162.654 258.622 186.14C279.002 201.318 310.958 177.233 333.503 189.052C352.636 199.081 352.571 227.477 370.065 239.977C382.619 248.951 392.318 236.57 413.69 255.688C441.192 280.292 448.602 348.124 410.503 386.959L55.8408 388.487C42.7831 386.269 -7.02476 348.588 18.7293 272.79Z" fill="#00AF17" fill-opacity="0.13"/>
<path d="M325.142 355.397C336.06 336.955 348.646 319.562 362.743 303.438C364.872 310.293 368.444 316.608 373.218 321.955C375.275 315.51 366.703 305.88 369.649 299.792C370.882 297.244 414.524 272.79 448 267.009C446.007 291.599 441.144 315.256 430.127 339.929C425.801 337.397 418.337 338.086 414.013 335.554C417.007 342.371 422.679 345.318 424.787 349.348C407.82 368.462 383.254 388.81 375.266 391.732C358.566 397.842 340.457 393.706 324.188 388.243C315.508 385.328 313.364 384.768 315.984 375.665C318.178 368.551 321.255 361.741 325.142 355.397Z" fill="#358F35" fill-opacity="0.63"/>
<path d="M336.811 390.436C361.446 350.178 393.245 314.809 430.623 286.092C431.607 285.336 430.635 283.632 429.636 284.4C391.982 313.303 359.945 348.91 335.125 389.445C334.465 390.523 336.154 391.504 336.811 390.434V390.436Z" fill="#00407E" fill-opacity="0.12"/>
<path d="M337.853 350.922C342.516 356.439 345.264 363.329 345.682 370.551C345.713 371.028 346.108 371.602 346.659 371.531C359.174 369.918 371.815 369.511 384.408 370.317C385.664 370.397 385.659 368.436 384.408 368.357C372.943 367.625 361.836 368.487 350.414 369.106C347.841 369.247 347.933 369.478 347.317 367.117C346.846 364.776 346.256 362.461 345.551 360.18C344.072 356.293 341.935 352.692 339.234 349.536C338.426 348.568 337.05 349.961 337.853 350.922Z" fill="#00407E" fill-opacity="0.12"/>
<path d="M357.87 326.262C361.719 332.835 364.174 340.135 365.083 347.704C365.089 347.962 365.193 348.208 365.375 348.391C365.557 348.573 365.802 348.679 366.06 348.684C376.331 348.473 386.604 348.932 396.816 350.057C398.064 350.194 398.054 348.232 396.816 348.096C391.71 347.535 386.595 347.106 381.461 346.878C378.897 346.763 376.33 346.693 373.762 346.668C372.186 346.652 368.695 347.333 367.414 346.369C365.618 345.02 365.333 338.467 364.53 336.077C363.244 332.316 361.579 328.698 359.561 325.277C359.43 325.053 359.216 324.89 358.965 324.824C358.715 324.758 358.448 324.795 358.224 324.926C358.001 325.057 357.838 325.272 357.773 325.524C357.707 325.776 357.744 326.043 357.874 326.267L357.87 326.262Z" fill="#00407E" fill-opacity="0.12"/>
<path d="M383.605 302.616C386.141 308.346 387.761 314.442 388.407 320.678C388.41 320.828 388.447 320.976 388.514 321.109C388.582 321.243 388.679 321.36 388.798 321.451C388.917 321.542 389.055 321.604 389.201 321.634C389.348 321.664 389.499 321.66 389.644 321.623C401.103 318.283 412.757 315.658 424.539 313.765C425.777 313.569 425.251 311.677 424.02 311.875C412.237 313.768 400.583 316.392 389.124 319.733L390.361 320.678C389.68 314.1 387.969 307.67 385.292 301.626C384.784 300.475 383.1 301.471 383.605 302.616Z" fill="#00407E" fill-opacity="0.12"/>
<path d="M290.68 227.413C291.915 213.842 293.806 199.989 300.127 187.927C306.449 175.864 318.034 165.773 331.575 164.772C344.878 163.785 359.928 171.956 366.972 183.325C374.015 194.695 373.66 208.721 372.206 222.03C370.663 236.145 365.773 249.642 360.922 262.98C346.624 302.294 333.42 330.804 309.349 364.98C284.576 400.153 256.13 395.322 269.977 377.412C297.513 330.337 285.915 279.836 290.68 227.413Z" fill="#005CB5" fill-opacity="0.38"/>
<path d="M278.947 393.795C293.266 372.44 302.962 347.674 311.611 323.578C322.549 293.103 331.42 261.672 336.964 229.742C339.623 214.424 341.522 198.902 341.571 183.335C341.571 183.075 341.468 182.826 341.285 182.642C341.102 182.458 340.854 182.355 340.595 182.355C340.336 182.355 340.087 182.458 339.904 182.642C339.721 182.826 339.618 183.075 339.618 183.335C339.52 212.98 333.329 242.621 325.829 271.171C318.178 300.911 308.118 329.973 295.748 358.068C290.402 370.033 284.566 381.908 277.258 392.806C276.554 393.856 278.246 394.838 278.945 393.795H278.947Z" fill="#00407E" fill-opacity="0.12"/>
<path d="M312.286 189.121C319.483 202.085 326.191 215.483 336.337 226.445C336.491 226.596 336.69 226.693 336.904 226.72C337.117 226.748 337.334 226.705 337.521 226.599C347.709 220.805 358.927 217.189 368.554 210.307C369.569 209.581 368.595 207.88 367.567 208.614C362.562 212.037 357.285 215.039 351.789 217.592C347.563 219.663 342.822 222.742 338.285 223.986C336.604 224.447 337.861 224.61 336.588 223.838C335.533 223.197 334.122 220.982 333.358 220.022C330.634 216.546 328.12 212.911 325.828 209.134C321.602 202.295 317.874 195.158 313.972 188.131C313.361 187.029 311.673 188.016 312.286 189.121Z" fill="#00407E" fill-opacity="0.12"/>
<path d="M298.403 229.659C308.92 237.84 317.37 248.661 326.649 258.159C327.297 258.823 328.315 260.311 329.286 260.565C331.605 261.17 336.533 257.262 338.498 256.159C347.484 251.206 355.757 245.049 363.09 237.858C363.985 236.97 362.602 235.584 361.709 236.472C354.896 243.171 347.24 248.949 338.936 253.659C336.93 254.812 331.168 258.952 329.49 258.243C328.109 257.66 326.451 255.123 325.44 254.049C317.213 245.309 309.285 235.664 299.782 228.269C298.806 227.505 297.408 228.883 298.401 229.655L298.403 229.659Z" fill="#00407E" fill-opacity="0.12"/>
<path d="M77.1266 377.535C63.8638 372.398 35.8605 360.389 43.8953 351.822C47.6135 349.42 52.0818 348.473 56.4501 349.163C58.794 346.258 54.3015 342.819 50.7856 341.573C41.4196 338.249 5.50057 326.869 15.1381 316.636C18.2965 312.837 31.1775 314.05 30.569 313.493C20.0096 303.889 14.1019 297.99 5.84337 285.247C0.609541 277.171 -3.87618 261.119 5.24371 258.285C11.0938 258.155 15.7778 263.023 19.0867 267.866C22.3955 272.71 27.8677 281.443 33.7656 287.023C33.497 282.681 31.2927 259.68 43.701 264.929C51.4565 268.209 54.949 291.157 61.5208 299.597C62.3998 300.726 63.8218 301.95 65.068 301.254C65.8395 300.823 66.0876 299.857 66.4626 299.055C68.7148 294.243 76.4908 295.308 79.6532 299.572C82.8156 303.836 82.9181 309.544 83.5832 314.817C84.2483 320.091 86.1547 325.969 91.0135 328.087C91.7079 325.038 92.4785 321.842 94.5822 319.534C96.6858 317.227 100.586 316.251 102.93 318.31C103.979 319.399 104.735 320.737 105.126 322.2C113.336 345.378 130.062 374.654 139.593 396.41C137.723 394.96 87.4976 381.553 77.1266 377.535Z" fill="#005CB5"/>
<path d="M10.4178 276.768C46.7948 323.241 93.0311 360.567 138.902 397.102C139.879 397.878 141.267 396.5 140.283 395.716C94.4121 359.181 48.1768 321.854 11.7998 275.381C11.0184 274.39 9.65114 275.786 10.4178 276.768Z" fill="#00407E" fill-opacity="0.12"/>
<path d="M25.1976 323.122C35.4864 325.507 46.0097 326.723 56.5693 326.749C56.7193 326.747 56.8669 326.712 57.001 326.644C57.1351 326.577 57.252 326.479 57.3429 326.36C57.4337 326.24 57.4961 326.101 57.5252 325.953C57.5543 325.806 57.5494 325.653 57.5108 325.508C52.7018 313.091 47.3342 299.995 45.3848 286.763C45.2022 285.52 43.3192 286.049 43.5018 287.285C45.4551 300.518 50.8179 313.612 55.6269 326.029L56.5693 324.788C46.1849 324.769 35.8358 323.576 25.7172 321.233C24.4934 320.948 23.9719 322.837 25.1976 323.124V323.122Z" fill="#00407E" fill-opacity="0.12"/>
<path d="M54.7027 358.568C61.3361 359.282 67.9382 360.243 74.6096 360.569C80.4324 360.852 87.1107 361.148 92.4646 358.435C92.6855 358.301 92.8456 358.086 92.9108 357.835C92.9761 357.584 92.9415 357.318 92.8143 357.093C84.795 342.619 80.8836 326.063 74.3137 310.907C73.8127 309.754 72.1299 310.75 72.627 311.897C79.2008 327.06 83.0996 343.592 91.1276 358.083L91.4782 356.742C85.7883 359.625 78.232 358.88 72.0831 358.456C66.2652 358.056 60.4971 357.231 54.6988 356.608C53.4497 356.473 53.4595 358.435 54.6988 358.568H54.7027Z" fill="#00407E" fill-opacity="0.12"/>
<path d="M162.301 351.86C151.542 345.022 140.941 340.05 130.183 333.212C115.857 324.107 26.5406 272.79 33.3224 197.156C34.5237 183.763 42.0516 167.78 55.0342 164.456C93.4455 154.62 93.3694 203.362 95.392 213.885C100.023 237.98 112.567 259.967 128.059 278.95C143.55 297.933 161.997 314.232 180.252 330.556C184.235 334.118 188.568 338.541 188.043 343.869C187.739 345.804 187.107 347.672 186.175 349.392C181.39 359.548 169.732 356.584 162.301 351.86Z" fill="#358F35" fill-opacity="0.63"/>
<path d="M56.4783 176.918C55.2225 191.202 57.1821 205.588 62.2121 219.01C66.3946 230.292 71.4956 241.209 77.4634 251.651C91.4361 275.873 109.489 297.478 130.819 315.506C144.523 327.093 159.285 337.358 174.909 346.163C175.133 346.294 175.399 346.331 175.65 346.265C175.9 346.199 176.114 346.036 176.245 345.811C176.376 345.587 176.412 345.319 176.346 345.068C176.281 344.816 176.118 344.602 175.894 344.47C127.615 317.031 86.9036 275.756 66.0562 223.584C63.6146 217.479 61.1281 211.173 59.708 204.737C57.7069 195.654 57.7196 186.146 58.4316 176.918C58.5292 175.66 56.5759 175.666 56.4783 176.918Z" fill="#00407E" fill-opacity="0.12"/>
<path d="M38.9192 195.726C45.6756 202.468 52.6029 208.671 60.7696 213.655C60.8994 213.728 61.0442 213.772 61.193 213.781C61.3418 213.791 61.4909 213.766 61.6289 213.709C61.767 213.653 61.8905 213.566 61.9901 213.454C62.0898 213.343 62.163 213.21 62.2043 213.067C65.0443 203.483 69.7457 194.558 76.0375 186.805C76.8432 185.847 75.4681 184.453 74.6565 185.419C68.1366 193.42 63.2637 202.641 60.3204 212.546L61.7551 211.958C53.7368 207.065 46.9277 200.949 40.3001 194.336C40.116 194.158 39.8693 194.059 39.6132 194.061C39.3571 194.063 39.1122 194.167 38.9311 194.348C38.75 194.53 38.6473 194.776 38.6451 195.033C38.6428 195.29 38.7413 195.538 38.9192 195.722V195.726Z" fill="#00407E" fill-opacity="0.12"/>
<path d="M43.7037 230.189C49.7589 233.145 55.7399 236.267 61.7814 239.258C64.6205 240.663 67.4615 242.081 70.3612 243.355C71.4541 243.835 72.9981 244.825 74.2375 244.681C74.4498 244.675 74.6548 244.602 74.8236 244.473C74.9925 244.343 75.1168 244.164 75.179 243.961C77.6098 233.819 80.196 223.586 83.8584 213.816C84.3008 212.633 82.414 212.122 81.9745 213.294C79.5202 219.842 77.6489 226.61 75.8548 233.364C75.1614 235.978 74.4898 238.595 73.84 241.214C73.6867 241.834 73.5402 242.457 73.3829 243.076C73.3449 243.227 74.4221 243.202 73.5187 242.55C72.0156 241.464 69.6053 240.878 67.9089 240.071C65.1694 238.768 62.4533 237.416 59.7402 236.058C54.7193 233.547 49.7355 230.961 44.6892 228.496C43.5641 227.948 42.5718 229.637 43.7037 230.189Z" fill="#00407E" fill-opacity="0.12"/>
<path d="M57.4013 261.964C68.242 266.67 79.4187 270.962 90.9157 273.736C91.1655 273.8 91.4305 273.765 91.6546 273.637C91.8787 273.509 92.0445 273.298 92.117 273.05C94.7071 263.337 95.8097 253.366 96.4592 243.349C96.5412 242.089 94.5869 242.094 94.5059 243.349C93.8681 253.187 92.7782 262.98 90.2331 272.524L91.4343 271.838C80.1095 268.935 69.0535 265.063 58.3877 260.265C57.245 259.775 56.2498 261.458 57.4013 261.958V261.964Z" fill="#00407E" fill-opacity="0.12"/>
<path d="M52.3688 306.648C50.5376 296.338 50.0854 284.879 56.0331 276.274C60.9759 269.118 69.5762 265.268 78.1433 263.912C84.68 262.878 163.465 256.457 166.35 259.334C169.021 262 177.288 266.907 180.602 280.721C184.576 297.299 196.619 368.015 193.223 382.823C183.82 385.175 93.9464 385.629 79.9638 385.755C79.3925 380.504 55.3534 323.449 52.3688 306.648Z" fill="#00AF17" fill-opacity="0.42"/>
<path d="M205.368 236.886C227.181 241.87 235.757 287.71 239.075 298.848C242.712 311.036 247.891 322.706 254.485 333.572C257.8 339.032 261.55 345.842 258.319 351.353C256.28 354.831 252.001 356.384 247.984 356.571C239.987 356.944 232.267 352.906 226.559 347.272C220.85 341.637 216.866 334.508 213.179 327.373C202.266 306.25 195.862 290.266 190.88 267.004C190.608 265.734 188.542 233.043 205.368 236.886Z" fill="#01407E"/>
<path d="M252.814 361.357C255.602 364.21 267.491 365.67 268.47 364.984C267.437 358.767 261.35 362.297 260.598 357.505C262.454 356.207 264.645 356.6 266.458 356.6C268.039 356.6 269.519 358.008 270.188 359.716C271.2 362.298 270.825 363.101 271.22 365.846C271.611 368.555 274.345 370.535 274.351 368.808C274.351 365.637 274.359 360.739 274.362 357.568C275.143 360.389 275.693 369.3 279.478 368.458C280.4 364.194 278.435 360.438 278.418 356.074C279.492 359.778 279.478 368.458 283.263 367.228C283.417 363.249 281.948 359.227 282.103 355.247C282.952 358.758 284.295 366.365 286.388 365.139C287.02 361.309 285.979 357.256 285.156 353.464C284.655 351.156 284.778 348.923 283.105 347.261C282.078 346.24 267.587 343.419 261.576 343.774C257.782 343.998 252.962 343.415 250.573 345.318C241.288 352.724 249.691 358.162 252.814 361.357Z" fill="#EAA27A"/>
<path d="M106.41 281.411C111.372 305.632 127.754 308.729 130.805 333.265C132.841 349.635 126.019 369.926 121.377 385.754C159.076 387.084 197.246 386.393 225.107 385.184C224.088 362.256 214.962 331.804 217.076 308.951C218.289 295.847 221.172 283.686 219.323 270.658C217.473 257.63 211.869 238.761 205.367 236.885C192.728 233.24 182.107 229.955 167.545 228.366C161.185 227.672 142.518 225.719 126.407 227.998C116.287 229.429 107.714 231.33 104.082 232.808C80.0514 242.594 102.117 260.458 106.41 281.411Z" fill="#358F35"/>
<path d="M168.744 255.165C171.125 254.989 181.343 236.664 180.562 234.397C177.82 228.097 172.749 234.455 171.108 229.79C169.799 226.058 176.254 209.07 172.628 204.715C170.462 202.114 148.835 194.067 144.996 201.409C143.187 204.871 136.402 220.397 136.402 224.434C136.401 226.782 162.075 255.66 168.744 255.165Z" fill="#EAA27A"/>
<path d="M188.128 345.318C189.515 346.952 192.006 352.532 193.555 357.247C194.068 358.808 194.803 363.775 194.803 363.775C190.881 365.674 189.482 356.107 188.128 353.414C187.731 356.373 188.3 367.401 187.267 367.307C183.483 366.365 183.891 358.077 184.172 354.105C183.771 356.676 183.154 359.208 182.326 361.674C181.538 364.269 180.606 366.71 179.372 367.976C176.945 367.573 178.572 359.947 179.01 356.543C177.873 360.71 176.21 364.714 174.062 368.459C171.613 368.459 171.83 364.92 172.613 362.911C173.396 360.903 175.34 358.436 174.193 356.599C174.433 358.363 170.861 360.912 169.151 361.385C167.441 361.859 162.653 360.197 160.947 359.709C152.795 357.38 133.913 358.21 136.433 349.098C138.161 342.854 146.102 337.691 151.828 338.565C156.858 339.333 163.877 345.318 169.548 345.318C179.703 345.318 184.064 343.76 188.128 345.318Z" fill="#EAA27A"/>
<path d="M161.634 340.584C151.413 334.775 108.846 316.024 108.475 315.082C107.053 311.472 127.297 277.399 128.57 267.345C129.844 257.291 129.651 248.491 122.486 241.351C112.955 231.855 104.082 232.808 104.082 232.808C97.464 235.135 95.7149 237.325 92.3288 240.619C87.5335 245.283 84.7677 251.605 82.1161 257.757C74.2912 275.912 66.4302 294.177 61.8019 313.405C60.5323 318.663 59.541 324.322 61.4698 329.372C62.9116 332.729 65.1871 335.659 68.0788 337.882C79.3512 347.247 94.7079 349.499 109.219 351.394C124.266 353.354 139.876 357.744 154.926 359.708C158.021 360.114 164.876 342.426 161.634 340.584Z" fill="#01407E"/>
<path d="M126.342 229.101C126.33 233.12 129.509 236.929 131.178 240.578L139.651 259.088L150.491 244.846C155.638 250.541 162.008 254.987 169.12 257.846L179.214 244.763C180.586 248.876 182.397 252.827 184.618 256.547C186.577 246.914 188.263 235.93 182.386 228.066C180.978 226.204 179.217 224.64 177.204 223.466C175.19 222.292 172.965 221.53 170.656 221.225C168.893 227.106 172.868 233.179 172.824 239.318C172.789 244.307 170.122 248.845 167.538 253.106C164.169 250.968 160.927 248.636 157.828 246.12C156.19 244.968 154.851 243.441 153.921 241.664C153.238 240.095 153.163 238.28 152.261 236.83C151.331 235.338 149.687 234.483 148.349 233.348C142.842 228.678 139.333 219.599 139.333 214.468C135.064 214.465 126.363 221.404 126.342 229.101Z" fill="#01407E"/>
<path d="M169.117 262.47C174.535 287.979 179.594 313.908 178.076 340.119C178.003 341.38 179.957 341.375 180.03 340.119C181.557 313.741 176.452 287.618 171.001 261.949C170.739 260.716 168.852 261.237 169.117 262.47Z" fill="#01407E"/>
<path d="M179.374 187.506C178.724 191.56 178.938 195.97 181.183 199.402C183.428 202.834 188.138 204.84 191.812 203.029C196.535 200.707 196.988 194.198 196.415 188.952C196.051 185.641 195.48 182.188 193.485 179.532C186.813 170.658 180.448 180.809 179.374 187.506Z" fill="#00407E"/>
<path d="M147.723 205.112C151.8 213.466 159.736 220.124 168.907 221.455C172.541 221.983 176.468 221.623 179.497 219.539C181.459 218.042 183.097 216.161 184.312 214.009C190.177 204.656 193.531 193.939 194.046 182.9C194.437 174.235 192.437 164.482 185.267 159.638C179.82 155.958 172.766 156.024 166.205 156.223C162.825 156.326 159.316 156.46 156.306 158.01C153.181 159.621 150.976 162.56 148.904 165.413C141.383 175.766 142.132 193.656 147.723 205.112Z" fill="#EAA27A"/>
<path d="M168.019 208.651C169.381 209.96 171.09 210.847 172.941 211.206C174.793 211.564 176.708 211.379 178.458 210.673C179.607 210.203 179.105 208.306 177.938 208.782C176.523 209.395 174.96 209.578 173.443 209.308C171.925 209.038 170.52 208.327 169.401 207.264C168.484 206.401 167.101 207.784 168.019 208.651Z" fill="#E28E60"/>
<path d="M163.685 169.902C164.101 171.036 164.403 172.208 164.587 173.402C164.944 174.661 165.665 175.786 166.659 176.635C167.652 177.484 168.873 178.019 170.169 178.173C171.465 178.327 172.777 178.093 173.94 177.5C175.103 176.907 176.066 175.981 176.706 174.841C177.049 173.994 177.538 173.215 178.151 172.54C179.714 171.216 182.156 172.344 183.514 173.878C184.873 175.412 185.734 177.823 187.731 178.265C193.487 179.539 194.808 175.497 195.703 171.767C196.572 174.39 202.619 173.419 204.459 171.363C206.299 169.306 206.009 165.943 204.423 163.683C202.837 161.422 200.264 160.072 197.684 159.109C196.71 158.827 195.799 158.362 195 157.737C192.316 155.279 194.594 150.766 193.782 147.212C192.873 143.239 187.582 141.31 184.015 143.265C181.356 144.726 179.657 147.743 176.776 148.689C176.691 148.022 167.424 144.409 167.317 146.897C167.317 146.897 163.359 144.135 157.133 145.708C154.106 146.473 151.299 149.245 151.273 152.38C149.251 151.761 147.078 151.861 145.12 152.661C142.353 153.485 139.847 155.772 139.554 158.655C139.565 159.694 139.509 160.732 139.386 161.763C138.766 164.375 135.562 165.292 134.789 167.6C133.664 170.964 135.138 174.033 135.607 177.592C136.374 183.418 135.173 188.498 142.609 188.038C147.539 187.734 151.461 190.166 153.125 186.109C153.908 184.185 158.509 159.881 163.685 169.902Z" fill="#241F3F"/>
<path d="M132.616 184.716C131.965 188.771 132.5 194.156 134.745 197.588C136.99 201.02 141.7 203.025 145.374 201.215C150.097 198.893 150.55 192.385 149.977 187.139C149.613 183.827 149.043 180.375 147.047 177.719C140.376 168.846 133.689 178.019 132.616 184.716Z" fill="#00407E"/>
<path d="M143.458 177.746C143.599 169.392 145.509 159.916 152.646 154.689C157.672 151.008 167.484 147.421 176.769 148.694C175.302 147.352 173.529 146.393 171.605 145.903C167.839 145.344 164 145.543 160.311 146.488C156.622 147.433 153.157 149.106 150.119 151.408C141.956 157.436 139.491 168.088 139.33 177.746C139.285 180.413 143.414 180.414 143.458 177.746Z" fill="#00407E"/>
<path d="M141.252 194.129C142.894 204.457 151.632 213.572 162.16 214.535C163.411 214.65 163.403 212.688 162.16 212.575C152.456 211.687 144.63 203.01 143.136 193.607C142.941 192.365 141.056 192.893 141.252 194.129Z" fill="#00407E"/>
<path d="M170.046 212.808C170.046 213.719 169.777 214.61 169.273 215.367C168.768 216.125 168.051 216.715 167.213 217.064C166.374 217.413 165.451 217.504 164.56 217.326C163.67 217.149 162.852 216.71 162.21 216.065C161.568 215.421 161.131 214.6 160.954 213.707C160.777 212.813 160.868 211.887 161.215 211.045C161.563 210.203 162.151 209.483 162.906 208.977C163.661 208.471 164.548 208.201 165.456 208.201C166.673 208.201 167.841 208.686 168.702 209.55C169.563 210.414 170.046 211.586 170.046 212.808Z" fill="#00407E"/>
<path d="M179.637 197.655C179.9 199.593 180.795 201.388 182.181 202.761C182.604 203.185 183.105 203.655 183.048 204.226C182.951 205.206 181.467 205.382 180.411 205.206C178.278 204.846 176.21 204.169 174.275 203.199C174.104 203.122 173.946 203.021 173.805 202.897C173.604 202.675 173.479 202.395 173.448 202.097C173.166 200.399 174.047 198.748 174.597 197.107C175.216 195.257 175.023 186.105 178.169 186.786C181.708 187.548 179.37 195.556 179.637 197.655Z" fill="#E28E60"/>
<path d="M134.491 191.231C134.526 193.323 134.748 195.649 136.301 197.044C136.761 197.414 137.293 197.682 137.863 197.83C138.433 197.979 139.028 198.004 139.609 197.905C140.19 197.806 140.743 197.585 141.232 197.255C141.721 196.926 142.136 196.497 142.447 195.995C142.93 194.943 143.175 193.797 143.166 192.64C143.465 189.643 143.345 186.619 142.812 183.655C142.271 181.204 140.795 178.551 138.319 178.233C134.372 177.729 134.451 188.895 134.491 191.231Z" fill="#737AFF"/>
<path d="M171.182 189.086C171.182 190.727 170.374 192.057 169.377 192.057C168.379 192.057 167.57 190.727 167.57 189.086C167.57 187.445 168.378 186.116 169.377 186.116C170.375 186.116 171.182 187.444 171.182 189.086Z" fill="#241F3F"/>
<path d="M186.44 192.857C187.437 192.857 188.246 191.527 188.246 189.887C188.246 188.247 187.437 186.917 186.44 186.917C185.442 186.917 184.633 188.247 184.633 189.887C184.633 191.527 185.442 192.857 186.44 192.857Z" fill="#241F3F"/>
<path d="M164.573 183.097C165.278 182.36 166.183 181.848 167.176 181.626C168.17 181.403 169.206 181.48 170.156 181.846C171.341 182.274 171.85 180.376 170.674 179.955C169.391 179.497 168.003 179.419 166.677 179.73C165.35 180.042 164.141 180.729 163.192 181.711C162.313 182.614 163.692 184.001 164.573 183.097Z" fill="#241F3F"/>
<path d="M185.382 182.603C186.858 182.757 188.267 183.298 189.469 184.171C190.498 184.899 191.476 183.2 190.454 182.479C188.954 181.428 187.204 180.793 185.382 180.638C184.131 180.515 184.14 182.477 185.382 182.598V182.603Z" fill="#241F3F"/>
<path d="M424.555 377.416H36.1643C31.4894 377.416 27.6997 381.22 27.6997 385.912V386.878C27.6997 391.57 31.4894 395.374 36.1643 395.374H424.555C429.23 395.374 433.019 391.57 433.019 386.878V385.912C433.019 381.22 429.23 377.416 424.555 377.416Z" fill="#005CB5"/>
<path d="M48.0449 395.373H412.675V396.053C412.675 399.222 411.421 402.26 409.188 404.501C406.956 406.741 403.928 408 400.771 408H59.9483C56.7913 408 53.7636 406.741 51.5313 404.501C49.299 402.26 48.0449 399.222 48.0449 396.053V395.373Z" fill="#358F35" fill-opacity="0.63"/>
<path d="M355.381 340.119H218.566C217.309 340.119 216.067 339.854 214.919 339.34C213.771 338.827 212.744 338.077 211.904 337.139C211.064 336.201 210.43 335.096 210.043 333.896C209.656 332.696 209.525 331.428 209.658 330.174L218.068 251.115C218.302 248.908 219.342 246.866 220.987 245.382C222.631 243.898 224.764 243.077 226.976 243.077H363.791C365.047 243.077 366.29 243.343 367.438 243.856C368.585 244.37 369.613 245.12 370.453 246.058C371.293 246.996 371.927 248.101 372.314 249.301C372.7 250.501 372.831 251.769 372.698 253.023L364.288 332.082C364.053 334.289 363.014 336.331 361.369 337.814C359.725 339.298 357.592 340.119 355.381 340.119Z" fill="#00407E"/>
<path d="M360.543 340.119H223.728C222.471 340.119 221.228 339.854 220.081 339.341C218.933 338.827 217.905 338.077 217.065 337.139C216.225 336.201 215.591 335.096 215.204 333.896C214.817 332.696 214.686 331.428 214.82 330.174L223.229 251.115C223.463 248.908 224.503 246.866 226.147 245.382C227.792 243.898 229.925 243.077 232.137 243.077H368.952C370.208 243.077 371.451 243.343 372.599 243.856C373.747 244.369 374.774 245.119 375.614 246.057C376.454 246.995 377.088 248.1 377.475 249.3C377.862 250.5 377.993 251.769 377.86 253.023L369.45 332.08C369.216 334.287 368.176 336.33 366.532 337.814C364.887 339.298 362.754 340.119 360.543 340.119Z" fill="#00407E"/>
<path d="M298.443 299.792H289.419C287.788 299.792 286.223 300.443 285.069 301.601C283.915 302.759 283.267 304.33 283.267 305.968V371.888H304.599V305.968C304.599 305.157 304.44 304.353 304.131 303.604C303.821 302.854 303.368 302.173 302.796 301.6C302.224 301.026 301.545 300.572 300.798 300.261C300.052 299.951 299.251 299.792 298.443 299.792Z" fill="#00407E"/>
<path d="M327.306 371.89H258.491V377.416H327.306V371.89Z" fill="#00407E"/>
<path d="M267.437 371.89H186.439V377.416H267.437V371.89Z" fill="#00407E"/>
<path d="M153.51 364.984H145.851C144.614 364.984 143.389 365.228 142.247 365.703C141.104 366.178 140.066 366.874 139.192 367.752C138.317 368.63 137.623 369.672 137.15 370.819C136.677 371.966 136.433 373.195 136.433 374.436C136.433 375.226 136.746 375.984 137.302 376.543C137.859 377.102 138.614 377.416 139.401 377.416H159.958C160.746 377.416 161.501 377.102 162.058 376.543C162.615 375.984 162.927 375.226 162.927 374.436C162.927 373.195 162.684 371.966 162.211 370.819C161.737 369.672 161.044 368.63 160.169 367.752C159.295 366.874 158.256 366.178 157.114 365.703C155.971 365.228 154.746 364.984 153.51 364.984Z" fill="#00407E"/>
<path d="M284.198 69.4208C283.389 64.0168 280.041 59.3137 278.79 53.9959C276.33 43.5437 282.296 32.7249 281 22.064C279.217 7.38698 262.483 -2.68488 248.125 0.635161C242.158 2.01532 238.424 3.29845 232.714 2.0614C215.916 -1.57918 203.566 6.40283 200.209 15.5533C192.129 37.5781 204.377 41.0873 207.534 59.5372C208.865 67.3192 196.791 80.0681 212.115 98.2268C217.282 104.349 225.285 107.936 233.263 109.338C231.556 113.199 229.153 117.634 226.408 119.812C226.408 119.812 237.338 116.766 244.016 110.262C263.168 110.546 289.365 103.952 284.198 69.4208Z" fill="#358F35" fill-opacity="0.38"/>
<path d="M257.175 73.7064L252.017 67.2741C251.669 66.84 251.239 66.4789 250.752 66.2115C250.264 65.9441 249.73 65.7757 249.178 65.7158C248.626 65.6559 248.067 65.7057 247.534 65.8624C247.001 66.0191 246.505 66.2797 246.072 66.6291L244.517 67.8848C244.08 68.2381 243.52 68.4025 242.962 68.3419C242.403 68.2812 241.892 68.0004 241.539 67.5613L235.14 59.5822L234.377 58.6304L227.978 50.6514C227.626 50.2121 227.462 49.6505 227.522 49.09C227.583 48.5296 227.863 48.0162 228.3 47.6627L229.854 46.407C230.286 46.0576 230.646 45.6261 230.913 45.1371C231.179 44.6481 231.347 44.1113 231.407 43.5572C231.466 43.0032 231.417 42.4427 231.26 41.9079C231.104 41.3731 230.845 40.8744 230.497 40.4403L225.339 34.0081C224.636 33.1315 223.614 32.5711 222.5 32.4501C221.385 32.3292 220.268 32.6576 219.394 33.3631L217.7 34.7354C216.648 35.5848 215.773 36.6339 215.125 37.8228C214.477 39.0116 214.069 40.317 213.924 41.6642C213.779 43.0114 213.899 44.3741 214.279 45.6745C214.659 46.9748 215.29 48.1873 216.137 49.2428L220.152 54.2498L227.879 63.8855L228.642 64.8363L236.369 74.4719L240.385 79.4789C241.231 80.5347 242.277 81.4128 243.461 82.0631C244.646 82.7133 245.946 83.1229 247.288 83.2686C248.631 83.4142 249.988 83.293 251.284 82.9119C252.58 82.5308 253.788 81.8972 254.839 81.0473L256.534 79.675C256.967 79.3254 257.326 78.8937 257.593 78.4045C257.859 77.9153 258.027 77.3782 258.086 76.8239C258.146 76.2696 258.096 75.709 257.94 75.1741C257.783 74.6392 257.523 74.1404 257.175 73.7064Z" fill="#358F35"/>
<path d="M251.185 59.0392C251.127 59.0393 251.07 59.034 251.014 59.0235C250.759 58.9781 250.532 58.8329 250.384 58.6199C250.236 58.4068 250.178 58.1434 250.223 57.8874C250.941 53.8293 250.331 50.5622 248.41 48.1773C245.13 44.1054 239.027 43.8456 238.967 43.8437C238.839 43.8394 238.713 43.8097 238.596 43.7565C238.479 43.7033 238.374 43.6275 238.286 43.5335C238.199 43.4395 238.13 43.329 238.085 43.2085C238.04 43.088 238.019 42.9597 238.023 42.8311C238.039 42.5738 238.151 42.3322 238.339 42.156C238.526 41.9798 238.774 41.8825 239.03 41.8842C239.316 41.893 246.062 42.1645 249.918 46.9324C252.22 49.7799 252.969 53.5813 252.146 58.2295C252.106 58.4563 251.988 58.6617 251.812 58.8097C251.636 58.9578 251.414 59.039 251.185 59.0392Z" fill="#3DA53D"/>
<path d="M257.328 58.7157C257.298 58.7157 257.267 58.7157 257.236 58.7157C256.979 58.6909 256.741 58.5645 256.577 58.3644C256.412 58.1643 256.333 57.9067 256.357 57.6482C258 40.1354 241.231 37.9682 240.516 37.8839C240.265 37.847 240.038 37.7135 239.883 37.5116C239.728 37.3096 239.658 37.0552 239.687 36.8021C239.716 36.5491 239.842 36.3173 240.038 36.1558C240.235 35.9943 240.486 35.9159 240.739 35.9371C240.934 35.9597 260.126 38.3877 258.3 57.8247C258.278 58.068 258.166 58.2943 257.986 58.4592C257.806 58.624 257.571 58.7155 257.328 58.7157Z" fill="#3DA53D"/>
<path d="M263.411 57.6639C263.152 57.6639 262.905 57.5615 262.722 57.3789C262.539 57.1964 262.435 56.9485 262.434 56.6896C262.303 36.6772 243.539 32.3034 242.741 32.127C242.488 32.0715 242.267 31.9174 242.127 31.6985C241.987 31.4797 241.94 31.214 241.995 30.96C242.05 30.706 242.204 30.4845 242.422 30.3441C242.64 30.2038 242.905 30.1561 243.158 30.2116C243.368 30.2577 264.246 35.0765 264.387 56.6778C264.389 56.9376 264.287 57.1874 264.106 57.3723C263.924 57.5572 263.676 57.6621 263.417 57.6639H263.411Z" fill="#3DA53D"/>
<path d="M435.836 72.5968C430.322 66.7076 421.849 64.9677 414.585 61.478C403.965 56.3808 395.773 47.3735 388.236 38.2936C380.033 28.4041 369.689 15.8376 355.765 15.6425C341.221 15.4386 326.523 24.443 317.332 35.1716C306.944 47.297 301.379 63.0101 299.233 78.8565C297.647 90.5732 297.921 102.97 303.078 113.599C304.407 116.322 306.077 118.863 308.049 121.16C305.77 125.246 302.375 130.199 298.38 132.433C298.38 132.433 309.061 132.133 315.905 127.924C320.375 130.798 325.609 132.243 330.915 132.067C339.752 131.642 348.529 126.428 356.997 128.997C361.227 130.279 364.64 133.34 368.198 135.969C381.662 145.919 400.211 150.243 415.477 143.399C433.374 135.375 442.324 114.253 442.464 94.5833C442.517 86.7317 441.192 78.3203 435.836 72.5968Z" fill="#3DA53D" fill-opacity="0.36"/>
<path d="M402.933 63.9737H329.308V117.674H402.933V63.9737Z" fill="white"/>
<path d="M335.443 69.6424C335.054 69.6424 334.682 69.4875 334.407 69.2117C334.132 68.936 333.978 68.562 333.978 68.172V61.0389C333.978 60.6489 334.132 60.2749 334.407 59.9992C334.682 59.7235 335.054 59.5685 335.443 59.5685C335.832 59.5685 336.204 59.7235 336.479 59.9992C336.754 60.2749 336.908 60.6489 336.908 61.0389V68.172C336.908 68.562 336.754 68.936 336.479 69.2117C336.204 69.4875 335.832 69.6424 335.443 69.6424Z" fill="#00407E"/>
<path d="M344.207 69.6424C343.819 69.6424 343.446 69.4875 343.171 69.2117C342.897 68.936 342.742 68.562 342.742 68.172V61.0389C342.742 60.6489 342.897 60.2749 343.171 59.9992C343.446 59.7235 343.819 59.5685 344.207 59.5685C344.596 59.5685 344.968 59.7235 345.243 59.9992C345.518 60.2749 345.672 60.6489 345.672 61.0389V68.172C345.672 68.562 345.518 68.936 345.243 69.2117C344.968 69.4875 344.596 69.6424 344.207 69.6424Z" fill="#00407E"/>
<path d="M352.973 69.6424C352.584 69.6424 352.212 69.4875 351.937 69.2117C351.662 68.936 351.508 68.562 351.508 68.172V61.0389C351.508 60.6489 351.662 60.2749 351.937 59.9992C352.212 59.7235 352.584 59.5685 352.973 59.5685C353.361 59.5685 353.734 59.7235 354.009 59.9992C354.283 60.2749 354.438 60.6489 354.438 61.0389V68.172C354.438 68.562 354.283 68.936 354.009 69.2117C353.734 69.4875 353.361 69.6424 352.973 69.6424Z" fill="#00407E"/>
<path d="M361.738 69.6424C361.349 69.6424 360.977 69.4875 360.702 69.2117C360.427 68.936 360.273 68.562 360.273 68.172V61.0389C360.273 60.6489 360.427 60.2749 360.702 59.9992C360.977 59.7235 361.349 59.5685 361.738 59.5685C362.126 59.5685 362.499 59.7235 362.774 59.9992C363.049 60.2749 363.203 60.6489 363.203 61.0389V68.172C363.203 68.562 363.049 68.936 362.774 69.2117C362.499 69.4875 362.126 69.6424 361.738 69.6424Z" fill="#00407E"/>
<path d="M370.503 69.6424C370.114 69.6424 369.741 69.4875 369.467 69.2117C369.192 68.936 369.038 68.562 369.038 68.172V61.0389C369.038 60.6489 369.192 60.2749 369.467 59.9992C369.741 59.7235 370.114 59.5685 370.503 59.5685C370.891 59.5685 371.264 59.7235 371.538 59.9992C371.813 60.2749 371.968 60.6489 371.968 61.0389V68.172C371.968 68.562 371.813 68.936 371.538 69.2117C371.264 69.4875 370.891 69.6424 370.503 69.6424Z" fill="#00407E"/>
<path d="M379.267 69.6424C378.878 69.6424 378.506 69.4875 378.231 69.2117C377.956 68.936 377.802 68.562 377.802 68.172V61.0389C377.802 60.6489 377.956 60.2749 378.231 59.9992C378.506 59.7235 378.878 59.5685 379.267 59.5685C379.655 59.5685 380.028 59.7235 380.303 59.9992C380.577 60.2749 380.732 60.6489 380.732 61.0389V68.172C380.732 68.562 380.577 68.936 380.303 69.2117C380.028 69.4875 379.655 69.6424 379.267 69.6424Z" fill="#00407E"/>
<path d="M388.031 69.6424C387.643 69.6424 387.27 69.4875 386.995 69.2117C386.721 68.936 386.566 68.562 386.566 68.172V61.0389C386.566 60.6489 386.721 60.2749 386.995 59.9992C387.27 59.7235 387.643 59.5685 388.031 59.5685C388.42 59.5685 388.793 59.7235 389.067 59.9992C389.342 60.2749 389.496 60.6489 389.496 61.0389V68.172C389.496 68.562 389.342 68.936 389.067 69.2117C388.793 69.4875 388.42 69.6424 388.031 69.6424Z" fill="#00407E"/>
<path d="M396.797 69.6424C396.408 69.6424 396.035 69.4875 395.761 69.2117C395.486 68.936 395.332 68.562 395.332 68.172V61.0389C395.332 60.6489 395.486 60.2749 395.761 59.9992C396.035 59.7235 396.408 59.5685 396.797 59.5685C397.185 59.5685 397.558 59.7235 397.832 59.9992C398.107 60.2749 398.261 60.6489 398.261 61.0389V68.172C398.261 68.562 398.107 68.936 397.832 69.2117C397.558 69.4875 397.185 69.6424 396.797 69.6424Z" fill="#00407E"/>
<path d="M357.76 76.2472H350.281V83.7538H357.76V76.2472Z" fill="#358F35" fill-opacity="0.63"/>
<path d="M369.486 76.2472H362.007V83.7538H369.486V76.2472Z" fill="#358F35" fill-opacity="0.63"/>
<path d="M381.212 76.2472H373.732V83.7538H381.212V76.2472Z" fill="#358F35" fill-opacity="0.63"/>
<path d="M392.938 76.2472H385.459V83.7538H392.938V76.2472Z" fill="#3DA53D"/>
<path d="M346.035 87.0698H338.556V94.5764H346.035V87.0698Z" fill="#3DA53D"/>
<path d="M357.76 87.0698H350.281V94.5764H357.76V87.0698Z" fill="#358F35" fill-opacity="0.63"/>
<path d="M369.486 87.0698H362.007V94.5764H369.486V87.0698Z" fill="#358F35" fill-opacity="0.63"/>
<path d="M381.212 87.0698H373.732V94.5764H381.212V87.0698Z" fill="#358F35" fill-opacity="0.63"/>
<path d="M392.938 87.0698H385.459V94.5764H392.938V87.0698Z" fill="#3DA53D"/>
<path d="M346.035 97.8936H338.556V105.4H346.035V97.8936Z" fill="#3DA53D"/>
<path d="M357.76 97.8936H350.281V105.4H357.76V97.8936Z" fill="#358F35" fill-opacity="0.63"/>
<path d="M369.486 97.8936H362.007V105.4H369.486V97.8936Z" fill="#358F35" fill-opacity="0.63"/>
<path d="M381.212 97.8936H373.732V105.4H381.212V97.8936Z" fill="#358F35" fill-opacity="0.63"/>
<path d="M63.0345 59.2441C43.4206 73.577 19.405 59.1461 6.50547 86.9326C1.18374 98.3964 3.29329 109.558 8.64431 121.815C14.8646 136.06 23.6993 141.67 36.4708 142.315C43.8494 142.688 50.0462 139.472 57.2167 135.061C62.431 138.258 69.4775 141.64 75.9995 141.675C75.9995 141.675 70.2969 137.529 68.4793 128.132C71.1944 126.55 74.1048 124.963 77.2877 123.445C97.219 113.945 104.333 122.512 116.359 107.895C136.022 83.9919 103.906 29.3775 63.0345 59.2441Z" fill="#005CB5" fill-opacity="0.32"/>
<path d="M84.4025 72.6517L92.0545 99.9452C92.3341 100.949 92.2058 102.024 91.6976 102.933C91.1894 103.842 90.3428 104.512 89.3433 104.796L40.1674 118.684C39.3046 118.932 38.3829 118.87 37.5607 118.509C37.023 118.279 36.5437 117.93 36.1583 117.489C35.7728 117.048 35.4911 116.525 35.334 115.96L27.6829 88.6667C27.5427 88.1701 27.5017 87.6506 27.5624 87.1381C27.6231 86.6255 27.7842 86.1301 28.0365 85.6804C28.2887 85.2306 28.6272 84.8354 29.0323 84.5176C29.4375 84.1997 29.9013 83.9654 30.397 83.8282L79.573 69.9403C80.4342 69.7013 81.3504 69.7582 82.1757 70.1021C82.7127 70.3338 83.1912 70.6829 83.5765 71.124C83.9618 71.5651 84.244 72.0871 84.4025 72.6517Z" fill="white"/>
<path d="M68.1581 91.9661L91.4774 103.283C90.9586 104.017 90.2057 104.551 89.3434 104.796L86.8842 105.49L65.9841 95.3538L62.8842 100.19C62.6192 100.601 62.215 100.901 61.7464 101.036C61.2801 101.166 60.7827 101.12 60.3479 100.907L55.1804 98.4052L42.6267 117.989L37.5608 118.509L51.5786 96.6496L28.2593 85.3319C28.7803 84.6014 29.5347 84.0718 30.3971 83.8312L32.8563 83.1362L60.4895 96.5467L77.1129 70.6383L79.5731 69.9433C80.4343 69.7042 81.3505 69.7611 82.1758 70.105L68.1581 91.9661Z" fill="#00407E"/>
<path d="M184.078 53.8822C182.021 50.4436 178.582 47.6028 178.06 43.6261C177.72 41.6883 177.9 39.6947 178.58 37.8496C180.898 32.472 181.317 26.4608 179.765 20.8122C178.213 15.1635 174.785 10.2165 170.049 6.79099C162.187 0.886085 151.607 -0.505842 142.931 3.49742C129.794 9.5572 122.263 21.2298 128.783 39.9512C130.607 45.1895 133.041 50.4122 133.056 55.9613C133.067 60.2449 130.04 70.7549 139.076 80.3582C141.531 83.0379 144.556 85.1274 147.927 86.4714C151.298 87.8153 154.927 88.3791 158.545 88.1206C159.424 90.7624 160.292 95.3616 159.318 102.12C159.318 102.12 168.027 94.8019 168.71 85.7701C189.962 78.4183 187.247 59.1794 184.078 53.8822Z" fill="#00407E" fill-opacity="0.3"/>
<path d="M152.683 60.9987C151.768 61.014 150.896 61.3895 150.254 62.0442C149.613 62.6989 149.253 63.5804 149.253 64.4986C149.253 65.4168 149.613 66.2982 150.254 66.9529C150.896 67.6076 151.768 67.9831 152.683 67.9985C153.145 68.0063 153.605 67.9215 154.035 67.7491C154.465 67.5767 154.856 67.3201 155.186 66.9944C155.516 66.6686 155.779 66.2801 155.958 65.8516C156.136 65.4231 156.229 64.9632 156.229 64.4986C156.229 64.034 156.136 63.574 155.958 63.1455C155.779 62.717 155.516 62.3286 155.186 62.0028C154.856 61.677 154.465 61.4205 154.035 61.2481C153.605 61.0757 153.145 60.9909 152.683 60.9987Z" fill="#00407E"/>
<path d="M162.077 29.2275C159.712 26.8494 156.526 25.6607 152.522 25.6614C150.827 25.5884 149.135 25.8633 147.549 26.4692C145.964 27.0752 144.518 27.9994 143.301 29.1853C142.222 30.2543 141.339 31.506 140.693 32.8827C139.632 35.1706 140.986 37.9633 143.247 38.2819C143.97 38.3595 144.698 38.1896 145.313 37.7997C145.927 37.4098 146.392 36.8229 146.632 36.1342C147.013 35.1123 147.608 34.1846 148.377 33.414C148.967 32.8462 149.663 32.4018 150.426 32.1066C151.189 31.8115 152.002 31.6714 152.819 31.6947C153.623 31.6544 154.427 31.7799 155.18 32.0635C155.934 32.347 156.621 32.7827 157.201 33.3435C157.725 33.8588 158.139 34.4756 158.419 35.1565C158.698 35.8374 158.836 36.5682 158.826 37.3046C158.833 38.3892 158.513 39.4508 157.908 40.3492C156.793 41.6769 155.572 42.9121 154.259 44.0427C152.589 45.4554 151.207 47.1785 150.188 49.1173C149.816 50.3251 149.586 51.5727 149.505 52.8344C149.429 53.2979 149.451 53.7722 149.568 54.2269C149.685 54.6817 149.895 55.107 150.185 55.4758C150.475 55.8446 150.838 56.1488 151.251 56.3691C151.665 56.5893 152.119 56.7209 152.586 56.7553C153.371 56.7155 154.114 56.3903 154.677 55.8404C155.24 55.2906 155.585 54.5537 155.646 53.7675C155.698 53.2364 155.82 52.7146 156.009 52.2158C156.706 50.9355 157.637 49.7977 158.752 48.8615C160.889 47.0034 162.762 44.8596 164.318 42.49C165.175 40.9776 165.624 39.2675 165.621 37.5281C165.626 35.9751 165.313 34.4376 164.704 33.0102C164.094 31.5827 163.2 30.2955 162.077 29.2275Z" fill="#00407E"/>
</svg>
