<svg width="108" height="83" viewBox="0 0 108 83" fill="none" xmlns="http://www.w3.org/2000/svg">
<path d="M49.7137 22.3958L49.6987 27.4748C49.6724 27.7582 49.5713 28.0296 49.4058 28.2611C49.2403 28.4927 49.0163 28.6761 48.7567 28.7928C48.0475 29.1542 47.2628 29.3426 46.4667 29.3426C45.6707 29.3426 44.886 29.1542 44.1767 28.7928C43.9124 28.6756 43.6841 28.4898 43.5157 28.2547C43.3472 28.0197 43.2447 27.7438 43.2187 27.4558L43.2337 22.3778C43.2596 22.6657 43.362 22.9415 43.5303 23.1766C43.6985 23.4116 43.9265 23.5974 44.1907 23.7148C44.9 24.0762 45.6847 24.2646 46.4807 24.2646C47.2768 24.2646 48.0615 24.0762 48.7707 23.7148C49.0303 23.5977 49.2543 23.414 49.4199 23.1823C49.5855 22.9507 49.6869 22.6793 49.7137 22.3958Z" fill="url(#paint0_linear_368_644)"/>
<path d="M48.7577 21.0608C50.0267 21.7938 50.0327 22.9808 48.7707 23.7148C48.0615 24.0762 47.2768 24.2646 46.4807 24.2646C45.6847 24.2646 44.9 24.0762 44.1907 23.7148C42.9207 22.9808 42.9127 21.7938 44.1737 21.0608C44.8837 20.6995 45.6691 20.5111 46.4657 20.5111C47.2624 20.5111 48.0477 20.6995 48.7577 21.0608Z" fill="#C9C9C9"/>
<path d="M49.0967 8.92393L49.0597 22.0239C49.038 22.2523 48.9562 22.4708 48.8228 22.6573C48.6893 22.8438 48.5088 22.9917 48.2997 23.0859C47.7278 23.3773 47.0951 23.5292 46.4532 23.5292C45.8114 23.5292 45.1786 23.3773 44.6067 23.0859C44.3939 22.9915 44.2101 22.8418 44.0746 22.6524C43.939 22.4631 43.8565 22.2409 43.8357 22.0089L43.8727 8.90894C43.8936 9.14089 43.976 9.36306 44.1116 9.55243C44.2471 9.7418 44.4309 9.89148 44.6437 9.98595C45.2157 10.2773 45.8484 10.4292 46.4902 10.4292C47.1321 10.4292 47.7648 10.2773 48.3367 9.98595C48.5458 9.89171 48.7263 9.74382 48.8598 9.5573C48.9932 9.37078 49.075 9.15226 49.0967 8.92393Z" fill="url(#paint1_linear_368_644)"/>
<path d="M48.3247 7.84689C48.5484 7.92176 48.743 8.06473 48.8813 8.25575C49.0196 8.44677 49.0946 8.67628 49.096 8.91211C49.0973 9.14794 49.0248 9.37827 48.8886 9.57083C48.7525 9.76339 48.5595 9.90853 48.3367 9.9859C47.7648 10.2772 47.1321 10.4291 46.4902 10.4291C45.8484 10.4291 45.2156 10.2772 44.6437 9.9859C44.4201 9.91103 44.2255 9.76806 44.0872 9.57704C43.9489 9.38602 43.8738 9.15651 43.8725 8.92068C43.8711 8.68485 43.9436 8.45452 44.0798 8.26196C44.2159 8.0694 44.4089 7.92427 44.6317 7.84689C45.2036 7.55555 45.8364 7.40369 46.4782 7.40369C47.1201 7.40369 47.7528 7.55555 48.3247 7.84689Z" fill="#C9C9C9"/>
<path d="M55.2487 5.10979L55.2407 6.73979C55.2407 8.03279 54.3867 9.32478 52.6887 10.3118C50.766 11.2904 48.6391 11.8005 46.4817 11.8005C44.3243 11.8005 42.1974 11.2904 40.2747 10.3118C38.5437 9.31178 37.6747 8.0008 37.6827 6.6908L37.6917 5.06079C37.6917 6.37079 38.5517 7.68179 40.2837 8.68179C42.2064 9.66063 44.3332 10.1709 46.4907 10.1709C48.6482 10.1709 50.7751 9.66063 52.6977 8.68179C54.3977 7.69579 55.2457 6.40379 55.2487 5.11079V5.10979Z" fill="url(#paint2_linear_368_644)"/>
<path d="M52.6597 1.49084C56.0977 3.47584 56.1137 6.69585 52.6977 8.68085C50.7751 9.65968 48.6482 10.1699 46.4907 10.1699C44.3332 10.1699 42.2064 9.65968 40.2837 8.68085C36.8427 6.69385 36.8267 3.47385 40.2427 1.48885C42.1659 0.509828 44.2934 -0.000347417 46.4515 1.77499e-07C48.6095 0.000347772 50.7368 0.511207 52.6597 1.49084Z" fill="#C9C9C9"/>
<path d="M34.4267 74.7059C30.7327 80.9569 21.5837 82.8559 13.0107 78.8529C10.0854 77.4923 7.47585 75.5367 5.34873 73.1109C1.25573 68.4019 -0.377267 62.4109 1.63373 57.3629C1.8561 56.8035 2.12157 56.2622 2.42774 55.7439L2.02775 56.4229C0.195132 59.56 -0.42394 63.2601 0.287725 66.8229C1.82272 74.6829 8.88773 80.3839 15.0687 81.9529C22.3897 83.8099 28.7407 82.0089 32.8227 77.0279C33.2706 76.5169 33.6722 75.967 34.0227 75.3849L34.4267 74.7059Z" fill="#EEEEEE"/>
<path d="M31.0027 55.8908C29.2173 53.8558 27.0265 52.2161 24.5707 51.0768C16.8067 47.4418 8.46073 49.6128 5.95773 55.9158C4.27173 60.1438 5.63973 65.1678 9.07373 69.1158C10.8556 71.1485 13.0423 72.7868 15.4937 73.9258C23.2657 77.5578 31.6167 75.3918 34.1137 69.0838C35.7997 64.8588 34.4347 59.8378 31.0027 55.8908Z" fill="#969696"/>
<path d="M29.4937 56.7378C27.9616 54.9948 26.0843 53.5889 23.9807 52.6088C22.2911 51.756 20.4462 51.2542 18.5574 51.1339C16.6685 51.0136 14.7749 51.2772 12.9907 51.9088C11.8494 52.3365 10.8086 52.995 9.93349 53.8433C9.05836 54.6916 8.36769 55.7114 7.90472 56.8388C6.49871 60.3678 7.52371 64.7388 10.5807 68.2608C12.1105 70.0027 13.9859 71.4075 16.0877 72.3858C18.1329 73.3618 20.3667 73.8788 22.6327 73.9008C24.1585 73.9121 25.6726 73.6339 27.0947 73.0808C28.2371 72.6583 29.2785 72.0015 30.152 71.1527C31.0255 70.3038 31.7117 69.2817 32.1667 68.1518C33.5727 64.6308 32.5487 60.2558 29.4937 56.7378ZM31.6337 67.9378C31.2072 68.995 30.564 69.9511 29.7456 70.7445C28.9271 71.538 27.9516 72.1513 26.8817 72.5448C25.1682 73.1498 23.3499 73.4014 21.5365 73.2844C19.7231 73.1673 17.9522 72.6841 16.3307 71.8638C14.3016 70.9193 12.491 69.5633 11.0137 67.8818C8.09872 64.5278 7.11374 60.3818 8.43774 57.0488C8.86655 55.991 9.51177 55.0346 10.332 54.2408C11.1523 53.4471 12.1294 52.8337 13.2007 52.4398C14.5521 51.916 15.9904 51.6524 17.4397 51.6628C19.6212 51.6847 21.7715 52.1837 23.7397 53.1248C25.7719 54.0704 27.5855 55.4277 29.0657 57.1108C31.9737 60.4688 32.9597 64.6178 31.6337 67.9458V67.9378Z" fill="#0082FF"/>
<path d="M31.9167 55.8099C24.1277 47.0419 9.23773 45.0589 2.42773 55.7439C2.12156 56.2622 1.85609 56.8035 1.63373 57.3629C-0.377274 62.4119 1.25572 68.4019 5.34872 73.1109C7.47584 75.5367 10.0854 77.4923 13.0107 78.8529C21.5837 82.8529 30.7327 80.9529 34.4267 74.7059C36.0527 71.8839 39.0627 64.3949 31.9167 55.8099ZM33.7227 68.9039C31.2957 75.0369 23.1767 77.1419 15.6227 73.6119C13.2388 72.505 11.1118 70.9131 9.37771 68.9379C6.03971 65.0969 4.70972 60.2129 6.34872 56.1019C8.78272 49.9739 16.8967 47.8639 24.4487 51.3969C26.8366 52.5042 28.9666 54.0987 30.7017 56.0779C34.0347 59.9129 35.3617 64.7939 33.7227 68.9039Z" fill="#E6E6E6"/>
<path d="M35.6327 51.7889L29.2747 48.0889V39.0569C29.2747 38.7519 29.1536 38.4594 28.9379 38.2437C28.7222 38.028 28.4297 37.9069 28.1247 37.9069C27.8197 37.9069 27.5272 38.028 27.3116 38.2437C27.0959 38.4594 26.9747 38.7519 26.9747 39.0569V48.7489C26.9748 48.9497 27.0276 49.147 27.1278 49.3211C27.228 49.4952 27.3721 49.6399 27.5457 49.7409L34.4737 53.7689C34.9064 54.0203 35.2654 54.381 35.5146 54.815C35.7639 55.2489 35.8947 55.7407 35.8939 56.2412C35.8931 56.7416 35.7607 57.233 35.51 57.6661C35.2594 58.0993 34.8992 58.4589 34.4657 58.7089L17.2327 68.6579C16.2768 69.208 15.1932 69.4976 14.0902 69.4976C12.9873 69.4976 11.9037 69.208 10.9477 68.6579L6.21472 65.9259C5.77221 65.6705 5.27028 65.5361 4.75937 65.5361C4.24846 65.5362 3.74656 65.6707 3.30411 65.9262C2.86166 66.1817 2.49424 66.5491 2.23877 66.9916C1.9833 67.434 1.84878 67.936 1.84872 68.4469V76.6039C1.84896 76.8051 1.90208 77.0027 2.00275 77.1769C2.10342 77.3511 2.24809 77.4958 2.4223 77.5965C2.59651 77.6972 2.79412 77.7503 2.99533 77.7505C3.19654 77.7508 3.39427 77.6981 3.56873 77.5979L5.93173 76.2339C6.18665 76.0774 6.37045 75.8277 6.44403 75.5378C6.51761 75.2479 6.47515 74.9407 6.32568 74.6817C6.17622 74.4226 5.93154 74.2321 5.64374 74.1507C5.35594 74.0693 5.04774 74.1035 4.78473 74.2459L4.14273 74.6169V68.4469C4.14274 68.3385 4.17129 68.2321 4.22549 68.1383C4.2797 68.0444 4.35765 67.9665 4.45151 67.9124C4.54537 67.8583 4.65181 67.8298 4.76016 67.8299C4.86851 67.83 4.97494 67.8586 5.06873 67.9129L9.80072 70.6449C11.1056 71.3958 12.5847 71.791 14.0902 71.791C15.5957 71.791 17.0749 71.3958 18.3797 70.6449L35.6127 60.6959C36.3943 60.2447 37.0436 59.5961 37.4955 58.8149C37.9474 58.0338 38.186 57.1476 38.1875 56.2452C38.189 55.3428 37.9534 54.4558 37.5041 53.6731C37.0549 52.8905 36.4078 52.2397 35.6277 51.7859L35.6327 51.7889Z" fill="url(#paint3_linear_368_644)"/>
<path d="M30.0687 36.8619L29.1117 36.3089V32.5709L30.0687 33.1239V36.8619Z" fill="#EEEEEE"/>
<path d="M44.6547 28.4399L30.0687 36.8619V33.1239L44.6547 24.7019V28.4399Z" fill="#E6E6E6"/>
<path d="M30.0687 33.1239L29.1117 32.5709L43.6977 24.1499L44.6547 24.7019L30.0687 33.1239Z" fill="#C9C9C9"/>
<path d="M31.3677 32.9879L31.3527 43.1879C31.3263 43.4713 31.2252 43.7427 31.0597 43.9744C30.8942 44.2061 30.6703 44.3898 30.4107 44.5069C29.7015 44.8682 28.9168 45.0567 28.1207 45.0567C27.3247 45.0567 26.54 44.8682 25.8307 44.5069C25.5664 44.3895 25.3383 44.2037 25.1698 43.9687C25.0014 43.7336 24.8988 43.4578 24.8727 43.1698L24.8877 32.9698C24.9137 33.2577 25.0161 33.5335 25.1844 33.7685C25.3526 34.0036 25.5806 34.1894 25.8447 34.3069C26.554 34.6683 27.3387 34.8566 28.1347 34.8566C28.9308 34.8566 29.7155 34.6683 30.4247 34.3069C30.6844 34.1898 30.9084 34.0061 31.074 33.7744C31.2396 33.5428 31.341 33.2714 31.3677 32.9879Z" fill="url(#paint4_linear_368_644)"/>
<path d="M30.4117 31.6529C31.6807 32.3859 31.6857 33.5739 30.4247 34.3069C29.7155 34.6683 28.9308 34.8567 28.1347 34.8567C27.3387 34.8567 26.554 34.6683 25.8447 34.3069C24.5747 33.5739 24.5667 32.3859 25.8277 31.6529C26.5377 31.2915 27.3231 31.1031 28.1197 31.1031C28.9164 31.1031 29.7018 31.2915 30.4117 31.6529Z" fill="#C9C9C9"/>
<path d="M83.9964 29.9725C83.434 29.6369 82.9298 29.2124 82.5034 28.7155C81.9617 28.094 81.5167 27.3945 81.1833 26.6405C80.814 25.84 80.6138 24.9719 80.5954 24.0905L80.6364 9.7345L77.3894 11.6215L77.3484 25.9775C77.3668 26.8589 77.567 27.727 77.9364 28.5275C78.27 29.2814 78.7149 29.9809 79.2564 30.6025C79.6834 31.0989 80.1875 31.5233 80.7494 31.8595L82.5494 32.8995L85.7964 31.0125L83.9964 29.9725Z" fill="url(#paint5_linear_368_644)"/>
<path d="M80.7534 31.8595C79.7631 31.2165 78.9389 30.3485 78.348 29.3262C77.7571 28.304 77.4163 27.1566 77.3534 25.9775L77.3943 11.6215L76.1744 10.9215L76.1334 25.2775C76.2185 26.8804 76.681 28.4405 77.4834 29.8307C78.2857 31.2209 79.4051 32.4019 80.7504 33.2775L82.5504 34.3175V32.9065L80.7534 31.8595Z" fill="#EEEEEE"/>
<g style="mix-blend-mode:multiply" opacity="0.7">
<path d="M77.3724 17.6705L77.3554 23.6155L80.6024 21.7405L80.6194 15.7965L77.3724 17.6705Z" fill="#E6E6E6"/>
</g>
<path d="M102.54 79.3485L102.107 78.1765L101.683 77.9305L102.117 79.1025C102.173 79.2693 102.285 79.411 102.435 79.5025L102.858 79.7485C102.708 79.657 102.596 79.5153 102.54 79.3485Z" fill="#C9C9C9"/>
<path d="M102.107 78.1766L101.683 77.9306L105.113 75.9506L105.536 76.1966L102.107 78.1766Z" fill="#7E7E7E"/>
<path d="M105.536 76.1965L105.111 77.8645C104.924 78.6014 104.467 79.2408 103.829 79.6555C103.249 79.9895 102.729 79.8695 102.54 79.3485L102.107 78.1765L105.536 76.1965Z" fill="#EDEDED"/>
<path d="M105.942 77.6395L105.763 77.5395C105.493 77.3864 105.186 77.3087 104.875 77.3145C104.565 77.3203 104.261 77.4094 103.996 77.5725C102.653 78.3575 101.845 80.6525 103.388 81.6185L103.568 81.7185C103.934 81.93 104.367 81.9967 104.779 81.9055C106.367 81.5525 107.739 78.7635 105.942 77.6395Z" fill="#282726"/>
<path d="M105.942 77.6395C107.742 78.7635 106.367 81.5525 104.779 81.9055C104.371 81.9966 103.943 81.9328 103.579 81.7265C103.407 81.607 103.27 81.4436 103.182 81.2531C103.094 81.0627 103.058 80.8522 103.079 80.6435C103.11 80.0647 103.278 79.5015 103.568 78.9998C103.858 78.498 104.263 78.072 104.749 77.7565C104.941 77.863 105.105 78.0119 105.23 78.1919C105.354 78.3719 105.436 78.578 105.468 78.7945C105.139 79.008 104.866 79.2962 104.669 79.6356C104.472 79.9749 104.359 80.3559 104.337 80.7475C104.337 81.4675 104.849 81.7575 105.475 81.3965C105.805 81.1822 106.079 80.893 106.276 80.5526C106.472 80.2121 106.586 79.83 106.606 79.4375C106.606 78.7245 106.094 78.4375 105.468 78.7945C105.436 78.578 105.354 78.3719 105.23 78.1919C105.105 78.0119 104.941 77.863 104.749 77.7565C104.92 77.6325 105.12 77.5562 105.33 77.5357C105.54 77.5151 105.751 77.5509 105.942 77.6395Z" fill="#383534"/>
<path opacity="0.5" d="M105.763 77.5355C105.572 77.447 105.361 77.4111 105.151 77.4317C104.941 77.4522 104.741 77.5285 104.57 77.6525C104.084 77.968 103.679 78.394 103.389 78.8958C103.099 79.3975 102.931 79.9607 102.9 80.5395C102.88 80.7458 102.914 80.954 102.999 81.1428C103.085 81.3316 103.219 81.4944 103.388 81.6145L103.568 81.7145C103.399 81.5945 103.265 81.4319 103.179 81.243C103.093 81.0542 103.059 80.8459 103.079 80.6395C103.11 80.0607 103.278 79.4975 103.568 78.9958C103.858 78.494 104.263 78.068 104.749 77.7525C104.92 77.6285 105.12 77.5522 105.33 77.5317C105.54 77.5111 105.751 77.5469 105.942 77.6355L105.763 77.5355Z" fill="#383534"/>
<path d="M104.573 80.5415L104.139 79.3695L103.715 79.1235L104.153 80.2965C104.208 80.4656 104.322 80.6095 104.473 80.7025L104.897 80.9485C104.744 80.8562 104.629 80.7117 104.573 80.5415Z" fill="#C9C9C9"/>
<path d="M104.139 79.3696L103.715 79.1236L107.145 77.1436L107.569 77.3896L104.139 79.3696Z" fill="#7E7E7E"/>
<path d="M107.922 77.3075L107.532 77.5345L107.569 77.3895L104.139 79.3695L104.18 79.4825C104.165 79.6397 104.159 79.7976 104.161 79.9555L104.321 79.8625L104.573 80.5415C104.762 81.0635 105.282 81.1875 105.861 80.8525C106.5 80.4371 106.957 79.796 107.143 79.0575L107.393 78.0775L107.921 77.7705L107.922 77.3075Z" fill="#EDEDED"/>
<path d="M104.162 79.4925L104.161 79.9555L101.467 78.4005L101.468 77.9375L104.162 79.4925Z" fill="#C9C9C9"/>
<path d="M107.922 77.3076L104.162 79.4926L101.468 77.9376L105.228 75.7526L107.922 77.3076Z" fill="#7E7E7E"/>
<path d="M76.6884 64.2965L76.2544 63.1245L75.8314 62.8785L76.2644 64.0495C76.32 64.2161 76.4326 64.3578 76.5824 64.4496L77.0064 64.6955C76.8566 64.6042 76.7439 64.4629 76.6884 64.2965Z" fill="#C9C9C9"/>
<path d="M76.2544 63.1196L75.8314 62.8736L79.2604 60.8936L79.6844 61.1396L76.2544 63.1196Z" fill="#7E7E7E"/>
<path d="M79.6844 61.1395L79.2584 62.8075C79.0712 63.5444 78.6135 64.1838 77.9763 64.5985C77.3973 64.9325 76.8764 64.8125 76.6884 64.2915L76.2544 63.1195L79.6844 61.1395Z" fill="#EDEDED"/>
<path d="M80.0904 62.5825L79.9114 62.4825C79.6408 62.3296 79.3342 62.2519 79.0235 62.2575C78.7128 62.2631 78.4092 62.3519 78.1443 62.5145C76.8003 63.3005 75.9924 65.5955 77.5364 66.5615L77.7154 66.6615C78.082 66.8725 78.5142 66.9392 78.9274 66.8485C80.5144 66.4965 81.8874 63.7065 80.0904 62.5825Z" fill="#282726"/>
<path d="M80.0903 62.5826C81.8903 63.7066 80.5144 66.4956 78.9274 66.8486C78.5189 66.9397 78.0911 66.8755 77.7273 66.6686C77.555 66.5493 77.4177 66.386 77.3298 66.1957C77.2419 66.0055 77.2065 65.7951 77.2273 65.5866C77.2586 65.0078 77.4262 64.4447 77.7164 63.943C78.0066 63.4413 78.4113 63.0152 78.8974 62.6996C79.0886 62.8061 79.2529 62.955 79.3775 63.135C79.5022 63.3149 79.5839 63.5211 79.6163 63.7376C79.2879 63.9516 79.0144 64.2399 78.8179 64.5792C78.6214 64.9185 78.5075 65.2992 78.4853 65.6906C78.4853 66.4106 78.9973 66.7006 79.6233 66.3396C79.9526 66.1249 80.2266 65.8357 80.4231 65.4953C80.6196 65.1549 80.7331 64.773 80.7543 64.3806C80.7543 63.6676 80.2423 63.3806 79.6163 63.7376C79.5839 63.5211 79.5022 63.3149 79.3775 63.135C79.2529 62.955 79.0886 62.8061 78.8974 62.6996C79.068 62.5756 79.2685 62.4994 79.4784 62.4788C79.6883 62.4582 79.8999 62.4941 80.0914 62.5826H80.0903Z" fill="#383534"/>
<path opacity="0.5" d="M79.9114 62.4786C79.7199 62.39 79.5084 62.3542 79.2985 62.3748C79.0886 62.3954 78.888 62.4716 78.7174 62.5956C78.2313 62.9112 77.8266 63.3372 77.5364 63.8389C77.2462 64.3406 77.0786 64.9038 77.0474 65.4825C77.0267 65.6889 77.0611 65.8971 77.147 66.0859C77.2329 66.2748 77.3672 66.4375 77.5364 66.5575L77.7154 66.6575C77.5462 66.5375 77.4119 66.3748 77.326 66.1859C77.2401 65.9971 77.2057 65.789 77.2263 65.5826C77.2576 65.0038 77.4252 64.4406 77.7154 63.9389C78.0056 63.4372 78.4103 63.0112 78.8964 62.6955C79.067 62.5715 79.2676 62.4953 79.4774 62.4748C79.6873 62.4542 79.8989 62.49 80.0904 62.5786L79.9114 62.4786Z" fill="#383534"/>
<path d="M78.7204 65.4845L78.2864 64.3125L77.8634 64.0665L78.2974 65.2385C78.3525 65.4075 78.4659 65.5515 78.6174 65.6445L79.0404 65.8905C78.8887 65.7977 78.7752 65.6537 78.7204 65.4845Z" fill="#C9C9C9"/>
<path d="M78.2864 64.3125L77.8634 64.0665L81.2934 62.0865L81.7164 62.3326L78.2864 64.3125Z" fill="#7E7E7E"/>
<path d="M82.0694 62.2505L81.6794 62.4775L81.7164 62.3325L78.2864 64.3125L78.3284 64.4255C78.3133 64.5827 78.3069 64.7406 78.3094 64.8985L78.4694 64.8055L78.7204 65.4845C78.9104 66.0065 79.4294 66.1305 80.0084 65.7955C80.6479 65.3789 81.1062 64.7359 81.2914 63.9955L81.5414 63.0155L82.0684 62.7085L82.0694 62.2505Z" fill="#EDEDED"/>
<path d="M78.3104 64.4356L78.3094 64.8986L75.6154 63.3436L75.6164 62.8806L78.3104 64.4356Z" fill="#C9C9C9"/>
<path d="M82.0694 62.2506L78.3104 64.4356L75.6164 62.8806L79.3754 60.6956L82.0694 62.2506Z" fill="#7E7E7E"/>
<path d="M76.5064 79.4606L76.0724 78.2896L75.6494 78.0436L76.0834 79.2146C76.1386 79.3814 76.2513 79.5232 76.4014 79.6146L76.8244 79.8606C76.6746 79.7688 76.562 79.6272 76.5064 79.4606Z" fill="#C9C9C9"/>
<path d="M79.5023 76.3096L79.0764 77.9766C78.8898 78.7137 78.432 79.3533 77.7944 79.7676C77.2154 80.1026 76.6944 79.9826 76.5064 79.4606L76.0724 78.2896L79.5023 76.3096Z" fill="#EDEDED"/>
<path d="M79.9084 77.7526L79.7294 77.6526C79.4588 77.4996 79.1522 77.4219 78.8415 77.4275C78.5308 77.4332 78.2272 77.5219 77.9624 77.6846C76.6184 78.4696 75.8114 80.7656 77.3544 81.7306L77.5334 81.8306C77.8995 82.0429 78.3321 82.11 78.7454 82.0186C80.3324 81.6656 81.7054 78.8766 79.9084 77.7526Z" fill="#282726"/>
<path d="M79.9084 77.7526C81.7084 78.8766 80.3324 81.6655 78.7454 82.0185C78.3369 82.1101 77.909 82.046 77.5454 81.8386C77.3729 81.7193 77.2356 81.5561 77.1477 81.3658C77.0598 81.1755 77.0244 80.9651 77.0454 80.7566C77.0767 80.1777 77.2444 79.6144 77.5348 79.1127C77.8252 78.611 78.23 78.185 78.7164 77.8696C78.9074 77.9763 79.0714 78.1253 79.1958 78.3053C79.3203 78.4852 79.4019 78.6912 79.4344 78.9076C79.1056 79.1212 78.8319 79.4094 78.6356 79.7488C78.4392 80.0881 78.3257 80.4691 78.3044 80.8606C78.3044 81.5796 78.8164 81.8706 79.4424 81.5086C79.7718 81.2945 80.046 81.0055 80.2424 80.6652C80.4388 80.3249 80.5519 79.9429 80.5724 79.5506C80.5724 78.8376 80.0604 78.5506 79.4344 78.9076C79.4019 78.6912 79.3203 78.4852 79.1958 78.3053C79.0714 78.1253 78.9074 77.9763 78.7164 77.8696C78.8867 77.7454 79.0871 77.669 79.2969 77.6485C79.5067 77.6279 79.7182 77.6638 79.9094 77.7526H79.9084Z" fill="#383534"/>
<path opacity="0.5" d="M79.7294 77.6485C79.538 77.5598 79.3264 77.5239 79.1164 77.5445C78.9065 77.565 78.7059 77.6413 78.5354 77.7655C78.0493 78.0812 77.6446 78.5072 77.3544 79.0089C77.0642 79.5106 76.8966 80.0738 76.8654 80.6525C76.8446 80.8588 76.8789 81.0669 76.9648 81.2556C77.0507 81.4443 77.1852 81.6068 77.3544 81.7265L77.5334 81.8265C77.3641 81.7068 77.2297 81.5442 77.1438 81.3556C77.0579 81.1669 77.0236 80.9588 77.0444 80.7525C77.0757 80.1737 77.2434 79.6104 77.5338 79.1087C77.8242 78.607 78.229 78.181 78.7154 77.8655C78.8857 77.7413 79.0862 77.665 79.2959 77.6444C79.5057 77.6239 79.7172 77.6598 79.9084 77.7485L79.7294 77.6485Z" fill="#383534"/>
<path d="M78.5384 80.6546L78.1054 79.4826L77.6814 79.2366L78.1154 80.4076C78.1702 80.5767 78.2837 80.7207 78.4354 80.8136L78.8594 81.0606C78.7079 80.9673 78.5942 80.8235 78.5384 80.6546Z" fill="#C9C9C9"/>
<path d="M81.5344 77.5026L81.1094 79.1696C80.9244 79.91 80.466 80.5531 79.8264 80.9696C79.2474 81.3046 78.7264 81.1796 78.5384 80.6586L78.1054 79.4866L81.5344 77.5026Z" fill="#EDEDED"/>
<path d="M81.8874 77.4205L81.8864 77.8835L78.1273 80.0685L78.1284 79.6055L81.8874 77.4205Z" fill="#EDEDED"/>
<path d="M78.1284 79.6056L78.1273 80.0686L75.4333 78.5126L75.4344 78.0496L78.1284 79.6056Z" fill="#C9C9C9"/>
<path d="M81.8874 77.4205L78.1284 79.6055L75.4344 78.0495L79.1934 75.8655L81.8874 77.4205Z" fill="#7E7E7E"/>
<path d="M102.202 64.5465L101.769 63.3745L101.345 63.1285L101.779 64.3005C101.834 64.4674 101.947 64.6092 102.097 64.7005L102.52 64.9465C102.37 64.8552 102.258 64.7134 102.202 64.5465Z" fill="#C9C9C9"/>
<path d="M101.769 63.3746L101.345 63.1286L104.775 61.1486L105.198 61.3946L101.769 63.3746Z" fill="#7E7E7E"/>
<path d="M105.198 61.3966L104.773 63.0646C104.586 63.8018 104.128 64.4414 103.49 64.8556C102.911 65.1906 102.39 65.0706 102.202 64.5486L101.769 63.3766L105.198 61.3966Z" fill="#EDEDED"/>
<path d="M105.604 62.8376L105.425 62.7376C105.155 62.5847 104.848 62.5071 104.537 62.5129C104.227 62.5187 103.923 62.6077 103.658 62.7706C102.314 63.5556 101.507 65.8516 103.05 66.8166L103.229 66.9166C103.596 67.1288 104.028 67.1956 104.441 67.1036C106.029 66.7516 107.401 63.9616 105.604 62.8376Z" fill="#282726"/>
<path d="M105.604 62.8385C107.404 63.9615 106.029 66.7516 104.441 67.1036C104.033 67.1958 103.605 67.1319 103.241 66.9245C103.069 66.8052 102.931 66.6417 102.844 66.4513C102.756 66.2608 102.72 66.0503 102.741 65.8416C102.773 65.2628 102.94 64.6997 103.231 64.198C103.521 63.6963 103.925 63.2703 104.411 62.9545C104.603 63.0613 104.767 63.2105 104.891 63.3906C105.016 63.5707 105.097 63.777 105.129 63.9935C104.801 64.2071 104.527 64.4953 104.33 64.8347C104.134 65.1741 104.021 65.555 103.999 65.9466C103.999 66.6656 104.511 66.9566 105.137 66.5946C105.467 66.3805 105.741 66.0915 105.937 65.7512C106.134 65.4109 106.247 65.0289 106.267 64.6366C106.267 63.9236 105.756 63.6365 105.129 63.9935C105.097 63.777 105.016 63.5707 104.891 63.3906C104.767 63.2105 104.603 63.0613 104.411 62.9545C104.582 62.8304 104.782 62.7542 104.992 62.7338C105.202 62.7134 105.413 62.7496 105.604 62.8385Z" fill="#383534"/>
<path opacity="0.5" d="M105.425 62.7336C105.234 62.6451 105.023 62.6092 104.813 62.6298C104.603 62.6504 104.403 62.7266 104.232 62.8506C103.746 63.166 103.341 63.592 103.051 64.0937C102.761 64.5955 102.593 65.1588 102.562 65.7376C102.541 65.9439 102.575 66.1522 102.661 66.3411C102.747 66.5299 102.881 66.6927 103.05 66.8126L103.229 66.9126C103.06 66.7925 102.926 66.6298 102.84 66.441C102.755 66.2521 102.72 66.0439 102.741 65.8376C102.773 65.2588 102.94 64.6957 103.231 64.194C103.521 63.6923 103.925 63.2663 104.411 62.9506C104.582 62.8266 104.782 62.7503 104.992 62.7298C105.202 62.7092 105.413 62.745 105.604 62.8336L105.425 62.7336Z" fill="#383534"/>
<path d="M104.235 65.7395L103.801 64.5685L103.377 64.3225L103.811 65.4935C103.866 65.6626 103.98 65.8066 104.131 65.8995L104.555 66.1455C104.404 66.0526 104.29 65.9086 104.235 65.7395Z" fill="#C9C9C9"/>
<path d="M103.801 64.5685L103.377 64.3225L106.807 62.3425L107.231 62.5885L103.801 64.5685Z" fill="#7E7E7E"/>
<path d="M107.231 62.5885L106.805 64.2555C106.62 64.9956 106.162 65.6385 105.523 66.0555C104.943 66.3895 104.423 66.2655 104.235 65.7435L103.801 64.5725L107.231 62.5885Z" fill="#EDEDED"/>
<path d="M107.584 62.5066L107.582 62.9696L103.823 65.1546L103.824 64.6906L107.584 62.5066Z" fill="#EDEDED"/>
<path d="M103.824 64.6905L103.823 65.1545L101.129 63.5985L101.13 63.1355L103.824 64.6905Z" fill="#C9C9C9"/>
<path d="M107.584 62.5066L103.824 64.6906L101.13 63.1356L104.89 60.9506L107.584 62.5066Z" fill="#7E7E7E"/>
<path d="M107.121 60.8225L107.116 62.5155L96.4104 68.7375L96.4154 67.0445L107.121 60.8225Z" fill="#EDEDED"/>
<path d="M86.6074 67.0445L86.6024 68.7375L75.8184 62.5115L75.8234 60.8185L86.6074 67.0445Z" fill="#C9C9C9"/>
<path d="M97.0753 68.5696V70.2626C97.0575 70.8257 96.8279 71.3613 96.4324 71.7626V70.0696C96.8279 69.6683 97.0575 69.1327 97.0753 68.5696Z" fill="#EDEDED"/>
<path d="M86.6164 70.0716V71.7646C86.209 71.3609 85.973 70.8158 85.9574 70.2426V68.5496C85.973 69.1226 86.2086 69.6676 86.6154 70.0716H86.6164Z" fill="#C9C9C9"/>
<path d="M94.1443 71.3965V73.0895C92.4393 73.5944 90.6244 73.5944 88.9194 73.0895V71.3965C90.6244 71.9015 92.4393 71.9015 94.1443 71.3965Z" fill="url(#paint6_linear_368_644)"/>
<path d="M107.216 76.2925L107.211 77.9865L104.923 79.3155L104.928 77.6225L107.216 76.2925Z" fill="#EDEDED"/>
<path d="M104.928 77.6225L104.923 79.3155L94.1394 73.0895L94.1443 71.3965L104.928 77.6225Z" fill="#C9C9C9"/>
<path d="M78.2133 77.6225L78.2084 79.3155L75.9054 77.9865L75.9104 76.2925L78.2133 77.6225Z" fill="#C9C9C9"/>
<path d="M107.121 60.8225L96.4154 67.0445C96.6221 67.2376 96.7872 67.471 96.9006 67.7302C97.014 67.9893 97.0733 68.2689 97.0749 68.5518C97.0765 68.8348 97.0203 69.115 96.9099 69.3755C96.7994 69.6359 96.6369 69.871 96.4324 70.0665L107.216 76.2965L104.928 77.6265L94.1443 71.3965C92.4393 71.9015 90.6244 71.9015 88.9194 71.3965L78.2133 77.6185L75.9134 76.2885L86.6194 70.0675C86.4122 69.8738 86.247 69.6398 86.1337 69.3799C86.0204 69.1199 85.9616 68.8395 85.9607 68.5559C85.9599 68.2724 86.0171 67.9917 86.1288 67.731C86.2405 67.4704 86.4044 67.2354 86.6104 67.0405L75.8264 60.8145L78.1143 59.4845L88.8984 65.7115C90.6009 65.2081 92.4128 65.2081 94.1154 65.7115L104.821 59.4895L107.121 60.8225Z" fill="#7E7E7E"/>
<path d="M88.9194 71.4005L88.9144 73.0935L78.2084 79.3155L78.2133 77.6225L88.9194 71.4005Z" fill="#EDEDED"/>
<path d="M94.8174 58.2365C94.7906 58.5201 94.6893 58.7915 94.5237 59.0231C94.358 59.2548 94.134 59.4385 93.8744 59.5555C93.1633 59.9181 92.3765 60.1072 91.5784 60.1072C90.7802 60.1072 89.9934 59.9181 89.2823 59.5555C89.018 59.4381 88.7898 59.2521 88.6213 59.0169C88.4529 58.7816 88.3504 58.5057 88.3244 58.2175V68.4565C88.35 68.7448 88.4523 69.0209 88.6205 69.2563C88.7888 69.4918 89.017 69.6779 89.2814 69.7955C89.9927 70.1579 90.7796 70.3468 91.5779 70.3468C92.3761 70.3468 93.1631 70.1579 93.8744 69.7955C94.1341 69.6788 94.3582 69.4951 94.5237 69.2634C94.6892 69.0316 94.7902 68.7601 94.8164 68.4765L94.8174 58.2365Z" fill="#00407E"/>
<path d="M93.8534 56.8966C93.1428 56.5347 92.3568 56.3461 91.5594 56.3461C90.762 56.3461 89.9759 56.5347 89.2654 56.8966C88.0024 57.6296 88.0094 58.8196 89.2804 59.5536C89.9914 59.9162 90.7782 60.1052 91.5764 60.1052C92.3745 60.1052 93.1613 59.9162 93.8724 59.5536C95.1374 58.8216 95.1314 57.6316 93.8534 56.8966Z" fill="#7E7E7E"/>
<path d="M89.5004 34.2185L89.4904 58.0245C89.4904 58.4535 89.8834 58.8845 90.6714 59.1185C91.2631 59.2933 91.8927 59.2933 92.4844 59.1185C93.2584 58.8865 93.6444 58.4635 93.6464 58.0405L93.6554 34.2205L89.5004 34.2185Z" fill="#00407E"/>
<path d="M86.7354 42.4665L84.7474 52.8965C84.7215 53.0325 84.7508 53.1733 84.8287 53.2878C84.9066 53.4023 85.0268 53.4811 85.1629 53.507C85.2989 53.5329 85.4397 53.5036 85.5542 53.4257C85.6687 53.3477 85.7475 53.2276 85.7734 53.0915L87.7614 42.6635C87.7673 42.6325 87.7703 42.601 87.7704 42.5695C87.7712 42.4391 87.7233 42.3132 87.636 42.2163C87.5487 42.1195 87.4283 42.0589 87.2986 42.0464C87.1688 42.0338 87.0391 42.0703 86.9348 42.1486C86.8306 42.2269 86.7594 42.3414 86.7354 42.4695V42.4665Z" fill="#969696"/>
<path d="M106.772 39.2736C106.888 38.2205 106.919 37.1597 106.865 36.1016L76.2873 36.0166C76.2803 38.5166 75.6784 41.7306 80.7814 44.8636C89.3294 50.1096 104.954 47.2376 106.681 39.6636C106.712 39.5456 106.738 39.4286 106.759 39.3146C106.765 39.3036 106.77 39.2886 106.772 39.2736Z" fill="url(#paint7_linear_368_644)"/>
<path d="M105.707 32.6035C104.819 31.3762 103.68 30.3516 102.365 29.5975C101.441 29.0498 100.465 28.593 99.4524 28.2335C98.7739 27.9863 98.0817 27.7783 97.3794 27.6105C96.1914 27.3185 95.2023 27.1875 95.1933 27.1855C94.0603 27.0405 93.8243 27.0095 92.9333 26.9615C92.1643 26.9195 91.3944 26.9115 90.6434 26.9385C89.1238 26.9844 87.6119 27.1745 86.1283 27.5065C85.4002 27.663 84.6823 27.8634 83.9784 28.1065C83.2849 28.3382 82.6072 28.6145 81.9494 28.9335C80.9366 29.415 79.9871 30.0196 79.1224 30.7335C78.7679 31.0329 78.4338 31.3556 78.1224 31.6995C77.9094 31.9485 77.6383 32.2925 77.4463 32.5585C77.325 32.7285 77.2145 32.9058 77.1153 33.0895C76.8668 33.5284 76.6689 33.994 76.5253 34.4775C76.3715 35.0046 76.2921 35.5505 76.2894 36.0995C76.2834 38.3285 77.7203 40.5645 80.6153 42.2945C86.5003 45.8125 96.1803 45.9105 102.235 42.5125C105.312 40.7865 106.861 38.4885 106.867 36.1855C106.86 34.9003 106.455 33.6489 105.707 32.6035Z" fill="#0082FF"/>
<path d="M101.928 29.6346C96.3724 26.3126 87.2344 26.2206 81.5184 29.4276C75.8024 32.6346 75.6734 37.9276 81.2284 41.2496C86.7834 44.5716 95.9224 44.6626 101.638 41.4556C107.354 38.2486 107.484 32.9556 101.928 29.6346Z" fill="#0082FF"/>
<path d="M86.9114 52.2166L86.6453 55.2965C86.6409 55.3444 86.6264 55.3907 86.6027 55.4325C86.579 55.4743 86.5467 55.5106 86.508 55.5389C86.4692 55.5673 86.4249 55.5871 86.3779 55.5971C86.3309 55.607 86.2823 55.6068 86.2353 55.5965L83.1644 54.9366C83.1176 54.9264 83.0735 54.9065 83.0349 54.8781C82.9963 54.8498 82.9642 54.8136 82.9405 54.772C82.9168 54.7304 82.9022 54.6843 82.8975 54.6367C82.8928 54.589 82.8982 54.541 82.9133 54.4955L83.8894 51.5855C83.9158 51.5066 83.9703 51.4401 84.0426 51.3988C84.1149 51.3575 84.1999 51.3442 84.2814 51.3615L86.6413 51.8536C86.7228 51.8708 86.7952 51.9172 86.845 51.984C86.8947 52.0508 86.9183 52.1336 86.9114 52.2166Z" fill="#383534"/>
<path d="M84.1174 1.5885C82.5354 0.6695 80.3394 0.793502 77.9094 2.1965C72.8804 5.0965 68.8714 12.3315 69.2774 17.8695C69.3964 19.5415 69.7774 20.8695 70.6144 21.3485L72.3074 22.3325C71.4754 21.8485 71.0904 20.5255 70.9714 18.8535C70.5654 13.3155 74.5714 6.08451 79.6034 3.18051C82.0324 1.78051 84.2294 1.65351 85.8104 2.57251L84.1174 1.5885Z" fill="#7E7E7E"/>
<path d="M85.2304 2.23152C83.6494 1.31252 81.4524 1.43152 79.0234 2.83952C73.9934 5.73952 69.9854 12.9745 70.3914 18.5125C70.5104 20.1845 70.8914 21.5125 71.7274 21.9905L73.4203 22.9745C72.5883 22.4915 72.2033 21.1685 72.0843 19.4965C71.6783 13.9585 75.6844 6.72753 80.7164 3.82353C83.1454 2.42353 85.3424 2.29653 86.9234 3.21553L85.2304 2.23152Z" fill="#0082FF"/>
<path d="M80.7164 3.82349C75.6864 6.72349 71.6783 13.9585 72.0843 19.4965C72.2843 22.2965 73.2314 24.1235 75.7844 22.6495L85.7404 16.9015C88.2924 15.4285 89.2264 12.5195 89.4174 9.48947C89.7894 3.50247 85.7534 0.915489 80.7164 3.82349Z" fill="#0082FF"/>
<defs>
<linearGradient id="paint0_linear_368_644" x1="43.2187" y1="25.8598" x2="49.7137" y2="25.8598" gradientUnits="userSpaceOnUse">
<stop stop-color="#C4C4C4"/>
<stop offset="0.221" stop-color="#CCCCCC"/>
<stop offset="1" stop-color="#E6E6E6"/>
</linearGradient>
<linearGradient id="paint1_linear_368_644" x1="43.8357" y1="16.2209" x2="49.0967" y2="16.2209" gradientUnits="userSpaceOnUse">
<stop stop-color="#C4C4C4"/>
<stop offset="0.221" stop-color="#CCCCCC"/>
<stop offset="1" stop-color="#E6E6E6"/>
</linearGradient>
<linearGradient id="paint2_linear_368_644" x1="37.6827" y1="8.43179" x2="55.2487" y2="8.43179" gradientUnits="userSpaceOnUse">
<stop stop-color="#C4C4C4"/>
<stop offset="0.221" stop-color="#CCCCCC"/>
<stop offset="1" stop-color="#E6E6E6"/>
</linearGradient>
<linearGradient id="paint3_linear_368_644" x1="26.5027" y1="41.3779" x2="21.5807" y2="57.4369" gradientUnits="userSpaceOnUse">
<stop stop-color="#DDDDDD"/>
<stop offset="0.137" stop-color="#E2E2E2"/>
<stop offset="0.562" stop-color="#EEEEEE"/>
<stop offset="1" stop-color="#F2F2F2"/>
</linearGradient>
<linearGradient id="paint4_linear_368_644" x1="24.8727" y1="39.0129" x2="31.3677" y2="39.0129" gradientUnits="userSpaceOnUse">
<stop stop-color="#C4C4C4"/>
<stop offset="0.221" stop-color="#CCCCCC"/>
<stop offset="1" stop-color="#E6E6E6"/>
</linearGradient>
<linearGradient id="paint5_linear_368_644" x1="79.8924" y1="20.2275" x2="84.4834" y2="28.1785" gradientUnits="userSpaceOnUse">
<stop stop-color="#E6E6E6"/>
<stop offset="1" stop-color="#F2F2F2"/>
</linearGradient>
<linearGradient id="paint6_linear_368_644" x1="88.9144" y1="72.4335" x2="94.1443" y2="72.4335" gradientUnits="userSpaceOnUse">
<stop stop-color="#B0B7B8"/>
<stop offset="1" stop-color="#C6CBCB"/>
</linearGradient>
<linearGradient id="paint7_linear_368_644" x1="76.2623" y1="41.7756" x2="106.873" y2="41.7756" gradientUnits="userSpaceOnUse">
<stop stop-color="#00407E"/>
<stop offset="1" stop-color="#0082FF"/>
</linearGradient>
</defs>
</svg>
