<svg width="172" height="77" viewBox="0 0 172 77" fill="none" xmlns="http://www.w3.org/2000/svg">
<path d="M40.7614 46.4322C41.0427 45.7956 41.4182 45.205 41.8754 44.6802C42.2343 44.2617 42.6588 43.9044 43.1324 43.6222C43.4252 43.4094 43.7695 43.2787 44.1297 43.2435C44.4899 43.2083 44.853 43.27 45.1814 43.4222L47.0934 44.5332L43.0164 51.5462L41.1004 50.4342C40.8099 50.228 40.5793 49.9486 40.4319 49.6244C40.2845 49.3001 40.2257 48.9426 40.2614 48.5882C40.2774 47.8427 40.4476 47.1086 40.7614 46.4322Z" fill="#282726"/>
<path d="M48.2344 43.3292L46.1144 42.0972L44.5874 42.2262L46.7084 43.4582L48.2344 43.3292Z" fill="#0082FF"/>
<path d="M46.7085 43.4582L44.5875 42.2262L41.2325 44.1632L43.3535 45.3962L46.7085 43.4582Z" fill="#0082FF"/>
<path d="M41.8315 47.0262L39.7105 45.7942L39.7185 48.6192L41.8395 49.8512L41.8315 47.0262Z" fill="#0082FF"/>
<path d="M43.3534 45.3962L41.2324 44.1632L39.7104 45.7942L41.8314 47.0262L43.3534 45.3962Z" fill="#0082FF"/>
<path d="M43.3534 45.3961L41.8314 47.0261L41.8394 49.8511L48.2424 46.1541L48.2344 43.3291L46.7084 43.4581L43.3534 45.3961Z" fill="#005CB5"/>
<path d="M45.0484 44.7341C46.6374 43.8161 47.9304 44.5531 47.9354 46.3761C47.883 47.3719 47.5957 48.3412 47.0971 49.2048C46.5985 50.0684 45.9026 50.8018 45.0664 51.3451C43.4774 52.2631 42.1844 51.5261 42.1794 49.6991C42.2322 48.7039 42.5197 47.7353 43.0183 46.8724C43.5169 46.0095 44.2126 45.2768 45.0484 44.7341Z" fill="#353433"/>
<path d="M45.0074 45.4411C44.3808 45.863 43.8629 46.4273 43.4962 47.0878C43.1294 47.7482 42.9243 48.4861 42.8974 49.2411C42.9274 50.6201 43.9204 51.1531 45.1164 50.4321C45.743 50.01 46.2608 49.4457 46.6277 48.7853C46.9946 48.1249 47.2001 47.3871 47.2274 46.6321C47.1934 45.2531 46.2034 44.7201 45.0074 45.4411Z" fill="#EEEEEE"/>
<path d="M30.1314 65.7342L29.6404 64.4072L29.1604 64.1282L29.6524 65.4552C29.7139 65.6459 29.8416 65.8084 30.0124 65.9132L30.4924 66.1912C30.3214 66.0868 30.1933 65.9247 30.1314 65.7342Z" fill="#0082FF"/>
<path d="M33.5254 62.1642L33.0434 64.0532C32.8318 64.8884 32.3129 65.6129 31.5904 66.0822C30.9344 66.4612 30.3464 66.3252 30.1314 65.7342L29.6404 64.4072L33.5254 62.1642Z" fill="#005CB5"/>
<path d="M33.9854 63.7991L33.7854 63.6811C33.4791 63.5081 33.132 63.4202 32.7803 63.4267C32.4286 63.4332 32.085 63.5339 31.7854 63.7181C30.2624 64.6071 29.3474 67.2081 31.0964 68.3011L31.2964 68.4191C31.711 68.6592 32.2006 68.7348 32.6684 68.6311C34.4654 68.2311 36.0204 65.0721 33.9854 63.7991Z" fill="#353433"/>
<path d="M33.4554 68.0542C33.8287 67.8116 34.1393 67.4843 34.362 67.0988C34.5846 66.7133 34.7129 66.2807 34.7365 65.8362C34.7365 65.0282 34.1564 64.6982 33.4474 65.1082C33.0747 65.3499 32.7644 65.6762 32.5418 66.0606C32.3192 66.445 32.1906 66.8766 32.1664 67.3202C32.1684 68.1352 32.7464 68.4642 33.4554 68.0542Z" fill="#282726"/>
<g style="mix-blend-mode:screen" opacity="0.2">
<path d="M33.7824 63.6812C33.5658 63.5806 33.3262 63.5398 33.0884 63.563C32.8507 63.5862 32.6235 63.6726 32.4304 63.8132C31.8798 64.171 31.4215 64.6537 31.0927 65.2221C30.764 65.7905 30.5741 66.4285 30.5384 67.0842C30.515 67.3179 30.5539 67.5536 30.6512 67.7674C30.7485 67.9812 30.9008 68.1654 31.0924 68.3012L31.2924 68.4192C31.1008 68.2834 30.9485 68.0992 30.8512 67.8854C30.7539 67.6716 30.715 67.4359 30.7384 67.2022C30.7741 66.5465 30.964 65.9085 31.2928 65.3401C31.6215 64.7717 32.0798 64.289 32.6304 63.9312C32.8235 63.7906 33.0507 63.7042 33.2884 63.681C33.5262 63.6578 33.7658 63.6986 33.9824 63.7992L33.7824 63.6812Z" fill="#353433"/>
</g>
<path d="M32.4334 67.0861L31.9424 65.7591L31.4624 65.4801L31.9544 66.8071C32.0166 66.9986 32.1449 67.1617 32.3164 67.2671L32.7964 67.5461C32.6248 67.4405 32.4962 67.2775 32.4334 67.0861Z" fill="#0082FF"/>
<path d="M35.8274 63.5161L35.3454 65.4051C35.1348 66.2418 34.6163 66.9682 33.8934 67.4391C33.2374 67.8181 32.6494 67.6771 32.4344 67.0861L31.9434 65.7591L35.8274 63.5161Z" fill="#005CB5"/>
<path d="M36.2274 63.4231L36.2264 63.9481L31.9674 66.4221L31.9694 65.8981L36.2274 63.4231Z" fill="#005CB5"/>
<path d="M31.9695 65.8981L31.9675 66.4221L28.9155 64.6601L28.9175 64.1361L31.9695 65.8981Z" fill="#0082FF"/>
<path d="M53.5584 60.5291L79.4924 45.5561V41.9991L53.5584 56.9721V60.5291Z" fill="#005CB5"/>
<path d="M38.4105 51.7842L53.5585 60.5292V56.9722L38.4105 48.2272V51.7842Z" fill="#0082FF"/>
<path d="M32.6854 66.3561L48.1714 57.4161V53.8591L32.6854 64.9311V66.3561Z" fill="#005CB5"/>
<path d="M28.2944 63.8201L32.6854 66.3561V64.9311L28.2944 62.3961V63.8201Z" fill="#0082FF"/>
<path d="M32.6854 64.9311L48.1714 53.8591L43.7794 51.3231L28.2944 62.3961L32.6854 64.9311Z" fill="#0082FF"/>
<path d="M58.0164 56.3931C58.2977 55.7568 58.6733 55.1665 59.1304 54.6421C59.4899 54.2236 59.9147 53.866 60.3884 53.5831C60.6809 53.3701 61.025 53.2392 61.3852 53.2041C61.7453 53.1689 62.1082 53.2307 62.4364 53.3831L64.3524 54.4931L60.2744 61.5051L58.3594 60.3931C58.0687 60.1871 57.8378 59.9078 57.6902 59.5835C57.5427 59.2592 57.4837 58.9016 57.5194 58.5471C57.5354 57.8026 57.7045 57.0693 58.0164 56.3931Z" fill="#282726"/>
<path d="M65.4894 53.2922L63.3694 52.0592L61.8434 52.1892L63.9634 53.4212L65.4894 53.2922Z" fill="#0082FF"/>
<path d="M38.4104 48.2271L64.3454 33.2542L79.4924 41.9992L61.8434 52.1891L63.9634 53.4212L60.6084 55.3581L58.4884 54.1262L53.5574 56.9722L38.4104 48.2271Z" fill="#0082FF"/>
<path d="M63.9634 53.4212L60.6084 55.3581L58.4884 54.1262L56.0074 55.5582H53.5584L50.6614 47.8232L64.3454 33.2542L79.4924 41.9992L61.8434 52.1891L63.9634 53.4212Z" fill="#0082FF"/>
<path d="M59.0865 56.9881L56.9665 55.7561L56.9745 58.5821L59.0945 59.8141L59.0865 56.9881Z" fill="#0082FF"/>
<path d="M60.6084 55.3581L58.4884 54.1261L56.9664 55.7561L59.0864 56.9881L60.6084 55.3581Z" fill="#0082FF"/>
<path d="M60.6084 55.3581L59.0864 56.9881L59.0944 59.8141L65.4984 56.1171L65.4894 53.2921L63.9634 53.4211L60.6084 55.3581Z" fill="#005CB5"/>
<path d="M62.3034 54.6931C63.8934 53.7761 65.1854 54.5121 65.1904 56.3361C65.1382 57.3317 64.8511 58.3009 64.3527 59.1643C63.8542 60.0278 63.1585 60.761 62.3224 61.3041C60.7324 62.2221 59.4404 61.4851 59.4354 59.6591C59.4881 58.6639 59.7753 57.6952 60.2738 56.8321C60.7722 55.969 61.4677 55.2361 62.3034 54.6931Z" fill="#353433"/>
<path d="M62.2634 55.4031C61.6369 55.8252 61.119 56.3895 60.7521 57.0499C60.3853 57.7104 60.1798 58.4482 60.1524 59.2031C60.1824 60.5821 61.1764 61.1151 62.3724 60.3941C62.9987 59.9719 63.5163 59.4075 63.883 58.7471C64.2497 58.0867 64.4551 57.349 64.4824 56.5941C64.4524 55.2151 63.4584 54.6821 62.2634 55.4031Z" fill="#EEEEEE"/>
<path d="M40.5734 28.5772L59.9354 17.3982L72.9214 24.8962L53.5594 36.0742L40.5734 28.5772Z" fill="#C9C9C9"/>
<path d="M53.5594 55.5582L77.2224 41.8932C76.6934 36.1932 75.7424 30.3042 72.9224 24.8932L53.5604 36.0722L53.5594 55.5582Z" fill="#EEEEEE"/>
<path d="M40.5734 48.0602L53.5594 55.5582V36.0742L40.5734 28.5771V48.0602Z" fill="#E6E6E6"/>
<path opacity="0.6" d="M47.8685 27.2332C50.6775 26.0172 53.5755 25.0202 56.3105 23.6402C58.8685 22.3492 61.2434 20.6712 63.9484 19.7152L71.5594 24.1092L56.5054 32.8012H47.8934L42.4204 29.6412C44.2314 28.8342 46.0435 28.0232 47.8685 27.2332Z" fill="#EEEEEE"/>
<path d="M52.8034 21.6841L62.5244 16.0721V24.7841L52.8034 30.3961V21.6841Z" fill="#383534"/>
<path d="M48.9295 28.1591L52.8035 30.3961V21.6841L48.9295 19.4471V28.1591Z" fill="#3F3D3C"/>
<path d="M52.8034 21.6841L62.5244 16.0721L58.6494 13.8341L48.9294 19.4471L52.8034 21.6841Z" fill="#EEEEEE"/>
<path d="M38.9105 45.2442L40.5585 46.9062L34.1375 43.1742L32.4895 41.5132L38.9105 45.2442Z" fill="#E2E2E2"/>
<path d="M37.0575 33.5352C39.0559 29.2069 40.1415 24.5134 40.2465 19.7472L46.6685 23.4782C46.563 28.2447 45.4775 32.9384 43.4795 37.2672C42.2362 40.0769 40.705 42.7502 38.9105 45.2442L32.4935 41.5132C34.2859 39.0184 35.8154 36.3448 37.0575 33.5352Z" fill="url(#paint0_linear_368_4813)"/>
<path d="M60.2875 8.17615L66.7095 11.9081L46.6685 23.4781L40.2465 19.7471L60.2875 8.17615Z" fill="#C9C9C9"/>
<path d="M46.6684 23.4782L66.7094 11.9082L69.1744 18.2382L48.1504 30.3762C46.6719 36.3111 44.097 41.9174 40.5584 46.9062L38.9104 45.2442C43.7854 38.4732 46.6874 30.3372 46.6684 23.4782Z" fill="#EEEEEE"/>
<path d="M30.9434 5.3811C38.7954 9.9441 40.6234 8.43511 42.3674 10.9471C50.5884 22.6571 39.8234 56.9141 14.2374 63.8571L8.81642 58.9621C32.5864 49.0431 45.3664 13.7631 30.9434 5.3811Z" fill="#00407E"/>
<path d="M33.0714 1.69316L40.3934 5.94916C37.4048 5.57264 34.3804 5.57903 31.3934 5.96816C24.1934 7.23016 17.1334 11.5242 13.8724 13.5842L6.55344 9.33116C8.44914 7.6608 10.473 6.14181 12.6064 4.78816C19.1784 0.638159 26.9734 -1.84684 33.0714 1.69316Z" fill="#C9C9C9"/>
<path d="M15.1135 63.5721C44.4135 54.0941 55.9475 3.72514 29.1725 8.27214C27.3802 8.57353 25.6296 9.08436 23.9565 9.79414C20.5053 11.4044 17.1401 13.1928 13.8745 15.1521V12.1181C13.8745 12.1181 19.8835 8.58114 23.3205 7.04414C25.4697 6.07491 27.7222 5.35327 30.0345 4.89314C59.9105 -0.931862 47.9695 55.6821 15.1135 66.6281V63.5721Z" fill="#EEEEEE"/>
<path d="M7.97148 76.6111L19.6645 69.8601L21.8655 64.9441V59.6411L7.97148 67.6631V76.6111Z" fill="#EEEEEE"/>
<path d="M0.0874329 72.0591L7.97144 76.6111V67.6631L0.0874329 63.1111V72.0591Z" fill="#E6E6E6"/>
<path d="M7.97148 67.6631L21.8655 59.6411L13.9815 55.0891L0.0874786 63.1111L7.97148 67.6631Z" fill="#C9C9C9"/>
<path d="M7.89841 63.7942L18.7854 57.5092V59.6732L7.89841 65.9592V63.7942Z" fill="#EEEEEE"/>
<path d="M3.12943 63.2051L7.89844 65.9591V63.7941L3.12943 61.0411V63.2051Z" fill="#E6E6E6"/>
<path d="M7.89841 63.7941L18.7854 57.5091L14.0154 54.7551L3.12939 61.0411L7.89841 63.7941Z" fill="#C9C9C9"/>
<path d="M17.8734 57.5091L14.0154 55.2811L4.04042 61.0401L7.89842 63.2681L17.8734 57.5091Z" fill="url(#paint1_linear_368_4813)"/>
<path d="M2.63139 22.4991C4.6003 23.4976 6.7768 24.0179 8.98439 24.0179C11.192 24.0179 13.3685 23.4976 15.3374 22.4991C18.8454 20.4731 18.8454 17.1891 15.3374 15.1631C13.3685 14.1647 11.192 13.6444 8.98439 13.6444C6.7768 13.6444 4.6003 14.1647 2.63139 15.1631C-0.87661 17.1931 -0.87661 20.4731 2.63139 22.4991Z" fill="#C9C9C9"/>
<path d="M0.00038147 18.7831V20.2311C-0.0206184 21.5751 0.856394 22.9221 2.63139 23.9471C4.6003 24.9455 6.7768 25.4658 8.98439 25.4658C11.192 25.4658 13.3685 24.9455 15.3374 23.9471C17.0704 22.9471 17.9474 21.6381 17.9684 20.3271V18.8791C17.9474 20.1901 17.0684 21.4981 15.3374 22.4991C13.3685 23.4975 11.192 24.0178 8.98439 24.0178C6.7768 24.0178 4.6003 23.4975 2.63139 22.4991C0.856394 21.4741 -0.0206184 20.1271 0.00038147 18.7831Z" fill="#00407E"/>
<path d="M3.20848 15.7981C4.99825 16.7063 6.97697 17.1796 8.98398 17.1796C10.991 17.1796 12.9697 16.7063 14.7595 15.7981C17.9495 13.9571 17.9495 10.9711 14.7595 9.1291C12.9696 8.22135 10.9909 7.74829 8.98398 7.74829C6.97705 7.74829 4.99839 8.22135 3.20848 9.1291C0.0194836 10.9711 0.0194836 13.9571 3.20848 15.7981Z" fill="#C9C9C9"/>
<path opacity="0.6" d="M17.1435 12.7561L12.3905 15.4991L8.09047 15.5082L14.7635 9.12915C14.9635 9.24615 15.1535 9.36715 15.3305 9.49215C15.8987 9.82236 16.3672 10.3 16.6863 10.8745C17.0055 11.4491 17.1634 12.0992 17.1435 12.7561Z" fill="#EEEEEE"/>
<path d="M0.816498 12.42V18.256C0.797499 19.477 1.5945 20.702 3.2085 21.634C4.99826 22.5423 6.97698 23.0156 8.98399 23.0156C10.991 23.0156 12.9697 22.5423 14.7595 21.634C15.4112 21.3426 15.975 20.8853 16.3947 20.3078C16.8144 19.7303 17.0754 19.0529 17.1515 18.343V12.507C17.0754 13.2169 16.8144 13.8943 16.3947 14.4718C15.975 15.0493 15.4112 15.5066 14.7595 15.798C12.9697 16.7063 10.991 17.1796 8.98399 17.1796C6.97698 17.1796 4.99826 16.7063 3.2085 15.798C1.5935 14.866 0.793497 13.641 0.816498 12.42Z" fill="#005CB5"/>
<path d="M3.53151 9.03017L12.2095 4.01917L16.7655 6.64917L8.0865 11.6602L3.53151 9.03017Z" fill="#C9C9C9"/>
<path d="M8.08646 15.4882L18.0325 9.74517L16.7655 6.64917L8.08646 11.6602V15.4882Z" fill="#EEEEEE"/>
<path d="M3.53143 12.8591L8.08643 15.4882V11.6601L3.53143 9.03015V12.8591Z" fill="#E6E6E6"/>
<g style="mix-blend-mode:multiply" opacity="0.5">
<path d="M64.4324 34.1242L72.5874 29.4162V29.0292L64.4324 33.7382V34.1242ZM64.4324 32.1052L72.5874 27.3932V27.7802L64.4324 32.4892V32.1052ZM64.4324 34.5542L72.5874 29.8452V30.2322L64.4324 34.9402V34.5542ZM64.4324 32.9212L72.5874 28.2132V28.5992L64.4324 33.3082V32.9212ZM64.4324 37.0032L72.5874 32.2932V32.6802L64.4324 37.3882V37.0032ZM64.4324 35.3702L72.5874 30.6622V31.0482L64.4324 35.7572V35.3702ZM64.4324 37.8192L72.5874 33.1102V33.4932L64.4324 38.2022V37.8192ZM64.4324 36.1862L72.5874 31.4782V31.8642L64.4324 36.5732V36.1862Z" fill="#EEEEEE"/>
</g>
<path d="M55.5795 27.2801L54.0505 26.3911L54.0425 20.6971L55.5715 21.5861L55.5795 27.2801Z" fill="#E6E6E6"/>
<path d="M55.5714 21.5862L54.0424 20.6972L63.1824 15.4202L64.7114 16.3092L55.5714 21.5862Z" fill="#C9C9C9"/>
<path d="M64.7115 16.3092L55.5715 21.5862L55.5795 27.2802L64.7195 22.0032L64.7115 16.3092Z" fill="#EEEEEE"/>
<path d="M55.9874 21.8262L64.2964 17.0282L64.3044 21.7632L55.9944 26.5602L55.9874 21.8262Z" fill="#383534"/>
<path d="M60.4264 20.6082L59.9884 20.1022L59.5504 21.1142L60.4264 20.6082ZM60.4264 22.7362L59.9884 23.7482L59.5504 23.2422L60.4264 22.7362ZM61.0524 20.8732H61.8104L61.0524 21.7492V20.8732ZM58.9244 22.9732H58.1654L58.9244 22.0972V22.9732ZM60.3474 21.7142C60.3359 21.83 60.2975 21.9415 60.2352 22.0398C60.1728 22.1381 60.0883 22.2204 59.9884 22.2802C59.7884 22.3952 59.6294 22.3272 59.6294 22.1282C59.6406 22.0123 59.679 21.9007 59.7414 21.8023C59.8037 21.704 59.8884 21.6217 59.9884 21.5622C60.1864 21.4512 60.3474 21.5192 60.3474 21.7182V21.7142Z" fill="#00407E"/>
<path d="M56.9824 24.0812C56.9767 24.14 56.9572 24.1965 56.9256 24.2464C56.894 24.2962 56.8511 24.338 56.8004 24.3682C56.7004 24.4262 56.6184 24.3912 56.6184 24.2912C56.6243 24.2325 56.6437 24.1759 56.6753 24.1261C56.7069 24.0763 56.7498 24.0345 56.8004 24.0042C56.9014 23.9462 56.9824 23.9802 56.9824 24.0812Z" fill="#00407E"/>
<path d="M57.8434 23.5842C57.8376 23.6429 57.8182 23.6995 57.7866 23.7493C57.7549 23.7992 57.7121 23.8409 57.6614 23.8712C57.5614 23.9292 57.4794 23.8942 57.4794 23.7942C57.4854 23.7355 57.5049 23.679 57.5365 23.6292C57.5681 23.5794 57.6109 23.5376 57.6614 23.5072C57.7624 23.4492 57.8434 23.4842 57.8434 23.5842Z" fill="#00407E"/>
<path d="M57.8125 24.2032L57.6615 24.0292L57.5115 24.3772L57.8125 24.2032Z" fill="#00407E"/>
<path d="M56.9514 24.7001L56.8004 24.5261L56.6504 24.8741L56.9514 24.7001Z" fill="#00407E"/>
<path d="M56.9824 22.0301C56.9767 22.0887 56.9572 22.1452 56.9256 22.1948C56.894 22.2445 56.8511 22.2861 56.8004 22.3161C56.7004 22.3741 56.6184 22.3401 56.6184 22.2401C56.6243 22.1814 56.6437 22.1248 56.6753 22.075C56.7069 22.0252 56.7498 21.9834 56.8004 21.9531C56.9014 21.8931 56.9824 21.9291 56.9824 22.0301Z" fill="#00407E"/>
<path d="M57.8434 21.5331C57.8376 21.5917 57.8182 21.6482 57.7865 21.6979C57.7549 21.7475 57.7121 21.7891 57.6614 21.8191C57.5614 21.8771 57.4794 21.8431 57.4794 21.7431C57.4852 21.6844 57.5047 21.6279 57.5363 21.578C57.5679 21.5282 57.6108 21.4864 57.6614 21.4561C57.7624 21.3981 57.8434 21.4321 57.8434 21.5331Z" fill="#00407E"/>
<path d="M57.7925 21.8832L57.5315 22.1842H57.7925V21.8832Z" fill="#00407E"/>
<path d="M56.9314 22.3801L56.6704 22.6811H56.9314V22.3801Z" fill="#00407E"/>
<path d="M56.8005 25.1771C56.755 25.2043 56.7165 25.2419 56.6882 25.2867C56.6599 25.3315 56.6425 25.3824 56.6375 25.4351C56.6375 25.5251 56.7105 25.5561 56.8005 25.5041C56.8462 25.477 56.8848 25.4396 56.9133 25.3947C56.9418 25.3499 56.9593 25.299 56.9645 25.2461C56.9645 25.1551 56.8935 25.1241 56.8005 25.1771Z" fill="#252528"/>
<path d="M56.7934 25.1931C56.7561 25.2154 56.7246 25.2461 56.7013 25.2827C56.6781 25.3194 56.6637 25.361 56.6594 25.4041C56.6594 25.4781 56.7194 25.5041 56.7934 25.4601C56.8305 25.438 56.8619 25.4075 56.885 25.371C56.9081 25.3345 56.9223 25.2931 56.9264 25.2501C56.9264 25.1771 56.8674 25.1521 56.7934 25.1931Z" fill="#A4A4A4"/>
<path d="M57.6694 24.6751C57.6237 24.7022 57.5851 24.7397 57.5566 24.7845C57.5281 24.8294 57.5105 24.8803 57.5054 24.9331C57.5054 25.0241 57.5784 25.0551 57.6694 25.0021C57.7149 24.9749 57.7534 24.9374 57.7817 24.8926C57.81 24.8478 57.8274 24.7969 57.8324 24.7441C57.8324 24.6541 57.7594 24.6231 57.6694 24.6751Z" fill="#252528"/>
<path d="M57.6614 24.6932C57.6244 24.7156 57.593 24.7463 57.5699 24.7829C57.5468 24.8196 57.5326 24.8611 57.5284 24.9042C57.5284 24.9772 57.5884 25.0042 57.6614 24.9602C57.6988 24.938 57.7304 24.9074 57.7537 24.8707C57.777 24.8341 57.7913 24.7924 57.7954 24.7492C57.7934 24.6762 57.7354 24.6502 57.6614 24.6932Z" fill="#A4A4A4"/>
<path style="mix-blend-mode:screen" d="M58.5494 24.8202C58.5496 24.9937 58.4984 25.1634 58.4021 25.3077C58.3059 25.4521 58.169 25.5646 58.0087 25.6312C57.8485 25.6977 57.6721 25.7152 57.502 25.6815C57.3318 25.6478 57.1754 25.5643 57.0527 25.4417C56.9299 25.3191 56.8463 25.1628 56.8124 24.9927C56.7784 24.8225 56.7957 24.6461 56.8621 24.4858C56.9284 24.3255 57.0408 24.1885 57.1851 24.0921C57.3293 23.9957 57.4989 23.9442 57.6724 23.9442C57.9049 23.9442 58.1278 24.0365 58.2922 24.2007C58.4566 24.365 58.5492 24.5878 58.5494 24.8202Z" fill="url(#paint2_radial_368_4813)"/>
<path style="mix-blend-mode:screen" d="M57.6864 25.3181C57.6866 25.4917 57.6353 25.6614 57.539 25.8058C57.4427 25.9501 57.3058 26.0627 57.1455 26.1292C56.9852 26.1957 56.8088 26.2131 56.6385 26.1793C56.4683 26.1455 56.312 26.062 56.1893 25.9393C56.0666 25.8166 55.983 25.6602 55.9492 25.49C55.9154 25.3198 55.9329 25.1434 55.9994 24.9831C56.0659 24.8228 56.1784 24.6858 56.3228 24.5895C56.4672 24.4932 56.6369 24.4419 56.8104 24.4421C57.0427 24.4424 57.2653 24.5348 57.4295 24.699C57.5938 24.8632 57.6861 25.0859 57.6864 25.3181Z" fill="url(#paint3_radial_368_4813)"/>
<path d="M56.8005 23.1562C56.755 23.1834 56.7165 23.2209 56.6882 23.2657C56.6599 23.3106 56.6425 23.3614 56.6375 23.4142C56.6375 23.5042 56.7105 23.5352 56.8005 23.4832C56.8462 23.4561 56.8848 23.4186 56.9133 23.3738C56.9418 23.329 56.9593 23.278 56.9645 23.2252C56.9645 23.1342 56.8935 23.1042 56.8005 23.1562Z" fill="#252528"/>
<path d="M56.7934 23.1732C56.7561 23.1954 56.7246 23.2261 56.7013 23.2628C56.6781 23.2994 56.6637 23.341 56.6594 23.3842C56.6594 23.4582 56.7194 23.4842 56.7934 23.4402C56.8306 23.4182 56.8621 23.3877 56.8852 23.3512C56.9083 23.3147 56.9224 23.2732 56.9264 23.2302C56.9264 23.1562 56.8674 23.1312 56.7934 23.1732Z" fill="#A4A4A4"/>
<path d="M57.6694 22.6541C57.6237 22.6812 57.5851 22.7187 57.5566 22.7635C57.5281 22.8084 57.5105 22.8593 57.5054 22.9121C57.5054 23.0031 57.5784 23.0341 57.6694 22.9811C57.7149 22.9539 57.7534 22.9164 57.7817 22.8716C57.81 22.8268 57.8274 22.7759 57.8324 22.7231C57.8324 22.6331 57.7594 22.6021 57.6694 22.6541Z" fill="#252528"/>
<path d="M57.6614 22.6722C57.6244 22.6946 57.5931 22.7254 57.57 22.762C57.5469 22.7986 57.5327 22.8401 57.5284 22.8832C57.5284 22.9562 57.5884 22.9832 57.6614 22.9392C57.6987 22.9169 57.7302 22.8862 57.7535 22.8496C57.7767 22.813 57.7911 22.7714 57.7954 22.7282C57.7934 22.6552 57.7354 22.6292 57.6614 22.6722Z" fill="#A4A4A4"/>
<path style="mix-blend-mode:screen" d="M58.5494 22.7991C58.5496 22.9726 58.4984 23.1423 58.4021 23.2866C58.3059 23.431 58.169 23.5435 58.0087 23.6101C57.8485 23.6766 57.6721 23.6941 57.502 23.6604C57.3318 23.6266 57.1754 23.5432 57.0527 23.4206C56.9299 23.298 56.8463 23.1417 56.8124 22.9716C56.7784 22.8014 56.7957 22.625 56.8621 22.4647C56.9284 22.3044 57.0408 22.1674 57.1851 22.071C57.3293 21.9746 57.4989 21.9231 57.6724 21.9231C57.9049 21.9231 58.1278 22.0154 58.2922 22.1796C58.4566 22.3439 58.5492 22.5667 58.5494 22.7991Z" fill="url(#paint4_radial_368_4813)"/>
<path style="mix-blend-mode:screen" d="M57.6864 23.2931C57.6866 23.4667 57.6353 23.6364 57.539 23.7807C57.4427 23.9251 57.3058 24.0377 57.1455 24.1042C56.9852 24.1707 56.8088 24.1881 56.6385 24.1543C56.4683 24.1205 56.312 24.037 56.1893 23.9143C56.0666 23.7915 55.983 23.6352 55.9492 23.465C55.9154 23.2948 55.9329 23.1183 55.9994 22.958C56.0659 22.7978 56.1784 22.6608 56.3228 22.5645C56.4672 22.4682 56.6369 22.4169 56.8104 22.4171C57.0427 22.4174 57.2653 22.5098 57.4295 22.674C57.5938 22.8382 57.6861 23.0609 57.6864 23.2931Z" fill="url(#paint5_radial_368_4813)"/>
<path d="M62.5934 20.8401C62.5876 20.8989 62.5682 20.9554 62.5366 21.0053C62.5049 21.0551 62.4621 21.0969 62.4114 21.1271C62.3114 21.1851 62.2304 21.1501 62.2304 21.0501C62.236 20.9915 62.2553 20.935 62.2868 20.8851C62.3182 20.8353 62.3609 20.7935 62.4114 20.7631C62.5154 20.7051 62.5934 20.7391 62.5934 20.8401Z" fill="#00407E"/>
<path d="M63.4574 20.3432C63.4517 20.4018 63.4322 20.4582 63.4006 20.5079C63.3689 20.5576 63.3261 20.5991 63.2754 20.6292C63.1754 20.6872 63.0944 20.6532 63.0944 20.5532C63.1 20.4945 63.1194 20.438 63.1508 20.3882C63.1822 20.3383 63.2249 20.2965 63.2754 20.2662C63.3764 20.2082 63.4574 20.2422 63.4574 20.3432Z" fill="#00407E"/>
<path d="M63.4264 20.7012L63.2754 21.0492L63.1254 20.8752L63.4264 20.7012Z" fill="#00407E"/>
<path d="M62.5654 21.1981L62.4144 21.5461L62.2644 21.3721L62.5654 21.1981Z" fill="#00407E"/>
<path d="M62.5934 18.7932C62.5878 18.852 62.5684 18.9086 62.5368 18.9585C62.5051 19.0084 62.4622 19.05 62.4114 19.0802C62.3114 19.1382 62.2304 19.1042 62.2304 19.0032C62.2361 18.9445 62.2555 18.8881 62.2869 18.8382C62.3183 18.7884 62.3609 18.7466 62.4114 18.7162C62.5154 18.6532 62.5934 18.6932 62.5934 18.7932Z" fill="#00407E"/>
<path d="M63.4574 18.2932C63.4518 18.352 63.4324 18.4086 63.4008 18.4585C63.3691 18.5084 63.3262 18.5501 63.2754 18.5802C63.1754 18.6382 63.0944 18.6042 63.0944 18.5032C63.1001 18.4446 63.1195 18.3881 63.1509 18.3382C63.1823 18.2884 63.225 18.2466 63.2754 18.2162C63.3764 18.1562 63.4574 18.1932 63.4574 18.2932Z" fill="#00407E"/>
<path d="M63.1455 18.7921H63.4065L63.1455 19.0931V18.7921Z" fill="#00407E"/>
<path d="M62.2844 19.2892H62.5454L62.2844 19.5902V19.2892Z" fill="#00407E"/>
<path d="M62.4294 21.9271C62.3839 21.9543 62.3454 21.9919 62.3171 22.0367C62.2888 22.0815 62.2714 22.1324 62.2664 22.1851C62.2664 22.2751 62.3394 22.3061 62.4294 22.2541C62.4751 22.227 62.5137 22.1896 62.5422 22.1447C62.5707 22.0999 62.5882 22.049 62.5934 21.9961C62.5934 21.9051 62.5204 21.8741 62.4294 21.9271Z" fill="#252528"/>
<path d="M62.4224 21.9442C62.3852 21.9664 62.3536 21.9971 62.3304 22.0338C62.3071 22.0704 62.2927 22.112 62.2884 22.1552C62.2884 22.2292 62.3484 22.2552 62.4224 22.2112C62.4597 22.1892 62.4914 22.1588 62.5146 22.1223C62.5379 22.0858 62.5522 22.0443 62.5564 22.0012C62.5564 21.9272 62.4934 21.9022 62.4224 21.9442Z" fill="#A4A4A4"/>
<path d="M63.2934 21.4251C63.2479 21.4524 63.2094 21.4899 63.1809 21.5347C63.1524 21.5795 63.1348 21.6303 63.1294 21.6831C63.1294 21.7741 63.2034 21.8051 63.2934 21.7521C63.3389 21.7249 63.3774 21.6874 63.4057 21.6426C63.434 21.5978 63.4514 21.5469 63.4564 21.4941C63.4614 21.4041 63.3884 21.3731 63.2934 21.4251Z" fill="#252528"/>
<path d="M63.2935 21.4432C63.2565 21.4656 63.2252 21.4964 63.2021 21.533C63.179 21.5696 63.1648 21.6111 63.1605 21.6542C63.1605 21.7272 63.2205 21.7542 63.2935 21.7102C63.3308 21.688 63.3625 21.6574 63.3857 21.6207C63.409 21.5841 63.4233 21.5424 63.4275 21.4992C63.4245 21.4262 63.3645 21.4002 63.2935 21.4432Z" fill="#A4A4A4"/>
<path style="mix-blend-mode:screen" d="M64.1675 21.5772C64.1675 21.7506 64.116 21.9202 64.0197 22.0644C63.9233 22.2087 63.7863 22.3211 63.6261 22.3874C63.4658 22.4538 63.2895 22.4712 63.1194 22.4373C62.9493 22.4035 62.793 22.32 62.6703 22.1973C62.5477 22.0747 62.4642 21.9184 62.4303 21.7483C62.3965 21.5782 62.4139 21.4018 62.4802 21.2416C62.5466 21.0813 62.659 20.9444 62.8032 20.848C62.9475 20.7516 63.117 20.7002 63.2905 20.7002C63.4057 20.7002 63.5197 20.7229 63.6261 20.767C63.7325 20.811 63.8292 20.8756 63.9106 20.9571C63.9921 21.0385 64.0566 21.1352 64.1007 21.2416C64.1448 21.348 64.1675 21.462 64.1675 21.5772Z" fill="url(#paint6_radial_368_4813)"/>
<path style="mix-blend-mode:screen" d="M63.3044 22.0751C63.3044 22.2486 63.253 22.4182 63.1566 22.5625C63.0602 22.7067 62.9231 22.8191 62.7628 22.8855C62.6025 22.9518 62.4261 22.9691 62.256 22.9352C62.0858 22.9013 61.9296 22.8176 61.807 22.6949C61.6843 22.5721 61.6009 22.4158 61.5672 22.2456C61.5335 22.0754 61.551 21.899 61.6175 21.7388C61.684 21.5786 61.7966 21.4417 61.9409 21.3454C62.0853 21.2492 62.255 21.1979 62.4285 21.1981C62.5436 21.1981 62.6576 21.2208 62.7639 21.2649C62.8703 21.309 62.9669 21.3736 63.0482 21.455C63.1296 21.5365 63.1941 21.6332 63.2381 21.7396C63.282 21.846 63.3046 21.96 63.3044 22.0751Z" fill="url(#paint7_radial_368_4813)"/>
<path d="M62.4294 19.9062C62.3839 19.9334 62.3454 19.9709 62.3171 20.0158C62.2888 20.0606 62.2714 20.1114 62.2664 20.1642C62.2664 20.2542 62.3394 20.2852 62.4294 20.2332C62.4751 20.2061 62.5137 20.1686 62.5422 20.1238C62.5707 20.079 62.5882 20.0281 62.5934 19.9752C62.5934 19.8852 62.5204 19.8542 62.4294 19.9062Z" fill="#252528"/>
<path d="M62.4224 19.9232C62.3852 19.9454 62.3536 19.9761 62.3304 20.0128C62.3071 20.0494 62.2927 20.091 62.2884 20.1342C62.2884 20.2082 62.3484 20.2342 62.4224 20.1902C62.4597 20.1682 62.4914 20.1378 62.5146 20.1013C62.5379 20.0648 62.5522 20.0233 62.5564 19.9802C62.5564 19.9062 62.4934 19.8812 62.4224 19.9232Z" fill="#A4A4A4"/>
<path d="M63.2934 19.4041C63.248 19.4315 63.2095 19.469 63.1811 19.5138C63.1526 19.5586 63.1349 19.6093 63.1294 19.6621C63.1294 19.7531 63.2034 19.7841 63.2934 19.7311C63.3388 19.704 63.3772 19.6666 63.4055 19.622C63.4338 19.5773 63.4512 19.5267 63.4564 19.4741C63.4614 19.3831 63.3884 19.3521 63.2934 19.4041Z" fill="#252528"/>
<path d="M63.2935 19.4222C63.2565 19.4446 63.2252 19.4753 63.2021 19.512C63.179 19.5486 63.1648 19.5901 63.1605 19.6332C63.1605 19.7062 63.2205 19.7332 63.2935 19.6892C63.3306 19.667 63.3621 19.6365 63.3853 19.6C63.4086 19.5635 63.423 19.5222 63.4275 19.4791C63.4245 19.4051 63.3645 19.3792 63.2935 19.4222Z" fill="#A4A4A4"/>
<path style="mix-blend-mode:screen" d="M64.1675 19.5562C64.1675 19.7297 64.116 19.8992 64.0197 20.0434C63.9233 20.1877 63.7863 20.3001 63.6261 20.3664C63.4658 20.4328 63.2895 20.4502 63.1194 20.4163C62.9493 20.3825 62.793 20.299 62.6703 20.1763C62.5477 20.0537 62.4642 19.8974 62.4303 19.7273C62.3965 19.5572 62.4139 19.3808 62.4802 19.2206C62.5466 19.0603 62.659 18.9234 62.8032 18.827C62.9475 18.7306 63.117 18.6792 63.2905 18.6792C63.5231 18.6792 63.7461 18.7716 63.9106 18.9361C64.0751 19.1005 64.1675 19.3236 64.1675 19.5562Z" fill="url(#paint8_radial_368_4813)"/>
<path style="mix-blend-mode:screen" d="M63.3044 20.0541C63.3044 20.2276 63.253 20.3972 63.1566 20.5415C63.0602 20.6857 62.9231 20.7981 62.7628 20.8645C62.6025 20.9308 62.4261 20.9481 62.256 20.9142C62.0858 20.8803 61.9296 20.7967 61.807 20.6739C61.6843 20.5512 61.6009 20.3948 61.5672 20.2246C61.5335 20.0544 61.551 19.878 61.6175 19.7178C61.684 19.5576 61.7966 19.4207 61.9409 19.3244C62.0853 19.2282 62.255 19.1769 62.4285 19.1771C62.5436 19.1771 62.6576 19.1998 62.7639 19.2439C62.8703 19.288 62.9669 19.3526 63.0482 19.4341C63.1296 19.5155 63.1941 19.6122 63.2381 19.7186C63.282 19.825 63.3046 19.939 63.3044 20.0541Z" fill="url(#paint9_radial_368_4813)"/>
<path d="M145.553 75.6097L171.036 60.8177L171.032 29.4777L145.55 44.2697L145.553 75.6097Z" fill="#EEEEEE"/>
<path d="M130.798 1.40365C131.886 0.771654 133.393 0.860654 135.055 1.82065L165.07 19.1497C166.808 20.279 168.254 21.8034 169.29 23.5984C170.326 25.3933 170.923 27.4079 171.032 29.4777L145.55 44.2697C145.441 42.1999 144.844 40.1852 143.808 38.3903C142.771 36.5953 141.325 35.0709 139.587 33.9417L109.573 16.6177C107.911 15.6587 106.404 15.5687 105.315 16.2017L130.798 1.40365Z" fill="#C9C9C9"/>
<path opacity="0.5" d="M169.522 24.0256C170.458 25.6946 170.976 27.5651 171.032 29.4776L145.55 44.2696C145.495 42.3574 144.978 40.4868 144.043 38.8176L169.522 24.0256Z" fill="#EEEEEE"/>
<path d="M109.573 16.6176C106.273 14.7126 103.581 16.2376 103.573 20.0386V51.3786L145.553 75.6096V44.2696C145.444 42.1998 144.847 40.1852 143.811 38.3902C142.774 36.5953 141.328 35.0709 139.59 33.9416L109.573 16.6176Z" fill="#E6E6E6"/>
<path d="M145.553 62.2346L171.035 47.4436L171.036 60.8176L145.553 75.6096V62.2346Z" fill="#005CB5"/>
<path d="M103.574 37.9987L145.552 62.2347L145.553 75.6097L103.574 51.3737V37.9987Z" fill="#0082FF"/>
<path d="M106.462 53.8233C99.299 41.4973 99.2802 28.1416 106.42 23.9926C113.56 19.8435 125.154 26.4721 132.317 38.7981C139.48 51.1241 139.499 64.4797 132.359 68.6288C125.22 72.7779 113.625 66.1492 106.462 53.8233Z" fill="#E6E6E6"/>
<path d="M110.759 19.4367C114.315 17.3697 119.241 17.6607 124.677 20.7987C135.477 27.0357 144.209 42.1557 144.177 54.5687C144.159 60.7357 141.982 65.0747 138.471 67.1147L134.219 69.5857C137.731 67.5447 139.908 63.2057 139.925 57.0397C139.961 44.6257 131.231 29.5067 120.425 23.2697C114.989 20.1307 110.063 19.8397 106.507 21.9067L110.759 19.4367Z" fill="url(#paint10_linear_368_4813)"/>
<path d="M118.357 22.1996C119.037 22.5096 119.727 22.8663 120.426 23.2696C125.612 26.2646 130.321 31.3066 133.811 37.1136C137.59 43.4016 139.941 50.5856 139.922 57.0396C139.887 69.4526 131.101 74.4596 120.298 68.2226C117.929 66.8267 115.745 65.1374 113.798 63.1946L113.242 62.6486C115.064 64.467 117.109 66.0481 119.327 67.3546C129.439 73.1936 137.667 68.5046 137.699 56.8846C137.717 50.8446 135.516 44.1186 131.978 38.2316C128.933 32.943 124.627 28.4903 119.443 25.2706C118.789 24.8926 118.143 24.5593 117.506 24.2706C108.306 20.0706 101.101 24.8706 101.071 35.7426C101.088 38.3856 101.45 41.0151 102.147 43.5646L101.947 42.8106C101.202 40.0871 100.816 37.278 100.798 34.4546C100.834 22.8426 108.523 17.7116 118.357 22.1996Z" fill="#969696"/>
<path d="M111.948 50.6278C107.49 43.2457 107.261 35.2165 111.437 32.6942C115.613 30.1718 122.613 34.1114 127.072 41.4934C131.531 48.8755 131.759 56.9047 127.583 59.427C123.407 61.9494 116.407 58.0099 111.948 50.6278Z" fill="#0082FF"/>
<path d="M109.685 39.6927C109.109 45.3767 112.985 53.1127 118.333 56.9697C123.681 60.8267 128.49 59.3467 129.066 53.6627C129.642 47.9787 125.766 40.2427 120.418 36.3847C115.07 32.5267 110.261 34.0077 109.685 39.6927Z" fill="url(#paint11_linear_368_4813)"/>
<path d="M129.111 52.7957C128.241 52.4299 127.417 51.9641 126.655 51.4077C121.649 47.8007 118.027 40.5687 118.555 35.2487C119.204 35.5782 119.826 35.958 120.415 36.3847C125.503 40.0507 129.243 47.2177 129.111 52.7957Z" fill="#00407E"/>
<path d="M114.364 33.4376C115.12 33.3563 115.884 33.4067 116.623 33.5866C117.716 33.8526 118.761 34.2847 119.723 34.8676C120.899 35.5726 121.989 36.4116 122.972 37.3676C124.749 39.1029 126.228 41.1197 127.348 43.3366C127.688 44.0043 127.987 44.6922 128.242 45.3966C128.352 45.6516 128.425 45.921 128.459 46.1966C128.386 46.2246 127.985 45.1256 127.067 43.4896C125.885 41.3562 124.4 39.405 122.659 37.6966C121.7 36.7652 120.645 35.9388 119.51 35.2316C118.589 34.6518 117.592 34.2047 116.546 33.9036C115.841 33.704 115.11 33.6086 114.377 33.6206C114.106 33.6518 113.834 33.6625 113.561 33.6526C113.811 33.5257 114.084 33.4525 114.364 33.4376Z" fill="#0082FF"/>
<path d="M124.537 59.6367C123.782 59.718 123.018 59.6675 122.279 59.4877C121.187 59.2215 120.141 58.7899 119.179 58.2077C118.004 57.5022 116.913 56.6633 115.93 55.7077C114.153 53.9725 112.675 51.9561 111.554 49.7397C111.214 49.0719 110.916 48.384 110.66 47.6797C110.55 47.4247 110.477 47.1553 110.443 46.8797C110.515 46.8517 110.917 47.9507 111.835 49.5867C113.017 51.7204 114.502 53.6719 116.243 55.3807C117.203 56.3115 118.258 57.1378 119.392 57.8457C120.313 58.4248 121.311 58.8715 122.356 59.1727C123.061 59.3727 123.792 59.4681 124.524 59.4557C124.795 59.4252 125.068 59.4145 125.341 59.4237C125.091 59.5505 124.817 59.6231 124.537 59.6367Z" fill="#0082FF"/>
<path opacity="0.6" d="M139.922 57.0397C139.806 51.8253 138.588 46.6944 136.349 41.9837L140.612 39.5227C142.845 44.2316 144.058 49.3586 144.174 54.5687C144.156 60.7357 141.979 65.0747 138.468 67.1147L134.216 69.5857C137.728 67.5447 139.905 63.2057 139.922 57.0397Z" fill="#EEEEEE"/>
<path d="M112.886 18.5247L138.417 3.78366C141.705 2.82266 145.797 3.48366 150.229 6.04666C154.943 8.94155 158.967 12.8325 162.019 17.4467L132.467 34.5087C129.417 29.8987 125.396 26.011 120.686 23.1177C115.249 19.9787 110.324 19.6877 106.767 21.7547C106.767 21.7547 107.688 21.2017 109.026 20.4277C110.224 19.6272 111.522 18.9874 112.886 18.5247Z" fill="#005CB5"/>
<path d="M121.755 29.2937L116.919 26.5017V30.3827L121.755 33.1757V29.2937Z" fill="#33312F"/>
<path d="M135.793 53.5176L132.042 51.3516C132.003 51.3288 131.958 51.3167 131.913 51.3167C131.867 51.3166 131.822 51.3285 131.783 51.3512C131.743 51.3739 131.711 51.4066 131.688 51.446C131.665 51.4854 131.653 51.5301 131.653 51.5756V54.2566C131.653 54.3849 131.687 54.511 131.751 54.6221C131.815 54.7332 131.907 54.8255 132.018 54.8896L135.769 57.0556C135.808 57.0782 135.853 57.0901 135.898 57.0901C135.944 57.09 135.988 57.078 136.028 57.0554C136.067 57.0327 136.1 57.0001 136.122 56.9608C136.145 56.9215 136.157 56.877 136.157 56.8316V54.1496C136.157 54.0216 136.124 53.8958 136.06 53.7848C135.996 53.6739 135.904 53.5817 135.793 53.5176Z" fill="#4A4846"/>
<path d="M133.443 53.1796L133.115 52.4207L132.786 52.7997L133.443 53.1796ZM133.443 54.7796L133.115 55.1587L132.786 54.3997L133.443 54.7796ZM132.317 53.6597L131.748 53.0027H132.317V53.6597ZM133.917 53.9237L134.486 54.5807H133.917V53.9237ZM133.117 53.5237C133.192 53.5685 133.255 53.6303 133.302 53.7041C133.349 53.7779 133.378 53.8617 133.386 53.9487C133.386 54.0967 133.266 54.1487 133.117 54.0627C133.042 54.0178 132.979 53.9559 132.932 53.8821C132.885 53.8083 132.857 53.7246 132.848 53.6376C132.851 53.4836 132.971 53.4327 133.12 53.5177L133.117 53.5237Z" fill="#00407E"/>
<path d="M135.412 55.7917C135.416 55.8357 135.431 55.8781 135.454 55.9154C135.478 55.9528 135.51 55.9841 135.548 56.0067C135.623 56.0507 135.684 56.0247 135.684 55.9497C135.68 55.9056 135.665 55.863 135.642 55.8255C135.618 55.788 135.586 55.7566 135.548 55.7337C135.473 55.6907 135.412 55.7177 135.412 55.7917Z" fill="#00407E"/>
<path d="M134.766 55.4176C134.77 55.4617 134.785 55.5043 134.809 55.5418C134.832 55.5793 134.864 55.6107 134.902 55.6336C134.978 55.6766 135.039 55.6506 135.039 55.5756C135.035 55.5315 135.02 55.489 134.997 55.4516C134.973 55.4143 134.94 55.3831 134.902 55.3606C134.827 55.3176 134.766 55.3436 134.766 55.4176Z" fill="#00407E"/>
<path d="M134.789 55.8837L134.902 55.7527L135.015 56.0137L134.789 55.8837Z" fill="#00407E"/>
<path d="M135.435 56.2566L135.548 56.1256L135.661 56.3866L135.435 56.2566Z" fill="#00407E"/>
<path d="M135.412 54.9117C135.416 54.9556 135.431 54.9979 135.455 55.0353C135.478 55.0726 135.51 55.1039 135.548 55.1267C135.623 55.1697 135.684 55.1437 135.684 55.0687C135.68 55.0247 135.665 54.9824 135.642 54.945C135.618 54.9077 135.586 54.8764 135.548 54.8537C135.473 54.8097 135.412 54.8357 135.412 54.9117Z" fill="#00407E"/>
<path d="M134.766 54.5387C134.771 54.5826 134.785 54.6249 134.809 54.6623C134.832 54.6996 134.864 54.7309 134.902 54.7537C134.978 54.7967 135.039 54.7717 135.039 54.6957C135.035 54.6516 135.02 54.6092 134.996 54.5719C134.972 54.5345 134.94 54.5033 134.902 54.4807C134.827 54.4377 134.766 54.4627 134.766 54.5387Z" fill="#00407E"/>
<path d="M134.805 54.8007L135 55.0267H134.805V54.8007Z" fill="#00407E"/>
<path d="M135.45 55.1737L135.646 55.3997H135.45V55.1737Z" fill="#00407E"/>
<path d="M135.412 53.9856C135.416 54.0296 135.431 54.0719 135.455 54.1092C135.478 54.1466 135.51 54.1779 135.548 54.2006C135.623 54.2446 135.684 54.2186 135.684 54.1426C135.68 54.0987 135.665 54.0564 135.642 54.019C135.618 53.9817 135.586 53.9504 135.548 53.9276C135.473 53.8846 135.412 53.9106 135.412 53.9856Z" fill="#00407E"/>
<path d="M134.766 53.6176C134.77 53.6616 134.785 53.704 134.808 53.7414C134.832 53.7787 134.864 53.81 134.902 53.8326C134.978 53.8766 135.039 53.8506 135.039 53.7756C135.035 53.7314 135.02 53.6888 134.996 53.6512C134.973 53.6137 134.94 53.5823 134.902 53.5596C134.827 53.5116 134.766 53.5376 134.766 53.6176Z" fill="#00407E"/>
<path d="M134.789 54.0777L134.902 53.9467L135.015 54.2077L134.789 54.0777Z" fill="#00407E"/>
<path d="M135.435 54.4497L135.548 54.3197L135.661 54.5807L135.435 54.4497Z" fill="#00407E"/>
<path d="M102.728 34.4277L106.479 36.5937C106.59 36.6575 106.682 36.7493 106.745 36.8599C106.809 36.9705 106.843 37.0959 106.843 37.2237V39.9117C106.843 39.9573 106.831 40.0021 106.809 40.0416C106.786 40.0812 106.753 40.114 106.714 40.1368C106.674 40.1597 106.63 40.1717 106.584 40.1716C106.538 40.1716 106.494 40.1595 106.454 40.1367L102.703 37.9707C102.593 37.9067 102.501 37.8149 102.437 37.7043C102.373 37.5938 102.339 37.4684 102.338 37.3407V34.6527C102.338 34.607 102.35 34.5622 102.373 34.5227C102.396 34.4832 102.429 34.4504 102.468 34.4276C102.508 34.4048 102.553 34.3928 102.598 34.3928C102.644 34.3928 102.689 34.4048 102.728 34.4277Z" fill="#4A4846"/>
<path d="M105.705 37.1627L105.377 36.4047L105.048 36.7837L105.705 37.1627ZM105.705 38.7627L105.377 39.1417L105.048 38.3837L105.705 38.7627ZM106.175 37.9077L106.744 38.5647H106.175V37.9077ZM104.575 37.6427L104.006 36.9857H104.575V37.6427ZM105.642 37.9307C105.642 38.0797 105.522 38.1307 105.373 38.0447C105.298 37.9998 105.235 37.938 105.188 37.8642C105.141 37.7904 105.113 37.7066 105.104 37.6197C105.104 37.4707 105.224 37.4197 105.373 37.5057C105.448 37.55 105.511 37.6111 105.558 37.6842C105.605 37.7573 105.634 37.8403 105.643 37.9267L105.642 37.9307Z" fill="#00407E"/>
<path d="M103.085 37.1286C103.085 37.2046 103.024 37.2286 102.949 37.1866C102.911 37.1641 102.879 37.1329 102.855 37.0955C102.831 37.0582 102.816 37.0157 102.812 36.9716C102.812 36.8956 102.873 36.8716 102.949 36.9136C102.987 36.9364 103.019 36.9677 103.043 37.005C103.066 37.0423 103.081 37.0846 103.085 37.1286Z" fill="#00407E"/>
<path d="M103.731 37.5016C103.731 37.5766 103.67 37.6016 103.594 37.5596C103.556 37.5368 103.524 37.5055 103.501 37.4682C103.477 37.4309 103.463 37.3886 103.458 37.3446C103.458 37.2686 103.519 37.2446 103.594 37.2866C103.632 37.3093 103.664 37.3405 103.688 37.3778C103.712 37.4152 103.727 37.4576 103.731 37.5016Z" fill="#00407E"/>
<path d="M103.707 37.9387L103.594 37.6787L103.482 37.8087L103.707 37.9387Z" fill="#00407E"/>
<path d="M103.062 37.5667L102.949 37.3057L102.836 37.4357L103.062 37.5667Z" fill="#00407E"/>
<path d="M103.085 36.2487C103.085 36.3237 103.024 36.3487 102.949 36.3057C102.911 36.2833 102.879 36.2521 102.855 36.2147C102.831 36.1773 102.816 36.1348 102.812 36.0907C102.812 36.0157 102.873 35.9907 102.949 36.0337C102.987 36.0563 103.019 36.0876 103.043 36.1249C103.067 36.1623 103.081 36.2047 103.085 36.2487Z" fill="#00407E"/>
<path d="M103.731 36.6177C103.731 36.6927 103.67 36.7177 103.594 36.6747C103.556 36.6519 103.524 36.6206 103.501 36.5833C103.477 36.546 103.463 36.5036 103.458 36.4597C103.458 36.3847 103.519 36.3597 103.594 36.4017C103.632 36.4244 103.665 36.4558 103.689 36.4933C103.712 36.5308 103.727 36.5734 103.731 36.6177Z" fill="#00407E"/>
<path d="M103.692 36.8396H103.497L103.692 37.0646V36.8396Z" fill="#00407E"/>
<path d="M103.047 36.4667H102.851L103.047 36.6927V36.4667Z" fill="#00407E"/>
<path d="M103.085 35.3227C103.085 35.3987 103.024 35.4227 102.949 35.3807C102.911 35.3581 102.879 35.3268 102.855 35.2895C102.831 35.2521 102.817 35.2097 102.812 35.1657C102.812 35.0897 102.873 35.0657 102.949 35.1077C102.987 35.1305 103.019 35.1618 103.043 35.1991C103.066 35.2364 103.081 35.2787 103.085 35.3227Z" fill="#00407E"/>
<path d="M103.731 35.6956C103.731 35.7706 103.67 35.7956 103.594 35.7536C103.556 35.7307 103.524 35.6992 103.501 35.6617C103.477 35.6242 103.462 35.5817 103.458 35.5376C103.458 35.4626 103.519 35.4376 103.594 35.4806C103.632 35.5031 103.665 35.5343 103.689 35.5717C103.712 35.609 103.727 35.6515 103.731 35.6956Z" fill="#00407E"/>
<path d="M103.707 36.1327L103.594 35.8727L103.482 36.0027L103.707 36.1327Z" fill="#00407E"/>
<path d="M103.062 35.7596L102.949 35.4996L102.836 35.6296L103.062 35.7596Z" fill="#00407E"/>
<defs>
<linearGradient id="paint0_linear_368_4813" x1="46.6685" y1="32.4962" x2="32.4895" y2="32.4962" gradientUnits="userSpaceOnUse">
<stop stop-color="#F2F2F2"/>
<stop offset="1" stop-color="#E6E6E6"/>
</linearGradient>
<linearGradient id="paint1_linear_368_4813" x1="17.8734" y1="59.2751" x2="4.04042" y2="59.2751" gradientUnits="userSpaceOnUse">
<stop stop-color="#3F3D3C"/>
<stop offset="1" stop-color="#4A4846"/>
</linearGradient>
<radialGradient id="paint2_radial_368_4813" cx="0" cy="0" r="1" gradientUnits="userSpaceOnUse" gradientTransform="translate(57.6724 24.8202) scale(0.877002 0.877)">
<stop stop-color="#3DA53D"/>
<stop offset="0.046" stop-color="#358F35"/>
<stop offset="0.137" stop-color="#276927"/>
<stop offset="0.236" stop-color="#1B481B"/>
<stop offset="0.341" stop-color="#112E11"/>
<stop offset="0.456" stop-color="#091909"/>
<stop offset="0.586" stop-color="#040B04"/>
<stop offset="0.743" stop-color="#010301"/>
<stop offset="1"/>
</radialGradient>
<radialGradient id="paint3_radial_368_4813" cx="0" cy="0" r="1" gradientUnits="userSpaceOnUse" gradientTransform="translate(56.8104 25.3181) scale(0.876999)">
<stop stop-color="#3DA53D"/>
<stop offset="0.046" stop-color="#358F35"/>
<stop offset="0.137" stop-color="#276927"/>
<stop offset="0.236" stop-color="#1B481B"/>
<stop offset="0.341" stop-color="#112E11"/>
<stop offset="0.456" stop-color="#091909"/>
<stop offset="0.586" stop-color="#040B04"/>
<stop offset="0.743" stop-color="#010301"/>
<stop offset="1"/>
</radialGradient>
<radialGradient id="paint4_radial_368_4813" cx="0" cy="0" r="1" gradientUnits="userSpaceOnUse" gradientTransform="translate(57.6724 22.7991) scale(0.877002 0.877)">
<stop stop-color="#3DA53D"/>
<stop offset="0.046" stop-color="#358F35"/>
<stop offset="0.137" stop-color="#276927"/>
<stop offset="0.236" stop-color="#1B481B"/>
<stop offset="0.341" stop-color="#112E11"/>
<stop offset="0.456" stop-color="#091909"/>
<stop offset="0.586" stop-color="#040B04"/>
<stop offset="0.743" stop-color="#010301"/>
<stop offset="1"/>
</radialGradient>
<radialGradient id="paint5_radial_368_4813" cx="0" cy="0" r="1" gradientUnits="userSpaceOnUse" gradientTransform="translate(56.8104 23.2971) scale(0.876999 0.877001)">
<stop stop-color="#3DA53D"/>
<stop offset="0.046" stop-color="#358F35"/>
<stop offset="0.137" stop-color="#276927"/>
<stop offset="0.236" stop-color="#1B481B"/>
<stop offset="0.341" stop-color="#112E11"/>
<stop offset="0.456" stop-color="#091909"/>
<stop offset="0.586" stop-color="#040B04"/>
<stop offset="0.743" stop-color="#010301"/>
<stop offset="1"/>
</radialGradient>
<radialGradient id="paint6_radial_368_4813" cx="0" cy="0" r="1" gradientUnits="userSpaceOnUse" gradientTransform="translate(63.2905 21.5772) scale(0.877001)">
<stop stop-color="#3DA53D"/>
<stop offset="0.046" stop-color="#358F35"/>
<stop offset="0.137" stop-color="#276927"/>
<stop offset="0.236" stop-color="#1B481B"/>
<stop offset="0.341" stop-color="#112E11"/>
<stop offset="0.456" stop-color="#091909"/>
<stop offset="0.586" stop-color="#040B04"/>
<stop offset="0.743" stop-color="#010301"/>
<stop offset="1"/>
</radialGradient>
<radialGradient id="paint7_radial_368_4813" cx="0" cy="0" r="1" gradientUnits="userSpaceOnUse" gradientTransform="translate(62.4274 22.0751) scale(0.876995 0.877)">
<stop stop-color="#3DA53D"/>
<stop offset="0.046" stop-color="#358F35"/>
<stop offset="0.137" stop-color="#276927"/>
<stop offset="0.236" stop-color="#1B481B"/>
<stop offset="0.341" stop-color="#112E11"/>
<stop offset="0.456" stop-color="#091909"/>
<stop offset="0.586" stop-color="#040B04"/>
<stop offset="0.743" stop-color="#010301"/>
<stop offset="1"/>
</radialGradient>
<radialGradient id="paint8_radial_368_4813" cx="0" cy="0" r="1" gradientUnits="userSpaceOnUse" gradientTransform="translate(63.2905 19.5562) scale(0.877001)">
<stop stop-color="#3DA53D"/>
<stop offset="0.046" stop-color="#358F35"/>
<stop offset="0.137" stop-color="#276927"/>
<stop offset="0.236" stop-color="#1B481B"/>
<stop offset="0.341" stop-color="#112E11"/>
<stop offset="0.456" stop-color="#091909"/>
<stop offset="0.586" stop-color="#040B04"/>
<stop offset="0.743" stop-color="#010301"/>
<stop offset="1"/>
</radialGradient>
<radialGradient id="paint9_radial_368_4813" cx="0" cy="0" r="1" gradientUnits="userSpaceOnUse" gradientTransform="translate(62.4274 20.0541) scale(0.876995 0.877)">
<stop stop-color="#3DA53D"/>
<stop offset="0.046" stop-color="#358F35"/>
<stop offset="0.137" stop-color="#276927"/>
<stop offset="0.236" stop-color="#1B481B"/>
<stop offset="0.341" stop-color="#112E11"/>
<stop offset="0.456" stop-color="#091909"/>
<stop offset="0.586" stop-color="#040B04"/>
<stop offset="0.743" stop-color="#010301"/>
<stop offset="1"/>
</radialGradient>
<linearGradient id="paint10_linear_368_4813" x1="116.313" y1="17.9237" x2="127.21" y2="36.7977" gradientUnits="userSpaceOnUse">
<stop offset="0.512" stop-color="#F2F2F2"/>
<stop offset="0.978" stop-color="#EBEBEB"/>
<stop offset="1" stop-color="#EBEBEB"/>
</linearGradient>
<linearGradient id="paint11_linear_368_4813" x1="124.007" y1="38.6547" x2="115.264" y2="53.7987" gradientUnits="userSpaceOnUse">
<stop stop-color="#00407E"/>
<stop offset="0.573" stop-color="#0C60B1"/>
<stop offset="1" stop-color="#00407E"/>
</linearGradient>
</defs>
</svg>
