<svg width="157" height="98" viewBox="0 0 157 98" fill="none" xmlns="http://www.w3.org/2000/svg">
<path d="M97.7871 58.689L97.9581 58.226L98.1251 58.126L97.9541 58.589C97.9326 58.6557 97.8879 58.7125 97.8281 58.749L97.6611 58.849C97.7208 58.8124 97.7655 58.7556 97.7871 58.689Z" fill="#E4E4E4"/>
<path d="M96.6021 57.443L96.7701 58.102C96.8439 58.3934 97.025 58.6462 97.2771 58.81C97.5061 58.943 97.7111 58.895 97.7861 58.689L97.9581 58.226L96.6021 57.443Z" fill="#B5B5B5"/>
<path d="M96.4411 58.011L96.5121 57.97C96.6193 57.9095 96.7408 57.8787 96.8639 57.881C96.987 57.8833 97.1072 57.9185 97.2121 57.983C97.7431 58.293 98.0621 59.201 97.4521 59.583L97.3811 59.624C97.2364 59.7079 97.0654 59.7343 96.9021 59.698C96.2731 59.56 95.7321 58.458 96.4411 58.011Z" fill="#353433"/>
<path d="M96.6261 59.499C96.4958 59.4141 96.3874 59.2997 96.3097 59.165C96.232 59.0303 96.1873 58.8792 96.1791 58.724C96.1791 58.442 96.3791 58.324 96.6291 58.47C96.7591 58.5544 96.8673 58.6683 96.945 58.8025C97.0226 58.9366 97.0676 59.0872 97.0761 59.2419C97.0751 59.5269 96.8741 59.642 96.6261 59.499Z" fill="#282726"/>
<g style="mix-blend-mode:screen" opacity="0.2">
<path d="M96.512 57.972C96.5877 57.937 96.6713 57.9228 96.7543 57.9309C96.8372 57.939 96.9166 57.969 96.984 58.018C97.1763 58.1428 97.3363 58.3113 97.451 58.5098C97.5657 58.7083 97.6318 58.9311 97.644 59.16C97.6525 59.2416 97.6391 59.3239 97.6052 59.3986C97.5712 59.4733 97.518 59.5376 97.451 59.585L97.38 59.626C97.447 59.5785 97.5002 59.5142 97.5343 59.4396C97.5684 59.3649 97.5821 59.2826 97.574 59.201C97.5614 58.9721 97.495 58.7493 97.3801 58.5509C97.2653 58.3525 97.1052 58.184 96.913 58.059C96.8456 58.0101 96.7662 57.98 96.6833 57.9719C96.6003 57.9638 96.5167 57.978 96.441 58.013L96.512 57.972Z" fill="#353433"/>
</g>
<path d="M96.9831 59.161L97.1541 58.6971L97.3221 58.597L97.1501 59.0601C97.1282 59.1268 97.0836 59.1838 97.0241 59.221L96.8561 59.321C96.9162 59.2847 96.9613 59.2279 96.9831 59.161Z" fill="#E4E4E4"/>
<path d="M95.7981 57.911L95.9661 58.571C96.04 58.8629 96.221 59.1163 96.4731 59.281C96.7031 59.413 96.9081 59.364 96.9831 59.158L97.1541 58.694L95.7981 57.911Z" fill="#B5B5B5"/>
<path d="M95.6581 57.882L95.6591 58.0649L97.1461 58.929L97.1451 58.7459L95.6581 57.882Z" fill="#B5B5B5"/>
<path d="M97.1451 58.746L97.1461 58.929L98.2111 58.314L98.2101 58.131L97.1451 58.746Z" fill="#E4E4E4"/>
<path d="M92.0671 55.387L92.2381 54.923L92.4061 54.823L92.2341 55.286C92.2127 55.3527 92.1679 55.4095 92.1081 55.446L91.9411 55.546C92.0003 55.5092 92.0448 55.453 92.0671 55.387Z" fill="#E4E4E4"/>
<path d="M90.8821 54.14L91.0501 54.8C91.1239 55.0914 91.305 55.3443 91.5571 55.508C91.7861 55.64 91.9921 55.593 92.0671 55.387L92.2381 54.923L90.8821 54.14Z" fill="#B5B5B5"/>
<path d="M90.7221 54.7111L90.7921 54.67C90.8991 54.6089 91.0206 54.5779 91.1438 54.5802C91.2671 54.5825 91.3874 54.618 91.4921 54.683C92.0231 54.993 92.3431 55.901 91.7321 56.283L91.662 56.324C91.5169 56.4078 91.3457 56.4342 91.1821 56.398C90.5541 56.258 90.0111 55.1551 90.7221 54.7111Z" fill="#353433"/>
<path d="M90.9061 56.1959C90.7758 56.1113 90.6674 55.9971 90.5898 55.8626C90.5121 55.7281 90.4673 55.5771 90.4591 55.422C90.4591 55.14 90.6591 55.022 90.9091 55.168C91.0392 55.2523 91.1474 55.3662 91.2251 55.5004C91.3028 55.6345 91.3477 55.7851 91.3561 55.9399C91.3561 56.2239 91.1541 56.3389 90.9061 56.1959Z" fill="#282726"/>
<g style="mix-blend-mode:screen" opacity="0.2">
<path d="M90.792 54.67C90.8677 54.635 90.9513 54.6208 91.0343 54.6289C91.1172 54.637 91.1965 54.667 91.264 54.716C91.4563 54.8407 91.6164 55.009 91.7312 55.2073C91.8461 55.4056 91.9125 55.6282 91.925 55.857C91.9329 55.9388 91.9192 56.0212 91.8851 56.096C91.8511 56.1707 91.7979 56.2352 91.731 56.283L91.661 56.324C91.7279 56.2765 91.781 56.2122 91.8149 56.1375C91.8488 56.0628 91.8623 55.9805 91.854 55.899C91.8416 55.67 91.7753 55.4472 91.6604 55.2487C91.5456 55.0503 91.3854 54.8818 91.193 54.757C91.1257 54.708 91.0466 54.678 90.9638 54.6699C90.881 54.6618 90.7975 54.676 90.722 54.711L90.792 54.67Z" fill="#353433"/>
</g>
<path d="M91.2631 55.8579L91.4351 55.3949L91.6021 55.2949L91.4311 55.7579C91.4093 55.8248 91.3643 55.8816 91.3041 55.9179L91.1361 56.0179C91.1963 55.9816 91.2414 55.9248 91.2631 55.8579Z" fill="#E4E4E4"/>
<path d="M90.0781 54.611L90.2471 55.271C90.3204 55.5629 90.5016 55.8162 90.7541 55.9799C90.9831 56.1129 91.1881 56.064 91.2631 55.857L91.4351 55.394L90.0781 54.611Z" fill="#B5B5B5"/>
<path d="M89.9391 54.58V54.763L91.4261 55.627L91.4251 55.444L89.9391 54.58Z" fill="#B5B5B5"/>
<path d="M91.425 55.444L91.4261 55.627L92.4911 55.012V54.828L91.425 55.444Z" fill="#E4E4E4"/>
<path d="M97.2001 57.798L89.7371 53.489V54.522L97.2001 58.83V57.798Z" fill="#B5B5B5"/>
<path d="M98.7931 57.91L97.2001 58.83V57.798L98.7931 56.8781V57.91Z" fill="#E4E4E4"/>
<path d="M89.588 60.325L85.363 57.885V58.918L89.588 61.357V60.325Z" fill="#B5B5B5"/>
<path d="M95.6 57.887L89.588 61.357V60.325L95.6 56.854V57.887Z" fill="#E4E4E4"/>
<path d="M90.3181 63.001L90.4901 62.537L90.6571 62.437L90.4861 62.9C90.464 62.9664 90.4194 63.023 90.3601 63.06L90.1921 63.16C90.2519 63.124 90.2967 63.0675 90.3181 63.001Z" fill="#E4E4E4"/>
<path d="M89.1321 61.754L89.3011 62.414C89.3749 62.7054 89.556 62.9582 89.8081 63.122C90.0371 63.254 90.2421 63.207 90.3171 63.001L90.4891 62.537L89.1321 61.754Z" fill="#B5B5B5"/>
<path d="M88.9731 62.325L89.0441 62.2841C89.1512 62.2233 89.2727 62.1924 89.3959 62.1947C89.519 62.197 89.6393 62.2323 89.7441 62.2971C90.2761 62.6071 90.5951 63.515 89.9851 63.897L89.9141 63.938C89.7693 64.0217 89.5984 64.0481 89.4351 64.0121C88.8051 63.8721 88.2621 62.769 88.9731 62.325Z" fill="#353433"/>
<path d="M89.1581 63.8109C89.0277 63.7264 88.9192 63.6122 88.8415 63.4777C88.7638 63.3431 88.7191 63.1921 88.7111 63.0369C88.7111 62.7549 88.9111 62.637 89.1611 62.783C89.291 62.8674 89.3992 62.9814 89.4769 63.1155C89.5545 63.2496 89.5995 63.4002 89.6081 63.555C89.6071 63.839 89.4051 63.9539 89.1581 63.8109Z" fill="#282726"/>
<g style="mix-blend-mode:screen" opacity="0.2">
<path d="M89.0441 62.284C89.1197 62.249 89.2034 62.2348 89.2863 62.2429C89.3693 62.251 89.4486 62.2811 89.5161 62.33C89.7083 62.4549 89.8683 62.6234 89.983 62.8219C90.0977 63.0203 90.1639 63.2431 90.1761 63.472C90.1843 63.5536 90.1708 63.6359 90.1369 63.7105C90.103 63.7852 90.0499 63.8495 89.9831 63.897L89.9121 63.938C89.9791 63.8907 90.0323 63.8264 90.0662 63.7517C90.1001 63.677 90.1135 63.5946 90.1051 63.513C90.0926 63.2842 90.0264 63.0615 89.9117 62.863C89.797 62.6646 89.6372 62.496 89.4451 62.371C89.3776 62.3221 89.2983 62.292 89.2153 62.2839C89.1324 62.2759 89.0487 62.29 88.9731 62.325L89.0441 62.284Z" fill="#353433"/>
</g>
<path d="M89.5141 63.4719L89.6861 63.0089L89.8531 62.9089L89.6821 63.3719C89.6599 63.4388 89.615 63.4958 89.5551 63.5329L89.3881 63.6329C89.4482 63.5963 89.4929 63.5391 89.5141 63.4719Z" fill="#E4E4E4"/>
<path d="M88.3321 62.226L88.5001 62.886C88.574 63.1779 88.755 63.4313 89.0071 63.5959C89.2361 63.7279 89.4411 63.679 89.5161 63.472L89.6881 63.0089L88.3321 62.226Z" fill="#B5B5B5"/>
<path d="M88.1901 62.194L88.1911 62.377L89.6771 63.241V63.058L88.1901 62.194Z" fill="#B5B5B5"/>
<path d="M89.6771 63.058V63.241L90.7431 62.626L90.7421 62.443L89.6771 63.058Z" fill="#E4E4E4"/>
<path d="M84.598 59.698L84.77 59.235L84.937 59.135L84.766 59.598C84.744 59.6644 84.6994 59.721 84.64 59.758L84.473 59.858C84.532 59.8208 84.5762 59.7643 84.598 59.698Z" fill="#E4E4E4"/>
<path d="M83.4141 58.452L83.5821 59.112C83.6564 59.4032 83.8374 59.6558 84.0891 59.82C84.3181 59.952 84.5231 59.905 84.5981 59.698L84.7701 59.235L83.4141 58.452Z" fill="#B5B5B5"/>
<path d="M83.2531 59.0231L83.3241 58.9821C83.4311 58.9211 83.5526 58.8901 83.6757 58.8922C83.7989 58.8943 83.9192 58.9295 84.0241 58.9941C84.5551 59.3051 84.8741 60.2131 84.2641 60.5941L84.1931 60.6361C84.0483 60.7199 83.8774 60.7463 83.7141 60.7101C83.0851 60.5701 82.5431 59.4671 83.2531 59.0231Z" fill="#353433"/>
<path d="M83.4381 60.511C83.3078 60.4265 83.1993 60.3122 83.1216 60.1777C83.0439 60.0432 82.9992 59.8922 82.9911 59.737C82.9911 59.455 83.1911 59.337 83.4411 59.483C83.5711 59.5674 83.6794 59.6813 83.7571 59.8155C83.8348 59.9496 83.8797 60.1002 83.8881 60.255C83.8871 60.536 83.6851 60.651 83.4381 60.511Z" fill="#282726"/>
<g style="mix-blend-mode:screen" opacity="0.2">
<path d="M83.3241 58.9821C83.3997 58.9469 83.4833 58.9326 83.5663 58.9407C83.6493 58.9488 83.7287 58.9789 83.7961 59.028C83.9882 59.1528 84.1481 59.3212 84.2628 59.5195C84.3775 59.7178 84.4437 59.9403 84.4561 60.169C84.4645 60.2506 84.4511 60.333 84.4172 60.4077C84.3833 60.4824 84.3301 60.5467 84.2631 60.5941L84.1921 60.6361C84.259 60.5887 84.3121 60.5243 84.346 60.4497C84.3799 60.375 84.3934 60.2926 84.3851 60.2111C84.3731 59.9821 84.307 59.7592 84.1923 59.5607C84.0776 59.3622 83.9175 59.1937 83.7251 59.0691C83.6577 59.02 83.5783 58.9898 83.4953 58.9817C83.4123 58.9736 83.3287 58.9879 83.2531 59.023L83.3241 58.9821Z" fill="#353433"/>
</g>
<path d="M83.7951 60.1699L83.9661 59.7069L84.1341 59.6069L83.9621 60.0699C83.94 60.1363 83.8955 60.1929 83.8361 60.2299L83.6681 60.3299C83.7278 60.2931 83.7728 60.2365 83.7951 60.1699Z" fill="#E4E4E4"/>
<path d="M82.6101 58.924L82.7781 59.5829C82.852 59.8748 83.033 60.1283 83.2851 60.293C83.5141 60.426 83.7201 60.376 83.7951 60.17L83.9661 59.707L82.6101 58.924Z" fill="#B5B5B5"/>
<path d="M82.4701 58.892L82.4711 59.075L83.9571 59.939V59.756L82.4701 58.892Z" fill="#B5B5B5"/>
<path d="M83.9571 59.756V59.939L85.0231 59.324L85.0221 59.14L83.9571 59.756Z" fill="#E4E4E4"/>
<path d="M89.7311 62.11L82.2681 57.801V58.833L89.7311 63.142V62.11Z" fill="#B5B5B5"/>
<path d="M91.3251 62.222L89.7311 63.142V62.11L91.3251 61.1899V62.222Z" fill="#E4E4E4"/>
<path d="M97.2001 57.7979L98.7931 56.878L91.3301 52.569L89.7371 53.489L91.3571 54.425L85.4821 57.817L83.8621 56.881L82.2681 57.801L89.7311 62.11L91.3251 61.1899L89.7081 60.256L95.5831 56.864L97.2001 57.7979Z" fill="#E4E4E4"/>
<path opacity="0.6" d="M97.2001 57.7979L98.7931 56.878L91.3301 52.569L89.7371 53.489L91.3571 54.425L85.4821 57.817L83.8621 56.881L82.2681 57.801L89.7311 62.11L91.3251 61.1899L89.7081 60.256L95.5831 56.864L97.2001 57.7979Z" fill="#E4E4E4"/>
<path d="M89.7821 58.163L88.9471 57.681V1.17896L89.7821 1.66095V58.163Z" fill="#E4E4E4"/>
<path d="M91.8241 56.9849L89.7821 58.1629V1.66093L91.8241 0.481934V56.9849Z" fill="#E4E4E4"/>
<path d="M89.7821 1.661L88.9471 1.179L90.9891 0L91.8241 0.481995L89.7821 1.661Z" fill="#E4E4E4"/>
<path d="M93.5821 5.73503L93.4291 59.741L90.5621 55.76L90.7151 1.75403L93.5821 5.73503Z" fill="#00407E"/>
<path d="M100.214 7.10799L100.061 61.114L93.4291 59.741L93.5821 5.73499L100.214 7.10799Z" fill="#005CB5"/>
<path d="M103.056 11.205L102.903 65.211L100.061 61.114L100.214 7.10803L103.056 11.205Z" fill="#00407E"/>
<path d="M109.694 12.574L109.541 66.58L102.903 65.211L103.056 11.205L109.694 12.574Z" fill="#005CB5"/>
<path d="M112.73 16.79L112.577 70.796L109.541 66.58L109.694 12.574L112.73 16.79Z" fill="#00407E"/>
<path d="M119.362 18.1631L119.209 72.169L112.577 70.7961L112.73 16.79L119.362 18.1631Z" fill="#005CB5"/>
<path d="M122.205 22.2599L122.051 76.266L119.209 72.1689L119.362 18.163L122.205 22.2599Z" fill="#00407E"/>
<path d="M128.843 23.629L128.689 77.636L122.051 76.266L122.205 22.26L128.843 23.629Z" fill="#005CB5"/>
<path d="M131.879 27.846L131.726 81.852L128.689 77.636L128.843 23.629L131.879 27.846Z" fill="#00407E"/>
<path d="M138.511 29.219L138.358 83.2249L131.726 81.852L131.879 27.8459L138.511 29.219Z" fill="#005CB5"/>
<path d="M141.353 33.316L141.2 87.322L138.358 83.225L138.511 29.219L141.353 33.316Z" fill="#00407E"/>
<path d="M147.995 34.3199L147.842 88.326L147.376 88.597L147.529 34.5909L147.995 34.3199Z" fill="#E4E4E4"/>
<path d="M147.529 34.591L147.376 88.597L141.2 87.3221L141.353 33.316L147.529 34.591Z" fill="#005CB5"/>
<path d="M141.807 33.037L138.971 28.944L132.333 27.567L129.29 23.355L122.658 21.982L119.822 17.889L113.184 16.512L110.148 12.303L103.516 10.93L100.674 6.83299L94.0361 5.45699L91.1691 1.48999L90.7151 1.75398L93.5821 5.73499L100.214 7.10799L103.056 11.205L109.694 12.574L112.73 16.79L119.362 18.163L122.205 22.26L128.843 23.629L131.879 27.846L138.511 29.219L141.353 33.316L147.529 34.591L147.995 34.32L141.807 33.037Z" fill="#005CB5"/>
<path d="M155.832 92.2L156.004 91.737L156.171 91.637L156 92.0999C155.978 92.1663 155.933 92.2229 155.874 92.2599L155.706 92.36C155.766 92.3235 155.811 92.2667 155.832 92.2Z" fill="#E4E4E4"/>
<path d="M154.645 90.954L154.814 91.613C154.888 91.9045 155.069 92.1576 155.321 92.322C155.55 92.454 155.755 92.407 155.83 92.2L156.002 91.737L154.645 90.954Z" fill="#B5B5B5"/>
<path d="M154.485 91.5251L154.556 91.483C154.663 91.4222 154.785 91.3914 154.908 91.3937C155.031 91.396 155.151 91.4313 155.256 91.496C155.788 91.807 156.107 92.715 155.497 93.096L155.426 93.1381C155.281 93.2217 155.11 93.2481 154.947 93.212C154.317 93.072 153.774 91.9691 154.485 91.5251Z" fill="#353433"/>
<path d="M154.67 93.011C154.54 92.9265 154.431 92.8122 154.354 92.6777C154.276 92.5432 154.231 92.3922 154.223 92.237C154.223 91.955 154.423 91.837 154.673 91.983C154.803 92.0674 154.911 92.1814 154.989 92.3155C155.067 92.4497 155.112 92.6002 155.12 92.755C155.119 93.038 154.917 93.153 154.67 93.011Z" fill="#282726"/>
<g style="mix-blend-mode:screen" opacity="0.2">
<path d="M154.556 91.483C154.632 91.4483 154.716 91.4344 154.798 91.4426C154.881 91.4509 154.961 91.4811 155.028 91.5301C155.22 91.6548 155.38 91.8232 155.495 92.0214C155.61 92.2197 155.676 92.4423 155.688 92.671C155.696 92.7526 155.683 92.8349 155.649 92.9096C155.615 92.9842 155.562 93.0486 155.495 93.096L155.424 93.1381C155.491 93.0904 155.544 93.0259 155.578 92.9511C155.612 92.8762 155.625 92.7938 155.617 92.712C155.605 92.4833 155.539 92.2607 155.424 92.0625C155.309 91.8642 155.149 91.6958 154.957 91.571C154.89 91.5219 154.81 91.4918 154.727 91.4837C154.644 91.4756 154.561 91.4899 154.485 91.525L154.556 91.483Z" fill="#353433"/>
</g>
<path d="M155.026 92.672L155.198 92.209L155.365 92.109L155.194 92.572C155.172 92.6389 155.127 92.6957 155.067 92.732L154.9 92.832C154.959 92.795 155.004 92.7384 155.026 92.672Z" fill="#E4E4E4"/>
<path d="M153.842 91.426L154.01 92.085C154.084 92.3769 154.265 92.6303 154.517 92.795C154.746 92.928 154.951 92.879 155.026 92.672L155.198 92.209L153.842 91.426Z" fill="#B5B5B5"/>
<path d="M153.702 91.3929L153.703 91.577L155.189 92.4409V92.257L153.702 91.3929Z" fill="#B5B5B5"/>
<path d="M155.189 92.257V92.4409L156.255 91.825L156.254 91.642L155.189 92.257Z" fill="#E4E4E4"/>
<path d="M150.11 88.8979L150.282 88.435L150.449 88.335L150.278 88.799C150.256 88.865 150.211 88.9212 150.152 88.9579L149.985 89.058C150.044 89.0212 150.089 88.9644 150.11 88.8979Z" fill="#E4E4E4"/>
<path d="M148.926 87.652L149.094 88.311C149.168 88.6024 149.349 88.8552 149.601 89.019C149.83 89.152 150.035 89.104 150.11 88.898L150.282 88.435L148.926 87.652Z" fill="#B5B5B5"/>
<path d="M148.765 88.222L148.836 88.181C148.943 88.1204 149.065 88.0896 149.188 88.0919C149.311 88.0942 149.431 88.1295 149.536 88.194C150.067 88.505 150.386 89.4119 149.776 89.7939L149.705 89.835C149.56 89.9188 149.389 89.9452 149.226 89.909C148.597 89.77 148.055 88.667 148.765 88.222Z" fill="#353433"/>
<path d="M148.95 89.711C148.82 89.6265 148.711 89.5122 148.634 89.3777C148.556 89.2432 148.511 89.0922 148.503 88.937C148.503 88.654 148.703 88.537 148.953 88.682C149.083 88.7665 149.191 88.8804 149.269 89.0145C149.347 89.1487 149.392 89.2992 149.4 89.454C149.399 89.736 149.197 89.851 148.95 89.711Z" fill="#282726"/>
<g style="mix-blend-mode:screen" opacity="0.2">
<path d="M148.832 88.181C148.908 88.146 148.991 88.1318 149.074 88.1399C149.157 88.148 149.237 88.1781 149.304 88.227C149.496 88.3518 149.656 88.5204 149.771 88.7188C149.886 88.9173 149.952 89.1401 149.964 89.369C149.973 89.4506 149.959 89.533 149.925 89.6076C149.891 89.6823 149.838 89.7466 149.771 89.794L149.7 89.835C149.767 89.7876 149.82 89.7233 149.854 89.6486C149.888 89.5739 149.902 89.4916 149.893 89.41C149.881 89.1812 149.815 88.9585 149.7 88.7602C149.585 88.5619 149.425 88.3935 149.233 88.269C149.166 88.2197 149.087 88.1893 149.004 88.1811C148.921 88.1728 148.837 88.1869 148.761 88.222L148.832 88.181Z" fill="#353433"/>
</g>
<path d="M149.307 89.37L149.478 88.907L149.646 88.807L149.474 89.271C149.452 89.3374 149.407 89.394 149.348 89.431L149.18 89.531C149.24 89.4944 149.285 89.4372 149.307 89.37Z" fill="#E4E4E4"/>
<path d="M148.122 88.124L148.29 88.783C148.364 89.0749 148.545 89.3283 148.797 89.493C149.026 89.625 149.232 89.576 149.307 89.37L149.478 88.907L148.122 88.124Z" fill="#B5B5B5"/>
<path d="M147.982 88.0909L147.983 88.274L149.469 89.138V88.955L147.982 88.0909Z" fill="#B5B5B5"/>
<path d="M149.469 88.955V89.138L150.535 88.5229L150.534 88.34L149.469 88.955Z" fill="#E4E4E4"/>
<path d="M155.243 91.309L147.78 87V88.033L155.243 92.342V91.309Z" fill="#B5B5B5"/>
<path d="M156.837 91.4219L155.243 92.3419V91.3089L156.837 90.3889V91.4219Z" fill="#E4E4E4"/>
<path d="M147.632 93.836L143.407 91.397V92.429L147.632 94.869V93.836Z" fill="#B5B5B5"/>
<path d="M153.643 91.3979L147.632 94.869V93.836L153.643 90.366V91.3979Z" fill="#E4E4E4"/>
<path d="M148.362 96.511L148.533 96.048L148.701 95.948L148.529 96.411C148.508 96.4775 148.463 96.5339 148.403 96.57L148.236 96.67C148.295 96.6332 148.34 96.577 148.362 96.511Z" fill="#E4E4E4"/>
<path d="M147.177 95.266L147.345 95.925C147.419 96.2165 147.6 96.4695 147.852 96.634C148.081 96.766 148.287 96.719 148.362 96.512L148.533 96.049L147.177 95.266Z" fill="#B5B5B5"/>
<path d="M147.017 95.8369L147.087 95.7949C147.194 95.7344 147.316 95.7036 147.439 95.7059C147.562 95.7082 147.682 95.7434 147.787 95.8079C148.318 96.1189 148.638 97.026 148.027 97.408L147.957 97.4489C147.812 97.5327 147.641 97.5591 147.477 97.5229C146.849 97.3839 146.306 96.2809 147.017 95.8369Z" fill="#353433"/>
<path d="M147.201 97.322C147.071 97.2373 146.963 97.123 146.885 96.9885C146.807 96.8541 146.762 96.7031 146.754 96.548C146.754 96.266 146.954 96.1481 147.204 96.2931C147.334 96.3776 147.442 96.4917 147.52 96.626C147.598 96.7603 147.643 96.9111 147.651 97.066C147.651 97.35 147.449 97.465 147.201 97.322Z" fill="#282726"/>
<g style="mix-blend-mode:screen" opacity="0.2">
<path d="M147.087 95.795C147.163 95.76 147.246 95.7459 147.329 95.7541C147.413 95.7624 147.492 95.7927 147.559 95.842C147.751 95.9667 147.911 96.1351 148.026 96.3334C148.141 96.5316 148.208 96.7542 148.22 96.983C148.228 97.0647 148.214 97.147 148.18 97.2217C148.146 97.2963 148.093 97.3606 148.026 97.408L147.956 97.449C148.023 97.4014 148.076 97.337 148.11 97.2624C148.144 97.1878 148.157 97.1056 148.149 97.024C148.137 96.7952 148.07 96.5726 147.955 96.3743C147.84 96.1761 147.68 96.0077 147.488 95.883C147.421 95.8339 147.342 95.8037 147.259 95.7956C147.176 95.7875 147.093 95.8018 147.017 95.837L147.087 95.795Z" fill="#353433"/>
</g>
<path d="M147.558 96.984L147.73 96.521L147.897 96.421L147.726 96.885C147.704 96.9519 147.659 97.0086 147.599 97.045L147.431 97.145C147.491 97.1084 147.536 97.0512 147.558 96.984Z" fill="#E4E4E4"/>
<path d="M146.373 95.738L146.542 96.397C146.615 96.6892 146.797 96.9428 147.049 97.1071C147.278 97.2391 147.483 97.19 147.558 96.984L147.73 96.5211L146.373 95.738Z" fill="#B5B5B5"/>
<path d="M146.234 95.705V95.8889L147.721 96.752L147.72 96.569L146.234 95.705Z" fill="#B5B5B5"/>
<path d="M147.72 96.569L147.721 96.752L148.786 96.137V95.954L147.72 96.569Z" fill="#E4E4E4"/>
<path d="M142.642 93.211L142.813 92.748L142.981 92.6479L142.809 93.112C142.788 93.1782 142.743 93.2345 142.684 93.271L142.516 93.3709C142.576 93.3347 142.621 93.2778 142.642 93.211Z" fill="#E4E4E4"/>
<path d="M141.457 91.964L141.626 92.623C141.7 92.9144 141.881 93.1672 142.133 93.331C142.362 93.464 142.567 93.416 142.642 93.21L142.813 92.747L141.457 91.964Z" fill="#B5B5B5"/>
<path d="M141.297 92.5341L141.368 92.493C141.475 92.4323 141.597 92.4014 141.72 92.4037C141.843 92.406 141.963 92.4413 142.068 92.506C142.6 92.816 142.919 93.724 142.309 94.106L142.238 94.147C142.093 94.2307 141.922 94.2571 141.759 94.221C141.132 94.082 140.586 92.9791 141.297 92.5341Z" fill="#353433"/>
<path d="M141.482 94.0199C141.352 93.9352 141.243 93.8208 141.165 93.6861C141.087 93.5514 141.042 93.4003 141.034 93.245C141.034 92.963 141.234 92.845 141.484 92.991C141.614 93.0753 141.723 93.1892 141.8 93.3234C141.878 93.4575 141.923 93.6081 141.932 93.763C141.932 94.048 141.732 94.1629 141.482 94.0199Z" fill="#282726"/>
<g style="mix-blend-mode:screen" opacity="0.2">
<path d="M141.368 92.493C141.444 92.458 141.527 92.4438 141.61 92.4519C141.693 92.46 141.773 92.4901 141.84 92.539C142.032 92.6642 142.192 92.8328 142.306 93.0312C142.421 93.2296 142.487 93.4522 142.5 93.681C142.508 93.7626 142.495 93.8449 142.461 93.9195C142.427 93.9942 142.374 94.0585 142.307 94.106L142.236 94.147C142.303 94.0995 142.356 94.0351 142.39 93.9605C142.424 93.8858 142.437 93.8035 142.429 93.722C142.417 93.4931 142.35 93.2704 142.236 93.072C142.121 92.8736 141.961 92.705 141.769 92.58C141.702 92.5311 141.622 92.501 141.539 92.4929C141.456 92.4848 141.373 92.499 141.297 92.534L141.368 92.493Z" fill="#353433"/>
</g>
<path d="M141.838 93.682L142.01 93.219L142.177 93.119L142.006 93.582C141.984 93.6489 141.939 93.7059 141.879 93.743L141.712 93.843C141.772 93.8058 141.816 93.7488 141.838 93.682Z" fill="#E4E4E4"/>
<path d="M140.654 92.4351L140.822 93.0951C140.896 93.387 141.077 93.6404 141.329 93.8051C141.558 93.9371 141.763 93.888 141.838 93.682L142.01 93.2191L140.654 92.4351Z" fill="#B5B5B5"/>
<path d="M140.514 92.403V92.586L142.001 93.45V93.267L140.514 92.403Z" fill="#B5B5B5"/>
<path d="M142.001 93.267V93.45L143.066 92.835V92.652L142.001 93.267Z" fill="#E4E4E4"/>
<path d="M147.775 95.621L140.312 91.312V92.345L147.775 96.654V95.621Z" fill="#B5B5B5"/>
<path d="M149.368 95.7339L147.775 96.6539V95.6209L149.368 94.7009V95.7339Z" fill="#E4E4E4"/>
<path d="M155.243 91.309L156.837 90.3889L149.374 86.08L147.78 87L149.401 87.9359L143.526 91.3279L141.905 90.392L140.312 91.312L147.775 95.6209L149.368 94.701L147.751 93.767L153.626 90.3759L155.243 91.309Z" fill="#E4E4E4"/>
<path opacity="0.6" d="M147.794 88.864L143.526 91.328L141.905 90.392L140.312 91.312L140.933 91.671H147.794V88.864Z" fill="#E4E4E4"/>
<path d="M147.826 91.675L146.991 91.193V34.6899L147.826 35.172V91.675Z" fill="#B5B5B5"/>
<path d="M149.868 90.496L147.826 91.675V35.172L149.868 33.994V90.496Z" fill="#E4E4E4"/>
<path d="M147.826 35.172L146.991 34.69L149.032 33.511L149.868 33.994L147.826 35.172Z" fill="#E4E4E4"/>
<path d="M23.489 89.606L23.889 88.532L24.278 88.306L23.878 89.38C23.8284 89.5345 23.7248 89.6659 23.586 89.75L23.198 89.976C23.3357 89.891 23.4388 89.7599 23.489 89.606Z" fill="#E4E4E4"/>
<path d="M20.742 86.722L21.132 88.25C21.3036 88.9257 21.7235 89.512 22.308 89.8921C22.839 90.1991 23.315 90.0921 23.489 89.6111L23.889 88.537L20.742 86.722Z" fill="#B1B1B1"/>
<path d="M20.37 88.04L20.534 87.94C20.7822 87.8003 21.0632 87.7295 21.348 87.7348C21.6328 87.74 21.911 87.8212 22.1539 87.97C23.3859 88.69 24.126 90.794 22.711 91.679L22.547 91.779C22.2109 91.9726 21.8147 92.0336 21.436 91.95C19.981 91.627 18.723 89.07 20.37 88.04Z" fill="#353433"/>
<path d="M20.799 91.484C20.4963 91.2872 20.2445 91.0214 20.0643 90.7086C19.8841 90.3957 19.7805 90.0446 19.762 89.684C19.762 89.03 20.231 88.763 20.805 89.095C21.1065 89.2907 21.3576 89.5548 21.5378 89.8659C21.718 90.1769 21.8222 90.5261 21.8419 90.885C21.8399 91.548 21.372 91.815 20.799 91.484ZM20.799 91.484C20.4963 91.2872 20.2445 91.0214 20.0643 90.7086C19.8841 90.3957 19.7805 90.0446 19.762 89.684C19.762 89.03 20.231 88.763 20.805 89.095C21.1065 89.2907 21.3576 89.5548 21.5378 89.8659C21.718 90.1769 21.8222 90.5261 21.8419 90.885C21.8399 91.548 21.372 91.815 20.799 91.484Z" fill="#282726"/>
<g style="mix-blend-mode:screen" opacity="0.2">
<path d="M20.534 87.944C20.7096 87.863 20.9037 87.8303 21.0962 87.8492C21.2886 87.8682 21.4726 87.9382 21.629 88.052C22.0746 88.3412 22.4454 88.7317 22.7113 89.1915C22.9772 89.6514 23.1306 90.1676 23.159 90.698C23.1783 90.8872 23.147 91.0781 23.0682 91.2511C22.9895 91.4242 22.8662 91.5732 22.711 91.683L22.547 91.783C22.7023 91.6731 22.8256 91.5239 22.9044 91.3506C22.9831 91.1774 23.0144 90.9863 22.995 90.797C22.9664 90.2665 22.8127 89.7503 22.5467 89.2905C22.2806 88.8307 21.9096 88.4402 21.464 88.151C21.3077 88.0374 21.1239 87.9675 20.9315 87.9487C20.7392 87.9299 20.5454 87.9628 20.37 88.044L20.534 87.944Z" fill="#353433"/>
</g>
<path d="M21.626 90.7L22.026 89.626L22.415 89.4L22.015 90.474C21.9645 90.6291 21.8602 90.761 21.721 90.846L21.333 91.072C21.4716 90.9865 21.5754 90.8547 21.626 90.7Z" fill="#E4E4E4"/>
<path d="M18.879 87.811L19.27 89.339C19.4399 90.0163 19.8596 90.6044 20.445 90.985C20.976 91.292 21.452 91.178 21.626 90.7L22.026 89.626L18.879 87.811Z" fill="#B1B1B1"/>
<path d="M18.556 87.736L18.557 88.16L22.003 90.163L22.002 89.738L18.556 87.736Z" fill="#B1B1B1"/>
<path d="M22.002 89.738L22.003 90.163L24.473 88.737L24.4709 88.312L22.002 89.738Z" fill="#E4E4E4"/>
<path d="M5.183 79.0369L5.58299 77.9629L5.97099 77.7379L5.571 78.8109C5.52145 78.9654 5.41774 79.0968 5.27899 79.1809L4.89099 79.4069C5.0288 79.3218 5.13219 79.1907 5.183 79.0369Z" fill="#E4E4E4"/>
<path d="M2.43597 76.1479L2.82597 77.6769C2.99749 78.3535 3.41732 78.9407 4.00198 79.3219C4.53298 79.6279 5.00898 79.5219 5.18298 79.0399L5.58298 77.9659L2.43597 76.1479Z" fill="#B1B1B1"/>
<path d="M2.061 77.471L2.225 77.371C2.47325 77.2314 2.7543 77.1605 3.03908 77.1658C3.32387 77.1711 3.60208 77.2523 3.84499 77.401C5.07699 78.121 5.817 80.225 4.402 81.11L4.238 81.21C3.90198 81.4037 3.5057 81.4647 3.12701 81.381C1.67501 81.058 0.416996 78.501 2.061 77.471Z" fill="#353433"/>
<path d="M2.493 80.914C2.19022 80.7172 1.93837 80.4515 1.75812 80.1386C1.57786 79.8257 1.47433 79.4746 1.45599 79.114C1.45599 78.46 1.92499 78.193 2.49899 78.525C2.8004 78.7208 3.05137 78.9849 3.23155 79.296C3.41173 79.607 3.51604 79.9561 3.536 80.315C3.534 80.979 3.066 81.246 2.493 80.914ZM2.493 80.914C2.19022 80.7172 1.93837 80.4515 1.75812 80.1386C1.57786 79.8257 1.47433 79.4746 1.45599 79.114C1.45599 78.46 1.92499 78.193 2.49899 78.525C2.8004 78.7208 3.05137 78.9849 3.23155 79.296C3.41173 79.607 3.51604 79.9561 3.536 80.315C3.534 80.979 3.066 81.246 2.493 80.914Z" fill="#282726"/>
<g style="mix-blend-mode:screen" opacity="0.2">
<path d="M2.22797 77.375C2.40337 77.294 2.5972 77.2613 2.78949 77.2801C2.98178 77.2989 3.16557 77.3686 3.32196 77.482C3.76773 77.7713 4.13879 78.1619 4.40486 78.622C4.67093 79.082 4.82448 79.5984 4.85297 80.129C4.87226 80.3182 4.84094 80.5091 4.76222 80.6821C4.6835 80.8552 4.56022 81.0043 4.40497 81.114L4.24097 81.214C4.39606 81.1041 4.51923 80.9551 4.59793 80.782C4.67663 80.609 4.70805 80.4182 4.68896 80.229C4.66032 79.6984 4.5067 79.1821 4.24065 78.7221C3.97459 78.2621 3.60362 77.8715 3.15796 77.582C3.00175 77.4682 2.81792 77.3982 2.62555 77.3794C2.43318 77.3606 2.23927 77.3936 2.06396 77.475L2.22797 77.375Z" fill="#353433"/>
</g>
<path d="M3.32001 80.1309L3.72 79.0569L4.108 78.8309L3.70801 79.9049C3.6575 80.06 3.55322 80.192 3.414 80.2769L3.026 80.5029C3.16493 80.4176 3.2691 80.2858 3.32001 80.1309Z" fill="#E4E4E4"/>
<path d="M0.572998 77.2419L0.962997 78.7699C1.13365 79.4472 1.55364 80.035 2.13899 80.4159C2.66999 80.7229 3.14599 80.609 3.31999 80.131L3.71999 79.0569L0.572998 77.2419Z" fill="#B1B1B1"/>
<path d="M0.25 77.167L0.250992 77.591L3.69699 79.594L3.696 79.169L0.25 77.167Z" fill="#B1B1B1"/>
<path d="M3.69598 79.169L3.69698 79.594L6.16698 78.168L6.16498 77.744L3.69598 79.169Z" fill="#E4E4E4"/>
<path d="M66.809 64.595L67.209 63.521L67.597 63.296L67.197 64.369C67.1475 64.5232 67.0442 64.6545 66.906 64.739L66.517 64.965C66.6554 64.8804 66.7589 64.7492 66.809 64.595Z" fill="#E4E4E4"/>
<path d="M64.061 61.7061L64.451 63.235C64.6224 63.9106 65.0419 64.4968 65.626 64.877C66.157 65.183 66.633 65.077 66.807 64.595L67.207 63.5211L64.061 61.7061Z" fill="#B1B1B1"/>
<path d="M63.69 63.0291L63.855 62.9291C64.1029 62.789 64.3838 62.7179 64.6686 62.7232C64.9533 62.7284 65.2314 62.8099 65.474 62.9591C66.706 63.6791 67.446 65.7831 66.032 66.6681L65.867 66.7681C65.5315 66.9622 65.1353 67.0232 64.757 66.9391C63.301 66.6161 62.043 64.0591 63.69 63.0291Z" fill="#353433"/>
<path d="M64.119 66.4721C63.8161 66.2755 63.5641 66.0098 63.3838 65.6969C63.2035 65.384 63.1001 65.0328 63.082 64.6721C63.082 64.0181 63.552 63.7511 64.126 64.0831C64.4275 64.2788 64.6784 64.5429 64.8585 64.854C65.0385 65.165 65.1425 65.5142 65.162 65.8731C65.161 66.5381 64.693 66.8041 64.119 66.4721ZM64.119 66.4721C63.8161 66.2755 63.5641 66.0098 63.3838 65.6969C63.2035 65.384 63.1001 65.0328 63.082 64.6721C63.082 64.0181 63.552 63.7511 64.126 64.0831C64.4275 64.2788 64.6784 64.5429 64.8585 64.854C65.0385 65.165 65.1425 65.5142 65.162 65.8731C65.161 66.5381 64.693 66.8041 64.119 66.4721Z" fill="#282726"/>
<g style="mix-blend-mode:screen" opacity="0.2">
<path d="M63.855 62.933C64.0304 62.8521 64.2243 62.8194 64.4167 62.8384C64.609 62.8574 64.7928 62.9273 64.949 63.041C65.3945 63.3303 65.7654 63.7208 66.0315 64.1806C66.2975 64.6404 66.4512 65.1566 66.48 65.687C66.4988 65.8761 66.4672 66.0668 66.3885 66.2398C66.3099 66.4128 66.1868 66.5619 66.032 66.672L65.867 66.772C66.0221 66.6621 66.1453 66.513 66.224 66.34C66.3027 66.167 66.3341 65.9762 66.315 65.787C66.2865 65.2564 66.133 64.74 65.8669 64.2799C65.6008 63.8199 65.2298 63.4293 64.784 63.14C64.6277 63.0264 64.4439 62.9565 64.2516 62.9377C64.0592 62.9189 63.8654 62.9518 63.69 63.033L63.855 62.933Z" fill="#353433"/>
</g>
<path d="M64.946 65.689L65.346 64.615L65.734 64.389L65.334 65.463C65.2838 65.618 65.1799 65.7499 65.041 65.835L64.652 66.061C64.7912 65.9761 64.8955 65.8441 64.946 65.689Z" fill="#E4E4E4"/>
<path d="M62.2 62.8L62.59 64.328C62.7601 65.0055 63.1797 65.5938 63.765 65.9751C64.296 66.2811 64.772 66.1671 64.946 65.6891L65.3459 64.6151L62.2 62.8Z" fill="#B1B1B1"/>
<path d="M61.876 62.725L61.877 63.149L65.323 65.152L65.322 64.727L61.876 62.725Z" fill="#B1B1B1"/>
<path d="M65.322 64.727L65.323 65.152L67.793 63.726L67.792 63.302L65.322 64.727Z" fill="#E4E4E4"/>
<path d="M48.503 54.0219L48.903 52.9479L49.292 52.7219L48.892 53.7959C48.8425 53.9504 48.7388 54.0818 48.6 54.1659L48.212 54.3919C48.35 54.3072 48.4532 54.176 48.503 54.0219Z" fill="#E4E4E4"/>
<path d="M45.761 51.137L46.152 52.666C46.3232 53.3413 46.7428 53.9273 47.327 54.307C47.858 54.614 48.334 54.507 48.508 54.026L48.908 52.952L45.761 51.137Z" fill="#B1B1B1"/>
<path d="M45.384 52.46L45.549 52.36C45.7969 52.2199 46.0779 52.1488 46.3626 52.1541C46.6473 52.1594 46.9254 52.2408 47.168 52.39C48.4 53.11 49.14 55.214 47.726 56.099L47.561 56.199C47.225 56.3926 46.8287 56.4536 46.45 56.37C44.995 56.047 43.737 53.49 45.384 52.46Z" fill="#353433"/>
<path d="M45.813 55.904C45.5103 55.7071 45.2586 55.4414 45.0783 55.1285C44.8981 54.8156 44.7945 54.4646 44.776 54.104C44.776 53.45 45.245 53.183 45.82 53.515C46.1214 53.7107 46.3724 53.9748 46.5524 54.2859C46.7325 54.5969 46.8365 54.9461 46.856 55.305C46.854 55.968 46.387 56.235 45.813 55.904ZM45.813 55.904C45.5103 55.7071 45.2586 55.4414 45.0783 55.1285C44.8981 54.8156 44.7945 54.4646 44.776 54.104C44.776 53.45 45.245 53.183 45.82 53.515C46.1214 53.7107 46.3724 53.9748 46.5524 54.2859C46.7325 54.5969 46.8365 54.9461 46.856 55.305C46.854 55.968 46.387 56.235 45.813 55.904Z" fill="#282726"/>
<g style="mix-blend-mode:screen" opacity="0.2">
<path d="M45.549 52.3641C45.7245 52.2831 45.9184 52.2504 46.1107 52.2694C46.303 52.2884 46.4868 52.3583 46.643 52.4721C47.0886 52.7614 47.4594 53.1518 47.7255 53.6117C47.9915 54.0715 48.1452 54.5876 48.174 55.1181C48.1928 55.3072 48.1613 55.4979 48.0826 55.6708C48.0039 55.8438 47.8809 55.9929 47.726 56.1031L47.561 56.2031C47.7164 56.0931 47.8397 55.9439 47.9184 55.7707C47.9971 55.5974 48.0284 55.4064 48.009 55.2171C47.9804 54.6866 47.8268 54.1704 47.5607 53.7105C47.2946 53.2507 46.9237 52.8603 46.478 52.571C46.3217 52.4574 46.1379 52.3876 45.9456 52.3688C45.7533 52.35 45.5594 52.3828 45.384 52.4641L45.549 52.3641Z" fill="#353433"/>
</g>
<path d="M46.64 55.122L47.04 54.048L47.429 53.822L47.029 54.896C46.9788 55.051 46.8749 55.1829 46.736 55.268L46.347 55.494C46.4858 55.4089 46.5897 55.277 46.64 55.122Z" fill="#E4E4E4"/>
<path d="M43.893 52.231L44.284 53.759C44.4539 54.4363 44.8736 55.0243 45.459 55.405C45.99 55.712 46.466 55.598 46.64 55.12L47.04 54.046L43.893 52.231Z" fill="#B1B1B1"/>
<path d="M43.57 52.156L43.571 52.58L47.017 54.583L47.016 54.158L43.57 52.156Z" fill="#B1B1B1"/>
<path d="M47.016 54.158L47.017 54.583L49.487 53.157L49.486 52.733L47.016 54.158Z" fill="#E4E4E4"/>
<path d="M53.13 55.137L53.1219 57.75L43.376 52.124L43.384 49.511L53.13 55.137Z" fill="#B1B1B1"/>
<path d="M65.724 62.409L65.716 65.022L55.976 59.398L55.983 56.785L65.724 62.409Z" fill="#B1B1B1"/>
<path d="M67.983 61.0959L67.976 63.7089L65.716 65.0219L65.724 62.409L67.983 61.0959Z" fill="#E4E4E4"/>
<path d="M55.983 56.785L55.976 59.398L14.858 83.198L14.865 80.585L55.983 56.785Z" fill="#E4E4E4"/>
<path d="M22.347 87.522L22.34 90.135L0 77.237L0.00698853 74.624L22.347 87.522Z" fill="#B1B1B1"/>
<path d="M24.606 86.209L24.599 88.822L22.34 90.135L22.347 87.522L24.606 86.209Z" fill="#E4E4E4"/>
<path d="M67.983 61.096L65.724 62.409L55.983 56.785L14.865 80.585L24.606 86.209L22.347 87.522L0.00695801 74.624L2.26596 73.311L12.012 78.938L53.13 55.137L43.384 49.511L45.643 48.198L67.983 61.096Z" fill="url(#paint0_linear_368_1610)"/>
<path d="M58.258 11.931L58.252 55.476L55.985 56.794L55.991 13.248L58.258 11.931Z" fill="#E4E4E4"/>
<path d="M55.991 13.248L55.985 56.794L53.158 55.162L53.164 11.616L55.991 13.248Z" fill="#B1B1B1"/>
<path d="M58.258 11.931L55.991 13.248L53.164 11.616L55.431 10.298L58.258 11.931Z" fill="url(#paint1_linear_368_1610)"/>
<path d="M66.331 38.4431L66.328 39.5591L41.742 25.3641L41.745 24.248L66.331 38.4431Z" fill="#B1B1B1"/>
<path d="M41.745 24.248L41.742 25.3641L2.59399 48.1091L2.59698 46.9931L41.745 24.248Z" fill="#E4E4E4"/>
<path opacity="0.4" d="M41.753 24.6071L1.94897 47.733L27.664 62.58L67.468 39.4541L41.753 24.6071Z" fill="#00407E"/>
<path d="M27.195 62.31L27.192 63.426L0.656982 48.105L0.659973 46.99L27.195 62.31Z" fill="#B1B1B1"/>
<path d="M68.268 38.446L68.265 39.5621L27.192 63.4261L27.195 62.3101L68.268 38.446Z" fill="#E4E4E4"/>
<path d="M41.733 23.1221L68.268 38.4421L27.195 62.3061L0.661011 46.9901L41.733 23.1221ZM27.183 61.1841L66.331 38.4391L41.745 24.2391L2.597 46.9841L27.183 61.1841Z" fill="url(#paint2_linear_368_1610)"/>
<path d="M66.331 20.3171L66.328 21.4321L41.742 7.23807L41.745 6.12207L66.331 20.3171Z" fill="#B1B1B1"/>
<path d="M41.745 6.12207L41.742 7.23807L2.59399 29.9831L2.59698 28.8671L41.745 6.12207Z" fill="#E4E4E4"/>
<path opacity="0.4" d="M41.753 6.48096L1.94897 29.607L27.664 44.454L67.468 21.328L41.753 6.48096Z" fill="#00407E"/>
<path d="M27.195 44.184L27.192 45.3L0.656982 29.979L0.659973 28.864L27.195 44.184Z" fill="#B1B1B1"/>
<path d="M68.268 20.3201L68.265 21.4361L27.192 45.3001L27.195 44.1841L68.268 20.3201Z" fill="#E4E4E4"/>
<path d="M41.733 5L68.268 20.322L27.195 44.186L0.661011 28.864L41.733 5ZM27.183 43.062L66.331 20.322L41.745 6.12201L2.597 28.867L27.183 43.067V43.062Z" fill="url(#paint3_linear_368_1610)"/>
<path d="M14.826 37.006L14.82 80.552L12.553 81.87L12.558 38.324L14.826 37.006Z" fill="#E4E4E4"/>
<path d="M12.558 38.324L12.553 81.87L9.72601 80.238L9.73201 36.692L12.558 38.324Z" fill="#B1B1B1"/>
<path d="M14.826 37.006L12.558 38.324L9.73199 36.692L11.999 35.374L14.826 37.006Z" fill="url(#paint4_linear_368_1610)"/>
<path d="M57.183 20.945C57.1912 20.8584 57.1714 20.7715 57.1266 20.697C57.0818 20.6225 57.0143 20.5643 56.934 20.531L56.234 20.131L13.361 27.282L12.661 27.687C12.5807 27.72 12.5132 27.778 12.4683 27.8524C12.4235 27.9267 12.4038 28.0135 12.412 28.1C12.4075 28.0826 12.4045 28.0649 12.403 28.047C12.403 28.047 12.673 29.266 15.254 30.756L27.873 38.099C28.0437 38.1888 28.2332 38.2371 28.426 38.24H28.773C28.9658 38.2371 29.1553 38.1888 29.326 38.099L55.37 23.005C57.17 21.965 57.189 20.892 57.189 20.892C57.1885 20.9098 57.1864 20.9275 57.183 20.945Z" fill="#B1B1B1"/>
<path d="M57.375 20.551C57.368 20.6309 57.3397 20.7074 57.2931 20.7727C57.2465 20.8379 57.1833 20.8895 57.11 20.922L29.21 37.087C29.0132 37.1873 28.7954 37.2396 28.5745 37.2396C28.3536 37.2396 28.1358 37.1873 27.939 37.087L12.298 27.997C12.2261 27.9648 12.164 27.914 12.1181 27.8498C12.0723 27.7857 12.0443 27.7105 12.037 27.632V27.957C12.0442 28.0354 12.072 28.1105 12.1177 28.1746C12.1634 28.2388 12.2252 28.2896 12.297 28.322L27.939 37.412C28.1357 37.5121 28.3533 37.5643 28.574 37.5643C28.7947 37.5643 29.0123 37.5121 29.209 37.412L57.109 21.247C57.1822 21.2147 57.2455 21.1634 57.2921 21.0983C57.3387 21.0332 57.367 20.9568 57.374 20.877L57.375 20.551Z" fill="url(#paint5_linear_368_1610)"/>
<path d="M12.306 27.261C12.2293 27.2873 12.1627 27.3369 12.1156 27.4029C12.0684 27.4689 12.0431 27.5479 12.0431 27.629C12.0431 27.7101 12.0684 27.7892 12.1156 27.8552C12.1627 27.9211 12.2293 27.9707 12.306 27.997L27.947 37.087C28.1438 37.1873 28.3616 37.2396 28.5825 37.2396C28.8034 37.2396 29.0212 37.1873 29.218 37.087L57.118 20.922C57.1947 20.8957 57.2613 20.8461 57.3085 20.7802C57.3556 20.7142 57.3809 20.6351 57.3809 20.554C57.3809 20.4729 57.3556 20.3939 57.3085 20.3279C57.2613 20.2619 57.1947 20.2123 57.118 20.186L41.476 11.096C41.2793 10.9959 41.0617 10.9437 40.841 10.9437C40.6203 10.9437 40.4027 10.9959 40.206 11.096L12.306 27.261Z" fill="url(#paint6_linear_368_1610)"/>
<path d="M28.578 36.84C28.7294 36.8433 28.8792 36.8089 29.014 36.74L56.914 20.575C56.914 20.53 41.275 11.44 41.275 11.44C41.1392 11.3752 40.9905 11.3416 40.84 11.3416C40.6895 11.3416 40.5409 11.3752 40.405 11.44L12.505 27.605C12.505 27.65 28.143 36.739 28.143 36.739C28.277 36.8093 28.4268 36.844 28.578 36.84Z" fill="url(#paint7_linear_368_1610)"/>
<path d="M12.506 27.607L40.406 11.442C40.5418 11.3771 40.6905 11.3435 40.841 11.3435C40.9915 11.3435 41.1401 11.3771 41.276 11.442L56.918 20.532C56.7683 20.6533 56.6076 20.7605 56.438 20.852L41.276 12.041C41.1401 11.9761 40.9915 11.9425 40.841 11.9425C40.6905 11.9425 40.5418 11.9761 40.406 12.041L12.986 27.931L12.506 27.652C12.479 27.622 12.491 27.615 12.506 27.607Z" fill="#E4E4E4"/>
<path d="M56.914 20.5311L41.272 11.4411C41.138 11.3719 40.9888 11.3375 40.838 11.3411V11.9411C40.9888 11.9375 41.138 11.9719 41.272 12.0411L56.434 20.8521L56.911 20.5771C56.938 20.5461 56.927 20.5391 56.914 20.5311Z" fill="#B1B1B1"/>
<path opacity="0.4" d="M45.769 24.2051C45.769 24.1911 44.015 23.1801 44.015 23.1801C43.915 23.0451 43.815 22.9171 43.71 22.7881C42.6031 21.5344 41.2927 20.4762 39.834 19.6581C38.7164 19.0094 37.5309 18.4853 36.299 18.0951L35.96 17.9871L35.91 18.0461V18.6701L36.239 18.7791C37.3855 19.1528 38.4893 19.6465 39.532 20.2521C40.8744 21.01 42.0918 21.9707 43.141 23.1001L43.073 23.0831C41.1247 22.5658 39.2497 21.8037 37.493 20.8151C36.5593 20.3002 35.6998 19.661 34.938 18.9151L34.745 18.7221L34.645 18.7541V19.3791L34.833 19.5791C35.6353 20.3843 36.5482 21.0711 37.544 21.6191C39.251 22.5829 41.0695 23.3341 42.959 23.8561C43.181 23.9151 43.404 23.9731 43.636 24.0321L45.388 25.0431C45.5355 25.0175 45.6702 24.9436 45.771 24.8331V24.2081L45.769 24.2051Z" fill="#B1B1B1"/>
<path d="M43.468 22.3219C42.3565 21.0227 41.0236 19.9308 39.531 19.0969C38.4887 18.4912 37.3852 17.9974 36.239 17.6239L35.91 17.5149V18.1399L36.239 18.2489C37.3853 18.6227 38.489 19.116 39.532 19.7209C41.0239 20.5558 42.3565 21.6479 43.468 22.9469C43.575 23.0789 43.759 23.3399 43.768 23.3529V22.7289C43.761 22.7129 43.575 22.4519 43.468 22.3219Z" fill="#B1B1B1"/>
<path d="M42.961 22.691C41.0715 22.169 39.253 21.4178 37.546 20.454C36.55 19.9063 35.6371 19.2194 34.835 18.414L34.647 18.214V18.839L34.835 19.039C35.6373 19.8442 36.5501 20.5311 37.546 21.079C39.253 22.0428 41.0715 22.794 42.961 23.316C43.183 23.375 43.406 23.433 43.638 23.492V22.867C43.405 22.808 43.183 22.75 42.961 22.691Z" fill="#B1B1B1"/>
<path d="M43.638 22.8669L43.636 23.4919L45.388 24.5029L45.39 23.8779L43.638 22.8669Z" fill="#B1B1B1"/>
<path d="M45.39 23.878V24.503C45.5375 24.4774 45.6722 24.4035 45.773 24.293V23.668C45.773 23.722 45.442 23.909 45.39 23.878Z" fill="#B1B1B1"/>
<path d="M44.015 22.648C43.915 22.513 43.815 22.384 43.71 22.256C42.6033 21.002 41.2929 19.9438 39.834 19.126C38.7164 18.4773 37.5309 17.9532 36.299 17.563L35.96 17.455L35.91 17.513L36.239 17.622C37.3852 17.9955 38.4887 18.4892 39.531 19.095C41.0238 19.9295 42.3567 21.0221 43.468 22.322C43.575 22.454 43.759 22.715 43.768 22.729C43.536 22.676 43.298 22.615 43.068 22.553C41.1197 22.0357 39.2448 21.2736 37.488 20.285C36.5544 19.7701 35.6948 19.1309 34.933 18.385L34.74 18.192L34.64 18.224L34.828 18.424C35.6301 19.2294 36.543 19.9163 37.539 20.464C39.246 21.4278 41.0645 22.179 42.954 22.701C43.176 22.76 43.398 22.818 43.631 22.877L45.383 23.888C45.439 23.921 45.816 23.701 45.76 23.669L44.015 22.648Z" fill="#B1B1B1"/>
<path opacity="0.4" d="M50.115 21.856C50.115 21.845 48.697 21.027 48.697 21.027C48.615 20.918 48.533 20.814 48.451 20.71C47.5557 19.6967 46.4962 18.8414 45.317 18.18C44.4138 17.6575 43.4561 17.2357 42.461 16.922L42.187 16.835L42.146 16.882V17.382L42.412 17.469C43.3382 17.7717 44.2301 18.1709 45.073 18.66C46.1585 19.2714 47.1428 20.0473 47.991 20.96L47.936 20.946C46.361 20.5282 44.8455 19.9119 43.426 19.112C42.6704 18.6954 41.9754 18.1776 41.36 17.573L41.2039 17.417L41.127 17.443V17.949L41.279 18.107C41.9273 18.7579 42.665 19.3131 43.47 19.756C44.85 20.5346 46.3199 21.1421 47.847 21.565L48.395 21.707L49.811 22.524C49.853 22.549 50.121 22.396 50.121 22.354V21.854L50.115 21.856Z" fill="#B1B1B1"/>
<path d="M48.255 20.332C47.3564 19.2821 46.2792 18.3995 45.073 17.725C44.23 17.2356 43.3377 16.8364 42.411 16.534L42.145 16.447V16.947L42.411 17.034C43.3372 17.3368 44.2291 17.736 45.072 18.225C46.2786 18.8993 47.3563 19.7819 48.255 20.832C48.341 20.939 48.49 21.15 48.497 21.161V20.661C48.49 20.65 48.342 20.439 48.255 20.332Z" fill="#B1B1B1"/>
<path d="M47.845 20.6321C46.3177 20.2102 44.8478 19.603 43.468 18.8241C42.6629 18.3811 41.9249 17.8258 41.276 17.1751L41.125 17.0161V17.5211L41.277 17.6801C41.9253 18.331 42.663 18.8863 43.468 19.3291C44.848 20.1078 46.3179 20.7152 47.845 21.1381C48.025 21.1851 48.205 21.2321 48.393 21.2791V20.7791C48.204 20.7271 48.025 20.6801 47.845 20.6321Z" fill="#B1B1B1"/>
<path d="M48.392 20.774L48.391 21.2791L49.807 22.097L49.809 21.5921L48.392 20.774Z" fill="#B1B1B1"/>
<path d="M49.809 21.5921V22.0921C49.9282 22.0713 50.0372 22.0115 50.119 21.9221V21.4221C50.0373 21.5116 49.9283 21.5714 49.809 21.5921Z" fill="#B1B1B1"/>
<path d="M48.697 20.597C48.615 20.488 48.533 20.384 48.451 20.28C47.556 19.2665 46.4965 18.4112 45.317 17.75C44.4137 17.2258 43.4557 16.8023 42.46 16.487L42.186 16.399L42.145 16.4471L42.411 16.5341C43.3377 16.8364 44.23 17.2356 45.073 17.7251C46.2791 18.3996 47.3564 19.2822 48.255 20.332C48.342 20.439 48.49 20.6501 48.498 20.6611C48.31 20.6181 48.118 20.5691 47.934 20.5191C46.359 20.1013 44.8435 19.485 43.424 18.6851C42.6685 18.2685 41.9734 17.7507 41.358 17.1461L41.202 16.9901L41.125 17.0161L41.276 17.175C41.9249 17.8258 42.6629 18.381 43.468 18.8241C44.8478 19.6029 46.3177 20.2101 47.845 20.632C48.025 20.68 48.204 20.727 48.392 20.774L49.809 21.5921C49.854 21.6181 50.159 21.4411 50.114 21.4151L48.697 20.597Z" fill="#B1B1B1"/>
<path opacity="0.4" d="M41.699 27.122C41.7036 27.1097 41.7058 27.0965 41.7053 27.0833C41.7049 27.0702 41.7018 27.0572 41.6963 27.0452C41.6908 27.0332 41.683 27.0224 41.6734 27.0135C41.6637 27.0045 41.6524 26.9976 41.64 26.993L30.82 20.745V20.939L31.293 21.699L32.965 22.669V22.725C32.9669 22.7464 32.9745 22.767 32.987 22.7846C32.9995 22.8021 33.0164 22.8161 33.036 22.825L41.119 27.492C41.171 27.5181 41.2283 27.5317 41.2865 27.5317C41.3447 27.5317 41.402 27.5181 41.454 27.492L41.642 27.382C41.6613 27.3731 41.6778 27.3591 41.6896 27.3415C41.7014 27.3238 41.7081 27.3032 41.709 27.282V27.088C41.7077 27.0998 41.7043 27.1113 41.699 27.122ZM32.98 22.576C32.9942 22.5975 33.013 22.6156 33.035 22.629C33.0128 22.6176 32.9939 22.6007 32.98 22.58V22.576Z" fill="#B1B1B1"/>
<path opacity="0.4" d="M39.504 28.238L31.377 23.546V23.74L31.85 24.499L33.5229 25.469V25.524C33.5246 25.5454 33.532 25.566 33.5443 25.5836C33.5566 25.6012 33.5734 25.6151 33.593 25.624L38.983 28.736C39.0346 28.7626 39.0919 28.7765 39.15 28.7765C39.2081 28.7765 39.2653 28.7626 39.317 28.736L39.506 28.627C39.5253 28.6182 39.5418 28.6041 39.5536 28.5865C39.5654 28.5688 39.5721 28.5483 39.573 28.527V28.333C39.582 28.322 39.566 28.274 39.504 28.238Z" fill="#B1B1B1"/>
<path opacity="0.4" d="M35.07 28.314C34.942 28.24 34.804 28.161 34.658 28.079V28.022C34.6578 28.0404 34.6527 28.0584 34.643 28.074C34.675 28.021 34.656 27.96 34.587 27.92L25.101 22.443V22.637C25.148 23.159 25.391 23.437 26.957 24.337L27.321 24.545V24.607C27.3232 24.6286 27.3311 24.6493 27.344 24.6668C27.3568 24.6844 27.374 24.6983 27.394 24.707L36.877 30.182V29.988C36.83 29.472 36.594 29.194 35.07 28.314ZM27.338 24.464C27.3539 24.4834 27.3728 24.5003 27.394 24.514C27.3717 24.5019 27.3525 24.4848 27.338 24.464Z" fill="#B1B1B1"/>
<path opacity="0.4" d="M34.961 30.8431L22.581 23.6951V23.8891C22.635 24.4891 22.912 24.8051 24.697 25.8351C24.832 25.9131 24.977 25.9961 25.13 26.0821V26.1551C25.1328 26.1799 25.1421 26.2035 25.1571 26.2236C25.172 26.2436 25.192 26.2593 25.215 26.2691L34.215 31.4691C34.2768 31.5011 34.3454 31.5178 34.415 31.5178C34.4846 31.5178 34.5532 31.5011 34.615 31.4691L34.959 31.2691C34.9815 31.2587 35.0009 31.2427 35.0153 31.2225C35.0297 31.2023 35.0385 31.1787 35.041 31.1541V30.9601C35.05 30.9441 35.028 30.8851 34.961 30.8431ZM25.15 26.0211C25.1688 26.0415 25.1899 26.0596 25.213 26.0751C25.1866 26.0629 25.1633 26.0447 25.145 26.0221L25.15 26.0211Z" fill="#B1B1B1"/>
<path opacity="0.4" d="M32.599 32.2511L21.119 25.623V25.817C21.163 26.317 22.36 27.1391 23.995 28.0831L24.372 28.2991V28.3591C24.3729 28.3804 24.3798 28.4011 24.3918 28.4187C24.4038 28.4364 24.4205 28.4503 24.44 28.459L31.977 32.8111C32.029 32.8367 32.0861 32.8501 32.144 32.8501C32.2019 32.8501 32.2591 32.8367 32.311 32.8111L32.601 32.6421C32.6203 32.6332 32.6368 32.6192 32.6487 32.6015C32.6605 32.5839 32.6672 32.5633 32.668 32.5421V32.3481C32.676 32.3351 32.661 32.2851 32.599 32.2511ZM24.388 28.2141C24.4019 28.2328 24.4192 28.2488 24.439 28.261C24.4185 28.2497 24.401 28.2336 24.388 28.2141Z" fill="#B1B1B1"/>
<path opacity="0.4" d="M30.372 33.545L21.786 28.588V28.781C21.829 29.281 22.386 29.733 23.926 30.623L24.293 30.833V30.891C24.2943 30.9123 24.3013 30.9328 24.3132 30.9504C24.3252 30.968 24.3417 30.982 24.361 30.991L29.751 34.103C29.803 34.1287 29.8601 34.142 29.918 34.142C29.976 34.142 30.0331 34.1287 30.085 34.103L30.375 33.934C30.3943 33.9252 30.4108 33.9111 30.4226 33.8935C30.4345 33.8758 30.4412 33.8552 30.442 33.834V33.64C30.451 33.633 30.435 33.581 30.372 33.545ZM24.307 30.745C24.3209 30.7647 24.3385 30.7814 24.359 30.794C24.3379 30.7823 24.32 30.7654 24.307 30.745Z" fill="#B1B1B1"/>
<path d="M41.6411 27.013L41.4531 27.123C41.4013 27.1491 41.344 27.1627 41.286 27.1627C41.228 27.1627 41.1708 27.1491 41.119 27.123L33.0351 22.456C33.0124 22.4435 32.9934 22.4252 32.98 22.403V22.311C32.944 22.289 31.3621 21.372 31.2931 21.332L30.8201 20.572V20.766L31.2931 21.526L32.9651 22.496V22.552C32.967 22.5735 32.9746 22.594 32.9871 22.6116C32.9995 22.6292 33.0164 22.6431 33.036 22.652L41.118 27.322C41.17 27.3481 41.2274 27.3617 41.2856 27.3617C41.3437 27.3617 41.4011 27.3481 41.4531 27.322L41.6411 27.212C41.6604 27.2032 41.6769 27.1891 41.6887 27.1715C41.7005 27.1538 41.7072 27.1332 41.708 27.112V26.922C41.7055 26.9416 41.698 26.9602 41.6863 26.9762C41.6746 26.9921 41.659 27.0047 41.6411 27.013Z" fill="#B1B1B1"/>
<path d="M39.505 28.255L39.317 28.364C39.2654 28.3906 39.2081 28.4045 39.15 28.4045C39.0919 28.4045 39.0347 28.3906 38.983 28.364L33.592 25.252C33.5687 25.239 33.5496 25.2195 33.537 25.196V25.107L31.85 24.128L31.377 23.369V23.563L31.85 24.323C31.917 24.361 33.38 25.209 33.523 25.293V25.347C33.5247 25.3684 33.5321 25.389 33.5444 25.4066C33.5567 25.4242 33.5735 25.4381 33.593 25.447L38.983 28.559C39.0347 28.5856 39.0919 28.5995 39.15 28.5995C39.2081 28.5995 39.2654 28.5856 39.317 28.559L39.506 28.45C39.5253 28.4412 39.5418 28.4271 39.5536 28.4095C39.5655 28.3918 39.5722 28.3713 39.573 28.35V28.156C39.5717 28.1771 39.5647 28.1975 39.5527 28.2149C39.5407 28.2324 39.5243 28.2462 39.505 28.255Z" fill="#B1B1B1"/>
<path d="M27.338 24.287V24.187C27.203 24.111 27.076 24.038 26.957 23.969C25.391 23.069 25.147 22.788 25.101 22.269V22.463C25.148 22.985 25.391 23.263 26.957 24.163L27.321 24.371V24.433C27.3233 24.4547 27.3312 24.4753 27.344 24.4929C27.3568 24.5105 27.3741 24.5243 27.394 24.533L36.877 30.008V29.814L27.394 24.339C27.3715 24.3264 27.3523 24.3085 27.338 24.287Z" fill="#B1B1B1"/>
<path d="M34.6431 27.8931V28.0871C34.6528 28.0714 34.6579 28.0534 34.6581 28.0351V27.8411C34.6579 27.8594 34.6528 27.8774 34.6431 27.8931Z" fill="#B1B1B1"/>
<path d="M34.961 30.8981L34.617 31.0981C34.5552 31.1302 34.4866 31.147 34.417 31.147C34.3474 31.147 34.2787 31.1302 34.217 31.0981L25.211 25.8981C25.1863 25.8849 25.1647 25.8665 25.148 25.8441V25.7221L24.694 25.4631C22.909 24.4321 22.632 24.1161 22.579 23.5171V23.7111C22.633 24.3111 22.91 24.6271 24.695 25.6571C24.83 25.7351 24.975 25.8181 25.128 25.9041V25.9771C25.1308 26.0019 25.1401 26.0255 25.1551 26.0456C25.17 26.0656 25.19 26.0813 25.213 26.0911L34.213 31.2911C34.2749 31.3226 34.3435 31.339 34.413 31.339C34.4825 31.339 34.5511 31.3226 34.613 31.2911L34.957 31.0911C34.9796 31.0809 34.9991 31.0649 35.0135 31.0447C35.028 31.0245 35.0368 31.0008 35.039 30.9761V30.7821C35.0372 30.8065 35.0291 30.8301 35.0154 30.8504C35.0017 30.8708 34.983 30.8872 34.961 30.8981Z" fill="#B1B1B1"/>
<path d="M32.6 32.2671L32.311 32.4361C32.2589 32.4617 32.2016 32.4751 32.1435 32.4751C32.0854 32.4751 32.0281 32.4617 31.976 32.4361L24.439 28.084C24.4185 28.0727 24.401 28.0566 24.388 28.037V27.9371C24.254 27.8611 24.123 27.7871 23.994 27.7121C22.359 26.7681 21.162 25.945 21.119 25.446V25.64C21.163 26.14 22.36 26.9621 23.995 27.9061L24.372 28.1221V28.1821C24.3729 28.2034 24.3798 28.2241 24.3918 28.2417C24.4038 28.2594 24.4205 28.2733 24.44 28.2821L31.977 32.634C32.029 32.6597 32.0861 32.6731 32.144 32.6731C32.2019 32.6731 32.2591 32.6597 32.311 32.634L32.601 32.4651C32.6203 32.4562 32.6368 32.4422 32.6487 32.4245C32.6605 32.4069 32.6672 32.3863 32.668 32.3651V32.1711C32.6662 32.1916 32.6589 32.2114 32.647 32.2282C32.635 32.2451 32.6188 32.2585 32.6 32.2671Z" fill="#B1B1B1"/>
<path d="M30.373 33.561L30.084 33.73C30.0319 33.7557 29.9746 33.769 29.9165 33.769C29.8584 33.769 29.8011 33.7557 29.749 33.73L24.361 30.622C24.34 30.6096 24.3222 30.5925 24.309 30.572V30.472L23.926 30.253C22.385 29.363 21.826 28.911 21.787 28.411V28.606C21.83 29.106 22.387 29.557 23.927 30.447L24.294 30.657V30.715C24.2953 30.7363 24.3022 30.7568 24.3142 30.7744C24.3262 30.792 24.3427 30.806 24.362 30.815L29.752 33.927C29.8039 33.9527 29.8611 33.966 29.919 33.966C29.9769 33.966 30.0341 33.9527 30.086 33.927L30.376 33.759C30.3951 33.7499 30.4114 33.7358 30.4232 33.7182C30.435 33.7006 30.4418 33.6802 30.443 33.659V33.465C30.441 33.4858 30.4334 33.5057 30.4211 33.5226C30.4088 33.5394 30.3922 33.5527 30.373 33.561Z" fill="#B1B1B1"/>
<path d="M41.64 26.822C41.6611 26.8277 41.6798 26.8403 41.6932 26.8577C41.7065 26.8752 41.7137 26.8965 41.7137 26.9185C41.7137 26.9404 41.7065 26.9618 41.6932 26.9792C41.6798 26.9967 41.6611 27.0092 41.64 27.015L41.452 27.125C41.4002 27.1511 41.343 27.1647 41.285 27.1647C41.227 27.1647 41.1697 27.1511 41.118 27.125L33.034 22.458C32.965 22.418 32.947 22.358 32.979 22.313C32.943 22.291 31.361 21.374 31.292 21.334L30.819 20.574L41.64 26.822Z" fill="#B1B1B1"/>
<path d="M39.504 28.061C39.5256 28.0664 39.5448 28.0789 39.5585 28.0965C39.5722 28.1141 39.5797 28.1357 39.5797 28.158C39.5797 28.1803 39.5722 28.202 39.5585 28.2195C39.5448 28.2371 39.5256 28.2496 39.504 28.255L39.3159 28.364C39.2643 28.3906 39.207 28.4045 39.149 28.4045C39.0909 28.4045 39.0336 28.3906 38.982 28.364L33.591 25.252C33.526 25.214 33.5039 25.152 33.5359 25.107L31.849 24.128L31.376 23.369L39.504 28.061Z" fill="#B1B1B1"/>
<path d="M34.587 27.739C34.656 27.779 34.675 27.839 34.643 27.893C34.795 27.979 34.9373 28.0604 35.07 28.137C36.594 29.017 36.83 29.295 36.877 29.812L27.394 24.337C27.321 24.295 27.302 24.237 27.338 24.183C27.203 24.107 27.076 24.034 26.957 23.965C25.391 23.065 25.147 22.784 25.101 22.265L34.587 27.739Z" fill="#B1B1B1"/>
<path d="M34.961 30.6661C35.07 30.7291 35.075 30.8321 34.961 30.8981L34.617 31.0981C34.5552 31.1302 34.4866 31.147 34.417 31.147C34.3474 31.147 34.2787 31.1302 34.217 31.0981L25.211 25.8981C25.127 25.8501 25.105 25.7821 25.148 25.7231L24.694 25.4641C22.909 24.4331 22.632 24.1171 22.579 23.5181L34.961 30.6661Z" fill="#B1B1B1"/>
<path d="M32.599 32.0741C32.6202 32.0798 32.6389 32.0924 32.6522 32.1098C32.6656 32.1273 32.6728 32.1486 32.6728 32.1705C32.6728 32.1925 32.6656 32.2139 32.6522 32.2313C32.6389 32.2487 32.6202 32.2613 32.599 32.2671L32.31 32.4361C32.2579 32.4617 32.2006 32.4751 32.1425 32.4751C32.0844 32.4751 32.0271 32.4617 31.975 32.4361L24.438 28.084C24.369 28.044 24.354 27.9841 24.387 27.9371C24.253 27.8611 24.122 27.7871 23.993 27.7121C22.358 26.7681 21.161 25.945 21.118 25.446L32.599 32.0741Z" fill="#B1B1B1"/>
<path d="M30.3719 33.3681C30.3931 33.3738 30.4118 33.3864 30.4252 33.4038C30.4385 33.4213 30.4457 33.4426 30.4457 33.4646C30.4457 33.4865 30.4385 33.5079 30.4252 33.5253C30.4118 33.5427 30.3931 33.5553 30.3719 33.5611L30.0829 33.7301C30.031 33.7557 29.9739 33.7691 29.916 33.7691C29.858 33.7691 29.8009 33.7557 29.749 33.7301L24.361 30.6221C24.296 30.5841 24.277 30.5221 24.31 30.4751L23.927 30.2561C22.386 29.3661 21.827 28.9141 21.788 28.4141L30.3719 33.3681Z" fill="#B1B1B1"/>
<defs>
<linearGradient id="paint0_linear_368_1610" x1="0.00695801" y1="67.86" x2="67.983" y2="67.86" gradientUnits="userSpaceOnUse">
<stop offset="0.13" stop-color="#3DA53D"/>
<stop offset="0.635" stop-color="#EEF6F8"/>
<stop offset="0.639" stop-color="#3DA53D"/>
</linearGradient>
<linearGradient id="paint1_linear_368_1610" x1="53.164" y1="11.773" x2="58.258" y2="11.773" gradientUnits="userSpaceOnUse">
<stop offset="0.13" stop-color="#E3EAEC"/>
<stop offset="0.635" stop-color="#EEF6F8"/>
<stop offset="0.639" stop-color="#E3EAEC"/>
</linearGradient>
<linearGradient id="paint2_linear_368_1610" x1="0.660011" y1="42.7181" x2="68.268" y2="42.7181" gradientUnits="userSpaceOnUse">
<stop offset="0.13" stop-color="#3DA53D"/>
<stop offset="0.635" stop-color="#EEF6F8"/>
<stop offset="0.639" stop-color="#3DA53D"/>
</linearGradient>
<linearGradient id="paint3_linear_368_1610" x1="0.660011" y1="24.592" x2="68.268" y2="24.592" gradientUnits="userSpaceOnUse">
<stop offset="0.13" stop-color="#3DA53D"/>
<stop offset="0.635" stop-color="#EEF6F8"/>
<stop offset="0.639" stop-color="#3DA53D"/>
</linearGradient>
<linearGradient id="paint4_linear_368_1610" x1="9.73199" y1="36.849" x2="14.826" y2="36.849" gradientUnits="userSpaceOnUse">
<stop offset="0.13" stop-color="#E3EAEC"/>
<stop offset="0.635" stop-color="#EEF6F8"/>
<stop offset="0.639" stop-color="#E3EAEC"/>
</linearGradient>
<linearGradient id="paint5_linear_368_1610" x1="26.456" y1="29.058" x2="33.32" y2="29.058" gradientUnits="userSpaceOnUse">
<stop offset="0.26" stop-color="#AFB5B6"/>
<stop offset="0.336" stop-color="#BEC4C4"/>
<stop offset="0.441" stop-color="#C9CFD0"/>
<stop offset="0.589" stop-color="#D0D6D6"/>
<stop offset="1" stop-color="#D2D8D8"/>
</linearGradient>
<linearGradient id="paint6_linear_368_1610" x1="12.041" y1="24.091" x2="57.375" y2="24.091" gradientUnits="userSpaceOnUse">
<stop offset="0.13" stop-color="#E3EAEC"/>
<stop offset="0.606" stop-color="#E3EAEC"/>
</linearGradient>
<linearGradient id="paint7_linear_368_1610" x1="12.506" y1="24.091" x2="56.911" y2="24.091" gradientUnits="userSpaceOnUse">
<stop offset="0.13" stop-color="#E3EAEC"/>
<stop offset="0.635" stop-color="#EEF6F8"/>
<stop offset="0.639" stop-color="#E3EAEC"/>
</linearGradient>
</defs>
</svg>
