<svg width="202" height="213" viewBox="0 0 202 213" fill="none" xmlns="http://www.w3.org/2000/svg">
<path d="M100.652 212.699C156.241 212.699 201.304 192.571 201.304 167.743C201.304 142.915 156.241 122.787 100.652 122.787C45.0633 122.787 -0.000244141 142.915 -0.000244141 167.743C-0.000244141 192.571 45.0633 212.699 100.652 212.699Z" fill="#F5F5F5"/>
<path d="M57.0851 173.812C70.387 173.812 81.1702 167.586 81.1702 159.906C81.1702 152.226 70.387 146 57.0851 146C43.7833 146 33 152.226 33 159.906C33 167.586 43.7833 173.812 57.0851 173.812Z" fill="#E0E0E0"/>
<path d="M73.2397 175.868C87.2616 175.868 98.6287 169.304 98.6287 161.207C98.6287 153.109 87.2616 146.545 73.2397 146.545C59.2178 146.545 47.8507 153.109 47.8507 161.207C47.8507 169.304 59.2178 175.868 73.2397 175.868Z" fill="#E0E0E0"/>
<path d="M116.743 177.46C132.29 177.46 144.893 170.183 144.893 161.207C144.893 152.23 132.29 144.954 116.743 144.954C101.197 144.954 88.5936 152.23 88.5936 161.207C88.5936 170.183 101.197 177.46 116.743 177.46Z" fill="#E0E0E0"/>
<path d="M115.15 196.506C130.696 196.506 143.299 189.229 143.299 180.253C143.299 171.277 130.696 164 115.15 164C99.603 164 87 171.277 87 180.253C87 189.229 99.603 196.506 115.15 196.506Z" fill="#E0E0E0"/>
<path d="M17.66 159.305C17.66 159.305 18.195 153.29 16.2077 148.11C14.2205 142.931 10.799 139.298 7.1348 138.219C3.47055 137.14 -0.27013 139.977 3.24575 143.165C6.76163 146.352 13.3663 150.255 14.8275 159.8L17.66 159.305Z" fill="#00AF17"/>
<path opacity="0.15" d="M17.66 159.305C17.66 159.305 18.195 153.29 16.2077 148.11C14.2205 142.931 10.799 139.298 7.1348 138.219C3.47055 137.14 -0.27013 139.977 3.24575 143.165C6.76163 146.352 13.3663 150.255 14.8275 159.8L17.66 159.305Z" fill="black"/>
<path d="M16.8732 157.552H16.9181C16.9445 157.547 16.9696 157.537 16.9921 157.522C17.0145 157.508 17.0338 157.489 17.0489 157.466C17.064 157.444 17.0745 157.419 17.0798 157.393C17.0851 157.367 17.0852 157.34 17.08 157.313C15.1242 146.761 8.44316 141.146 5.18355 139.653C5.15936 139.642 5.13317 139.635 5.10648 139.634C5.0798 139.633 5.05315 139.637 5.02807 139.646C5.00299 139.656 4.97998 139.67 4.96036 139.688C4.94075 139.706 4.92492 139.728 4.91379 139.752C4.8919 139.802 4.88996 139.858 4.90838 139.909C4.92679 139.96 4.96415 140.002 5.0127 140.026C8.20937 141.488 14.7556 147 16.6799 157.385C16.6896 157.43 16.7137 157.471 16.7486 157.501C16.7835 157.531 16.8272 157.549 16.8732 157.552Z" fill="white"/>
<path d="M17.9791 169.093C17.9791 168.792 17.9791 168.491 17.9791 168.194C17.988 167.348 18.1043 166.506 18.3253 165.69C18.5546 164.889 19.0986 164.255 19.292 163.442C19.3611 162.996 19.3415 162.541 19.2342 162.102C19.127 161.664 18.9342 161.251 18.667 160.888C18.1725 160.187 17.4441 159.625 17.1744 158.806C16.8372 157.781 17.4756 156.747 17.1744 155.803C16.8731 154.859 15.8525 154.27 14.9938 154.036C13.8473 153.726 12.6289 153.807 11.4734 153.537C9.97624 153.186 8.68589 152.274 7.32809 151.554C5.9703 150.835 4.3877 150.277 2.91301 150.713C2.43456 150.856 1.9913 151.097 1.6119 151.421C1.23251 151.745 0.925439 152.146 0.710568 152.596C0.495697 153.047 0.377812 153.537 0.364542 154.036C0.351272 154.535 0.442913 155.031 0.633534 155.493C0.961743 156.288 1.5687 156.936 2.01381 157.678C2.25424 158.023 2.41076 158.419 2.47087 158.835C2.53097 159.251 2.49301 159.675 2.36 160.074C2.10822 160.677 1.66312 161.131 1.4608 161.751C0.93027 163.347 1.22701 164.781 2.8096 165.6C3.98756 166.207 5.34085 166.049 6.52331 166.566C7.37755 166.953 8.09691 167.744 8.02947 168.724C7.998 169.228 7.85413 169.723 7.80467 170.226C7.48995 173.526 9.67051 175.621 12.485 176.035C13.9583 176.198 15.4489 175.982 16.8147 175.405C18.2354 174.713 17.9477 173.607 17.9926 172.204C18.0646 171.175 17.9926 170.141 17.9791 169.093Z" fill="#00AF17"/>
<path d="M5.80832 162.048C5.84614 162.061 5.8874 162.061 5.92522 162.048C7.32463 161.507 8.82631 161.283 10.3226 161.391C11.8189 161.499 13.2728 161.937 14.58 162.673C14.6248 162.697 14.6773 162.702 14.7261 162.688C14.7749 162.674 14.8161 162.641 14.8408 162.596C14.8649 162.552 14.8704 162.499 14.8561 162.45C14.8418 162.401 14.8089 162.36 14.7644 162.336C13.4053 161.573 11.8941 161.12 10.3394 161.011C8.78472 160.901 7.22503 161.137 5.77235 161.702C5.72668 161.724 5.69164 161.763 5.67481 161.811C5.65798 161.859 5.66072 161.912 5.68243 161.958C5.69565 161.981 5.71375 162.001 5.73549 162.017C5.75722 162.032 5.78207 162.043 5.80832 162.048Z" fill="white"/>
<path d="M18.2489 172.245C18.2023 172.245 18.1573 172.227 18.1231 172.196C18.0889 172.164 18.068 172.121 18.0646 172.074C17.7319 164.022 9.65256 155.511 4.23487 153.191C4.21019 153.184 4.18725 153.172 4.16759 153.156C4.14793 153.139 4.13201 153.119 4.12088 153.096C4.10975 153.073 4.10368 153.047 4.10306 153.022C4.10245 152.996 4.10731 152.971 4.11732 152.947C4.12733 152.924 4.14226 152.902 4.1611 152.885C4.17995 152.868 4.20229 152.855 4.22661 152.847C4.25093 152.839 4.27669 152.836 4.30215 152.839C4.32761 152.841 4.35219 152.85 4.37424 152.863C9.87736 155.223 18.0871 163.873 18.4243 172.061C18.4244 172.108 18.4064 172.154 18.3738 172.19C18.3413 172.225 18.2966 172.246 18.2489 172.249V172.245Z" fill="white"/>
<path d="M182.673 155.65C182.673 155.65 181.009 149.845 181.98 144.41C182.951 138.974 185.617 134.712 189.025 132.967C192.433 131.223 196.628 133.296 193.782 137.095C190.936 140.894 185.177 145.947 185.546 155.582L182.673 155.65Z" fill="#00AF17"/>
<path opacity="0.15" d="M182.673 155.65C182.673 155.65 181.009 149.845 181.98 144.41C182.951 138.974 185.617 134.712 189.025 132.967C192.433 131.223 196.628 133.296 193.782 137.095C190.936 140.894 185.177 145.947 185.546 155.582L182.673 155.65Z" fill="black"/>
<path d="M183.113 153.78H183.068C183.015 153.78 182.963 153.759 182.925 153.721C182.887 153.683 182.866 153.631 182.866 153.578C182.785 142.846 188.261 136.07 191.197 133.984C191.219 133.968 191.243 133.956 191.27 133.95C191.296 133.944 191.323 133.943 191.35 133.948C191.376 133.952 191.401 133.962 191.424 133.977C191.446 133.992 191.466 134.011 191.48 134.034C191.496 134.055 191.507 134.079 191.514 134.105C191.52 134.131 191.521 134.158 191.517 134.184C191.513 134.211 191.503 134.236 191.489 134.259C191.475 134.281 191.457 134.301 191.436 134.317C188.576 136.358 183.194 143.012 183.271 153.573C183.274 153.621 183.26 153.668 183.231 153.706C183.202 153.744 183.16 153.77 183.113 153.78Z" fill="white"/>
<path d="M185.95 163.114C185.896 162.817 185.842 162.525 185.775 162.215C185.606 161.386 185.332 160.583 184.961 159.823C184.584 159.086 183.927 158.564 183.612 157.818C183.305 156.961 183.35 156.016 183.738 155.192C184.093 154.41 184.705 153.722 184.813 152.868C184.948 151.793 184.129 150.903 184.219 149.923C184.309 148.943 185.226 148.165 186.018 147.774C187.083 147.252 188.297 147.099 189.381 146.614C190.784 145.984 191.876 144.847 193.072 143.88C194.268 142.914 195.72 142.082 197.249 142.221C197.746 142.268 198.228 142.42 198.663 142.666C199.098 142.911 199.476 143.246 199.773 143.648C200.07 144.049 200.279 144.509 200.386 144.997C200.493 145.485 200.497 145.99 200.396 146.479C200.225 147.324 199.753 148.075 199.456 148.889C199.286 149.273 199.208 149.692 199.228 150.112C199.248 150.532 199.367 150.941 199.573 151.308C199.928 151.847 200.472 152.207 200.774 152.782C201.596 154.252 201.578 155.714 200.167 156.829C199.128 157.647 197.761 157.728 196.705 158.483C195.94 159.023 195.383 159.94 195.635 160.884C195.765 161.374 195.994 161.833 196.138 162.318C197.078 165.497 195.334 167.974 192.649 168.909C191.232 169.35 189.726 169.418 188.275 169.107C186.751 168.698 186.823 167.556 186.512 166.189C186.265 165.196 186.135 164.144 185.95 163.114Z" fill="#00AF17"/>
<path d="M196.57 153.91C196.532 153.922 196.491 153.922 196.453 153.91C194.976 153.644 193.458 153.707 192.009 154.095C190.559 154.484 189.213 155.189 188.068 156.159C188.048 156.174 188.025 156.186 188.001 156.193C187.977 156.201 187.951 156.203 187.926 156.2C187.901 156.198 187.876 156.19 187.854 156.178C187.831 156.166 187.812 156.149 187.796 156.129C187.764 156.089 187.749 156.038 187.754 155.987C187.76 155.936 187.785 155.889 187.825 155.857C189.017 154.849 190.417 154.117 191.925 153.714C193.433 153.312 195.012 153.248 196.547 153.528C196.585 153.542 196.617 153.566 196.64 153.599C196.663 153.632 196.676 153.671 196.676 153.71C196.676 153.75 196.663 153.789 196.64 153.822C196.617 153.854 196.585 153.879 196.547 153.893L196.57 153.91Z" fill="white"/>
<path d="M186.288 166.261C186.311 166.258 186.333 166.25 186.353 166.238C186.373 166.226 186.39 166.21 186.403 166.191C186.417 166.172 186.426 166.151 186.431 166.128C186.436 166.105 186.436 166.082 186.432 166.059C185.231 158.092 191.553 148.205 196.431 144.892C196.47 144.865 196.497 144.824 196.506 144.778C196.515 144.732 196.506 144.684 196.48 144.644C196.453 144.605 196.411 144.578 196.364 144.569C196.317 144.559 196.269 144.569 196.229 144.595C191.274 147.958 184.858 158.002 186.077 166.095C186.08 166.118 186.089 166.141 186.101 166.161C186.114 166.181 186.13 166.198 186.149 166.212C186.168 166.226 186.19 166.236 186.213 166.241C186.236 166.246 186.26 166.247 186.283 166.243L186.288 166.261Z" fill="white"/>
<path d="M53.2911 156.177C55.1958 157.093 57.2607 156.96 59.4538 155.957L60.1543 143.792L52.4258 142.945L53.2911 156.177Z" fill="#FFA8A7"/>
<path d="M68.2171 148.737C69.1969 150.536 73.6014 150.944 74.8559 148.586L75.3916 136.682L67.2923 136.856L68.2171 148.737Z" fill="#FFA8A7"/>
<path d="M67.3518 167.161C67.5624 167.348 67.5487 168.672 67.3518 169.038C67.1549 169.404 65.7676 170.672 63.2311 170.943C60.8229 171.199 58.6527 170.943 57.2013 170.1C55.7499 169.258 55.0311 168.269 54.8479 166.895C54.6648 165.522 54.7747 164.189 54.0787 163.155C53.4377 162.198 52.4351 161.131 52.2061 160.609C51.7071 159.473 52.0871 157.807 52.0871 157.807L67.3518 167.161Z" fill="#00407E"/>
<path d="M60.2962 155.39C60.352 155.909 60.4703 156.419 60.6488 156.91C61.0538 157.962 61.5858 158.962 62.2329 159.886C62.5541 160.367 62.9075 160.826 63.2905 161.259C64.0552 162.102 64.9846 162.784 65.7904 163.59C66.6409 164.348 67.2036 165.376 67.3837 166.501C67.5577 168.392 65.5249 169.107 63.9499 169.445C62.249 169.806 60.489 169.781 58.799 169.372C57.9102 169.173 57.0977 168.721 56.4593 168.072C55.821 167.422 55.3838 166.602 55.2004 165.709C55.095 165.187 55.1042 164.647 55.0264 164.121C54.7703 162.92 54.2231 161.801 53.4331 160.861C52.9749 160.316 52.5744 159.725 52.2381 159.098C51.7024 157.944 52.0549 156.612 52.3251 155.435C52.5631 154.419 52.7463 153.215 53.1034 153.297L53.1538 154.08C53.2774 154.295 53.5155 154.286 53.6116 154.538C53.6931 154.803 53.7973 155.06 53.923 155.307C54.1144 155.694 54.4195 156.014 54.7975 156.223C54.7975 155.509 54.7975 154.79 54.7975 154.075C54.7732 153.853 54.8231 153.63 54.9394 153.439C55.1011 153.281 55.3103 153.182 55.5346 153.155C56.8501 152.791 58.2132 152.629 59.5774 152.674C59.6792 152.671 59.7806 152.689 59.8751 152.727C59.9697 152.765 60.0554 152.822 60.1268 152.894C60.2096 153.032 60.2479 153.192 60.2367 153.352C60.221 154.032 60.2409 154.712 60.2962 155.39Z" fill="#00407E"/>
<path d="M62.5031 160.27C61.7797 159.766 60.2139 159.812 59.3394 159.94C58.4638 160.048 57.6292 160.373 56.9128 160.888C56.809 160.971 56.6788 161.014 56.546 161.009C56.4132 161.004 56.2866 160.951 56.1894 160.861C56.1319 160.809 56.0864 160.746 56.0559 160.675C56.0254 160.604 56.0108 160.527 56.013 160.45C56.0151 160.373 56.0341 160.297 56.0685 160.228C56.1029 160.159 56.152 160.098 56.2123 160.05C57.0045 159.426 57.9565 159.037 58.9594 158.929C61.0792 158.704 61.7065 159.048 61.7065 159.048C61.7065 159.048 62.7 159.638 62.5031 160.27Z" fill="#F5F5F5"/>
<path d="M64.1925 162.152C63.2768 161.662 61.5553 161.799 60.6945 161.923C59.8348 162.041 59.0215 162.384 58.3366 162.916C58.2315 162.997 58.1014 163.038 57.9691 163.032C57.8368 163.026 57.7108 162.974 57.6132 162.884C57.5558 162.833 57.5103 162.77 57.4799 162.7C57.4494 162.629 57.4348 162.553 57.437 162.476C57.4391 162.399 57.4581 162.324 57.4925 162.255C57.5269 162.187 57.5759 162.126 57.6361 162.079C58.4337 161.425 59.3976 161.006 60.4198 160.87C62.5397 160.645 63.112 161.062 63.112 161.062C63.3627 161.15 63.5902 161.294 63.7774 161.483C63.9645 161.672 64.1065 161.9 64.1925 162.152Z" fill="#F5F5F5"/>
<path d="M58.0208 156.923C58.91 156.737 59.8319 156.781 60.6992 157.051C61.0838 157.248 61.3494 157.834 61.1159 157.99C60.3535 157.718 59.5362 157.636 58.735 157.752C57.9363 157.855 57.1616 158.097 56.4458 158.466C56.2627 158.553 56.0521 158.672 55.8689 158.782C55.8103 158.818 55.7448 158.842 55.6766 158.852C55.6084 158.862 55.5389 158.858 55.4724 158.84C55.4059 158.822 55.3438 158.79 55.2899 158.747C55.236 158.704 55.1916 158.651 55.1592 158.59C55.102 158.486 55.0872 158.364 55.1179 158.25C55.1487 158.135 55.2226 158.037 55.3241 157.976C56.1374 157.437 57.057 157.077 58.0208 156.923Z" fill="#F5F5F5"/>
<path d="M88.3899 156.104C88.5864 156.654 88.5651 157.258 88.3304 157.793C88.1061 158.292 85.5833 159.799 82.0808 159.625C79.4976 159.5 76.9949 158.686 74.833 157.267C73.4915 156.42 72.1088 156.282 70.3827 156.223C68.6566 156.163 66.7199 155.344 66.3216 154.547C65.9233 153.75 66.3216 152.354 66.3216 152.354L88.3899 156.104Z" fill="#00407E"/>
<path d="M74.1875 145.71L75.1032 145.362C75.2604 145.279 75.4423 145.255 75.616 145.294C75.8403 145.372 75.9319 145.633 75.996 145.861C76.0852 146.374 76.2232 146.877 76.408 147.363C76.6746 147.757 77.0133 148.098 77.4061 148.366C78.2838 149.04 79.229 149.622 80.2265 150.101C81.3757 150.687 82.5157 151.136 83.6833 151.64C84.8508 152.143 86.4853 152.445 87.433 153.054C88.8066 153.97 89.0447 156.259 87.5063 157.198C86.1831 158.013 82.676 158.942 78.9537 157.972C76.9254 157.445 74.6407 155.339 71.9898 155.188C70.3049 155.096 67.4479 154.684 66.3399 153.43C65.9279 152.871 66.4223 151.063 66.8298 149.501C67.2877 147.803 67.3976 145.147 67.9607 145.285C68.0111 145.848 68.5056 146.164 68.8123 146.631C69.0559 147.058 69.2671 147.504 69.4441 147.963C69.6502 148.421 69.5861 148.856 70.0119 149.108C70.2202 149.246 70.4686 149.31 70.7176 149.29C70.9666 149.27 71.2017 149.167 71.3854 148.998C71.8707 148.476 71.5548 147.583 71.9028 146.965C72.1919 146.572 72.6048 146.288 73.0749 146.159L74.1875 145.71Z" fill="#00407E"/>
<path d="M78.6147 149.217C78.4886 148.988 78.3068 148.794 78.0859 148.653C77.8651 148.512 77.6124 148.429 77.3511 148.412C76.5819 148.288 75.2404 148.87 74.4163 149.593C74.3377 149.659 74.2768 149.744 74.2387 149.84C74.2006 149.935 74.1866 150.039 74.1979 150.141C74.2092 150.243 74.2455 150.341 74.3035 150.426C74.3616 150.511 74.4396 150.58 74.5307 150.628C74.6452 150.687 74.7752 150.71 74.903 150.692C75.0308 150.675 75.1502 150.619 75.245 150.532C76.1538 149.671 77.3631 149.199 78.6147 149.217Z" fill="#F5F5F5"/>
<path d="M81.0139 150.495C81.0139 150.289 80.5148 149.717 79.5259 149.767C79.5259 149.767 77.5251 149.868 76.3209 151.049C76.247 151.115 76.1899 151.197 76.1543 151.289C76.1188 151.381 76.1059 151.481 76.1166 151.579C76.1274 151.677 76.1615 151.771 76.2162 151.853C76.2709 151.936 76.3444 152.004 76.4308 152.052C76.5411 152.109 76.6665 152.13 76.7895 152.113C76.9125 152.096 77.0271 152.041 77.1176 151.956C77.6167 151.437 78.2258 151.036 78.9 150.783C79.5743 150.531 80.2966 150.432 81.0139 150.495Z" fill="#F5F5F5"/>
<path d="M83.6648 151.64C83.4692 151.426 83.2297 151.256 82.9626 151.143C82.6955 151.03 82.4072 150.976 82.1173 150.985C80.9823 151.079 79.9066 151.531 79.0451 152.276C78.971 152.341 78.9136 152.423 78.8776 152.514C78.8417 152.606 78.8283 152.705 78.8387 152.803C78.849 152.9 78.8827 152.994 78.937 153.076C78.9912 153.159 79.0645 153.226 79.1504 153.274C79.261 153.332 79.3869 153.355 79.5107 153.338C79.6345 153.322 79.7501 153.268 79.8418 153.183C80.314 152.645 80.9059 152.225 81.5698 151.957C82.2338 151.689 82.9513 151.58 83.6648 151.64Z" fill="#F5F5F5"/>
<path d="M49.4222 66.0496C48.0486 79.2585 51.4092 112.004 51.4092 112.004C51.1528 113.643 50.4065 115.964 50.4294 121.619C50.4615 130.249 52.444 148.728 52.444 148.728C52.444 148.728 56.2945 149.964 60.1725 148.664C60.1725 148.664 62.6265 124.97 63.6979 117.072C64.4442 111.578 64.7555 105.708 64.7555 105.708L65.2683 111.052C64.804 114.599 64.7135 118.185 64.9982 121.751C65.3278 125.698 67.5164 141.865 67.5164 141.865C70.1534 142.638 72.9466 142.711 75.6203 142.075C75.6203 142.075 77.5295 114.284 77.8592 110.676C78.23 106.555 78.372 66.7226 78.372 66.7226L49.4222 66.0496Z" fill="#00407E"/>
<path d="M64.7374 105.736L66.4635 82.3258C68.1011 82.0371 69.6629 81.4182 71.0537 80.5067C72.4446 79.5952 73.6354 78.4103 74.5537 77.0239C74.5537 77.0239 73.757 81.2361 68.0889 83.7772L65.5661 105.511L65.2502 111.07L64.7374 105.736Z" fill="#00284F"/>
<path d="M90.0472 75.7512V75.6826C90.1116 74.6241 90.047 73.5617 89.8549 72.5188C89.6809 71.7542 88.7469 71.0674 88.2204 70.5089C85.6472 67.7847 81.783 64.5568 78.8848 61.6174C76.0874 58.8017 76.4491 54.8687 76.1743 49.9514C75.6799 41.1974 75.3227 37.2049 75.3227 37.2049L74.1461 28.5928C78.7887 29.0506 80.9543 31.5047 81.3847 33.0431C82.9505 38.638 85.2398 54.8138 85.2398 54.8138C86.3203 56.43 86.5309 56.5353 88.9758 60.2851C90.2761 62.2813 91.6771 64.2043 93.0965 66.1227C93.4124 66.553 93.7466 66.9697 94.0442 67.4138C94.3418 67.8579 94.502 68.3661 94.8134 68.824C95.4299 69.814 96.2453 70.6653 97.2079 71.3238C97.9909 71.8595 98.8745 72.267 99.5384 72.9446C100.027 73.4883 100.486 74.0584 100.912 74.6524C101.379 75.1526 101.927 75.5705 102.533 75.8886C102.313 76.1929 102.009 76.4268 101.659 76.5617C101.309 76.6966 100.927 76.7268 100.559 76.6486C99.8177 76.5342 99.2225 75.7741 98.5861 75.3804C98.9432 76.525 99.1172 79.501 98.7921 80.055C98.3022 80.8883 96.718 81.8544 95.3537 82.4038C94.4478 82.745 93.4437 82.7137 92.5608 82.3168C91.407 81.8177 90.9903 80.5403 90.6607 79.3225C90.2853 78.1678 90.0786 76.965 90.0472 75.7512Z" fill="#F28F8F"/>
<path d="M74.1461 28.2725C77.0809 28.9134 78.8436 29.1882 80.8124 31.3355C82.7811 33.4828 83.477 40.9732 83.9257 44.0866C84.3744 47.1999 84.8414 50.2813 84.8414 50.2813C84.8414 50.2813 81.6823 53.4862 74.4208 51.8792L74.1461 28.2725Z" fill="#00407E"/>
<path d="M54.1929 27.8648C54.1929 27.8648 53.3413 28.753 52.0227 31.7794C50.2069 35.7614 49.2372 40.0768 49.1749 44.4527C49.1062 51.4944 49.0741 53.3167 49.0741 57.1305V70.9164C53.4695 74.3869 72.3558 76.8272 79.0312 70.1884C79.0312 70.1884 78.6375 67.1162 78.1842 57.2267C79.0999 51.6455 79.9103 45.2265 80.13 41.3302C80.5146 34.5448 79.6722 30.3418 75.7393 28.6248C74.1947 28.0736 72.6221 27.6044 71.028 27.2193C71.028 27.2193 68.5007 26.3997 63.9039 26.6057C60.6419 26.8028 57.3973 27.2235 54.1929 27.8648Z" fill="#00AF17"/>
<path d="M68.1161 3.86902C68.1161 3.86902 66.3442 2.99911 64.5815 4.66568C63.0431 6.12164 63.1576 9.72949 63.208 13.4839C63.1883 15.8483 63.4714 18.2056 64.0504 20.4981C64.2509 21.1842 64.7085 21.7665 65.3278 22.1235L66.216 17.8884L66.7563 14.9215C66.7563 14.9215 68.8029 14.7933 69.9612 10.7322C70.7258 8.04003 70.561 6.84046 70.561 6.84046L68.1161 3.86902Z" fill="#00407E"/>
<path d="M69.7599 9.27163C69.3976 10.8283 69.5051 12.4575 70.0687 13.9531C70.6323 15.4488 71.6268 16.7437 72.9264 17.6741C74.226 18.6045 75.7723 19.1287 77.3697 19.1803C78.9672 19.2319 80.5441 18.8086 81.901 17.964C83.2579 17.1193 84.3339 15.8913 84.9929 14.4352C85.6518 12.979 85.8642 11.3602 85.6031 9.78332C85.342 8.20649 84.6192 6.74249 83.526 5.57647C82.4328 4.41045 81.0185 3.59478 79.4617 3.2326C78.4282 2.99152 77.3572 2.95652 76.3101 3.12961C75.2629 3.30269 74.2602 3.68046 73.3592 4.24131C72.4581 4.80217 71.6765 5.53512 71.0589 6.39826C70.4413 7.2614 69.9999 8.2378 69.7599 9.27163Z" fill="#00407E"/>
<path d="M66.9669 14.4544C66.0055 14.3903 65.9139 13.177 65.4652 12.417C65.0165 11.6569 63.2721 10.3566 61.8299 12.1697C60.3877 13.9828 61.079 16.6475 62.2236 17.8242C62.5779 18.2104 63.0481 18.4711 63.5634 18.5669C64.0787 18.6627 64.6112 18.5884 65.0806 18.3553L63.849 27.4161C66.2619 32.3151 75.4738 33.4231 73.006 28.2311L73.3814 26.3585C74.5353 26.8405 75.7542 27.1491 76.9984 27.2742C79.0038 27.4298 80.5788 26.1845 81.6502 24.2249C83.3763 21.084 84.3423 15.9836 84.5941 9.14791C82.8223 6.95939 75.776 5.02727 70.5565 6.83119C69.8697 10.7229 68.6518 13.1129 68.2398 13.6119C67.8277 14.111 67.3378 14.4819 66.9669 14.4544Z" fill="#FFA8A7"/>
<path d="M87.2726 4.32688C87.2623 4.26366 87.2352 4.20438 87.1941 4.15524C87.1531 4.10611 87.0995 4.06892 87.0391 4.04759C86.9401 4.03235 86.8387 4.05004 86.7507 4.09795C86.1074 4.40341 85.4396 4.65457 84.7545 4.84882C85.0984 4.10904 85.2974 3.31017 85.3405 2.49548C85.368 1.99642 85.4916 0.865535 84.9284 0.604561C84.5942 0.453471 84.2188 0.673238 83.9029 0.856378C81.0138 2.49548 78.1752 0.764809 75.3045 0.206233C72.9053 -0.283666 69.8103 0.00935761 68.1849 2.06968C67.4432 3.01285 67.0906 4.10711 67.8919 5.06859C68.6239 5.85737 69.5301 6.46414 70.5382 6.84047C75.0847 8.78633 81.0688 11.918 85.6473 8.3239C86.3204 7.8296 86.8332 7.14807 87.1215 6.3643C87.3644 5.72952 87.4216 5.03873 87.2864 4.37266L87.2726 4.32688Z" fill="#00407E"/>
<path d="M73.3631 26.3584C73.3631 26.3584 69.8102 25.1451 67.9651 23.3778C67.214 22.6365 66.683 21.7014 66.4313 20.6765C66.3688 21.6209 66.5837 22.563 67.0494 23.387C68.6198 26.0196 73.1067 27.5443 73.1067 27.5443L73.3631 26.3584Z" fill="#F28F8F"/>
<path d="M74.9015 15.2329C74.8747 15.3465 74.8258 15.4538 74.7576 15.5485C74.6894 15.6433 74.6032 15.7237 74.504 15.7851C74.4047 15.8465 74.2943 15.8878 74.1791 15.9066C74.0638 15.9253 73.946 15.9212 73.8324 15.8945C73.7188 15.8677 73.6115 15.8188 73.5168 15.7506C73.422 15.6824 73.3416 15.5962 73.2802 15.4969C73.2188 15.3977 73.1775 15.2873 73.1587 15.1721C73.1399 15.0568 73.144 14.939 73.1708 14.8254C73.1976 14.7118 73.2464 14.6045 73.3146 14.5098C73.3828 14.415 73.4691 14.3346 73.5683 14.2732C73.6676 14.2117 73.778 14.1705 73.8932 14.1517C74.0085 14.1329 74.1262 14.137 74.2399 14.1638C74.3535 14.1906 74.4608 14.2394 74.5555 14.3076C74.6503 14.3758 74.7307 14.462 74.7921 14.5613C74.8535 14.6606 74.8948 14.771 74.9136 14.8862C74.9323 15.0014 74.9282 15.1192 74.9015 15.2329Z" fill="#00407E"/>
<path d="M74.7413 11.7486L72.6535 12.3393C72.5807 12.0547 72.6206 11.7531 72.7647 11.4972C72.9089 11.2413 73.1462 11.0509 73.4273 10.9657C73.565 10.9281 73.7089 10.9187 73.8504 10.938C73.9919 10.9572 74.128 11.0048 74.2507 11.0779C74.3733 11.151 74.48 11.2481 74.5643 11.3633C74.6486 11.4785 74.7088 11.6096 74.7413 11.7486Z" fill="#00407E"/>
<path d="M83.2115 14.482L81.8379 12.7879C81.9434 12.6918 82.0675 12.6183 82.2024 12.5718C82.3373 12.5253 82.4803 12.5069 82.6226 12.5176C82.7649 12.5283 82.9036 12.568 83.03 12.6341C83.1565 12.7003 83.2681 12.7916 83.358 12.9024C83.5413 13.1341 83.6283 13.4274 83.601 13.7215C83.5737 14.0157 83.4342 14.288 83.2115 14.482Z" fill="#00407E"/>
<path d="M82.1538 16.6614C82.1071 16.829 82.0122 16.9793 81.8809 17.0935C81.7495 17.2076 81.5875 17.2807 81.415 17.3036C81.2425 17.3265 81.067 17.2983 80.9105 17.2223C80.7539 17.1464 80.623 17.0261 80.5342 16.8764C80.4454 16.7267 80.4025 16.5543 80.4109 16.3804C80.4193 16.2066 80.4785 16.039 80.5813 15.8986C80.6841 15.7581 80.8259 15.651 80.989 15.5904C81.1522 15.5299 81.3295 15.5186 81.4991 15.5579C81.731 15.6194 81.9296 15.7695 82.052 15.9758C82.1744 16.1822 82.211 16.4283 82.1538 16.6614Z" fill="#00407E"/>
<path d="M77.8272 14.2759L77.1312 19.5274L80.0203 19.4908L77.8272 14.2759Z" fill="#F28F8F"/>
<path d="M73.5966 20.6765L77.1495 21.9951C77.0728 22.2334 76.9488 22.4539 76.7851 22.6432C76.6213 22.8326 76.421 22.987 76.1962 23.0973C75.9715 23.2075 75.7268 23.2714 75.4768 23.2849C75.2268 23.2985 74.9766 23.2616 74.7412 23.1764C74.2635 22.9895 73.877 22.6243 73.6635 22.1578C73.4499 21.6914 73.4259 21.1603 73.5966 20.6765Z" fill="#B16668"/>
<path d="M73.9537 21.3359C73.8035 21.3003 73.6501 21.2804 73.4958 21.2764C73.4793 21.6828 73.5899 22.0843 73.8123 22.4249C74.0347 22.7654 74.3578 23.0282 74.7366 23.1764C74.9293 23.2448 75.132 23.2804 75.3364 23.2817C75.3987 22.8421 75.29 22.3953 75.0328 22.0333C74.7756 21.6713 74.3894 21.4217 73.9537 21.3359Z" fill="#F28F8F"/>
<path d="M97.62 74.9227C97.2445 74.3229 95.8664 73.3248 95.2162 72.8074C94.5661 72.2901 94.2685 73.2378 94.415 73.92C94.5249 74.4328 95.2987 75.0555 96.0129 75.6552L96.2693 77.4866L94.4104 79.2356C94.4104 79.2356 91.8556 79.2631 91.526 79.025C90.9628 78.6221 90.6103 78.178 91.0681 77.6515C91.526 77.1249 91.9472 76.9326 93.2017 76.9922C93.8137 77.0455 94.4301 77.0132 95.0331 76.896C95.697 76.6534 95.903 76.2642 95.5551 75.8338C94.9782 75.1058 93.7878 75.2752 92.4279 74.9181C90.7247 74.4603 90.2074 73.8834 88.7331 73.3797C87.4551 73.0126 86.21 72.5393 85.0108 71.965C83.6739 71.269 65.6026 61.1918 65.6026 61.1918L60.0763 42.2826C60.0763 42.2826 58.9683 30.0123 56.1938 27.4895C49.7381 28.5929 48.9048 33.1623 49.0742 38.4779C49.2436 43.7935 53.726 58.5271 55.7268 63.0598C57.6589 67.4414 58.2632 67.8214 61.1431 69.1858C65.4423 71.2233 77.3647 75.5957 80.1393 77.0288C81.6066 77.7193 83.018 78.5229 84.3606 79.4325C85.6792 80.4123 88.3119 82.3215 89.0078 82.5092C90.7202 82.9671 94.1357 81.9415 95.2117 81.5615C96.2876 81.1815 98.174 78.4985 98.3113 77.9903C98.4487 77.4821 97.9954 75.5225 97.62 74.9227Z" fill="#FFA8A7"/>
<path d="M57.9473 27.2195C56.1159 27.3111 53.3688 27.5171 51.2398 29.5087C49.1108 31.5004 48.7903 35.1769 49.1017 38.9633C49.3352 41.8707 51.4504 53.6145 51.4504 53.6145C51.4504 53.6145 57.6039 54.956 62.6632 50.4553C62.5853 50.2585 60.2091 37.5028 60.2091 37.5028C60.2091 37.5028 59.9893 28.6251 57.9473 27.2195Z" fill="#00407E"/>
<path d="M143.995 168.612V169.326L145.236 170.045V169.326L143.995 168.612Z" fill="#00284F"/>
<path d="M146.481 168.612V169.326L145.236 170.045V169.326L146.481 168.612Z" fill="#00407E"/>
<path d="M146.481 155.701V168.612L145.236 169.326V156.42L146.481 155.701Z" fill="#00284F"/>
<path d="M145.236 169.326L143.995 168.612V155.701L145.236 156.42V169.326Z" fill="#00407E"/>
<path d="M110.453 187.979V188.693L111.694 189.412V188.693L110.453 187.979Z" fill="#00284F"/>
<path d="M112.939 187.979V188.693L111.694 189.412V188.693L112.939 187.979Z" fill="#00407E"/>
<path d="M112.939 175.068V187.979L111.694 188.693V175.782L112.939 175.068Z" fill="#00284F"/>
<path d="M111.694 188.693L110.453 187.979V175.068L111.694 175.782V188.693Z" fill="#00407E"/>
<path d="M84.365 172.916V173.63L85.6057 174.349V173.63L84.365 172.916Z" fill="#00284F"/>
<path d="M86.8512 172.916V173.63L85.6059 174.349V173.63L86.8512 172.916Z" fill="#00407E"/>
<path d="M86.8512 160.004V172.916L85.6059 173.63V160.723L86.8512 160.004Z" fill="#00407E"/>
<path d="M85.6057 173.63L84.365 172.916V160.004L85.6057 160.723V173.63Z" fill="#00407E"/>
<path d="M105.486 126.293L148.963 101.189V155.701L105.486 180.805V126.293Z" fill="#00407E"/>
<path d="M105.486 126.293L80.6382 111.949V166.46L105.486 180.805V126.293Z" fill="#00284F"/>
<path d="M103 132.021L156.417 101.189L124.116 82.541L70.6982 113.373L103 132.021Z" fill="#00AF17"/>
<path opacity="0.6" d="M103 132.021L156.417 101.189L124.116 82.541L70.6982 113.373L103 132.021Z" fill="white"/>
<path d="M70.6982 113.373V114.806L103 133.454V132.021L70.6982 113.373Z" fill="#00AF17"/>
<path opacity="0.5" d="M70.6982 113.373V114.806L103 133.454V132.021L70.6982 113.373Z" fill="white"/>
<path opacity="0.15" d="M70.6982 113.373V114.806L103 133.454V132.021L70.6982 113.373Z" fill="black"/>
<path d="M103 133.454L156.417 102.627V101.189L103 132.021V133.454Z" fill="#00AF17"/>
<path opacity="0.5" d="M103 133.454L156.417 102.627V101.189L103 132.021V133.454Z" fill="white"/>
<path opacity="0.05" d="M103 133.454L156.417 102.627V101.189L103 132.021V133.454Z" fill="black"/>
<path d="M102.063 85.711C103.984 86.1093 106.407 86.0846 110.021 83.1866C110.258 82.9962 110.289 82.6475 110.093 82.4148C108.638 80.6892 103.131 74.1561 101.502 72.2239C101.306 71.9913 100.962 71.9685 100.723 72.1569C97.0852 75.0257 94.3334 74.6602 92.4123 74.2619M102.063 85.711C102.131 87.6717 101.697 90.0554 98.2291 93.1265C98.0013 93.3283 97.6561 93.3035 97.46 93.0708C95.8339 91.1418 90.4924 84.8053 88.8663 82.8763C88.6703 82.6437 88.7054 82.3005 88.9315 82.0969C92.3745 78.9966 92.4799 76.2226 92.4123 74.2619M102.063 85.711L92.4123 74.2619" stroke="#005CB5" stroke-width="1.5" stroke-linejoin="round"/>
<path d="M96.9804 91.8751L95.0726 93.4833C94.8401 93.6793 94.4925 93.6497 94.2964 93.4171L85.0372 82.4329C84.7498 82.0921 84.9605 81.5272 85.3887 81.403C86.3094 81.136 87.7337 80.5573 89.1973 79.3235C91.675 77.2349 92.4238 74.101 92.4238 74.101C92.4238 74.101 95.6392 73.8932 98.1169 71.8047C99.5806 70.5709 100.392 69.2651 100.811 68.4028C101.006 68.0018 101.598 67.8898 101.885 68.2306L111.145 79.2148C111.341 79.4474 111.311 79.795 111.078 79.991L109.171 81.5993" stroke="#005CB5" stroke-width="1.5" stroke-linejoin="round"/>
<path d="M139.887 98.2855L138.039 97.6756L138.083 97.7211L127.86 101.431L118.074 91.086L115.672 90.2932C114.46 91.1516 114.324 93.5955 115.139 94.446L127.218 106.862L139.995 102.288C138.831 101.652 137.887 99.8412 139.887 98.2864V98.2855ZM126.54 101.636L116.474 91.1989H116.775L126.796 101.43L126.539 101.636H126.54ZM127.309 106.489C127.309 106.489 125.916 104.861 127.721 102.696L138.659 98.7352C138.659 98.7352 137.401 100.896 138.874 102.171L127.309 106.489V106.489ZM118.074 91.086L117.74 90.7325L127.937 87.1117L138.039 97.6756L139.886 98.2855C139.877 98.2925 139.869 98.2995 139.86 98.3065L140.075 98.2295L128.155 85.8701L115.72 90.3081L118.073 91.0851L118.074 91.086Z" fill="black"/>
<path d="M117.887 113.285L116.039 112.676L116.083 112.721L105.86 116.431L96.0741 106.086L93.6722 105.293C92.4595 106.152 92.3239 108.595 93.1385 109.446L105.218 121.862L117.995 117.288C116.831 116.652 115.887 114.841 117.887 113.286V113.285ZM104.54 116.636L94.4737 106.199H94.7747L104.796 116.43L104.539 116.636H104.54ZM105.309 121.489C105.309 121.489 103.916 119.861 105.721 117.696L116.659 113.735C116.659 113.735 115.401 115.896 116.874 117.171L105.309 121.489V121.489ZM96.0741 106.086L95.7399 105.732L105.937 102.112L116.039 112.676L117.886 113.285C117.877 113.292 117.869 113.299 117.86 113.306L118.075 113.229L106.155 100.87L93.7195 105.308L96.0732 106.085L96.0741 106.086Z" fill="#00AF17"/>
<path d="M119.887 109.285L118.039 108.676L118.083 108.721L107.86 112.431L98.0741 102.086L95.6722 101.293C94.4595 102.152 94.3239 104.595 95.1385 105.446L107.218 117.862L119.995 113.288C118.831 112.652 117.887 110.841 119.887 109.286V109.285ZM106.54 112.636L96.4737 102.199H96.7747L106.796 112.43L106.539 112.636H106.54ZM107.309 117.489C107.309 117.489 105.916 115.861 107.721 113.696L118.659 109.735C118.659 109.735 117.401 111.896 118.874 113.171L107.309 117.489V117.489ZM98.0741 102.086L97.7399 101.732L107.937 98.1117L118.039 108.676L119.886 109.285C119.877 109.292 119.869 109.299 119.86 109.306L120.075 109.229L108.155 96.8701L95.7195 101.308L98.0732 102.085L98.0741 102.086Z" fill="#005CB5"/>
<path d="M121.887 106.285L120.039 105.676L120.083 105.721L109.86 109.431L100.074 99.086L97.6722 98.2932C96.4595 99.1516 96.3239 101.595 97.1385 102.446L109.218 114.862L121.995 110.288C120.831 109.652 119.887 107.841 121.887 106.286V106.285ZM108.54 109.636L98.4737 99.1989H98.7747L108.796 109.43L108.539 109.636H108.54ZM109.309 114.489C109.309 114.489 107.916 112.861 109.721 110.696L120.659 106.735C120.659 106.735 119.401 108.896 120.874 110.171L109.309 114.489V114.489ZM100.074 99.086L99.7399 98.7325L109.937 95.1117L120.039 105.676L121.886 106.285C121.877 106.292 121.869 106.299 121.86 106.306L122.075 106.229L110.155 93.8701L97.7195 98.3081L100.073 99.0851L100.074 99.086Z" fill="black"/>
</svg>
