<svg width="230" height="213" viewBox="0 0 230 213" fill="none" xmlns="http://www.w3.org/2000/svg">
<path d="M114.73 212.7C178.093 212.7 229.459 183.43 229.459 147.323C229.459 111.217 178.093 81.9463 114.73 81.9463C51.3662 81.9463 0 111.217 0 147.323C0 183.43 51.3662 212.7 114.73 212.7Z" fill="#FAFAFA"/>
<path d="M52.0325 172.933C67.1943 172.933 79.4854 165.836 79.4854 157.082C79.4854 148.328 67.1943 141.232 52.0325 141.232C36.8707 141.232 24.5796 148.328 24.5796 157.082C24.5796 165.836 36.8707 172.933 52.0325 172.933Z" fill="#E6E6E6"/>
<path d="M180.915 174.903C196.077 174.903 208.368 167.807 208.368 159.053C208.368 150.299 196.077 143.202 180.915 143.202C165.753 143.202 153.462 150.299 153.462 159.053C153.462 167.807 165.753 174.903 180.915 174.903Z" fill="#E6E6E6"/>
<path d="M72.7464 95.9551H71.6943C71.6394 95.9558 71.5849 95.9455 71.534 95.9248C71.4831 95.904 71.4369 95.8734 71.398 95.8345C71.3592 95.7957 71.3285 95.7495 71.3078 95.6986C71.2871 95.6477 71.2768 95.5932 71.2774 95.5383C71.2768 95.4831 71.2871 95.4284 71.3077 95.3772C71.3284 95.3261 71.359 95.2795 71.3978 95.2403C71.4365 95.2011 71.4827 95.1699 71.5336 95.1487C71.5845 95.1274 71.6391 95.1165 71.6943 95.1165H72.7464C72.8015 95.1165 72.8561 95.1274 72.907 95.1487C72.9579 95.1699 73.0041 95.2011 73.0429 95.2403C73.0817 95.2795 73.1123 95.3261 73.1329 95.3772C73.1536 95.4284 73.1639 95.4831 73.1632 95.5383C73.1639 95.5932 73.1535 95.6477 73.1328 95.6986C73.1121 95.7495 73.0814 95.7957 73.0426 95.8345C73.0038 95.8734 72.9575 95.904 72.9067 95.9248C72.8558 95.9455 72.8013 95.9558 72.7464 95.9551Z" fill="#37474F"/>
<path d="M159.715 95.9556H157.646C157.591 95.9563 157.536 95.946 157.485 95.9253C157.434 95.9047 157.387 95.8741 157.348 95.8353C157.309 95.7965 157.278 95.7503 157.256 95.6994C157.235 95.6485 157.224 95.5939 157.224 95.5388C157.224 95.4269 157.269 95.3196 157.348 95.2405C157.427 95.1614 157.534 95.1169 157.646 95.1169H159.715C159.771 95.1169 159.826 95.1278 159.877 95.149C159.928 95.1702 159.974 95.2013 160.014 95.2405C160.053 95.2797 160.084 95.3262 160.105 95.3773C160.126 95.4285 160.137 95.4834 160.137 95.5388C160.137 95.5939 160.126 95.6485 160.105 95.6994C160.084 95.7503 160.053 95.7965 160.013 95.8353C159.974 95.8741 159.928 95.9047 159.876 95.9253C159.825 95.946 159.771 95.9563 159.715 95.9556ZM155.577 95.9556H153.482C153.372 95.9556 153.266 95.9117 153.188 95.8335C153.109 95.7553 153.066 95.6493 153.066 95.5388C153.064 95.4825 153.073 95.4265 153.093 95.3739C153.113 95.3213 153.143 95.2733 153.182 95.2326C153.221 95.1919 153.267 95.1594 153.319 95.137C153.371 95.1145 153.426 95.1027 153.482 95.1021H155.557C155.668 95.1034 155.774 95.1484 155.852 95.2273C155.93 95.3063 155.974 95.4129 155.974 95.5239C155.978 95.6336 155.938 95.7405 155.864 95.8214C155.79 95.9022 155.686 95.9505 155.577 95.9556ZM151.433 95.9556H149.363C149.308 95.9563 149.254 95.946 149.202 95.9253C149.151 95.9047 149.105 95.8741 149.065 95.8353C149.026 95.7965 148.995 95.7503 148.974 95.6994C148.953 95.6485 148.942 95.5939 148.942 95.5388C148.942 95.4269 148.986 95.3196 149.065 95.2405C149.144 95.1614 149.252 95.1169 149.363 95.1169H151.433C151.488 95.1169 151.543 95.1278 151.594 95.149C151.645 95.1702 151.692 95.2013 151.731 95.2405C151.77 95.2797 151.801 95.3262 151.823 95.3773C151.844 95.4285 151.855 95.4834 151.855 95.5388C151.855 95.5939 151.844 95.6485 151.822 95.6994C151.801 95.7503 151.77 95.7965 151.731 95.8353C151.692 95.8741 151.645 95.9047 151.594 95.9253C151.543 95.946 151.488 95.9563 151.433 95.9556ZM147.294 95.9556H145.22C145.109 95.9556 145.003 95.9117 144.925 95.8335C144.847 95.7553 144.803 95.6493 144.803 95.5388C144.803 95.4277 144.847 95.3212 144.925 95.2422C145.003 95.1633 145.109 95.1182 145.22 95.1169H147.294C147.405 95.1182 147.511 95.1633 147.589 95.2422C147.667 95.3212 147.711 95.4277 147.711 95.5388C147.711 95.5935 147.7 95.6477 147.679 95.6983C147.658 95.7489 147.628 95.7948 147.589 95.8335C147.55 95.8722 147.504 95.9029 147.454 95.9239C147.403 95.9448 147.349 95.9556 147.294 95.9556ZM143.15 95.9556H141.076C141.021 95.9563 140.966 95.946 140.915 95.9253C140.864 95.9047 140.817 95.8741 140.778 95.8353C140.739 95.7965 140.708 95.7503 140.686 95.6994C140.665 95.6485 140.654 95.5939 140.654 95.5388C140.652 95.4821 140.662 95.4257 140.682 95.3728C140.702 95.3199 140.733 95.2716 140.772 95.2308C140.812 95.1901 140.859 95.1576 140.911 95.1355C140.963 95.1134 141.019 95.102 141.076 95.1021H143.145C143.257 95.1021 143.364 95.1465 143.444 95.2256C143.523 95.3047 143.567 95.412 143.567 95.5239C143.569 95.5799 143.56 95.6357 143.54 95.688C143.52 95.7403 143.489 95.788 143.45 95.8283C143.412 95.8686 143.365 95.9006 143.313 95.9225C143.262 95.9444 143.206 95.9556 143.15 95.9556ZM139.012 95.9556H136.937C136.882 95.9563 136.828 95.946 136.777 95.9252C136.726 95.9045 136.68 95.8738 136.641 95.835C136.602 95.7962 136.571 95.7499 136.551 95.6991C136.53 95.6482 136.52 95.5937 136.52 95.5388C136.52 95.4836 136.53 95.4289 136.551 95.3777C136.571 95.3266 136.602 95.28 136.641 95.2408C136.679 95.2015 136.726 95.1704 136.776 95.1491C136.827 95.1279 136.882 95.1169 136.937 95.1169H139.012C139.123 95.1182 139.229 95.1633 139.307 95.2422C139.385 95.3212 139.428 95.4277 139.428 95.5388C139.428 95.5935 139.418 95.6477 139.397 95.6983C139.376 95.7489 139.345 95.7948 139.306 95.8335C139.268 95.8722 139.222 95.9029 139.171 95.9239C139.12 95.9448 139.066 95.9556 139.012 95.9556ZM134.868 95.9556H132.798C132.743 95.9563 132.688 95.946 132.637 95.9253C132.586 95.9047 132.54 95.8741 132.5 95.8353C132.461 95.7965 132.43 95.7503 132.409 95.6994C132.388 95.6485 132.377 95.5939 132.377 95.5388C132.377 95.4269 132.421 95.3196 132.5 95.2405C132.579 95.1614 132.687 95.1169 132.798 95.1169H134.868C134.98 95.1169 135.087 95.1614 135.166 95.2405C135.245 95.3196 135.29 95.4269 135.29 95.5388C135.29 95.5939 135.279 95.6485 135.257 95.6994C135.236 95.7503 135.205 95.7965 135.166 95.8353C135.127 95.8741 135.08 95.9047 135.029 95.9253C134.978 95.946 134.923 95.9563 134.868 95.9556ZM130.724 95.9556H128.67C128.614 95.9563 128.56 95.946 128.508 95.9253C128.457 95.9047 128.411 95.8741 128.372 95.8353C128.332 95.7965 128.301 95.7503 128.28 95.6994C128.259 95.6485 128.248 95.5939 128.248 95.5388C128.246 95.4821 128.255 95.4257 128.275 95.3728C128.296 95.3199 128.326 95.2716 128.366 95.2308C128.405 95.1901 128.452 95.1576 128.505 95.1355C128.557 95.1134 128.613 95.102 128.67 95.1021H130.739C130.851 95.1021 130.958 95.1465 131.037 95.2256C131.116 95.3047 131.161 95.412 131.161 95.5239C131.163 95.5816 131.153 95.6391 131.132 95.6927C131.11 95.7464 131.078 95.7951 131.037 95.8357C130.996 95.8763 130.947 95.9079 130.893 95.9285C130.839 95.9492 130.782 95.9584 130.724 95.9556ZM126.585 95.9556H124.516C124.461 95.9563 124.406 95.946 124.355 95.9253C124.304 95.9047 124.257 95.8741 124.218 95.8353C124.179 95.7965 124.147 95.7503 124.126 95.6994C124.105 95.6485 124.094 95.5939 124.094 95.5388C124.094 95.4269 124.138 95.3196 124.218 95.2405C124.297 95.1614 124.404 95.1169 124.516 95.1169H126.585C126.697 95.1169 126.804 95.1614 126.884 95.2405C126.963 95.3196 127.007 95.4269 127.007 95.5388C127.007 95.5939 126.996 95.6485 126.975 95.6994C126.954 95.7503 126.922 95.7965 126.883 95.8353C126.844 95.8741 126.797 95.9047 126.746 95.9253C126.695 95.946 126.64 95.9563 126.585 95.9556ZM122.442 95.9556H120.372C120.317 95.9563 120.262 95.946 120.211 95.9253C120.16 95.9047 120.113 95.8741 120.074 95.8353C120.035 95.7965 120.004 95.7503 119.982 95.6994C119.961 95.6485 119.95 95.5939 119.95 95.5388C119.95 95.4269 119.995 95.3196 120.074 95.2405C120.153 95.1614 120.26 95.1169 120.372 95.1169H122.442C122.553 95.1169 122.661 95.1614 122.74 95.2405C122.819 95.3196 122.863 95.4269 122.863 95.5388C122.863 95.5939 122.852 95.6485 122.831 95.6994C122.81 95.7503 122.779 95.7965 122.739 95.8353C122.7 95.8741 122.654 95.9047 122.603 95.9253C122.551 95.946 122.497 95.9563 122.442 95.9556ZM118.303 95.9556H116.233C116.178 95.9563 116.123 95.946 116.072 95.9253C116.021 95.9047 115.975 95.8741 115.935 95.8353C115.896 95.7965 115.865 95.7503 115.844 95.6994C115.822 95.6485 115.812 95.5939 115.812 95.5388C115.812 95.4269 115.856 95.3196 115.935 95.2405C116.014 95.1614 116.121 95.1169 116.233 95.1169H118.303C118.358 95.1169 118.412 95.1279 118.463 95.1491C118.514 95.1704 118.56 95.2015 118.599 95.2408C118.638 95.28 118.669 95.3266 118.689 95.3777C118.71 95.4289 118.72 95.4836 118.72 95.5388C118.72 95.5937 118.71 95.6482 118.689 95.6991C118.668 95.7499 118.638 95.7962 118.599 95.835C118.56 95.8738 118.514 95.9045 118.463 95.9252C118.412 95.946 118.358 95.9563 118.303 95.9556ZM114.159 95.9556H112.09C112.034 95.9563 111.98 95.946 111.929 95.9253C111.877 95.9047 111.831 95.8741 111.792 95.8353C111.752 95.7965 111.721 95.7503 111.7 95.6994C111.679 95.6485 111.668 95.5939 111.668 95.5388C111.668 95.4269 111.712 95.3196 111.791 95.2405C111.87 95.1614 111.978 95.1169 112.09 95.1169H114.159C114.271 95.1169 114.378 95.1614 114.457 95.2405C114.536 95.3196 114.581 95.4269 114.581 95.5388C114.581 95.5939 114.57 95.6485 114.549 95.6994C114.527 95.7503 114.496 95.7965 114.457 95.8353C114.418 95.8741 114.371 95.9047 114.32 95.9253C114.269 95.946 114.214 95.9563 114.159 95.9556ZM110.02 95.9556H107.946C107.835 95.9556 107.729 95.9117 107.651 95.8335C107.573 95.7553 107.529 95.6493 107.529 95.5388C107.529 95.4277 107.573 95.3212 107.651 95.2422C107.729 95.1633 107.835 95.1182 107.946 95.1169H110.02C110.075 95.1169 110.13 95.1279 110.181 95.1491C110.232 95.1704 110.278 95.2015 110.317 95.2408C110.355 95.28 110.386 95.3266 110.407 95.3777C110.427 95.4289 110.438 95.4836 110.437 95.5388C110.438 95.5937 110.427 95.6482 110.407 95.6991C110.386 95.7499 110.355 95.7962 110.316 95.835C110.278 95.8738 110.231 95.9045 110.181 95.9252C110.13 95.946 110.075 95.9563 110.02 95.9556ZM105.876 95.9556H103.807C103.752 95.9563 103.697 95.946 103.646 95.9253C103.595 95.9047 103.548 95.8741 103.509 95.8353C103.47 95.7965 103.439 95.7503 103.417 95.6994C103.396 95.6485 103.385 95.5939 103.385 95.5388C103.385 95.4269 103.43 95.3196 103.509 95.2405C103.588 95.1614 103.695 95.1169 103.807 95.1169H105.876C105.988 95.1169 106.096 95.1614 106.175 95.2405C106.254 95.3196 106.298 95.4269 106.298 95.5388C106.298 95.5939 106.287 95.6485 106.266 95.6994C106.245 95.7503 106.214 95.7965 106.174 95.8353C106.135 95.8741 106.089 95.9047 106.038 95.9253C105.986 95.946 105.932 95.9563 105.876 95.9556ZM101.738 95.9556H99.6633C99.6086 95.9556 99.5544 95.9448 99.5038 95.9239C99.4532 95.9029 99.4073 95.8722 99.3685 95.8335C99.3298 95.7948 99.2991 95.7489 99.2782 95.6983C99.2572 95.6477 99.2465 95.5935 99.2465 95.5388C99.2465 95.4277 99.2902 95.3212 99.3682 95.2422C99.4463 95.1633 99.5523 95.1182 99.6633 95.1169H101.738C101.849 95.1182 101.955 95.1633 102.033 95.2422C102.111 95.3212 102.155 95.4277 102.155 95.5388C102.155 95.6493 102.111 95.7553 102.032 95.8335C101.954 95.9117 101.848 95.9556 101.738 95.9556ZM97.5939 95.9556H95.5245C95.4694 95.9563 95.4146 95.946 95.3635 95.9253C95.3123 95.9047 95.2658 95.8741 95.2266 95.8353C95.1873 95.7965 95.1562 95.7503 95.1349 95.6994C95.1137 95.6485 95.1027 95.5939 95.1027 95.5388C95.1027 95.4269 95.1472 95.3196 95.2263 95.2405C95.3054 95.1614 95.4127 95.1169 95.5245 95.1169H97.5939C97.7058 95.1169 97.8131 95.1614 97.8922 95.2405C97.9713 95.3196 98.0157 95.4269 98.0157 95.5388C98.0157 95.5939 98.0048 95.6485 97.9835 95.6994C97.9623 95.7503 97.9311 95.7965 97.8919 95.8353C97.8527 95.8741 97.8061 95.9047 97.755 95.9253C97.7038 95.946 97.6491 95.9563 97.5939 95.9556ZM93.4551 95.9556H91.3808C91.2702 95.9556 91.1642 95.9117 91.086 95.8335C91.0079 95.7553 90.9639 95.6493 90.9639 95.5388C90.9639 95.4277 91.0077 95.3212 91.0857 95.2422C91.1638 95.1633 91.2698 95.1182 91.3808 95.1169H93.4353C93.5463 95.1182 93.6523 95.1633 93.7304 95.2422C93.8084 95.3212 93.8522 95.4277 93.8521 95.5388C93.8521 95.6493 93.8082 95.7553 93.7301 95.8335C93.6519 95.9117 93.5458 95.9556 93.4353 95.9556H93.4551ZM89.3114 95.9556H87.242C87.1869 95.9563 87.1321 95.946 87.081 95.9253C87.0298 95.9047 86.9833 95.8741 86.944 95.8353C86.9048 95.7965 86.8736 95.7503 86.8524 95.6994C86.8311 95.6485 86.8202 95.5939 86.8202 95.5388C86.8202 95.4269 86.8646 95.3196 86.9437 95.2405C87.0228 95.1614 87.1301 95.1169 87.242 95.1169H89.3114C89.4233 95.1169 89.5306 95.1614 89.6097 95.2405C89.6888 95.3196 89.7332 95.4269 89.7332 95.5388C89.7332 95.5939 89.7223 95.6485 89.701 95.6994C89.6798 95.7503 89.6486 95.7965 89.6094 95.8353C89.5701 95.8741 89.5236 95.9047 89.4724 95.9253C89.4213 95.946 89.3666 95.9563 89.3114 95.9556ZM85.1677 95.9556H83.0983C83.0433 95.9563 82.9888 95.946 82.938 95.9252C82.8871 95.9045 82.8409 95.8738 82.802 95.835C82.7632 95.7962 82.7325 95.7499 82.7118 95.6991C82.6911 95.6482 82.6807 95.5937 82.6814 95.5388C82.6808 95.4836 82.691 95.4289 82.7117 95.3777C82.7324 95.3266 82.763 95.28 82.8017 95.2408C82.8405 95.2015 82.8867 95.1704 82.9376 95.1491C82.9885 95.1279 83.0431 95.1169 83.0983 95.1169H85.1677C85.2795 95.1169 85.3868 95.1614 85.4659 95.2405C85.545 95.3196 85.5895 95.4269 85.5895 95.5388C85.5895 95.5939 85.5785 95.6485 85.5573 95.6994C85.536 95.7503 85.5049 95.7965 85.4656 95.8353C85.4264 95.8741 85.3798 95.9047 85.3287 95.9253C85.2775 95.946 85.2228 95.9563 85.1677 95.9556ZM81.0289 95.9556H78.9595C78.9043 95.9563 78.8496 95.946 78.7984 95.9253C78.7473 95.9047 78.7007 95.8741 78.6615 95.8353C78.6223 95.7965 78.5911 95.7503 78.5699 95.6994C78.5486 95.6485 78.5377 95.5939 78.5377 95.5388C78.5377 95.4269 78.5821 95.3196 78.6612 95.2405C78.7403 95.1614 78.8476 95.1169 78.9595 95.1169H81.0289C81.1407 95.1169 81.248 95.1614 81.3271 95.2405C81.4062 95.3196 81.4507 95.4269 81.4507 95.5388C81.4507 95.5939 81.4397 95.6485 81.4185 95.6994C81.3972 95.7503 81.3661 95.7965 81.3268 95.8353C81.2876 95.8741 81.2411 95.9047 81.1899 95.9253C81.1388 95.946 81.084 95.9563 81.0289 95.9556ZM76.8851 95.9556H74.8157C74.7606 95.9563 74.7058 95.946 74.6547 95.9253C74.6035 95.9047 74.557 95.8741 74.5178 95.8353C74.4785 95.7965 74.4474 95.7503 74.4261 95.6994C74.4049 95.6485 74.3939 95.5939 74.3939 95.5388C74.3939 95.4269 74.4384 95.3196 74.5175 95.2405C74.5966 95.1614 74.7039 95.1169 74.8157 95.1169H76.8851C76.997 95.1169 77.1043 95.1614 77.1834 95.2405C77.2625 95.3196 77.3069 95.4269 77.3069 95.5388C77.3069 95.5939 77.296 95.6485 77.2747 95.6994C77.2535 95.7503 77.2223 95.7965 77.1831 95.8353C77.1439 95.8741 77.0973 95.9047 77.0462 95.9253C76.995 95.946 76.9403 95.9563 76.8851 95.9556Z" fill="#37474F"/>
<path d="M162.837 95.9551H161.79C161.735 95.9558 161.68 95.9455 161.629 95.9248C161.578 95.9042 161.531 95.8736 161.492 95.8348C161.453 95.796 161.421 95.7499 161.4 95.699C161.379 95.6481 161.368 95.5934 161.368 95.5383C161.368 95.4264 161.412 95.3191 161.491 95.24C161.571 95.1609 161.678 95.1165 161.79 95.1165H162.837C162.949 95.1165 163.056 95.1609 163.135 95.24C163.214 95.3191 163.259 95.4264 163.259 95.5383C163.259 95.5934 163.248 95.6481 163.226 95.699C163.205 95.7499 163.174 95.796 163.135 95.8348C163.096 95.8736 163.049 95.9042 162.998 95.9248C162.947 95.9455 162.892 95.9558 162.837 95.9551Z" fill="#37474F"/>
<path d="M162.087 99.0222C161.959 99.0211 161.835 98.981 161.73 98.9072C161.625 98.8335 161.546 98.7297 161.501 98.6095C161.457 98.4894 161.451 98.3586 161.483 98.2346C161.515 98.1107 161.584 97.9994 161.68 97.9156L164.455 95.5385L161.68 93.1614C161.558 93.0515 161.484 92.8981 161.473 92.7341C161.462 92.5701 161.516 92.4084 161.623 92.2834C161.73 92.1585 161.881 92.0802 162.045 92.0653C162.209 92.0504 162.372 92.1001 162.499 92.2037L165.834 95.0571C165.906 95.1184 165.963 95.1946 166.001 95.2804C166.04 95.3661 166.059 95.4593 166.057 95.5534C166.06 95.6475 166.041 95.741 166.002 95.8269C165.963 95.9127 165.906 95.9889 165.834 96.0496L162.499 98.9081C162.379 98.9918 162.234 99.0321 162.087 99.0222Z" fill="#37474F"/>
<path d="M72.5231 99.0224C72.3742 99.022 72.2301 98.9694 72.1161 98.8736L68.7763 96.0151C68.705 95.9541 68.6484 95.8778 68.6106 95.7919C68.5728 95.706 68.5548 95.6127 68.558 95.5189C68.5555 95.4252 68.5738 95.3321 68.6116 95.2463C68.6493 95.1605 68.7056 95.0841 68.7763 95.0226L72.1161 92.1691C72.1787 92.1129 72.2518 92.0697 72.3313 92.0421C72.4108 92.0145 72.495 92.0032 72.5789 92.0087C72.6628 92.0142 72.7448 92.0364 72.82 92.0741C72.8953 92.1117 72.9622 92.1641 73.0168 92.228C73.0715 92.292 73.1128 92.3662 73.1383 92.4464C73.1638 92.5265 73.1731 92.611 73.1654 92.6947C73.1578 92.7785 73.1335 92.8599 73.0939 92.9341C73.0543 93.0083 73.0003 93.0739 72.935 93.1269L70.1559 95.504L72.935 97.8811C73.0321 97.9651 73.1011 98.0769 73.1329 98.2013C73.1648 98.3257 73.1578 98.4569 73.113 98.5773C73.0682 98.6977 72.9877 98.8015 72.8823 98.8748C72.7768 98.9482 72.6515 98.9875 72.5231 98.9877V99.0224Z" fill="#37474F"/>
<path d="M37.0006 72.5059C37.0035 88.7237 42.4445 104.472 52.4536 117.233C62.4626 129.994 76.4616 139.029 92.2118 142.896C107.962 146.762 124.554 145.235 139.334 138.559C154.114 131.883 166.229 120.444 173.741 106.071C181.253 91.6981 183.728 75.2212 180.771 59.2752C177.814 43.3293 169.595 28.8354 157.429 18.1114C145.263 7.38731 129.853 1.05252 113.662 0.119992C97.4708 -0.812538 81.4348 3.71106 68.118 12.9674C58.5125 19.6447 50.6655 28.5472 45.2469 38.9149C39.8283 49.2826 36.999 60.8076 37.0006 72.5059Z" fill="#0082FF"/>
<path opacity="0.55" d="M43.2755 101.994C49.8757 116.805 61.2518 128.976 75.5848 136.56C89.9177 144.144 106.38 146.703 122.338 143.828C138.297 140.952 152.831 132.809 163.616 120.7C174.401 108.591 180.814 93.215 181.83 77.0312C182.846 60.8473 178.406 44.7902 169.221 31.4272C160.035 18.0643 146.633 8.16727 131.16 3.31876C115.686 -1.52975 99.0329 -1.04975 83.864 4.68202C68.6951 10.4138 55.8862 21.0663 47.4853 34.9362C41.4242 44.9441 37.8755 56.2704 37.1424 67.9477C36.4094 79.6249 38.5136 91.3062 43.2755 101.994Z" fill="white"/>
<path d="M98.4753 11.0371C95.1663 11.221 90.9564 12.5568 94.1062 14.3217C97.2559 16.0865 99.2291 16.16 99.3455 18.6112C99.4619 21.0623 97.9667 23.6789 98.8185 25.3519C99.6703 27.0248 101.037 29.0286 102.275 28.4158C103.512 27.803 106.822 23.8015 108.795 23.9057C110.768 24.0099 117.484 24.0527 118.373 21.8222C119.261 19.5916 120.26 19.702 121.774 17.2079C123.287 14.7139 123.079 11.46 121.118 11.5212C119.157 11.5825 118.93 12.4282 115.646 12.3117C112.361 12.1953 110.743 10.0934 107.594 10.7859C104.444 11.4783 100.926 10.8717 98.4753 11.0371Z" fill="#005CB5"/>
<path d="M86.2197 12.3486C82.543 14.4995 74.7361 17.8269 71.0348 16.9506C69.1965 16.5033 67.0027 15.8599 64.6741 15.5228C50.9399 26.3374 41.5651 41.7409 38.269 58.9082C39.2111 60.6953 40.3744 62.3568 41.7313 63.8534C44.7278 67.1135 47.7121 67.426 51.3705 67.9898C55.0288 68.5535 53.4907 69.9139 55.3597 71.9851C56.2738 73.1178 57.4407 74.0202 58.7668 74.6201C60.8503 75.6864 58.154 77.9598 57.4616 80.3374C56.7691 82.7151 56.5669 84.0142 58.4236 88.7326C60.2804 93.4511 65.2807 97.1156 66.7943 98.9049C68.3079 100.694 65.9487 102.931 66.7147 106.767C67.4806 110.603 67.6767 120.861 71.617 126.499C75.5572 132.136 77.7448 131.358 77.2914 127.485C76.8379 123.613 75.453 119.979 77.5855 116.97C79.718 113.961 84.3262 114.568 85.6621 109.169C86.9979 103.77 88.0091 103.991 90.4173 102.079C92.8256 100.167 91.6429 98.6598 93.7876 94.45C94.6272 92.7954 95.8282 90.5894 95.1358 88.7326C94.4862 86.9923 92.8378 85.7177 91.2201 84.9333C89.1059 83.9222 86.7467 83.4443 84.7061 82.2922C81.1213 80.27 78.9398 76.4217 75.6246 73.9828C73.0693 72.2231 70.1256 71.1088 67.0456 70.7351C64.2942 70.3122 61.2363 71.452 58.5585 70.7841C55.8806 70.1161 55.8377 66.8193 55.9357 64.84C56.0338 62.8607 54.0299 62.4379 52.1303 63.0017C50.2307 63.5654 49.1093 62.3889 48.4536 59.8213C47.7979 57.2537 51.6952 53.8773 54.9369 53.5035C58.1785 53.1297 59.9679 54.5697 60.7706 58.7305C61.0392 60.4095 61.8265 61.9622 63.0222 63.1711C64.2178 64.3799 65.7619 65.1842 67.4378 65.4712C70.4588 66.084 68.4672 63.0629 66.2673 61.0162C64.0674 58.9695 63.8468 57.0454 65.2685 52.2963C66.6901 47.5472 70.6365 47.7494 73.4063 43.325C76.1761 38.9007 76.8624 42.0995 79.8467 42.4365C82.831 42.7735 82.2979 41.168 83.3151 38.435C84.3323 35.702 88.1622 37.8774 91.171 35.5671C94.1798 33.2569 87.5985 30.0521 87.9049 27.1045C88.2113 24.157 91.1649 24.1203 89.3511 19.7511C87.5372 15.3819 89.8045 15.1123 90.9137 13.4149C92.0228 11.7174 89.8964 10.1916 86.2197 12.3486ZM82.2488 23.3788C81.3542 25.6155 80.4963 25.2172 78.9827 27.6683C77.4691 30.1195 75.0118 31.5595 73.4002 31.823C71.7885 32.0865 69.0187 29.3045 68.8104 27.5335C68.602 25.7625 71.1574 25.1314 74.0497 24.6473C76.9421 24.1632 79.3749 22.8089 81.9302 20.6274C83.9279 18.8932 83.119 21.1237 82.2243 23.3482L82.2488 23.3788Z" fill="#005CB5"/>
<path d="M181.527 64.2458V64.448C180.89 64.728 180.317 65.1349 179.843 65.6438C179.369 66.1527 179.003 66.7529 178.769 67.4078C177.274 71.5073 176.931 69.7547 173.144 72.641C169.357 75.5272 170.938 77.6352 171.25 80.3805C171.563 83.1258 167.206 86.4103 165.03 87.4766C162.855 88.5428 162.114 94.83 162.953 97.894C163.793 100.958 160.189 102.3 158.051 105.168C155.912 108.036 154.827 112.736 153.449 115.021C152.785 116.166 151.806 117.094 150.627 117.696C149.449 118.297 148.122 118.545 146.806 118.41C144.147 118.055 141.524 113.771 139.949 110.027C138.31 106.22 137.771 102.029 138.393 97.9307C139.447 91.3555 139.367 82.9236 131.437 81.1955C128.931 80.6501 126.327 80.7604 123.808 80.3008C121.29 79.8412 118.691 78.634 117.564 76.33C116.62 74.4058 116.89 72.1017 116.173 70.0795C115.37 67.8061 113.329 65.7103 113.93 63.3756C114.31 61.8988 115.646 60.9245 116.896 60.0359C119.237 58.412 121.412 57.0026 123.214 54.8027C124.838 52.8112 127.27 51.5733 129.703 50.8073C133.809 49.5205 136.701 50.4948 139.293 51.6714C141.885 52.8479 143.209 55.6177 145.047 55.7709C146.886 55.9241 148.387 54.9008 150.213 55.1581C152.039 55.4155 153.277 56.2795 155.042 55.9119C156.807 55.5442 155.6 53.5588 155.305 52.4435C155.011 51.3282 153.418 51.6775 151.298 51.7449C149.178 51.8123 148.614 51.2485 147.811 49.8698C147.008 48.491 145.832 49.7717 144.79 49.257C143.748 48.7422 144.042 51.3098 143.993 52.3209C143.944 53.332 143.093 51.5917 143.093 51.5917C143.093 51.5917 142.271 52.9889 141.867 52.3822C141.463 51.7755 142.278 50.2129 142.1 48.6626C141.922 47.1122 139.686 47.5657 138.239 46.4136C136.793 45.2616 134.826 45.1881 132.939 45.8867C131.051 46.5852 130.684 46.144 129.875 47.866C129.066 49.5879 124.972 50.8809 123.649 50.7093C122.325 50.5377 123.152 47.8231 124.194 45.4148C125.236 43.0065 127.589 43.7051 128.949 41.2601C130.31 38.8151 128.337 38.5577 126.958 38.1962C125.579 37.8346 125.12 36.5968 126.419 33.5083C127.718 30.4199 129.587 31.1797 130.408 32.5585C131.229 33.9373 132.926 34.5623 134.728 34.5133C136.53 34.4643 136.052 33.2264 135.905 30.616C135.758 28.0055 136.916 26.5716 139.244 25.4931C141.573 24.4146 145.47 22.6436 146.941 21.1668C148.412 19.69 151.114 20.554 152.591 21.994C154.068 23.4341 157.23 23.9121 160.557 24.3471C160.982 24.3953 161.412 24.3421 161.813 24.1919C162.213 24.0417 162.573 23.7988 162.861 23.4831C173.255 34.7433 179.792 49.0206 181.527 64.2458Z" fill="#005CB5"/>
<path d="M169.32 100.412C167.543 100.18 167.72 100.756 166.74 102.183C165.759 103.611 164.289 105.247 164.638 106.675C164.987 108.103 165.171 109.892 166.354 108.771C167.536 107.649 167.058 106.399 168.762 105.548C170.466 104.696 172.01 100.762 169.32 100.412Z" fill="#005CB5"/>
<path opacity="0.1" d="M150.911 19.8672C112.998 -9.66303 93.3094 16.3498 108.629 43.8579C123.949 71.3659 160.483 93.0219 170.588 82.9783C180.693 72.9347 179.094 41.8234 150.911 19.8672Z" fill="white"/>
<path opacity="0.1" d="M63.92 104.016C30.9827 41.7257 88.5847 3.07104 88.5847 3.07104C79.2073 5.90123 70.5005 10.602 62.9898 16.8897C55.4791 23.1773 49.3202 30.9216 44.8847 39.655C40.4492 48.3884 37.8292 57.9299 37.1827 67.7037C36.5362 77.4776 37.8767 87.2811 41.1232 96.5226C44.3697 105.764 49.4549 114.252 56.0721 121.474C62.6892 128.696 70.7009 134.503 79.6239 138.544C88.5468 142.584 98.1959 144.775 107.989 144.984C117.782 145.193 127.516 143.416 136.603 139.76C136.603 139.76 85.6066 145.023 63.92 104.016Z" fill="black"/>
<path d="M183.754 164.75C183.818 165.345 183.903 167.018 186.94 167.435C189.977 167.851 191.902 166.849 192.696 165.39C193.49 163.931 193.317 162.74 193.446 161.385C193.575 160.03 194.696 159.311 195.014 158.616C195.51 157.589 194.795 155.996 194.795 155.996L183.754 164.75Z" fill="#263238"/>
<path d="M161.606 159.991C161.532 160.239 161.512 160.5 161.546 160.756C161.58 161.013 161.668 161.259 161.805 161.48C162.484 162.017 163.265 162.409 164.102 162.633C164.938 162.856 165.812 162.906 166.668 162.78C168.52 162.531 170.285 161.839 171.814 160.765C172.985 159.977 174.374 159.576 175.784 159.619C177.243 159.569 178.315 159.241 178.424 158.859C178.618 158.189 178.618 157.763 178.3 157.782L161.606 159.991Z" fill="#263238"/>
<path d="M194.091 153.644C193.709 156.413 188.344 156.189 188.781 153.981L187.823 147.262L193.898 147.45L194.091 153.644Z" fill="#FFA8A7"/>
<path d="M183.972 163.365C184.403 162.782 184.87 162.226 185.372 161.703C187.189 159.384 188.286 156.584 188.528 153.648C188.528 153.485 188.558 153.152 188.722 153.073C188.885 152.993 189.049 153.112 189.218 153.187C189.518 153.316 189.836 153.4 190.161 153.435C191.006 153.462 191.852 153.428 192.692 153.331C192.9 153.361 192.965 154.011 192.95 154.705C193.332 154.467 193.446 153.986 193.798 153.713C193.987 153.559 194.066 153.554 194.061 153.306C194.061 153.142 194.061 152.998 194.061 152.834C194.339 152.755 194.558 153.827 194.796 154.621C195.059 155.559 195.386 156.606 195.019 157.564C194.786 158.08 194.5 158.571 194.166 159.028C193.584 159.82 193.204 160.741 193.059 161.713C193.019 162.139 193.059 162.571 192.994 162.998C192.894 163.711 192.59 164.381 192.121 164.927C191.651 165.473 191.035 165.873 190.344 166.08C188.493 166.655 185.714 166.576 184.082 165.271C183.511 164.819 183.705 163.866 183.972 163.365Z" fill="#00AF17"/>
<path d="M177.064 153.182C175.576 154.324 173.819 154.999 172.008 154.175L171.586 142.865L177.68 143.962L177.064 153.182Z" fill="#FFA8A7"/>
<path d="M162.832 158.04C163.234 157.911 163.636 157.767 164.028 157.609C165.129 157.168 166.193 156.639 167.209 156.026C167.655 155.753 168.097 155.47 168.524 155.167C168.951 154.864 169.392 154.507 169.819 154.175C170.048 153.975 170.256 153.752 170.439 153.51C170.808 153.056 171.115 152.555 171.353 152.021C171.388 151.895 171.47 151.787 171.581 151.718C171.654 151.695 171.731 151.691 171.806 151.706C171.881 151.722 171.95 151.757 172.008 151.807C172.111 151.892 172.223 151.967 172.34 152.031L172.697 152.18C173.08 152.339 173.485 152.437 173.898 152.472C175.437 152.611 175.486 152.304 175.556 152.8C175.57 152.985 175.57 153.171 175.556 153.356C176.37 153.222 177.01 152.959 177.045 152.651L177.144 151.659C177.953 151.584 178.007 153.038 178.275 154.666C178.489 155.986 178.806 156.939 178.444 157.911C177.218 158.983 175.055 158.72 173.824 158.904C172.082 159.192 171.263 160.482 168.861 161.321C164.956 162.675 162.489 161.112 161.755 160.432C161.264 159.594 161.169 158.571 162.832 158.04Z" fill="#00AF17"/>
<path d="M192.022 84.3169C192.597 89.1107 193.247 96.1625 193.446 101.686C193.813 112.107 193.669 125.948 193.669 125.948C194.253 128.132 194.628 130.367 194.791 132.623C195.039 139.277 194.994 154.22 194.994 154.22C194.994 154.22 192.235 156.999 188.106 154.815C188.106 154.815 184.449 133.863 183.426 127.303C182.434 121.045 180.543 106.564 180.543 106.564L179.685 126.295C180.348 129.097 180.565 131.986 180.33 134.856C180.107 137.903 178.345 152.954 178.345 152.954C176.757 154.443 172.132 153.634 171.124 152.458C171.124 152.458 169.502 130.211 169.323 126.995C168.936 120.047 168.196 92.7532 168.33 87.2497C168.474 83.1705 192.022 84.3169 192.022 84.3169Z" fill="#005CB5"/>
<path opacity="0.15" d="M192.022 84.3169C192.597 89.1107 193.247 96.1625 193.446 101.686C193.813 112.107 193.669 125.948 193.669 125.948C194.253 128.132 194.628 130.367 194.791 132.623C195.039 139.277 194.994 154.22 194.994 154.22C194.994 154.22 192.235 156.999 188.106 154.815C188.106 154.815 184.449 133.863 183.426 127.303C182.434 121.045 180.543 106.564 180.543 106.564L179.685 126.295C180.348 129.097 180.565 131.986 180.33 134.856C180.107 137.903 178.345 152.954 178.345 152.954C176.757 154.443 172.132 153.634 171.124 152.458C171.124 152.458 169.502 130.211 169.323 126.995C168.936 120.047 168.196 92.7532 168.33 87.2497C168.474 83.1705 192.022 84.3169 192.022 84.3169Z" fill="black"/>
<path opacity="0.15" d="M180.543 106.569L179.337 98.5543C179.337 98.5543 176.002 97.9241 173.576 96.1177C173.576 96.1177 174.519 98.2615 178.201 99.785L179.397 107.229L179.685 126.275L180.543 106.569Z" fill="black"/>
<path d="M173.874 54.4318C172.46 54.2128 171.013 54.4339 169.73 55.0651C168.446 55.6963 167.387 56.707 166.698 57.9602C165.259 60.3869 161.656 66.5901 159.457 70.4361C157.353 68.8183 152.247 64.888 151.324 63.6523C150.451 62.4973 149.698 61.2569 149.076 59.9502C148.688 59.1881 148.371 58.3925 148.128 57.5731C147.841 56.5691 147.675 55.5346 147.632 54.4914C147.512 53.5535 146.197 54.2433 145.885 55.8065C145.748 56.6662 145.748 57.5422 145.885 58.4019L143.483 57.6525C142.614 57.3995 139.895 56.8784 139.865 58.3721C139.865 58.7046 140.014 59.047 139.92 59.3646C139.858 59.5128 139.782 59.6541 139.691 59.7864C139.546 60.051 139.473 60.3498 139.482 60.6517C139.491 60.9537 139.58 61.2478 139.741 61.5035C139.905 61.7192 139.996 61.9819 139.999 62.2528C139.974 62.5372 140.004 62.8237 140.088 63.0965C140.211 63.2929 140.353 63.4774 140.51 63.6473C140.673 63.9004 140.792 64.1788 140.863 64.4711C140.931 64.7641 141.04 65.0462 141.185 65.3098C141.567 65.9103 142.371 65.94 143.001 66.0691C143.955 66.1724 144.903 66.3282 145.84 66.5355C147.423 67.265 152.376 73.895 156.986 77.8006C158.564 79.1405 159.919 79.9246 161.169 79.5623C162.202 79.3836 162.886 78.4407 163.805 77.081C165.909 73.8752 171.417 65.3048 171.417 65.3048C173.531 61.707 174.494 56.5211 173.874 54.4318Z" fill="#FFA8A7"/>
<path d="M144.823 58.6953C145.666 58.8591 145.954 59.3702 146.068 60.5414C146.133 61.2361 146.49 62.4867 147.304 62.9135C146.937 62.9183 146.577 62.811 146.272 62.6058C145.875 62.2783 145.775 62.2485 145.602 62.4818C145.468 62.6393 145.297 62.762 145.106 62.8391C145.25 62.9698 145.349 63.1439 145.386 63.3354C145.424 63.5268 145.399 63.7253 145.314 63.901C145.021 64.5462 143.403 64.7496 141.994 64.2187C141.994 64.2187 144.232 64.6355 144.649 63.8911C145.066 63.1467 143.825 62.4024 142.947 62.2882C142.947 62.2882 145.086 62.5413 145.324 61.8217C145.562 61.1022 144.644 60.6853 143.379 60.5166C143.379 60.5166 145.135 60.6258 145.364 60.0203C145.646 59.2511 145.076 58.9286 144.823 58.6953Z" fill="#F28F8F"/>
<path d="M174.787 53.7173C173.015 53.9853 170.95 54.2135 169.799 54.7644C168.251 55.4988 167.502 55.9058 164.588 60.9676C161.675 66.0294 159.303 70.0938 159.303 70.0938L153.438 65.7118C152.56 67.5318 151.281 69.1286 149.696 70.3816C149.696 70.3816 153.274 74.6593 155.199 76.5153C157.125 78.3713 159.343 80.1281 160.584 79.9891C161.824 79.8502 162.311 79.6616 164.683 76.0191C167.055 72.3765 171.973 64.8831 171.973 64.8831C171.973 64.8831 175.149 58.7642 174.787 53.7173Z" fill="#00407E"/>
<path d="M155.051 66.9179L152.103 64.4763C152.103 64.4763 150.52 67.4539 148.282 68.8235L151.214 72.1633C151.214 72.1633 154.386 70.4562 155.051 66.9179Z" fill="#263238"/>
<path d="M159.303 70.0939C160.562 71.1254 161.523 72.4735 162.087 73.9994C162.074 73.0738 161.873 72.1606 161.496 71.3151C161.119 70.4697 160.574 69.7098 159.894 69.0815L159.303 70.0939Z" fill="#37474F"/>
<path d="M184.29 53.0522C185.868 53.7172 191.069 55.2755 192.85 56.1489C195.039 57.2208 194.776 58.8435 194.776 61.2156C194.776 67.2948 191.659 77.4432 191.659 77.4432L192.508 87.815C189.679 90.8422 175.531 92.1622 168.301 87.7257C168.301 87.7257 167.804 68.8679 168.003 65.3941C168.345 59.2703 170.281 54.8685 173.958 53.9455C177.635 53.0225 181.432 51.8513 184.29 53.0522Z" fill="#00AF17"/>
<path d="M185.57 34.835C185.57 34.835 187.302 35.0732 187.937 36.3783C188.488 37.5098 188.29 40.2491 187.555 43.2316C187.135 45.1613 186.511 47.041 185.694 48.8393C185.406 49.3477 184.933 49.726 184.374 49.8964L184.459 46.358L184.588 43.8768C184.588 43.8768 183.005 41.7131 182.831 39.9414C182.608 37.6587 183.084 36.7257 183.084 36.7257L185.57 34.835Z" fill="#263238"/>
<path d="M185.977 35.2666L188.419 34.15C188.27 33.8085 187.994 33.5386 187.649 33.3977C187.304 33.2568 186.918 33.2561 186.573 33.3957C186.41 33.4781 186.264 33.5922 186.146 33.7313C186.027 33.8704 185.938 34.0319 185.882 34.2061C185.827 34.3803 185.807 34.5638 185.823 34.7459C185.839 34.928 185.892 35.105 185.977 35.2666Z" fill="#263238"/>
<path d="M182.762 38.2594C182.759 39.5678 182.367 40.8459 181.638 41.9318C180.908 43.0178 179.872 43.8626 178.662 44.3595C177.451 44.8563 176.12 44.9827 174.838 44.7228C173.556 44.4628 172.38 43.8281 171.458 42.8991C170.537 41.9701 169.912 40.7886 169.663 39.5041C169.413 38.2197 169.551 36.8902 170.057 35.6839C170.564 34.4776 171.418 33.4489 172.51 32.728C173.602 32.0072 174.883 31.6265 176.191 31.6344C177.94 31.6449 179.613 32.348 180.845 33.5897C182.076 34.8314 182.766 36.5106 182.762 38.2594Z" fill="#263238"/>
<path d="M184.494 43.4944C185.089 43.9907 185.575 42.6756 186.072 42.1545C186.568 41.6335 188.206 40.9288 189.014 42.6508C189.823 44.3728 188.295 46.8491 187.029 47.3404C185.928 47.7721 184.776 46.8739 184.776 46.8739L184.727 54.1838C183.873 55.8711 180.523 56.0547 178.608 55.9753C176.926 55.9058 176.201 55.2359 177.06 54.0994V51.6777C176.075 51.8297 175.077 51.8762 174.082 51.8166C172.459 51.5636 171.601 50.3279 171.105 48.5761C170.325 45.7474 170.008 40.9982 171.105 35.5047C172.926 34.1003 179.233 34.3335 183.049 36.7503C182.806 41.6136 183.898 42.9783 184.494 43.4944Z" fill="#FFA8A7"/>
<path d="M170.236 31.6341C170.255 31.5854 170.287 31.5428 170.328 31.5105C170.369 31.4782 170.417 31.4575 170.469 31.4504C170.552 31.4592 170.63 31.4939 170.692 31.5497C171.147 31.9181 171.63 32.25 172.137 32.5422C172.011 31.8865 172.011 31.2129 172.137 30.5572C172.211 30.1552 172.325 29.2322 172.821 29.1329C173.114 29.0734 173.372 29.3165 173.591 29.525C175.576 31.381 178.171 30.5175 180.538 30.5969C182.523 30.6614 184.955 31.4752 185.858 33.4206C186.27 34.3138 186.354 35.2518 185.526 35.8671C184.795 36.3578 183.958 36.669 183.084 36.7753C179.114 37.47 173.387 39.1077 170.439 35.3957C170.01 34.8386 169.792 34.1477 169.824 33.4454C169.817 32.8289 169.953 32.2191 170.221 31.6638L170.236 31.6341Z" fill="#263238"/>
<path d="M177.089 51.668C177.089 51.668 180.722 50.9485 181.992 50.2785C182.841 49.8269 183.977 49.0974 184.186 48.5962C184.143 49.0446 184.006 49.479 183.784 49.8708C183.562 50.2625 183.259 50.6027 182.896 50.869C180.94 52.328 177.089 52.8541 177.089 52.8541V51.668Z" fill="#F28F8F"/>
<path d="M177.829 41.9015C177.834 42.0447 177.88 42.1832 177.963 42.2998C178.047 42.4165 178.162 42.5061 178.296 42.5575C178.429 42.609 178.575 42.6199 178.715 42.589C178.855 42.5582 178.983 42.4868 179.082 42.3839C179.182 42.2809 179.249 42.1509 179.275 42.0102C179.301 41.8694 179.285 41.724 179.229 41.5921C179.174 41.4603 179.08 41.3478 178.961 41.2686C178.841 41.1895 178.701 41.1473 178.558 41.1472C178.461 41.1485 178.364 41.1691 178.275 41.2077C178.185 41.2464 178.104 41.3024 178.036 41.3725C177.969 41.4427 177.915 41.5255 177.88 41.6163C177.844 41.7071 177.827 41.804 177.829 41.9015Z" fill="#263238"/>
<path d="M178.221 39.683L179.844 40.4125C179.937 40.1901 179.94 39.9404 179.853 39.7156C179.766 39.4908 179.596 39.3084 179.377 39.2066C179.27 39.1597 179.155 39.1349 179.038 39.1336C178.922 39.1323 178.806 39.1546 178.698 39.199C178.59 39.2435 178.492 39.3093 178.41 39.3924C178.328 39.4756 178.264 39.5744 178.221 39.683Z" fill="#263238"/>
<path d="M177.958 46.8147L175.055 47.8965C175.117 48.0935 175.219 48.2757 175.354 48.4321C175.488 48.5884 175.654 48.7158 175.839 48.8063C176.025 48.8968 176.227 48.9486 176.434 48.9586C176.64 48.9685 176.846 48.9364 177.04 48.8642C177.427 48.7059 177.738 48.4047 177.909 48.0232C178.08 47.6416 178.097 47.2089 177.958 46.8147Z" fill="#F28F8F"/>
<path d="M171.313 40.1499L172.99 39.5295C172.956 39.4183 172.899 39.3153 172.823 39.2267C172.748 39.1382 172.655 39.0659 172.55 39.0144C172.446 38.9628 172.332 38.9331 172.216 38.927C172.1 38.9208 171.983 38.9384 171.874 38.9787C171.648 39.0649 171.464 39.2344 171.36 39.4524C171.255 39.6703 171.239 39.92 171.313 40.1499Z" fill="#263238"/>
<path d="M171.695 41.6685C171.701 41.8113 171.748 41.9493 171.832 42.0653C171.916 42.1813 172.031 42.2701 172.165 42.3208C172.299 42.3715 172.445 42.3818 172.584 42.3503C172.724 42.3189 172.851 42.2472 172.95 42.1441C173.049 42.041 173.115 41.911 173.141 41.7704C173.167 41.6298 173.151 41.4846 173.095 41.3531C173.039 41.2215 172.946 41.1093 172.826 41.0304C172.707 40.9514 172.567 40.9093 172.424 40.9092C172.326 40.9105 172.23 40.9312 172.14 40.9702C172.05 41.0092 171.969 41.0656 171.901 41.1362C171.833 41.2069 171.78 41.2903 171.744 41.3817C171.709 41.473 171.692 41.5705 171.695 41.6685Z" fill="#263238"/>
<path d="M175.417 41.0129L175.298 46.1194L173.02 45.3353L175.417 41.0129Z" fill="#F28F8F"/>
<path d="M181.972 97.1647C181.972 97.2243 182.096 97.4228 182.469 97.6312L187.431 100.495L187.903 99.1398C188.012 98.8268 188.197 98.5456 188.441 98.3214C188.685 98.0971 188.981 97.9367 189.302 97.8545C189.858 97.7751 190.131 98.2218 189.912 98.847L189.024 101.403L191.937 103.085C192.567 103.392 193.259 103.552 193.959 103.552C194.66 103.552 195.352 103.392 195.982 103.085L215.375 91.8846C215.772 91.6563 215.872 91.4578 215.872 91.4181C215.872 91.3784 215.787 91.1848 215.375 90.9566L205.842 85.4481C205.214 85.1426 204.524 84.9839 203.825 84.9839C203.126 84.9839 202.436 85.1426 201.808 85.4481L182.454 96.6784C182.091 96.9017 181.972 97.1052 181.972 97.1647ZM197.173 97.6014L198.84 92.8026C198.949 92.4883 199.135 92.206 199.38 91.9808C199.625 91.7557 199.922 91.5947 200.244 91.5124C200.8 91.433 201.073 91.8846 200.85 92.5049L199.182 97.3086C199.072 97.6223 198.886 97.904 198.641 98.129C198.396 98.354 198.1 98.5154 197.778 98.5989C197.222 98.6833 196.954 98.2366 197.153 97.6014H197.173ZM191.714 100.773L193.381 95.9688C193.492 95.6556 193.678 95.3744 193.922 95.1503C194.167 94.9261 194.464 94.7657 194.786 94.6835C195.341 94.6041 195.609 95.0507 195.391 95.676L193.724 100.48C193.613 100.793 193.427 101.074 193.182 101.298C192.937 101.522 192.641 101.683 192.319 101.765C191.744 101.854 191.471 101.408 191.694 100.773H191.714Z" fill="#37474F"/>
<path d="M203.798 84.9967C204.496 84.9808 205.187 85.1395 205.808 85.4582L215.341 90.9667C215.738 91.1949 215.837 91.3934 215.837 91.4282C215.837 91.4629 215.763 91.6763 215.366 91.8996L203.798 98.5693V84.9967Z" fill="#263238"/>
<path d="M217.053 91.5024L216.348 101.214C216.231 102.133 215.916 103.015 215.424 103.8C214.932 104.585 214.276 105.254 213.5 105.76L196.567 115.536C195.76 115.964 194.856 116.18 193.942 116.161V104.162L217.053 91.5024Z" fill="black"/>
<path d="M213.177 102.961V94.7031L208.244 97.5467V105.804L213.177 102.961Z" fill="#E0E0E0"/>
<path d="M208.245 97.5471L200.845 93.2793V101.537L208.245 105.805V97.5471Z" fill="#EBEBEB"/>
<path d="M205.778 90.4307L213.177 94.7034L208.245 97.547L200.845 93.2792L205.778 90.4307Z" fill="#FAFAFA"/>
<path d="M204.547 104.241V90.8225L199.615 93.6661V107.09L204.547 104.241Z" fill="#005CB5"/>
<g opacity="0.6">
<path opacity="0.6" d="M204.547 104.241V90.8225L199.615 93.6661V107.09L204.547 104.241Z" fill="white"/>
</g>
<path d="M199.614 93.6661L194.681 90.8225V104.241L199.614 107.09V93.6661Z" fill="#005CB5"/>
<g opacity="0.7">
<path opacity="0.7" d="M199.614 93.6661L194.681 90.8225V104.241L199.614 107.09V93.6661Z" fill="white"/>
</g>
<path d="M199.614 87.9739L204.547 90.8224L199.614 93.6659L194.681 90.8224L199.614 87.9739Z" fill="#005CB5"/>
<g opacity="0.9">
<path opacity="0.9" d="M199.614 87.9739L204.547 90.8224L199.614 93.6659L194.681 90.8224L199.614 87.9739Z" fill="white"/>
</g>
<path d="M197.734 108.921V94.6833L192.806 97.5319V111.765L197.734 108.921Z" fill="#005CB5"/>
<path opacity="0.1" d="M197.734 108.921V94.6833L192.806 97.5319V111.765L197.734 108.921Z" fill="black"/>
<path d="M192.806 97.5319L187.858 94.6833V108.921L192.806 111.765V97.5319Z" fill="#005CB5"/>
<path opacity="0.25" d="M192.806 97.5319L187.858 94.6833V108.921L192.806 111.765V97.5319Z" fill="black"/>
<path d="M192.786 91.8398L197.734 94.6834L192.806 97.5319L187.858 94.6834L192.786 91.8398Z" fill="#005CB5"/>
<path d="M201.818 111.357V102.817L196.89 105.665V114.206L201.818 111.357Z" fill="#E0E0E0"/>
<path d="M196.89 105.665L189.491 101.393V109.933L196.89 114.206V105.665Z" fill="#EBEBEB"/>
<path d="M194.423 98.5491L201.818 102.817L196.89 105.665L189.491 101.393L194.423 98.5491Z" fill="#FAFAFA"/>
<path d="M193.366 104.584L194.101 104.182V116.181C193.185 116.2 192.28 115.984 191.471 115.556L186.865 112.896C185.259 111.852 184.078 110.268 183.536 108.43L180.776 97.3931L193.366 104.584Z" fill="#263238"/>
<path d="M181.848 98.683L191.312 104.142C192.126 104.556 193.026 104.772 193.94 104.772C194.853 104.772 195.753 104.556 196.567 104.142L215.966 92.9413C216.255 92.8136 216.507 92.6138 216.696 92.3608C216.885 92.1079 217.007 91.8105 217.048 91.4972C217.083 90.9265 216.725 90.3458 215.966 89.9091L206.428 84.4057C205.615 83.9909 204.715 83.7747 203.803 83.7747C202.89 83.7747 201.991 83.9909 201.178 84.4057L181.824 95.636C180.394 96.4895 180.399 97.8443 181.848 98.683ZM181.972 97.1595C181.972 97.1049 182.092 96.9014 182.469 96.693L201.823 85.4627C202.446 85.1399 203.14 84.9778 203.842 84.9912C204.533 84.9775 205.216 85.1379 205.828 85.4577L215.371 90.9662C215.763 91.1944 215.867 91.393 215.867 91.4327C215.867 91.4724 215.822 91.5815 215.629 91.7403C215.553 91.7984 215.473 91.8514 215.39 91.8991L195.962 103.095C195.333 103.405 194.641 103.566 193.94 103.566C193.238 103.566 192.546 103.405 191.917 103.095L182.459 97.6359C182.092 97.4225 181.972 97.219 181.972 97.1396V97.1595Z" fill="#455A64"/>
<path d="M193.942 104.777V116.166C194.857 116.183 195.761 115.964 196.567 115.531L213.495 105.755C214.272 105.251 214.93 104.584 215.422 103.799C215.915 103.015 216.231 102.133 216.348 101.214L217.053 91.5024C217.012 91.8158 216.891 92.1132 216.701 92.3661C216.512 92.619 216.26 92.8189 215.971 92.9466L196.572 104.147C195.764 104.577 194.858 104.794 193.942 104.777ZM209.356 103.939L211.048 99.1249C211.159 98.8115 211.345 98.53 211.59 98.3051C211.835 98.0801 212.131 97.9186 212.453 97.8347C213.008 97.7602 213.281 98.2069 213.063 98.8272L211.391 103.626C211.281 103.94 211.096 104.223 210.851 104.448C210.606 104.673 210.309 104.834 209.986 104.916C209.411 105.02 209.138 104.584 209.356 103.939ZM203.897 107.11L205.565 102.306C205.674 101.992 205.859 101.709 206.104 101.484C206.35 101.259 206.647 101.098 206.969 101.016C207.525 100.936 207.798 101.388 207.574 102.008L205.907 106.807C205.798 107.121 205.612 107.404 205.367 107.629C205.122 107.854 204.825 108.015 204.503 108.097C203.927 108.192 203.659 107.74 203.877 107.11H203.897ZM198.438 110.276L200.106 105.477C200.215 105.163 200.401 104.88 200.646 104.655C200.891 104.43 201.188 104.269 201.51 104.187C202.066 104.107 202.334 104.559 202.116 105.179L200.448 109.983C200.338 110.297 200.152 110.579 199.907 110.804C199.662 111.029 199.366 111.19 199.044 111.273C198.448 111.363 198.175 110.911 198.399 110.276H198.438Z" fill="#37474F"/>
<path d="M192.235 76.6991L192.205 74.9722C192.044 74.8878 191.864 74.8438 191.682 74.8438C191.499 74.8438 191.32 74.8878 191.158 74.9722C191.013 75.0683 190.899 75.2055 190.832 75.3664C190.765 75.5272 190.747 75.7044 190.781 75.8754C191.277 78.0093 193.089 89.0212 193.128 89.0956L194.493 88.3016L192.235 76.6991Z" fill="#005CB5"/>
<path opacity="0.25" d="M192.235 76.6991L192.205 74.9722C192.044 74.8878 191.864 74.8438 191.682 74.8438C191.499 74.8438 191.32 74.8878 191.158 74.9722C191.013 75.0683 190.899 75.2055 190.832 75.3664C190.765 75.5272 190.747 75.7044 190.781 75.8754C191.277 78.0093 193.089 89.0212 193.128 89.0956L194.493 88.3016L192.235 76.6991Z" fill="black"/>
<path d="M190.473 75.3891C190.322 75.4914 190.192 75.6225 190.092 75.775C189.992 75.9274 189.922 76.0981 189.888 76.2774L188.156 91.9789L189.486 91.2097L191.009 76.6992L191.505 75.399C191.346 75.316 191.17 75.2718 190.99 75.2701C190.811 75.2683 190.634 75.3091 190.473 75.3891Z" fill="#005CB5"/>
<path d="M170.777 81.6964C170.982 81.6767 171.188 81.6767 171.392 81.6964C172.449 81.751 173.496 81.9396 174.548 82.0239C175.068 82.0719 175.591 82.0802 176.112 82.0487C176.375 82.0487 177.347 82.0488 177.506 81.7907C177.665 81.5326 177.223 81.4135 177.01 81.3391C176.617 81.1759 176.246 80.966 175.903 80.7138C175.099 80.1034 174.673 79.0216 175.055 78.5948C175.437 78.168 175.367 78.2573 176.295 78.7586C177.223 79.2598 178.201 79.4186 179.447 80.2473C180.258 80.8696 181.208 81.2851 182.216 81.4582C183.521 81.6964 187.223 80.8031 190.652 79.7412C192.124 79.3102 193.568 78.7864 194.974 78.173C194.766 77.116 194.478 76.1185 194.17 75.1012C192.796 70.4909 192.483 70.0096 191.377 66.898C189.818 62.5062 190.88 55.5635 192.448 56.0151C195.252 56.8191 196.731 57.3153 198.22 62.1141C199.406 65.9502 199.818 67.7764 200.994 73.5677C201.282 74.9969 201.649 76.7289 201.987 79.5972C202.15 80.9272 202.125 82.5748 200.994 83.0363C198.955 83.8679 196.837 84.4881 194.672 84.8873C192.865 85.2496 186.97 86.1726 184.841 86.4108C183.729 86.5399 182.637 86.6242 181.541 86.8327C180.444 87.0411 179.228 87.2942 178.067 87.4133C176.403 87.6477 174.707 87.4599 173.134 86.8674C172.353 86.5648 171.654 86.0843 171.091 85.4641C170.529 84.8438 170.119 84.1009 169.894 83.2944C169.828 83.094 169.807 82.8816 169.832 82.6722C169.858 82.4629 169.93 82.2618 170.042 82.0835C170.23 81.8668 170.492 81.7287 170.777 81.6964Z" fill="#FFA8A7"/>
<path d="M191.615 55.6777C194.19 55.7919 196.329 57.1318 197.074 58.3575C197.818 59.5833 199.674 65.0768 200.83 70.5754C201.987 76.0739 202.87 82.297 202.066 82.7634C201.262 83.2299 197.659 85.2795 189.049 85.8154L187.838 80.4261L194.483 77.9994L191.63 69.0667C191.63 69.0667 188.548 60.417 191.615 55.6777Z" fill="#00407E"/>
<path d="M201.798 82.9272L193.744 78.2822L192.434 78.7785L200.627 83.488C201.153 83.2448 201.535 83.0711 201.798 82.9272Z" fill="#263238"/>
<path d="M188.156 80.3169C189.081 81.9913 189.592 83.8633 189.645 85.7757C188.193 86.0964 186.717 86.2923 185.233 86.3613C185.316 84.6253 184.993 82.8937 184.29 81.3044L188.156 80.3169Z" fill="#263238"/>
<path d="M192.205 74.9724L192.235 76.6994L205.297 84.173L205.957 82.9224L192.205 74.9724Z" fill="#005CB5"/>
<path opacity="0.25" d="M192.205 74.9724L192.235 76.6994L205.297 84.173L205.957 82.9224L192.205 74.9724Z" fill="black"/>
<path d="M206.622 83.8154C206.515 83.4469 206.279 83.1295 205.957 82.9221L205.297 84.1727L207.961 97.5716L209.291 96.8024L206.622 83.8154Z" fill="#005CB5"/>
<path opacity="0.25" d="M206.622 83.8154C206.515 83.4469 206.279 83.1295 205.957 82.9221L205.297 84.1727L207.961 97.5716L209.291 96.8024L206.622 83.8154Z" fill="black"/>
<path d="M205.679 83.5129L204.736 84.6246L202.994 100.366L204.324 99.5966L206.11 84.4161C206.128 84.2405 206.097 84.0633 206.021 83.904C205.945 83.7447 205.827 83.6094 205.679 83.5129Z" fill="#005CB5"/>
<path d="M191.501 75.3992L191.009 76.6994L204.736 84.6246L205.679 83.513L191.501 75.3992Z" fill="#005CB5"/>
<path d="M204.324 100.366C204.311 100.597 204.244 100.822 204.128 101.022C204.013 101.223 203.852 101.394 203.659 101.522C203.292 101.735 202.994 101.567 202.994 101.14V100.366L204.324 99.5964V100.366Z" fill="#005CB5"/>
<path d="M209.291 97.5766C209.278 97.8077 209.211 98.0326 209.096 98.2333C208.98 98.4341 208.82 98.6051 208.626 98.7329C208.259 98.9462 207.961 98.7775 207.961 98.3507V97.5766L209.291 96.8074V97.5766Z" fill="#005CB5"/>
<path opacity="0.25" d="M209.291 97.5766C209.278 97.8077 209.211 98.0326 209.096 98.2333C208.98 98.4341 208.82 98.6051 208.626 98.7329C208.259 98.9462 207.961 98.7775 207.961 98.3507V97.5766L209.291 96.8074V97.5766Z" fill="black"/>
<path d="M37.8544 147.53C37.8544 147.53 36.708 130.568 37.5864 124.181C38.3407 118.722 39.224 116.434 39.3779 115.189C39.3779 115.189 40.7327 102.316 40.8666 91.3684C40.9212 86.1032 41.4076 82.3564 44.2908 76.0986L62.8409 80.5352C63.2181 83.3142 64.4934 101.805 64.7961 118.251C65.0592 132.642 64.6473 145.242 64.6473 145.242V146.001C64.6473 146.84 64.8309 147.431 65.3768 148.78C66.0536 150.516 67.0239 152.123 68.2451 153.53C68.6273 153.941 71.2723 156.259 71.6246 156.75C72.7611 158.075 70.4039 158.825 68.6471 158.591C66.801 158.343 63.9376 157.644 63.1238 156.522C62.5828 155.773 62.1759 153.152 61.635 152.393C59.7591 149.832 58.9899 148.736 58.9751 147.927C58.9751 146.438 59.4713 145.862 59.64 145.029C59.4862 143.287 55.7246 128.95 55.67 123.873C55.6402 121.452 55.804 118.122 55.804 118.122L52.881 101.368C51.7545 105.551 49.7099 113.353 49.04 117.343C48.2261 122.211 45.457 136.394 43.7152 142.84C43.1986 144.506 42.8087 146.208 42.549 147.932C42.549 147.932 42.4944 148.498 42.4944 148.502C42.4596 149.222 42.142 156.939 41.8592 158.547C41.2637 161.936 38.2464 161.524 37.765 158.765C37.3531 156.433 37.8693 149.207 37.8792 148.319L37.8544 147.53Z" fill="#FFA8A7"/>
<path d="M37.8544 147.529C37.0058 147.529 37.5665 150.834 37.3581 152.953C37.1249 155.226 36.3656 156.884 36.1671 158.745C35.8763 160.368 36.1256 162.041 36.8767 163.509C37.4722 164.869 40.4498 166.734 41.5813 164.789C42.7127 162.844 42.9559 160.626 42.8269 158.506C42.713 156.725 42.723 154.937 42.8566 153.157C42.9757 151.365 43.1445 148.026 42.5043 147.926L42.4497 148.497C42.0577 149.286 38.2811 149.837 37.8345 148.313L37.8544 147.529Z" fill="#00AF17"/>
<path d="M58.722 149.708C58.459 150.77 58.722 153.678 58.722 153.678C58.722 153.678 59.1786 154.671 60.8162 155.351L61.5507 151.301L58.722 149.708Z" fill="#00AF17"/>
<path d="M60.8262 155.351L64.434 154.165L65.3024 150.959L61.253 153.013L60.8262 155.351Z" fill="black"/>
<path d="M64.5779 146.006V145.247C65.0741 145.485 66.1461 149.435 67.605 152.14C68.94 154.621 71.5751 155.991 72.4336 157.068C73.58 158.507 71.3518 160.358 67.7738 159.594C66.0021 159.217 63.3075 158.08 62.5829 156.884C61.8584 155.688 61.5904 153.485 61.0148 152.606C60.4391 151.728 59 150.711 58.7022 149.708C58.466 148.8 58.466 147.847 58.7022 146.939C58.9851 146.031 59.2282 144.924 59.5409 145.024V145.718C59.7791 146.215 60.6426 146.775 62.4489 146.875C63.3521 146.919 64.1858 146.765 64.5779 146.006Z" fill="#00AF17"/>
<path d="M63.1636 80.3263C63.1636 80.3263 64.3893 93.9337 64.7814 105.993C65.1734 118.052 65.3223 146.438 65.3223 146.438C65.3223 146.438 64.4191 148.095 61.5756 147.768C58.8511 147.45 58.598 146.19 58.598 146.19C58.598 146.19 55.4567 128.354 55.1937 124.508C55.03 122.427 55.03 120.336 55.1937 118.255L52.7422 102.172C52.7422 102.172 49.5215 117.213 49.1691 119.129C48.8168 121.044 43.3332 149.4 43.3332 149.4C43.3332 149.4 42.6235 150.656 39.8594 150.393C37.2292 150.15 37.0009 149.098 37.0009 149.098C37.0009 149.098 36.7131 127.367 37.2193 123.491C37.7255 119.615 38.7676 116.642 38.9463 114.111C39.1249 111.581 38.7676 97.8442 38.9463 92.3506C39.1249 86.8571 40.2415 81.6761 44.9361 75.061L63.1636 80.3263Z" fill="#005CB5"/>
<g opacity="0.65">
<path opacity="0.65" d="M63.1636 80.3263C63.1636 80.3263 64.3893 93.9337 64.7814 105.993C65.1734 118.052 65.3223 146.438 65.3223 146.438C65.3223 146.438 64.4191 148.095 61.5756 147.768C58.8511 147.45 58.598 146.19 58.598 146.19C58.598 146.19 55.4567 128.354 55.1937 124.508C55.03 122.427 55.03 120.336 55.1937 118.255L52.7422 102.172C52.7422 102.172 49.5215 117.213 49.1691 119.129C48.8168 121.044 43.3332 149.4 43.3332 149.4C43.3332 149.4 42.6235 150.656 39.8594 150.393C37.2292 150.15 37.0009 149.098 37.0009 149.098C37.0009 149.098 36.7131 127.367 37.2193 123.491C37.7255 119.615 38.7676 116.642 38.9463 114.111C39.1249 111.581 38.7676 97.8442 38.9463 92.3506C39.1249 86.8571 40.2415 81.6761 44.9361 75.061L63.1636 80.3263Z" fill="white"/>
</g>
<path d="M52.7421 102.172L54.7767 92.0975C54.7767 92.0975 58.3299 91.1745 59.9825 89.0059C59.9825 89.0059 59.5209 91.4077 55.8734 92.9461L53.7346 102.98L54.469 113.352L52.7421 102.172Z" fill="#005CB5"/>
<path opacity="0.05" d="M52.7421 102.172L54.7767 92.0975C54.7767 92.0975 58.3299 91.1745 59.9825 89.0059C59.9825 89.0059 59.5209 91.4077 55.8734 92.9461L53.7346 102.98L54.469 113.352L52.7421 102.172Z" fill="black"/>
<path d="M86.4379 87.6812C85.137 87.4473 83.9055 86.9232 82.8351 86.1478C83.4511 86.0655 84.0545 85.9071 84.6315 85.6763C84.8924 85.5808 85.106 85.3877 85.2273 85.1377C85.3485 84.8878 85.368 84.6005 85.2816 84.3364C85.1824 84.1131 84.6464 84.3811 83.6539 84.3364C82.3884 84.2719 81.525 84.0536 80.1801 84.3364C79.6725 84.442 79.1439 84.3609 78.6913 84.1082C76.1555 82.674 70.3641 77.632 67.997 75.0912C67.2824 72.0739 66.2204 66.3967 65.2775 61.9602C64.285 57.221 62.6722 54.8389 58.5632 54.5164L56.7717 59.0819C57.7146 63.5482 58.4589 69.5033 61.5457 76.972C62.2664 78.5641 63.3735 79.951 64.7664 81.0065C67.3271 83.0958 70.523 85.3289 74.4483 87.9889C76.0403 89.085 77.72 90.0477 79.4705 90.8672C83.9368 92.8175 86.1004 92.1425 87.0284 91.4726C89.6487 89.5719 89.0036 88.0137 86.4379 87.6812Z" fill="#FFA8A7"/>
<path d="M58.5929 54.5012C59.4649 54.467 60.334 54.6223 61.1402 54.9564C61.9464 55.2905 62.6706 55.7956 63.2627 56.4366C64.6472 57.9502 65.3867 60.7044 66.5181 66.6248C67.6496 72.5451 68.2253 75.0611 68.2253 75.0611L76.3887 82.4603C75.507 82.8753 74.72 83.4669 74.0764 84.1984C73.4328 84.93 72.9462 85.786 72.6469 86.7133C72.6469 86.7133 66.9201 82.9169 64.3991 80.9765C61.8781 79.0362 61.5903 78.1181 60.7913 76.014C58.9415 70.6627 57.5177 65.1735 56.5334 59.5978L58.5929 54.5012Z" fill="#00407E"/>
<path d="M41.0404 81.6516C40.788 82.276 40.5872 82.92 40.4399 83.5771C40.4399 83.5771 43.4919 87.0509 51.1194 87.3238C58.7469 87.5968 62.31 85.6663 63.5258 84.8128L63.372 82.932L41.0404 81.6516Z" fill="#00AF17"/>
<path d="M50.4545 54.4319L44.7574 54.8735C45.9584 61.3249 42.8171 66.9375 42.8171 66.9375L43.1247 73.245C42.8865 74.5154 41.0405 79.8749 41.0405 81.6515C44.018 85.6216 58.6377 86.4107 63.372 82.9319C63.8087 80.4258 62.707 75.622 62.5631 74.2077L62.2306 69.0367C67.2875 62.2628 61.2381 56.8635 58.598 54.5013L55.283 54.3574L50.4545 54.4319Z" fill="#00AF17"/>
<path d="M55.7197 66.0788C55.5717 65.1809 55.56 64.2657 55.6849 63.3643C55.7576 63.0531 55.8538 62.7478 55.9728 62.4512C56.0871 62.1703 56.1816 61.8817 56.2556 61.5877C56.2657 61.5402 56.2657 61.4912 56.2556 61.4438C56.2477 61.4197 56.2312 61.3993 56.2092 61.3865C56.1873 61.3737 56.1614 61.3694 56.1365 61.3743C56.1044 61.3856 56.0778 61.4086 56.0621 61.4388C55.6144 62.0172 55.3222 62.7005 55.2135 63.4238C55.1023 64.2479 55.1123 65.0839 55.2433 65.9051C55.3773 66.7041 55.5212 67.4931 55.6254 68.2971C55.7402 68.9538 55.7402 69.6254 55.6254 70.2821C55.6254 70.3417 55.6849 70.5054 55.7594 70.4211C56.1862 69.9248 56.1316 69.2102 56.0671 68.5899C55.9877 67.7413 55.8537 66.9175 55.7197 66.0788Z" fill="#263238"/>
<path d="M58.8559 65.3793C58.7634 64.4733 58.5342 63.5865 58.176 62.7492C58.04 62.4564 57.8737 62.1786 57.6798 61.9204C57.4932 61.6923 57.3271 61.4482 57.1835 61.1909C57.1619 61.1461 57.1517 61.0967 57.1538 61.047C57.1558 61.0222 57.1663 60.9988 57.1834 60.9808C57.2006 60.9627 57.2234 60.9511 57.2481 60.9478C57.282 60.9523 57.3134 60.968 57.3374 60.9924C57.9207 61.4333 58.3819 62.0158 58.6773 62.6847C58.9995 63.4458 59.2084 64.25 59.2976 65.0716C59.382 65.8756 59.4465 66.6746 59.5606 67.4785C59.6125 68.1459 59.7805 68.7992 60.0569 69.4089C60.0866 69.4635 60.0569 69.6422 59.9675 69.5777C59.4217 69.2055 59.2877 68.5107 59.1884 67.8953C59.0346 67.0517 58.9453 66.218 58.8559 65.3793Z" fill="#263238"/>
<path d="M56.7569 60.7195C58.206 59.5533 58.3499 57.345 58.2953 56.6453C58.2407 55.9455 57.948 54.5014 57.948 54.5014H58.5931C58.5931 54.5014 58.1266 53.3303 57.4021 53.0127C56.959 52.8148 56.486 52.6924 56.0026 52.6504V54.3922H56.1366C56.1366 54.3922 57.412 56.4865 56.7569 60.7195Z" fill="#37474F"/>
<path d="M56.7568 60.7198C56.7568 60.7198 54.2159 60.8289 52.484 59.7272C50.7521 58.6256 48.6777 55.9805 48.2112 55.4843C47.8734 55.1503 47.4784 54.8797 47.045 54.6853L45.5959 54.7994C45.8923 54.1467 46.3896 53.6059 47.0152 53.2561C47.8539 52.855 48.7704 52.6433 49.7 52.6357V54.5463C49.7 54.5463 53.814 59.7372 56.7568 60.7198Z" fill="#37474F"/>
<path d="M56.1416 54.3971L55.2781 54.3574L50.4545 54.4319L49.6803 54.4914V54.5559C50.5193 56.1073 51.5903 57.5214 52.8563 58.7493C53.9229 59.7834 55.2744 60.4747 56.7371 60.7343C56.7371 60.7343 58.335 57.335 56.1416 54.3971Z" fill="#005CB5"/>
<path d="M57.65 108.98L38.3208 97.7501C37.6922 97.4446 37.0025 97.2859 36.3036 97.2859C35.6046 97.2859 34.9149 97.4446 34.2863 97.7501L24.7482 103.259C24.3512 103.487 24.252 103.685 24.252 103.725C24.252 103.765 24.3363 103.958 24.7482 104.187L44.1469 115.387C44.7759 115.694 45.4667 115.854 46.1667 115.854C46.8666 115.854 47.5574 115.694 48.1864 115.387L51.1044 113.705L50.2161 111.149C49.9928 110.514 50.2657 110.067 50.8215 110.157C51.1433 110.239 51.4397 110.399 51.6847 110.623C51.9296 110.848 52.1156 111.129 52.2259 111.442L52.6924 112.797L57.655 109.933C58.0173 109.73 58.1513 109.526 58.1513 109.467C58.1513 109.407 58.0123 109.189 57.65 108.98ZM42.3207 110.896C41.9986 110.813 41.702 110.652 41.457 110.427C41.2121 110.201 41.0264 109.92 40.9163 109.606L39.2488 104.802C39.0305 104.172 39.3034 103.72 39.8543 103.809C40.1767 103.892 40.4737 104.053 40.7188 104.278C40.9639 104.503 41.1494 104.785 41.2587 105.1L42.9311 109.898C43.1544 110.539 42.8814 110.975 42.3207 110.896ZM47.7795 114.067C47.4585 113.983 47.1631 113.821 46.9191 113.596C46.6752 113.371 46.4901 113.09 46.38 112.777L44.7077 107.973C44.4893 107.343 44.7622 106.891 45.3181 106.98C45.6401 107.064 45.9367 107.225 46.1817 107.45C46.4266 107.675 46.6124 107.957 46.7225 108.271L48.3899 113.07C48.6331 113.695 48.3601 114.141 47.8043 114.067H47.7795Z" fill="#005CB5"/>
<path d="M36.3061 97.2835C35.6164 97.2705 34.9343 97.4291 34.3211 97.745L24.783 103.253C24.386 103.482 24.2867 103.68 24.2867 103.72C24.2867 103.76 24.3612 103.963 24.7582 104.216L36.3259 110.881L36.3061 97.2835Z" fill="#005CB5"/>
<g opacity="0.15">
<path opacity="0.15" d="M36.3061 97.2835C35.6164 97.2705 34.9343 97.4291 34.3211 97.745L24.783 103.253C24.386 103.482 24.2867 103.68 24.2867 103.72C24.2867 103.76 24.3612 103.963 24.7582 104.216L36.3259 110.881L36.3061 97.2835Z" fill="black"/>
</g>
<path d="M23.0511 103.789L23.7558 113.516C23.8748 114.434 24.1909 115.316 24.6826 116.1C25.1743 116.885 25.8298 117.554 26.6043 118.062L43.5366 127.838C44.3444 128.266 45.2478 128.481 46.1618 128.463V116.449L23.0511 103.789Z" fill="#005CB5"/>
<g opacity="0.3">
<path opacity="0.3" d="M23.0511 103.789L23.7558 113.516C23.8748 114.434 24.1909 115.316 24.6826 116.1C25.1743 116.885 25.8298 117.554 26.6043 118.062L43.5366 127.838C44.3444 128.266 45.2478 128.481 46.1618 128.463V116.449L23.0511 103.789Z" fill="black"/>
</g>
<path d="M26.9317 115.248V106.99L31.8595 109.834V118.092L26.9317 115.248Z" fill="#E0E0E0"/>
<path d="M31.8596 109.834L39.2587 105.566V113.824L31.8596 118.092V109.834Z" fill="#EBEBEB"/>
<path d="M34.3259 102.718L26.9317 106.991L31.8595 109.834L39.2587 105.566L34.3259 102.718Z" fill="#FAFAFA"/>
<path d="M35.5616 116.528V103.109L40.4895 105.953V119.377L35.5616 116.528Z" fill="#005CB5"/>
<g opacity="0.6">
<path opacity="0.6" d="M35.5616 116.528V103.109L40.4895 105.953V119.377L35.5616 116.528Z" fill="white"/>
</g>
<path d="M40.4895 105.953L45.4223 103.109V116.528L40.4895 119.377V105.953Z" fill="#005CB5"/>
<g opacity="0.7">
<path opacity="0.7" d="M40.4895 105.953L45.4223 103.109V116.528L40.4895 119.377V105.953Z" fill="white"/>
</g>
<path d="M40.4895 100.261L35.5616 103.11L40.4895 105.953L45.4223 103.11L40.4895 100.261Z" fill="#005CB5"/>
<g opacity="0.9">
<path opacity="0.9" d="M40.4895 100.261L35.5616 103.11L40.4895 105.953L45.4223 103.11L40.4895 100.261Z" fill="white"/>
</g>
<path d="M42.3704 121.208V106.971L47.3032 109.819V124.052L42.3704 121.208Z" fill="#263238"/>
<path d="M47.303 109.819L52.2507 106.971V121.208L47.303 124.052V109.819Z" fill="#37474F"/>
<path d="M47.318 104.127L42.3704 106.971L47.3032 109.819L52.2508 106.971L47.318 104.127Z" fill="#455A64"/>
<path d="M38.2863 123.645V115.104L43.219 117.953V126.493L38.2863 123.645Z" fill="#E0E0E0"/>
<path d="M43.2191 117.952L50.6133 113.68V122.22L43.2191 126.493V117.952Z" fill="#EBEBEB"/>
<path d="M45.6854 110.836L38.2863 115.104L43.219 117.953L50.6133 113.68L45.6854 110.836Z" fill="#FAFAFA"/>
<path d="M46.7373 116.851L46.0078 116.449V128.449C46.9233 128.466 47.8283 128.251 48.638 127.823L53.2432 125.163C54.8473 124.117 56.0261 122.534 56.5682 120.697L59.3224 109.685L46.7373 116.851Z" fill="#005CB5"/>
<g opacity="0.15">
<path opacity="0.15" d="M46.7373 116.851L46.0078 116.449V128.449C46.9233 128.466 47.8283 128.251 48.638 127.823L53.2432 125.163C54.8473 124.117 56.0261 122.534 56.5682 120.697L59.3224 109.685L46.7373 116.851Z" fill="black"/>
</g>
<path d="M58.2605 107.933L38.9313 96.7028C38.1183 96.288 37.2187 96.0718 36.3061 96.0718C35.3934 96.0718 34.4938 96.288 33.6809 96.7028L24.1378 102.201C23.3786 102.638 23.0213 103.224 23.061 103.794C23.1026 104.107 23.2234 104.403 23.4119 104.656C23.6003 104.909 23.8502 105.109 24.1378 105.238L43.5365 116.434C44.3504 116.848 45.2508 117.064 46.1642 117.064C47.0776 117.064 47.978 116.848 48.7919 116.434L58.2555 110.975C59.6897 110.136 59.6897 108.777 58.2605 107.933ZM57.6501 109.918L48.1864 115.377C47.5565 115.684 46.865 115.844 46.1642 115.844C45.4634 115.844 44.7719 115.684 44.142 115.377L24.7482 104.186C24.664 104.141 24.5843 104.088 24.51 104.028C24.3165 103.869 24.2669 103.75 24.2669 103.72C24.2669 103.69 24.3512 103.482 24.7631 103.253L34.3012 97.7449C34.9275 97.4348 35.617 97.2734 36.316 97.2734C37.0149 97.2734 37.7044 97.4348 38.3308 97.7449L57.6848 108.97C58.0421 109.179 58.1811 109.382 58.1811 109.437C58.1811 109.491 58.0123 109.71 57.6501 109.923V109.918Z" fill="#005CB5"/>
<g opacity="0.5">
<path opacity="0.5" d="M58.2605 107.933L38.9313 96.7028C38.1183 96.288 37.2187 96.0718 36.3061 96.0718C35.3934 96.0718 34.4938 96.288 33.6809 96.7028L24.1378 102.201C23.3786 102.638 23.0213 103.224 23.061 103.794C23.1026 104.107 23.2234 104.403 23.4119 104.656C23.6003 104.909 23.8502 105.109 24.1378 105.238L43.5365 116.434C44.3504 116.848 45.2508 117.064 46.1642 117.064C47.0776 117.064 47.978 116.848 48.7919 116.434L58.2555 110.975C59.6897 110.136 59.6897 108.777 58.2605 107.933ZM57.6501 109.918L48.1864 115.377C47.5565 115.684 46.865 115.844 46.1642 115.844C45.4634 115.844 44.7719 115.684 44.142 115.377L24.7482 104.186C24.664 104.141 24.5843 104.088 24.51 104.028C24.3165 103.869 24.2669 103.75 24.2669 103.72C24.2669 103.69 24.3512 103.482 24.7631 103.253L34.3012 97.7449C34.9275 97.4348 35.617 97.2734 36.316 97.2734C37.0149 97.2734 37.7044 97.4348 38.3308 97.7449L57.6848 108.97C58.0421 109.179 58.1811 109.382 58.1811 109.437C58.1811 109.491 58.0123 109.71 57.6501 109.923V109.918Z" fill="white"/>
</g>
<path d="M43.5365 116.434L24.1379 105.239C23.8502 105.109 23.6003 104.909 23.4119 104.656C23.2234 104.404 23.1026 104.107 23.061 103.794L23.7557 113.516C23.8737 114.435 24.1901 115.316 24.6828 116.1C25.1755 116.885 25.8328 117.552 26.6092 118.057L43.5365 127.833C44.3447 128.266 45.2501 128.485 46.1667 128.468V117.054C45.2517 117.073 44.3469 116.859 43.5365 116.434ZM30.1376 117.228C29.8152 117.146 29.5181 116.985 29.2731 116.76C29.028 116.535 28.8425 116.252 28.7332 115.938L27.0658 111.139C26.8425 110.504 27.1154 110.057 27.6712 110.147C27.9942 110.226 28.2921 110.385 28.5375 110.61C28.7829 110.834 28.968 111.117 29.0756 111.432L30.743 116.236C30.9713 116.861 30.6984 117.308 30.1426 117.228H30.1376ZM35.5964 120.399C35.2744 120.316 34.9777 120.155 34.7328 119.93C34.4878 119.705 34.3021 119.423 34.192 119.109L32.5246 114.31C32.3062 113.675 32.5742 113.223 33.13 113.318C33.4519 113.401 33.7483 113.563 33.9932 113.788C34.2381 114.012 34.424 114.294 34.5344 114.608L36.2019 119.412C36.45 120.027 36.177 120.464 35.6212 120.399H35.5964ZM41.0552 123.57C40.7339 123.487 40.4381 123.325 40.194 123.1C39.9499 122.875 39.765 122.594 39.6558 122.28L38.0281 117.486C37.8097 116.851 38.0827 116.399 38.6385 116.494C38.9605 116.577 39.2572 116.738 39.5021 116.963C39.7471 117.188 39.9328 117.47 40.0429 117.784L41.7103 122.588C41.9287 123.198 41.6557 123.65 41.0999 123.57H41.0552Z" fill="#005CB5"/>
<path d="M34.8073 100.048L47.8737 92.574L45.5959 100.569L46.9606 101.363C47.0053 101.288 48.8017 93.889 49.3129 91.7601C49.3467 91.5891 49.3289 91.4119 49.2617 91.2511C49.1946 91.0903 49.0811 90.9531 48.9357 90.8569C48.775 90.7726 48.5962 90.7285 48.4146 90.7285C48.2331 90.7285 48.0543 90.7726 47.8936 90.8569L34.1373 98.797C33.8184 99.0083 33.5832 99.3242 33.4724 99.6903L30.8025 108.945L32.1325 109.715L34.8073 100.048Z" fill="#37474F"/>
<path d="M49.6307 91.2637C49.4711 91.1842 49.2953 91.1428 49.117 91.1428C48.9388 91.1428 48.7629 91.1842 48.6034 91.2637L34.4303 99.3924C34.2807 99.4862 34.1605 99.6202 34.0833 99.779C34.006 99.9378 33.975 100.115 33.9936 100.291L35.7801 111.734L37.1101 112.523L35.3732 100.499L49.0947 92.559L50.5835 103.477L51.9134 104.246L50.2162 92.1769C50.1859 91.9928 50.1184 91.8169 50.0177 91.6599C49.917 91.5028 49.7853 91.3681 49.6307 91.2637Z" fill="#455A64"/>
<path d="M35.7802 112.524C35.7934 112.755 35.8605 112.98 35.9759 113.18C36.0913 113.381 36.252 113.552 36.4451 113.68C36.8124 113.898 37.1101 113.725 37.1101 113.298V112.524L35.7802 111.754V112.524Z" fill="#455A64"/>
<path d="M30.8124 109.715C30.8257 109.946 30.8927 110.171 31.0081 110.372C31.1236 110.572 31.2842 110.744 31.4774 110.871C31.8446 111.09 32.1423 110.916 32.1423 110.489V109.715L30.8124 108.946V109.715Z" fill="#37474F"/>
<path d="M42.7079 93.8546C42.6483 94.3161 42.9907 95.4079 43.6458 95.7205L44.9708 94.9563C46.41 97.115 45.6904 97.8544 42.4598 98.8023C40.9114 99.2588 39.9785 100.112 38.986 98.4053C38.3427 97.2025 37.7984 95.9495 37.3582 94.6585C36.862 93.3484 36.068 91.6463 35.4526 89.9987C33.9341 85.9145 33.7455 85.3835 32.9366 82.7285C31.6364 78.4806 31.1352 77.1307 31.6364 75.4881C32.743 71.1757 36.455 63.7566 37.79 60.2927C39.3085 56.3227 41.9288 54.9381 44.7376 54.8984C45.7797 56.2433 45.6308 61.5036 44.3555 64.7342C42.9907 67.6076 38.7378 76.5104 38.7378 76.5104C38.7378 77.2895 40.0926 86.4356 40.966 89.2146C41.1233 89.7034 41.4556 90.1169 41.899 90.3758C42.8745 91.0611 43.7598 91.8664 44.5341 92.7728" fill="#FFA8A7"/>
<path d="M45.2287 54.8733C42.7474 54.655 40.7624 55.2306 39.224 57.3546C37.6856 59.4786 33.1101 70.3069 32.1424 73.2646C31.1747 76.2223 31.1201 76.793 31.8596 79.7705C32.5952 82.3398 33.4682 84.8677 34.4748 87.3434C36.468 86.9889 38.3709 86.2416 40.0726 85.145L39.1793 76.5052L44.6382 64.987C44.6382 64.987 47.05 59.424 45.2287 54.8733Z" fill="#00407E"/>
<path d="M49.6653 52.2036C49.6653 51.3004 46.658 49.1367 45.1493 46.8539C43.7499 44.7349 41.7946 38.9138 46.4247 37.0479C46.4247 37.0479 45.4322 34.249 47.2435 32.5816C49.0549 30.9142 51.5064 31.9514 51.8935 32.6411C52.1278 31.7846 52.6308 31.0259 53.3284 30.4765C54.0261 29.9271 54.8816 29.6161 55.7692 29.5892C56.6385 29.525 57.5017 29.7768 58.2002 30.2984C58.8986 30.8199 59.3852 31.576 59.5706 32.4278C60.3036 32.1078 61.1245 32.0506 61.8948 32.2658C62.6651 32.4809 63.3376 32.9553 63.7987 33.6089C65.4959 35.9512 63.2429 38.0752 63.2429 38.0752C63.5343 38.2689 63.7682 38.5374 63.9201 38.8526C64.072 39.1678 64.1364 39.518 64.1063 39.8666C63.9724 40.8592 63.0195 41.1023 62.9104 41.5986C62.8952 41.7009 62.9123 41.8054 62.9594 41.8975C63.0065 41.9896 63.0812 42.0647 63.173 42.1122C63.2649 42.1598 63.3693 42.1775 63.4717 42.1628C63.5741 42.1481 63.6693 42.1018 63.7441 42.0303C63.7198 42.1599 63.6699 42.2834 63.5973 42.3935C63.5248 42.5036 63.431 42.5981 63.3215 42.6716C63.212 42.745 63.089 42.7959 62.9596 42.8213C62.8302 42.8467 62.6971 42.846 62.5679 42.8194C61.496 42.7648 60.5432 41.3306 60.5432 41.3306L49.6653 52.2036Z" fill="#263238"/>
<path d="M59.3919 36.7551C60.7666 37.3457 62.0668 39.4448 62.0469 45.3056C62.0469 50.2682 60.5085 51.5337 59.7344 51.9009C58.9602 52.2681 57.4665 52.0845 56.0025 51.8612V54.5013C56.0025 54.5013 57.5707 56.5359 54.8264 56.6401C53.8765 56.6493 52.9342 56.4698 52.0542 56.112C51.1742 55.7543 50.374 55.2253 49.7 54.5559L49.5958 48.3278C49.5958 48.3278 48.7522 49.2112 47.2733 47.9159C46.0526 46.844 45.6158 45.0128 46.529 44.0054C47.4421 42.998 48.6232 42.9186 49.6901 44.0451C51.6297 43.6718 53.4733 42.9087 55.1092 41.8021C57.0282 40.6075 58.5256 38.8429 59.3919 36.7551Z" fill="#FFA8A7"/>
<path d="M59.8733 42.9637C59.8679 43.0519 59.8802 43.1402 59.9094 43.2236C59.9385 43.307 59.984 43.3837 60.0431 43.4493C60.1023 43.5149 60.1739 43.5681 60.2538 43.6057C60.3337 43.6433 60.4203 43.6646 60.5085 43.6684C60.6448 43.6783 60.7809 43.6471 60.8993 43.579C61.0177 43.5108 61.1131 43.4088 61.1731 43.2861C61.2331 43.1633 61.255 43.0255 61.236 42.8902C61.217 42.7549 61.1579 42.6283 61.0665 42.5269C60.975 42.4254 60.8552 42.3536 60.7226 42.3207C60.59 42.2878 60.4506 42.2953 60.3223 42.3423C60.194 42.3893 60.0827 42.4736 60.0027 42.5843C59.9227 42.695 59.8776 42.8272 59.8733 42.9637Z" fill="#263238"/>
<path d="M54.5682 43.3204C54.5692 43.4595 54.6111 43.5951 54.6887 43.7106C54.7662 43.8261 54.8759 43.9162 55.0042 43.9698C55.1326 44.0234 55.2738 44.0381 55.4104 44.0121C55.547 43.9862 55.673 43.9206 55.7727 43.8236C55.8724 43.7266 55.9413 43.6025 55.9711 43.4667C56.0008 43.3308 55.9899 43.1892 55.9398 43.0595C55.8898 42.9297 55.8027 42.8176 55.6894 42.7369C55.5761 42.6562 55.4416 42.6106 55.3026 42.6058C55.2075 42.6045 55.113 42.6219 55.0246 42.6571C54.9362 42.6923 54.8556 42.7446 54.7874 42.811C54.7192 42.8773 54.6647 42.9565 54.6271 43.0439C54.5895 43.1313 54.5695 43.2252 54.5682 43.3204Z" fill="#263238"/>
<path d="M55.7543 47.772L58.2951 48.561C58.2601 48.7362 58.1893 48.9023 58.087 49.0487C57.9847 49.1952 57.8532 49.319 57.7008 49.4122C57.5484 49.5054 57.3784 49.5661 57.2014 49.5904C57.0244 49.6147 56.8443 49.6022 56.6724 49.5535C56.3208 49.43 56.0298 49.1766 55.859 48.8453C55.6883 48.5141 55.6509 48.13 55.7543 47.772Z" fill="#F28F8F"/>
<path d="M61.5209 41.6235L59.7145 41.3456C59.7268 41.2252 59.764 41.1087 59.8238 41.0034C59.8835 40.8981 59.9645 40.8064 60.0615 40.7341C60.1586 40.6618 60.2696 40.6104 60.3876 40.5833C60.5055 40.5561 60.6278 40.5538 60.7468 40.5764C60.9857 40.6179 61.1995 40.7499 61.3436 40.9449C61.4878 41.1399 61.5513 41.3829 61.5209 41.6235Z" fill="#263238"/>
<path d="M49.3427 43.4051L50.2607 46.0253C50.4287 45.9711 50.5837 45.8831 50.7164 45.7667C50.8491 45.6504 50.9566 45.5082 51.0324 45.3488C51.1081 45.1894 51.1505 45.0162 51.1569 44.8398C51.1633 44.6634 51.1336 44.4876 51.0696 44.3232C50.9524 43.9793 50.7086 43.693 50.3878 43.5225C50.067 43.3519 49.6933 43.31 49.3427 43.4051Z" fill="#263238"/>
<path d="M57.6998 41.7273V46.9231L60.2753 46.1192L57.6998 41.7273Z" fill="#F28F8F"/>
<path d="M56.0026 51.8613C54.4642 51.6827 51.0797 50.7051 50.5438 49.4148C50.5854 49.7753 50.704 50.1227 50.8915 50.4335C51.079 50.7443 51.331 51.0112 51.6306 51.2162C52.8017 52.1244 55.9877 52.8241 55.9877 52.8241L56.0026 51.8613Z" fill="#F28F8F"/>
<path d="M69.0447 21.902L67.0795 23.4473L65.637 25.9809L65.2513 30.991L67.9106 37.9321L65.6512 48.4865L75.9885 41.2484L81.9413 39.1118L87.4398 38.9861L99.4367 38.7119L104.401 37.098L107.332 34.0303L108.774 31.4967L108.649 25.9981L106.592 23.5444L99.014 20.2167L73.9977 19.7882L69.0447 21.902Z" fill="white"/>
<path d="M78.0443 32.4932V26.675H78.9221V29.2034H81.8227V26.675H82.7034V32.4932H81.8227V29.9562H78.9221V32.4932H78.0443ZM85.6423 32.5812C85.2124 32.5812 84.8421 32.4894 84.5315 32.3057C84.2228 32.1201 83.9841 31.8596 83.8156 31.5244C83.6489 31.1873 83.5656 30.7924 83.5656 30.3398C83.5656 29.8928 83.6489 29.4988 83.8156 29.1579C83.9841 28.817 84.219 28.5509 84.5201 28.3596C84.8231 28.1684 85.1773 28.0727 85.5826 28.0727C85.8288 28.0727 86.0675 28.1134 86.2985 28.1949C86.5296 28.2763 86.737 28.4041 86.9207 28.5784C87.1044 28.7526 87.2493 28.979 87.3553 29.2574C87.4614 29.5339 87.5144 29.8701 87.5144 30.2659V30.567H84.0457V29.9307H86.6821C86.6821 29.7072 86.6366 29.5093 86.5457 29.3369C86.4548 29.1627 86.3269 29.0254 86.1622 28.925C85.9993 28.8246 85.808 28.7744 85.5883 28.7744C85.3497 28.7744 85.1413 28.8331 84.9633 28.9506C84.7872 29.0661 84.6508 29.2176 84.5542 29.4051C84.4595 29.5907 84.4122 29.7924 84.4122 30.0102V30.5074C84.4122 30.799 84.4633 31.0471 84.5656 31.2517C84.6697 31.4562 84.8146 31.6125 85.0002 31.7204C85.1858 31.8265 85.4027 31.8795 85.6508 31.8795C85.8118 31.8795 85.9586 31.8568 86.0911 31.8113C86.2237 31.764 86.3383 31.6939 86.4349 31.6011C86.5315 31.5083 86.6053 31.3937 86.6565 31.2574L87.4605 31.4023C87.3961 31.639 87.2805 31.8464 87.1139 32.0244C86.9491 32.2006 86.7417 32.3379 86.4917 32.4363C86.2436 32.5329 85.9605 32.5812 85.6423 32.5812ZM89.1543 26.675V32.4932H88.3049V26.675H89.1543ZM90.9945 26.675V32.4932H90.1451V26.675H90.9945ZM93.8234 32.5812C93.4143 32.5812 93.0573 32.4875 92.7523 32.3C92.4474 32.1125 92.2107 31.8502 92.0421 31.5131C91.8735 31.1759 91.7893 30.782 91.7893 30.3312C91.7893 29.8786 91.8735 29.4827 92.0421 29.1437C92.2107 28.8047 92.4474 28.5415 92.7523 28.354C93.0573 28.1665 93.4143 28.0727 93.8234 28.0727C94.2324 28.0727 94.5895 28.1665 94.8944 28.354C95.1993 28.5415 95.436 28.8047 95.6046 29.1437C95.7732 29.4827 95.8574 29.8786 95.8574 30.3312C95.8574 30.782 95.7732 31.1759 95.6046 31.5131C95.436 31.8502 95.1993 32.1125 94.8944 32.3C94.5895 32.4875 94.2324 32.5812 93.8234 32.5812ZM93.8262 31.8682C94.0913 31.8682 94.311 31.7981 94.4853 31.6579C94.6595 31.5178 94.7883 31.3312 94.8716 31.0983C94.9569 30.8653 94.9995 30.6087 94.9995 30.3284C94.9995 30.05 94.9569 29.7943 94.8716 29.5613C94.7883 29.3265 94.6595 29.1381 94.4853 28.996C94.311 28.854 94.0913 28.7829 93.8262 28.7829C93.5591 28.7829 93.3376 28.854 93.1614 28.996C92.9872 29.1381 92.8574 29.3265 92.7722 29.5613C92.6889 29.7943 92.6472 30.05 92.6472 30.3284C92.6472 30.6087 92.6889 30.8653 92.7722 31.0983C92.8574 31.3312 92.9872 31.5178 93.1614 31.6579C93.3376 31.7981 93.5591 31.8682 93.8262 31.8682Z" fill="#00AF17"/>
<path d="M158.095 19.902L160.06 21.4473L161.503 23.9809L161.889 28.991L159.229 35.9321L161.489 46.4865L151.151 39.2484L145.199 37.1118L139.7 36.9861L127.703 36.7119L122.739 35.098L119.808 32.0303L118.366 29.4967L118.491 23.9981L120.548 21.5444L128.126 18.2167L153.142 17.7882L158.095 19.902Z" fill="white"/>
<path d="M134.854 30.04C134.427 30.04 134.099 29.992 133.87 29.896C133.646 29.8 133.491 29.6507 133.406 29.448C133.321 29.2453 133.273 28.984 133.262 28.664L133.102 24.288H133.758L133.918 28.408C133.929 28.6693 133.953 28.872 133.99 29.016C134.033 29.1547 134.123 29.2507 134.262 29.304C134.406 29.3573 134.63 29.384 134.934 29.384C135.046 29.384 135.126 29.416 135.174 29.48C135.227 29.5387 135.254 29.6107 135.254 29.696C135.254 29.7813 135.217 29.8613 135.142 29.936C135.067 30.0053 134.971 30.04 134.854 30.04ZM134.702 30.04L134.782 29.384C135.006 29.384 135.182 29.3653 135.31 29.328C135.438 29.2853 135.534 29.208 135.598 29.096C135.667 28.9787 135.726 28.8107 135.774 28.592C135.822 28.3733 135.881 28.088 135.95 27.736L136.574 27.856C136.553 27.952 136.529 28.0587 136.502 28.176C136.475 28.2933 136.451 28.4107 136.43 28.528C136.414 28.64 136.406 28.7387 136.406 28.824C136.406 28.9307 136.43 29.0267 136.478 29.112C136.526 29.1973 136.63 29.264 136.79 29.312C136.95 29.36 137.195 29.384 137.526 29.384C137.638 29.384 137.718 29.416 137.766 29.48C137.819 29.5387 137.846 29.6107 137.846 29.696C137.846 29.7813 137.809 29.8613 137.734 29.936C137.659 30.0053 137.563 30.04 137.446 30.04C137.099 30.04 136.827 30.0107 136.63 29.952C136.433 29.888 136.289 29.7947 136.198 29.672C136.107 29.544 136.046 29.3893 136.014 29.208L136.254 29.224C136.169 29.3947 136.075 29.5333 135.974 29.64C135.878 29.7467 135.771 29.8293 135.654 29.888C135.537 29.9467 135.401 29.9867 135.246 30.008C135.091 30.0293 134.91 30.04 134.702 30.04ZM136.062 31.528C135.95 31.528 135.854 31.488 135.774 31.408C135.699 31.3333 135.662 31.2427 135.662 31.136C135.662 31.0293 135.699 30.936 135.774 30.856C135.854 30.776 135.95 30.736 136.062 30.736C136.169 30.736 136.259 30.776 136.334 30.856C136.414 30.936 136.454 31.0293 136.454 31.136C136.454 31.2427 136.414 31.3333 136.334 31.408C136.259 31.488 136.169 31.528 136.062 31.528ZM137.292 30.04L137.364 29.384C137.642 29.384 137.914 29.3627 138.18 29.32C138.447 29.2773 138.708 29.216 138.964 29.136C139.22 29.056 139.466 28.96 139.7 28.848C139.94 28.7307 140.167 28.5973 140.38 28.448C140.242 28.3253 140.082 28.2187 139.9 28.128C139.719 28.0373 139.519 27.968 139.3 27.92C139.087 27.8667 138.86 27.84 138.62 27.84C138.535 27.84 138.455 27.8427 138.38 27.848C138.306 27.8533 138.231 27.864 138.156 27.88C138.082 27.8907 137.996 27.9067 137.9 27.928L137.772 27.32C137.916 27.2773 138.06 27.2453 138.204 27.224C138.348 27.1973 138.487 27.184 138.62 27.184C138.898 27.184 139.148 27.2187 139.372 27.288C139.596 27.352 139.799 27.432 139.98 27.528C140.167 27.624 140.34 27.72 140.5 27.816C140.666 27.912 140.826 27.9947 140.98 28.064C141.135 28.128 141.295 28.16 141.46 28.16H141.628L141.684 28.736C141.455 28.736 141.244 28.768 141.052 28.832C140.86 28.896 140.671 28.9787 140.484 29.08C140.303 29.176 140.111 29.28 139.908 29.392C139.706 29.4987 139.482 29.6027 139.236 29.704C138.991 29.8 138.708 29.88 138.388 29.944C138.074 30.008 137.708 30.04 137.292 30.04ZM141.563 31.856L141.331 31.248C141.72 31.12 142.043 30.9733 142.299 30.808C142.56 30.6427 142.766 30.4667 142.915 30.28C143.07 30.0933 143.179 29.904 143.243 29.712C143.307 29.5147 143.339 29.3253 143.339 29.144C143.339 28.8827 143.28 28.6187 143.163 28.352C143.051 28.08 142.926 27.824 142.787 27.584L143.371 27.288C143.472 27.4747 143.56 27.6587 143.635 27.84C143.715 28.0213 143.784 28.192 143.843 28.352C143.907 28.512 143.958 28.6587 143.995 28.792C144.07 29.0213 144.166 29.1787 144.283 29.264C144.406 29.344 144.571 29.384 144.779 29.384C144.891 29.384 144.971 29.416 145.019 29.48C145.072 29.5387 145.099 29.6107 145.099 29.696C145.099 29.7813 145.062 29.8613 144.987 29.936C144.912 30.0053 144.816 30.04 144.699 30.04C144.464 30.04 144.272 30 144.123 29.92C143.979 29.8347 143.87 29.7253 143.795 29.592C143.72 29.4533 143.67 29.3093 143.643 29.16L143.899 29.304C143.899 29.656 143.819 29.976 143.659 30.264C143.504 30.5573 143.304 30.8107 143.059 31.024C142.814 31.2427 142.558 31.4213 142.291 31.56C142.024 31.6987 141.782 31.7973 141.563 31.856ZM144.551 30.04L144.631 29.384C144.78 29.384 144.905 29.352 145.007 29.288C145.108 29.224 145.207 29.1173 145.303 28.968C145.399 28.8187 145.503 28.6187 145.615 28.368C145.769 28.0267 145.921 27.768 146.071 27.592C146.225 27.416 146.377 27.296 146.527 27.232C146.681 27.168 146.833 27.136 146.983 27.136C147.164 27.136 147.332 27.184 147.487 27.28C147.641 27.3707 147.777 27.4933 147.895 27.648C148.012 27.8027 148.103 27.9733 148.167 28.16C148.236 28.3413 148.271 28.5227 148.271 28.704C148.271 29.024 148.215 29.28 148.103 29.472C147.991 29.6587 147.847 29.7947 147.671 29.88C147.5 29.96 147.321 30 147.135 30C146.969 30 146.756 29.968 146.495 29.904C146.239 29.84 145.913 29.6773 145.519 29.416L145.831 28.912C146.092 29.0773 146.327 29.192 146.535 29.256C146.748 29.3147 146.924 29.344 147.063 29.344C147.217 29.344 147.34 29.3227 147.431 29.28C147.521 29.232 147.588 29.1653 147.631 29.08C147.673 28.9947 147.695 28.8987 147.695 28.792C147.695 28.6373 147.657 28.4827 147.583 28.328C147.508 28.1733 147.412 28.0453 147.295 27.944C147.183 27.8427 147.063 27.792 146.935 27.792C146.839 27.792 146.745 27.8187 146.655 27.872C146.564 27.9253 146.471 28.024 146.375 28.168C146.279 28.312 146.169 28.52 146.047 28.792C145.919 29.08 145.796 29.3093 145.679 29.48C145.567 29.6453 145.452 29.768 145.335 29.848C145.217 29.928 145.095 29.9787 144.967 30C144.844 30.0267 144.705 30.04 144.551 30.04Z" fill="#00AF17"/>
<path d="M111.103 198.708C111.103 198.708 120.516 198.998 128.289 194.727C136.062 190.456 141.297 183.7 142.47 176.775C143.644 169.85 138.757 163.288 134.264 170.162C129.771 177.036 124.613 189.714 110.017 193.518L111.103 198.708Z" fill="#00AF17"/>
<path opacity="0.15" d="M111.103 198.708C111.103 198.708 120.516 198.998 128.289 194.727C136.062 190.456 141.297 183.7 142.47 176.775C143.644 169.85 138.757 163.288 134.264 170.162C129.771 177.036 124.613 189.714 110.017 193.518L111.103 198.708Z" fill="black"/>
<path d="M113.722 197.053L113.726 197.129C113.749 197.227 113.803 197.31 113.877 197.362C113.95 197.414 114.038 197.429 114.119 197.405C130.252 192.563 138.093 179.583 139.985 173.36C140.011 173.266 140.006 173.162 139.97 173.071C139.933 172.98 139.868 172.908 139.789 172.871C139.75 172.853 139.709 172.844 139.667 172.845C139.626 172.846 139.585 172.857 139.547 172.877C139.509 172.897 139.476 172.926 139.448 172.962C139.42 172.998 139.399 173.04 139.385 173.087C137.535 179.16 129.834 191.886 113.955 196.679C113.886 196.701 113.825 196.749 113.783 196.817C113.741 196.885 113.719 196.968 113.722 197.053Z" fill="white"/>
<path d="M120.327 168.723C119.248 169.018 118.536 170.19 117.953 171.299C117.37 172.408 116.72 173.608 115.696 174.042C113.589 174.907 111.212 172.14 109.143 173.117C108.723 173.36 108.351 173.704 108.049 174.126C107.747 174.548 107.521 175.041 107.387 175.573C107.146 176.449 106.944 177.34 106.781 178.242C106.724 178.674 106.69 179.111 106.678 179.55C106.652 180.832 106.502 182.197 105.794 183.216C104.677 184.816 102.688 184.922 101.038 185.688C100.066 186.162 99.1955 186.882 98.488 187.8C97.7804 188.717 97.2521 189.809 96.9397 191.002C96.4152 192.984 96.3385 196.127 97.0424 196.83C97.5603 197.342 99.4851 196.57 100.163 196.703C101.896 197.032 103.647 197.168 105.395 197.11C106.188 197.042 106.987 197.09 107.775 197.251C108.655 197.464 109.54 197.687 110.418 197.862C111.376 198.075 112.082 198.511 113.103 198.323C114.072 198.084 115.002 197.674 115.862 197.106C116.724 196.603 117.586 196.09 118.446 195.569C119.477 194.997 120.442 194.275 121.318 193.42C122.054 192.636 122.643 191.679 123.05 190.608C123.458 189.537 123.674 188.373 123.686 187.189C123.694 185.233 123.062 183.175 123.423 181.213C123.784 179.252 124.473 177.569 124.646 175.603C124.822 173.55 124.381 171.316 123.091 169.816C122.736 169.381 122.299 169.054 121.817 168.863C121.335 168.673 120.823 168.624 120.327 168.723Z" fill="#00AF17"/>
<path opacity="0.3" d="M120.327 168.723C119.248 169.018 118.536 170.19 117.953 171.299C117.37 172.408 116.72 173.608 115.696 174.042C113.589 174.907 111.212 172.14 109.143 173.117C108.723 173.36 108.351 173.704 108.049 174.126C107.747 174.548 107.521 175.041 107.387 175.573C107.146 176.449 106.944 177.34 106.781 178.242C106.724 178.674 106.69 179.111 106.678 179.55C106.652 180.832 106.502 182.197 105.794 183.216C104.677 184.816 102.688 184.922 101.038 185.688C100.066 186.162 99.1955 186.882 98.488 187.8C97.7804 188.717 97.2521 189.809 96.9397 191.002C96.4152 192.984 96.3385 196.127 97.0424 196.83C97.5603 197.342 99.4851 196.57 100.163 196.703C101.896 197.032 103.647 197.168 105.395 197.11C106.188 197.042 106.987 197.09 107.775 197.251C108.655 197.464 109.54 197.687 110.418 197.862C111.376 198.075 112.082 198.511 113.103 198.323C114.072 198.084 115.002 197.674 115.862 197.106C116.724 196.603 117.586 196.09 118.446 195.569C119.477 194.997 120.442 194.275 121.318 193.42C122.054 192.636 122.643 191.679 123.05 190.608C123.458 189.537 123.674 188.373 123.686 187.189C123.694 185.233 123.062 183.175 123.423 181.213C123.784 179.252 124.473 177.569 124.646 175.603C124.822 173.55 124.381 171.316 123.091 169.816C122.736 169.381 122.299 169.054 121.817 168.863C121.335 168.673 120.823 168.624 120.327 168.723Z" fill="black"/>
<path d="M114.322 191.019C114.359 190.995 114.39 190.959 114.412 190.915C120.091 184.687 122.083 175.93 122.267 173.043C122.274 173.001 122.274 172.959 122.266 172.917C122.258 172.876 122.242 172.837 122.221 172.802C122.199 172.768 122.172 172.74 122.14 172.719C122.109 172.698 122.074 172.685 122.039 172.681C122.003 172.677 121.968 172.682 121.934 172.695C121.9 172.709 121.87 172.731 121.844 172.76C121.819 172.789 121.799 172.824 121.786 172.863C121.773 172.902 121.767 172.944 121.769 172.986C121.593 175.721 119.759 183.836 114.6 189.885C114.942 187.68 114.894 185.405 114.458 183.203C114.022 181.001 113.208 178.921 112.068 177.093C112.047 177.062 112.021 177.037 111.992 177.018C111.962 177 111.93 176.988 111.898 176.985C111.865 176.981 111.832 176.986 111.801 176.998C111.77 177.01 111.741 177.029 111.717 177.055C111.686 177.084 111.662 177.123 111.647 177.166C111.632 177.21 111.626 177.258 111.631 177.305C111.636 177.366 111.657 177.424 111.692 177.47C112.852 179.35 113.657 181.499 114.051 183.767C114.444 186.035 114.417 188.367 113.97 190.599C110.615 194.242 106.321 196.451 101.748 196.888C101.686 196.895 101.628 196.929 101.588 196.984C101.547 197.039 101.525 197.111 101.528 197.185C101.535 197.263 101.568 197.335 101.619 197.386C101.67 197.437 101.735 197.462 101.801 197.457C106.488 197.018 110.888 194.755 114.322 191.019Z" fill="white"/>
</svg>
